<?xml version="1.0" encoding="UTF-8" standalone="no"?>
<!DOCTYPE svg PUBLIC "-//W3C//DTD SVG 1.1//EN" "http://www.w3.org/Graphics/SVG/1.1/DTD/svg11.dtd">
<svg width="100%" height="100%" viewBox="0 0 2650 567" version="1.1" xmlns="http://www.w3.org/2000/svg" xmlns:xlink="http://www.w3.org/1999/xlink" xml:space="preserve" xmlns:serif="http://www.serif.com/" style="fill-rule:evenodd;clip-rule:evenodd;stroke-linejoin:round;stroke-miterlimit:2;">
    <rect id="Logo-Horizontal-Dark-Cut" serif:id="Logo Horizontal Dark Cut" x="0" y="-0" width="2650" height="566.667" style="fill:none;"/>
    <clipPath id="_clip1">
        <rect x="0" y="-0" width="2650" height="566.667"/>
    </clipPath>
    <g clip-path="url(#_clip1)">
        <rect x="-0" y="-0" width="2916.67" height="729.167" style="fill:#2a1b28;"/>
        <g id="Text-Dark" serif:id="Text Dark">
            <rect x="541.667" y="147.917" width="2133.33" height="266.667" style="fill:#2a1b28;"/>
            <path d="M656.837,267.17c-35.747,-8.431 -55.863,-22.235 -60.533,-41.43c-0.539,-2.683 -0.897,-5.197 -0.897,-7.523c0,-8.792 4.309,-17.042 13.112,-24.753c9.878,-8.61 23.171,-13.985 39.697,-16.136c3.773,-0.542 8.264,-0.717 13.651,-0.717c16.344,-0 36.104,4.48 59.636,13.447l10.417,-26.54c-26.583,-10.404 -49.936,-15.601 -70.235,-15.601c-4.487,-0 -10.596,0.353 -18.32,1.07c-21.014,2.871 -38.798,10.586 -53.527,23.137c-15.448,13.81 -23.171,29.051 -23.171,45.908c-0,5.382 0.539,10.225 1.797,14.709c7.541,30.303 34.667,51.104 81.549,62.407c35.386,8.431 55.503,22.235 60.533,41.781c0.536,3.409 0.897,5.739 0.897,7.172c-0,9.149 -4.67,17.756 -14.012,25.649c-10.596,8.781 -24.607,14.17 -41.67,15.779c-3.772,0.36 -7.187,0.542 -10.599,0.542c-17.605,-0 -39.337,-5.386 -65.202,-15.961l-11.139,26.18c29.098,12.194 54.606,18.293 76.341,18.293c28.559,0 52.091,-7.708 70.593,-23.137c16.344,-14.349 24.428,-30.128 24.428,-47.163c0,-4.662 -0.539,-9.323 -1.618,-13.988c-8.802,-31.021 -35.925,-52.007 -81.728,-63.125" style="fill:#fff;fill-rule:nonzero;"/>
            <path d="M814.331,409.56l171.537,0l0,-29.051l-142.618,0l0,-90.559l110.466,-0l-0,-28.694l-110.466,-0l0,-79.806l142.618,0.182l0,-28.876l-171.537,-0.182l-0,256.986Z" style="fill:#fff;fill-rule:nonzero;"/>
            <path d="M1193.3,367.056c-8.981,8.789 -19.938,13.275 -33.052,13.454l-68.435,0.175l-0,-93.071l66.459,0c13.833,0 25.508,4.662 35.028,13.811c8.982,9.145 13.472,19.905 13.472,32.632c0,12.736 -4.49,23.857 -13.472,32.999m-101.487,-186.141l62.329,0c10.957,0 20.117,3.763 27.662,11.296c7.724,7.708 11.496,17.032 11.496,27.614c0,10.761 -3.772,19.909 -11.496,27.617l0,-0.182c-7.724,7.54 -16.705,11.303 -27.301,11.478l-62.69,0l-0,-77.823Zm100.23,89.483c20.117,-11.66 30.177,-28.509 30.177,-50.573c-0,-18.29 -6.288,-33.891 -19.042,-46.985c-12.753,-13.268 -28.201,-20.084 -46.521,-20.619l-93.943,-0.182l0,257.522l97.716,-0l0.178,-0.182c20.657,-0.178 38.441,-7.526 53.17,-22.057c14.726,-14.88 22.092,-32.636 22.092,-53.265c0,-29.586 -14.547,-50.744 -43.827,-63.659" style="fill:#fff;fill-rule:nonzero;"/>
            <path d="M1386.72,152.398l-111.008,257.161l30.871,0l91.081,-209.995l0.006,0.017l0.007,-0.017l44.903,104.017l-0.074,-0l12.37,28.691l0.101,-0l33.231,77.287l31.253,0l-111.006,-257.161l-21.735,0Z" style="fill:#fff;fill-rule:nonzero;"/>
            <path d="M1661.68,267.17c-35.746,-8.431 -55.859,-22.235 -60.532,-41.43c-0.54,-2.683 -0.9,-5.197 -0.9,-7.523c-0,-8.792 4.315,-17.042 13.114,-24.753c9.882,-8.61 23.172,-13.985 39.695,-16.136c3.772,-0.542 8.266,-0.717 13.654,-0.717c16.344,-0 36.1,4.48 59.635,13.447l10.418,-26.54c-26.583,-10.404 -49.937,-15.601 -70.239,-15.601c-4.487,-0 -10.593,0.353 -18.316,1.07c-21.014,2.871 -38.798,10.586 -53.527,23.137c-15.448,13.81 -23.172,29.051 -23.172,45.908c0,5.382 0.54,10.225 1.797,14.709c7.542,30.303 34.664,51.104 81.55,62.407c35.382,8.431 55.499,22.235 60.529,41.781c0.54,3.409 0.9,5.739 0.9,7.172c0,9.149 -4.669,17.756 -14.011,25.649c-10.603,8.781 -24.611,14.17 -41.67,15.779c-3.776,0.36 -7.188,0.542 -10.603,0.542c-17.602,-0 -39.333,-5.386 -65.202,-15.961l-11.132,26.18c29.095,12.194 54.602,18.293 76.334,18.293c28.562,0 52.091,-7.708 70.596,-23.137c16.341,-14.349 24.429,-30.128 24.429,-47.163c0,-4.662 -0.543,-9.323 -1.622,-13.988c-8.795,-31.021 -35.925,-52.007 -81.725,-63.125" style="fill:#fff;fill-rule:nonzero;"/>
            <path d="M1794.74,181.45l84.608,0l-0,228.11l28.916,0l-0,-228.11l84.607,0l0,-28.876l-198.131,0l0,28.876Z" style="fill:#fff;fill-rule:nonzero;"/>
            <rect x="2056.96" y="154.258" width="28.923" height="255.303" style="fill:#fff;"/>
            <path d="M2248.58,152.398l-111.008,257.161l30.878,0l91.084,-209.995l44.903,104.017l-0.061,-0l12.369,28.691l0.092,-0l33.228,77.287l31.252,0l-111.005,-257.161l-21.732,0Z" style="fill:#fff;fill-rule:nonzero;"/>
            <path d="M2621.26,152.398l-0,204.798l-149.624,-204.973l-25.869,-0l0,255.054l28.744,0l0,-202.512l149.446,204.616l26.04,0l0,-256.983l-28.737,0Z" style="fill:#fff;fill-rule:nonzero;"/>
        </g>
        <g id="Logo">
            <rect x="-129.167" y="-50" width="666.667" height="666.667" style="fill:#2a1b28;"/>
            <g id="Logo-Dark" serif:id="Logo Dark">
                <g>
                    <path d="M204.167,0.491l282.842,282.842l-282.842,282.843l-282.843,-282.843l282.843,-282.842Z" style="fill:#2a1b28;"/>
                </g>
                <g>
                    <path d="M204.167,0.491l30.641,30.641c9.106,9.106 9.106,23.892 -0,32.998l-179.134,179.134c-9.106,9.106 -23.892,9.106 -32.998,-0l-14.142,-14.142c-9.106,-9.106 -9.106,-23.892 -0,-32.999l195.633,-195.632Z" style="fill:#fff;"/>
                </g>
                <g>
                    <path d="M228.523,166.268l14.142,14.142c9.106,9.106 9.106,23.892 -0,32.998l-179.134,179.134c-9.106,9.106 -23.892,9.106 -32.998,0l-30.642,-30.641l195.633,-195.633c9.106,-9.106 23.892,-9.106 32.999,-0Z" style="fill:#fff;"/>
                </g>
                <g>
                    <path d="M377.801,174.125l30.641,30.641l-195.633,195.633c-9.106,9.106 -23.892,9.106 -32.998,-0l-14.142,-14.142c-9.107,-9.106 -9.107,-23.893 -0,-32.999l179.133,-179.133c9.106,-9.107 23.893,-9.107 32.999,-0Z" style="fill:#c50044;"/>
                </g>
                <g>
                    <path d="M385.657,323.403l14.143,14.142c9.106,9.106 9.106,23.892 -0,32.998l-195.633,195.633l-30.642,-30.641c-9.106,-9.106 -9.106,-23.892 0,-32.999l179.134,-179.133c9.106,-9.106 23.892,-9.106 32.998,-0Z" style="fill:#fff;"/>
                </g>
            </g>
        </g>
    </g>
</svg>
