<?xml version="1.0" encoding="UTF-8" standalone="no"?>
<!DOCTYPE svg PUBLIC "-//W3C//DTD SVG 1.1//EN" "http://www.w3.org/Graphics/SVG/1.1/DTD/svg11.dtd">
<svg width="100%" height="100%" viewBox="0 0 2917 730" version="1.1" xmlns="http://www.w3.org/2000/svg" xmlns:xlink="http://www.w3.org/1999/xlink" xml:space="preserve" xmlns:serif="http://www.serif.com/" style="fill-rule:evenodd;clip-rule:evenodd;stroke-linejoin:round;stroke-miterlimit:2;">
    <rect id="Logo-Horizontal-Dark" serif:id="Logo Horizontal Dark" x="0" y="0" width="2916.67" height="729.167" style="fill:none;"/>
    <clipPath id="_clip1">
        <rect x="0" y="0" width="2916.67" height="729.167"/>
    </clipPath>
    <g clip-path="url(#_clip1)">
        <rect x="-0" y="0" width="2916.67" height="729.167" style="fill:#2a1b28;"/>
        <g id="Text-Dark" serif:id="Text Dark">
            <rect x="666.667" y="231.25" width="2133.33" height="266.667" style="fill:#2a1b28;"/>
            <path d="M781.837,350.504c-35.747,-8.432 -55.863,-22.235 -60.533,-41.431c-0.539,-2.683 -0.897,-5.197 -0.897,-7.523c0,-8.792 4.309,-17.041 13.112,-24.753c9.878,-8.61 23.171,-13.985 39.697,-16.136c3.773,-0.542 8.264,-0.717 13.651,-0.717c16.344,0 36.104,4.48 59.636,13.447l10.417,-26.54c-26.583,-10.404 -49.936,-15.601 -70.235,-15.601c-4.487,-0 -10.596,0.353 -18.32,1.07c-21.014,2.871 -38.798,10.586 -53.527,23.138c-15.448,13.81 -23.171,29.051 -23.171,45.907c-0,5.382 0.539,10.226 1.797,14.709c7.541,30.303 34.667,51.104 81.549,62.407c35.386,8.432 55.503,22.235 60.533,41.781c0.536,3.41 0.897,5.739 0.897,7.173c-0,9.148 -4.67,17.755 -14.012,25.648c-10.596,8.782 -24.607,14.17 -41.67,15.779c-3.772,0.36 -7.187,0.542 -10.599,0.542c-17.605,0 -39.337,-5.385 -65.202,-15.961l-11.139,26.18c29.098,12.195 54.606,18.294 76.341,18.294c28.559,-0 52.091,-7.708 70.593,-23.138c16.344,-14.348 24.428,-30.128 24.428,-47.162c0,-4.662 -0.539,-9.324 -1.618,-13.989c-8.802,-31.02 -35.925,-52.007 -81.728,-63.124" style="fill:#fff;fill-rule:nonzero;"/>
            <path d="M939.331,492.894l171.537,-0l0,-29.051l-142.618,-0l0,-90.56l110.466,0l-0,-28.694l-110.466,-0l0,-79.806l142.618,0.182l0,-28.876l-171.537,-0.182l-0,256.987Z" style="fill:#fff;fill-rule:nonzero;"/>
            <path d="M1318.3,450.39c-8.981,8.788 -19.938,13.275 -33.052,13.453l-68.435,0.175l-0,-93.07l66.459,-0c13.833,-0 25.508,4.661 35.028,13.81c8.982,9.145 13.472,19.906 13.472,32.632c0,12.737 -4.49,23.858 -13.472,33m-101.487,-186.141l62.329,-0c10.957,-0 20.117,3.763 27.662,11.296c7.724,7.707 11.496,17.031 11.496,27.613c0,10.761 -3.772,19.91 -11.496,27.618l0,-0.182c-7.724,7.539 -16.705,11.303 -27.301,11.478l-62.69,-0l-0,-77.823Zm100.23,89.482c20.117,-11.659 30.177,-28.509 30.177,-50.573c-0,-18.29 -6.288,-33.891 -19.042,-46.984c-12.753,-13.269 -28.201,-20.085 -46.521,-20.62l-93.943,-0.181l0,257.521l97.716,0l0.178,-0.182c20.657,-0.178 38.441,-7.526 53.17,-22.056c14.726,-14.881 22.092,-32.636 22.092,-53.266c0,-29.586 -14.547,-50.744 -43.827,-63.659" style="fill:#fff;fill-rule:nonzero;"/>
            <path d="M1511.72,235.731l-111.008,257.162l30.871,-0l91.081,-209.995l0.006,0.017l0.007,-0.017l44.903,104.016l-0.074,0l12.37,28.691l0.101,-0l33.231,77.288l31.253,-0l-111.006,-257.162l-21.735,0Z" style="fill:#fff;fill-rule:nonzero;"/>
            <path d="M1786.68,350.504c-35.746,-8.432 -55.859,-22.235 -60.532,-41.431c-0.54,-2.683 -0.9,-5.197 -0.9,-7.523c-0,-8.792 4.315,-17.041 13.114,-24.753c9.882,-8.61 23.172,-13.985 39.695,-16.136c3.772,-0.542 8.266,-0.717 13.654,-0.717c16.344,0 36.1,4.48 59.635,13.447l10.418,-26.54c-26.583,-10.404 -49.937,-15.601 -70.239,-15.601c-4.487,-0 -10.593,0.353 -18.316,1.07c-21.014,2.871 -38.798,10.586 -53.527,23.138c-15.448,13.81 -23.172,29.051 -23.172,45.907c0,5.382 0.54,10.226 1.797,14.709c7.542,30.303 34.664,51.104 81.55,62.407c35.382,8.432 55.499,22.235 60.529,41.781c0.54,3.41 0.9,5.739 0.9,7.173c0,9.148 -4.669,17.755 -14.011,25.648c-10.603,8.782 -24.611,14.17 -41.67,15.779c-3.776,0.36 -7.188,0.542 -10.603,0.542c-17.602,0 -39.333,-5.385 -65.202,-15.961l-11.132,26.18c29.095,12.195 54.602,18.294 76.334,18.294c28.562,-0 52.091,-7.708 70.596,-23.138c16.341,-14.348 24.429,-30.128 24.429,-47.162c0,-4.662 -0.543,-9.324 -1.622,-13.989c-8.795,-31.02 -35.925,-52.007 -81.725,-63.124" style="fill:#fff;fill-rule:nonzero;"/>
            <path d="M1919.74,264.783l84.608,0l-0,228.111l28.916,-0l-0,-228.111l84.607,0l0,-28.876l-198.131,0l0,28.876Z" style="fill:#fff;fill-rule:nonzero;"/>
            <rect x="2181.96" y="237.591" width="28.923" height="255.303" style="fill:#fff;"/>
            <path d="M2373.58,235.731l-111.008,257.162l30.878,-0l91.084,-209.995l44.903,104.016l-0.061,0l12.369,28.691l0.092,-0l33.228,77.288l31.252,-0l-111.005,-257.162l-21.732,0Z" style="fill:#fff;fill-rule:nonzero;"/>
            <path d="M2746.26,235.731l-0,204.798l-149.624,-204.973l-25.869,0l0,255.055l28.744,-0l0,-202.513l149.446,204.616l26.04,0l0,-256.983l-28.737,0Z" style="fill:#fff;fill-rule:nonzero;"/>
        </g>
        <g id="Logo">
            <rect x="-0" y="31.25" width="666.667" height="666.667" style="fill:#2a1b28;"/>
            <g id="Logo-Dark" serif:id="Logo Dark">
                <g>
                    <path d="M333.333,81.741l282.843,282.842l-282.843,282.843l-282.842,-282.843l282.842,-282.842Z" style="fill:#2a1b28;"/>
                </g>
                <g>
                    <path d="M333.333,81.741l30.642,30.641c9.106,9.106 9.106,23.892 -0,32.998l-179.134,179.134c-9.106,9.106 -23.892,9.106 -32.998,-0l-14.143,-14.142c-9.106,-9.106 -9.106,-23.892 0,-32.999l195.633,-195.632Z" style="fill:#fff;"/>
                </g>
                <g>
                    <path d="M357.689,247.518l14.142,14.142c9.107,9.106 9.107,23.892 0,32.998l-179.133,179.134c-9.106,9.106 -23.893,9.106 -32.999,0l-30.641,-30.641l195.633,-195.633c9.106,-9.106 23.892,-9.106 32.998,-0Z" style="fill:#fff;"/>
                </g>
                <g>
                    <path d="M506.967,255.375l30.642,30.641l-195.633,195.633c-9.106,9.106 -23.892,9.106 -32.999,-0l-14.142,-14.142c-9.106,-9.106 -9.106,-23.893 0,-32.999l179.134,-179.133c9.106,-9.107 23.892,-9.107 32.998,-0Z" style="fill:#c50044;"/>
                </g>
                <g>
                    <path d="M514.824,404.653l14.142,14.142c9.106,9.106 9.106,23.892 0,32.998l-195.633,195.633l-30.641,-30.641c-9.106,-9.106 -9.106,-23.892 0,-32.999l179.134,-179.133c9.106,-9.106 23.892,-9.106 32.998,-0Z" style="fill:#fff;"/>
                </g>
            </g>
        </g>
    </g>
</svg>
