<svg xmlns="http://www.w3.org/2000/svg" preserveAspectRatio="xMinYMin" viewBox="0 0 667 667"><style>.stroke{fill:#3f2b3d}@media (prefers-color-scheme:dark){.stroke{fill:#fff}}</style><path fill="#fff" d="M0 0h666.667v666.667H0z"/><path d="m333.333 50.491 30.642 30.641c9.106 9.106 9.106 23.892 0 32.998L184.841 293.264c-9.106 9.106-23.892 9.106-32.998 0L137.7 279.122c-9.106-9.106-9.106-23.892 0-32.999zm24.356 165.777 14.142 14.142c9.107 9.106 9.107 23.892 0 32.998L192.698 442.542c-9.106 9.106-23.893 9.106-32.999 0l-30.641-30.641 195.633-195.633c9.106-9.106 23.892-9.106 32.998 0" class="stroke"/><path fill="#c50044" d="m506.967 224.125 30.642 30.641-195.633 195.633c-9.106 9.106-23.892 9.106-32.999 0l-14.142-14.142c-9.106-9.106-9.106-23.893 0-32.999l179.134-179.133c9.106-9.107 23.892-9.107 32.998 0"/><path d="m514.824 373.403 14.142 14.142c9.106 9.106 9.106 23.892 0 32.998L333.333 616.176l-30.641-30.641c-9.106-9.106-9.106-23.892 0-32.999l179.134-179.133c9.106-9.106 23.892-9.106 32.998 0" class="stroke"/></svg>