<?xml version="1.0" standalone="no"?>
<!DOCTYPE svg PUBLIC "-//W3C//DTD SVG 20010904//EN"
 "http://www.w3.org/TR/2001/REC-SVG-20010904/DTD/svg10.dtd">
<svg version="1.0" xmlns="http://www.w3.org/2000/svg"
 width="700.000000pt" height="700.000000pt" viewBox="0 0 700.000000 700.000000"
 preserveAspectRatio="xMidYMid meet">
<metadata>
Created by potrace 1.14, written by Peter Selinger 2001-2017
</metadata>
<g transform="translate(0.000000,700.000000) scale(0.100000,-0.100000)"
fill="#000000" stroke="none">
<path d="M2458 5432 c-742 -743 -1043 -1050 -1059 -1082 -31 -61 -31 -149 -1
-212 14 -28 64 -86 130 -150 88 -86 117 -108 161 -123 63 -21 131 -16 188 14
22 11 440 423 1009 993 1067 1068 1012 1007 1002 1120 -2 29 -12 69 -21 88 -9
19 -97 115 -195 213 l-177 177 -1037 -1038z"/>
<path d="M3474 4775 c-38 -19 -283 -258 -1084 -1060 l-1035 -1035 175 -176
c190 -191 227 -216 315 -217 109 -1 52 -53 1108 1002 662 661 984 989 997
1017 28 57 27 145 -4 209 -30 63 -204 236 -267 265 -63 28 -142 26 -205 -5z"/>
<path d="M5069 4707 c-20 -8 -49 -23 -65 -35 -16 -11 -462 -454 -991 -984
-936 -938 -962 -964 -977 -1017 -20 -68 -20 -84 0 -151 13 -45 31 -69 121
-161 145 -148 212 -178 329 -144 l59 16 1048 1047 1047 1047 -172 173 c-95 95
-191 183 -212 194 -50 26 -139 33 -187 15z"/>
<path d="M5130 3129 c-62 -27 -1970 -1932 -2000 -1996 -26 -56 -27 -153 -1
-208 12 -24 88 -109 195 -215 l176 -175 1036 1035 c834 833 1041 1045 1060
1085 30 63 32 142 4 204 -28 61 -200 234 -264 266 -63 32 -142 33 -206 4z"/>
</g>
</svg>
