<svg xmlns="http://www.w3.org/2000/svg" xml:space="preserve" fill-rule="evenodd" stroke-linejoin="round" stroke-miterlimit="2" clip-rule="evenodd" preserveAspectRatio="xMinYMin" viewBox="0 0 2650 567"><path fill="none" d="M0 0h2650v566.667H0z"/><clipPath id="a"><path d="M0 0h2650v566.667H0z"/></clipPath><g clip-path="url(#a)"><path fill="#2a1b28" d="M0 0h2916.67v729.167H0z"/><path fill="#2a1b28" d="M541.667 147.917h2133.33v266.667H541.667z"/><path fill="#fff" fill-rule="nonzero" d="M656.837 267.17c-35.747-8.431-55.863-22.235-60.533-41.43-.539-2.683-.897-5.197-.897-7.523 0-8.792 4.309-17.042 13.112-24.753 9.878-8.61 23.171-13.985 39.697-16.136 3.773-.542 8.264-.717 13.651-.717 16.344 0 36.104 4.48 59.636 13.447l10.417-26.54c-26.583-10.404-49.936-15.601-70.235-15.601-4.487 0-10.596.353-18.32 1.07-21.014 2.871-38.798 10.586-53.527 23.137-15.448 13.81-23.171 29.051-23.171 45.908 0 5.382.539 10.225 1.797 14.709 7.541 30.303 34.667 51.104 81.549 62.407 35.386 8.431 55.503 22.235 60.533 41.781.536 3.409.897 5.739.897 7.172 0 9.149-4.67 17.756-14.012 25.649-10.596 8.781-24.607 14.17-41.67 15.779-3.772.36-7.187.542-10.599.542-17.605 0-39.337-5.386-65.202-15.961l-11.139 26.18c29.098 12.194 54.606 18.293 76.341 18.293 28.559 0 52.091-7.708 70.593-23.137 16.344-14.349 24.428-30.128 24.428-47.163q0-6.992-1.618-13.988c-8.802-31.021-35.925-52.007-81.728-63.125m157.494 142.39h171.537v-29.051H843.25V289.95h110.466v-28.694H843.25V181.45l142.618.182v-28.876l-171.537-.182zm378.969-42.504c-8.981 8.789-19.938 13.275-33.052 13.454l-68.435.175v-93.071h66.459c13.833 0 25.508 4.662 35.028 13.811 8.982 9.145 13.472 19.905 13.472 32.632 0 12.736-4.49 23.857-13.472 32.999m-101.487-186.141h62.329c10.957 0 20.117 3.763 27.662 11.296 7.724 7.708 11.496 17.032 11.496 27.614 0 10.761-3.772 19.909-11.496 27.617v-.182c-7.724 7.54-16.705 11.303-27.301 11.478h-62.69zm100.23 89.483c20.117-11.66 30.177-28.509 30.177-50.573 0-18.29-6.288-33.891-19.042-46.985-12.753-13.268-28.201-20.084-46.521-20.619l-93.943-.182v257.522h97.716l.178-.182c20.657-.178 38.441-7.526 53.17-22.057q22.09-22.32 22.092-53.265c0-29.586-14.547-50.744-43.827-63.659m194.677-118-111.008 257.161h30.871l91.081-209.995.006.017.007-.017 44.903 104.017h-.074l12.37 28.691h.101l33.231 77.287h31.253l-111.006-257.161zm274.96 114.772c-35.746-8.431-55.859-22.235-60.532-41.43-.54-2.683-.9-5.197-.9-7.523 0-8.792 4.315-17.042 13.114-24.753 9.882-8.61 23.172-13.985 39.695-16.136 3.772-.542 8.266-.717 13.654-.717 16.344 0 36.1 4.48 59.635 13.447l10.418-26.54c-26.583-10.404-49.937-15.601-70.239-15.601-4.487 0-10.593.353-18.316 1.07-21.014 2.871-38.798 10.586-53.527 23.137-15.448 13.81-23.172 29.051-23.172 45.908 0 5.382.54 10.225 1.797 14.709 7.542 30.303 34.664 51.104 81.55 62.407 35.382 8.431 55.499 22.235 60.529 41.781.54 3.409.9 5.739.9 7.172 0 9.149-4.669 17.756-14.011 25.649-10.603 8.781-24.611 14.17-41.67 15.779-3.776.36-7.188.542-10.603.542-17.602 0-39.333-5.386-65.202-15.961l-11.132 26.18c29.095 12.194 54.602 18.293 76.334 18.293 28.562 0 52.091-7.708 70.596-23.137 16.341-14.349 24.429-30.128 24.429-47.163q-.002-6.992-1.622-13.988c-8.795-31.021-35.925-52.007-81.725-63.125m133.06-85.72h84.608v228.11h28.916V181.45h84.607v-28.876H1794.74z"/><path fill="#fff" d="M2056.96 154.258h28.923v255.303h-28.923z"/><path fill="#fff" fill-rule="nonzero" d="m2248.58 152.398-111.008 257.161h30.878l91.084-209.995 44.903 104.017h-.061l12.369 28.691h.092l33.228 77.287h31.252l-111.005-257.161zm372.68 0v204.798l-149.624-204.973h-25.869v255.054h28.744V204.765l149.446 204.616h26.04V152.398z"/><path fill="#2a1b28" d="M-129.167-50H537.5v666.667h-666.667z"/><path fill="#2a1b28" d="m204.167.491 282.842 282.842-282.842 282.843-282.843-282.843z"/><path fill="#fff" d="m204.167.491 30.641 30.641c9.106 9.106 9.106 23.892 0 32.998L55.674 243.264c-9.106 9.106-23.892 9.106-32.998 0L8.534 229.122c-9.106-9.106-9.106-23.892 0-32.999zm24.356 165.777 14.142 14.142c9.106 9.106 9.106 23.892 0 32.998L63.531 392.542c-9.106 9.106-23.892 9.106-32.998 0L-.109 361.901l195.633-195.633c9.106-9.106 23.892-9.106 32.999 0"/><path fill="#c50044" d="m377.801 174.125 30.641 30.641-195.633 195.633c-9.106 9.106-23.892 9.106-32.998 0l-14.142-14.142c-9.107-9.106-9.107-23.893 0-32.999l179.133-179.133c9.106-9.107 23.893-9.107 32.999 0"/><path fill="#fff" d="m385.657 323.403 14.143 14.142c9.106 9.106 9.106 23.892 0 32.998L204.167 566.176l-30.642-30.641c-9.106-9.106-9.106-23.892 0-32.999l179.134-179.133c9.106-9.106 23.892-9.106 32.998 0"/></g></svg>