<svg xmlns="http://www.w3.org/2000/svg" xml:space="preserve" fill-rule="evenodd" stroke-linejoin="round" stroke-miterlimit="2" clip-rule="evenodd" preserveAspectRatio="xMinYMin" viewBox="0 0 2363 732"><path fill="#2d3787" fill-rule="nonzero" d="m1109.5 489.625-178.5-.083c-6.208 0-11.667-1.709-16.583-5.292-5.167-3.708-9.5-9.042-13.375-14.125l-61.209-80.667s-.791-.875-1.291-1.333c-3.459-2.833-9.125-2.375-12.084.917l-55.5 62.5-1.541 1.708c-4.042 4.5-8.625 9.625-11.542 15.083-.167.209-.292.459-.417.709-4.041 7.791-4.583 14.541-1.583 20.5h-148.5c-6.25 0-11.667-1.709-16.583-5.292-5.167-3.708-9.5-9.042-13.375-14.125 0 0-62-81.542-62.5-82-3.459-2.833-9.125-2.375-12.084.917l-55.5 62.5-1.375 1.541c-4.083 4.542-8.708 9.709-11.708 15.25-.125.209-.292.459-.417.709-4.041 7.791-4.583 14.541-1.625 20.5h-98.416c-4.75 0-8.625 3.75-8.625 8.375s3.875 8.375 8.625 8.375h118.875c4.75 0 8.625-3.75 8.625-8.375v-1.709c0-3.291-2-6.291-5.042-7.625-4.375-2.125-7-4.416-7.75-6.791-.5-1.584-.25-3.292.75-5.209.083-.166.167-.375.208-.458 2.084-3.833 6-8.167 9.5-12.083l49.875-56.167 54.417 71.667c.125.166.25.333.292.375 4.75 6.208 10.083 12.666 17 17.708 8.041 5.792 16.833 8.625 26.833 8.625h168.917c4.75 0 8.625-3.75 8.625-8.375v-1.708c0-3.417-2.209-6.542-5.334-7.709-4.208-2.083-6.75-4.375-7.5-6.666-.5-1.584-.25-3.292.75-5.25.125-.209.209-.417.209-.417 2.125-3.875 6.041-8.25 9.5-12.125l49.875-56.125 54.375 71.625a2.3 2.3 0 0 0 .333.417c4.75 6.208 10.083 12.666 17 17.708 8.083 5.792 16.833 8.625 26.833 8.625h178.5c4.75 0 8.584-3.75 8.584-8.333.083-4.542-3.792-8.292-8.542-8.292"/><path fill="#2d3787" fill-rule="nonzero" d="m394.125 468.917 95.583-102.292c2.834-3 3-7.542.417-10.708l-60.667-75.959c-8.166-10.833-15.958-19.75-23.791-27.25a145 145 0 0 0-8.625-7.708h20.166c10.042 0 17.75 1.25 24.375 4 7.542 3.125 14.25 8.458 20.709 16.5l50.833 65.417s.792.916 1.292 1.291c3.458 2.834 9.125 2.375 12.083-1l41-46.75h-.083c6.166-7.291 12.333-15.541 14.541-23.916 1.542-5.875 1.292-11.125-.791-15.584h56.208l-97.333 107.75c-2.667 2.959-2.834 7.375-.375 10.5l64 81.917c.125.208.333.458.458.625 5.833 7.125 19.333 22.958 19.458 23.125 1.625 1.917 4.042 3 6.584 3l68.083.292 12.583.25H711c2.417 0 4.75-1 6.375-2.75l95.792-102.875a8.175 8.175 0 0 0 .583-10.917l-60.667-75.958c-8.25-10.917-16-19.834-23.75-27.25a147 147 0 0 0-8.625-7.709l20.125-.041c10 0 17.75 1.291 24.375 4.041 7.542 3.125 14.292 8.459 20.709 16.5l50.833 65.417c.375.5.792.875 1.292 1.292 3.5 2.833 9.125 2.375 12.083-1l38.417-43.792c6.916-8 14.541-17.333 17.041-26.875 1.584-5.875 1.292-11.083-.791-15.583H961l-97.333 107.791c-2.667 2.959-2.792 7.334-.334 10.459l64 81.916c.125.209.292.417.459.625l1.375 1.667c5.708 7 18.166 21.5 18.333 21.75 1.625 1.792 4 2.833 6.458 2.833l70.875.209c3.75 0 7.167-2.417 8.25-5.959a355 355 0 0 0 10.292-42.291c.5-2.792.958-5.625 1.417-8.459a356 356 0 0 0 4-51.375h.041l-.041-3.583c-.5-96.125-39.625-186.417-110.292-254.417C867.375 37.667 772.833 0 672.208 0 571.625 0 477.083 37.667 406 106.083c-70.833 68.125-109.958 158.667-110.292 255.042l-.041 1.208c0 15 .958 30.167 2.875 45.042.375 2.75.75 5.625 1.208 8.625.417 2.833.917 5.708 1.417 8.583.791 4.5 5.208 7.584 9.875 6.834 2.291-.375 4.333-1.584 5.666-3.459 1.292-1.791 1.792-4 1.417-6.25-.5-2.708-.917-5.416-1.375-8.125-.375-2.583-.792-5.333-1.167-8.208a336 336 0 0 1-2.75-43l-.041-1.167C313.125 269.333 350.458 183 418.042 118 486 52.625 576.25 16.667 672.25 16.667c95.958 0 186.208 35.958 254.083 101.291 67.417 64.875 104.75 150.959 105.25 242.625h-.041l.041 3.417a334 334 0 0 1-3.875 49.083c-.416 2.709-.875 5.375-1.333 8.042a334 334 0 0 1-8.042 34.375l-60.416-.208c-5.209-5.917-10.292-12.209-15.25-18.25l-61.375-78.5L986.5 242.083c1.5-1.708 2.25-3.833 2.083-6.083a8.1 8.1 0 0 0-3-5.75c-1.541-1.292-3.541-2-5.583-2h-98.042c-4.75 0-8.625 3.75-8.625 8.375v1.708c0 3.792 2.667 7.125 6.334 8.042 9.833 3.167 9.958 7.25 9.208 10.042-1.375 5.208-10.208 16.416-13.458 20.25L844 312.458 799.708 255.5c-.125-.167-.291-.333-.375-.458-8.166-10.167-17.125-17.209-27.416-21.459-8.792-3.625-18.667-5.333-31.125-5.333l-44.875-.042c-4.75 0-8.625 3.75-8.625 8.375v1.709c0 3.25 1.958 6.25 4.916 7.541 8.584 4.667 16.75 10.792 24.959 18.709 7.166 6.875 14.375 15.166 22 25.291.166.209.333.375.375.459l56.166 70.333-88.541 95.083-72.959-.458c-4.041-4.75-11.958-14.125-16.875-20.125L557.5 358.542l105.25-116.459a8.08 8.08 0 0 0 2.083-6.083 8.2 8.2 0 0 0-2.958-5.75c-1.542-1.292-3.542-2-5.583-2H558.25c-4.75 0-8.625 3.75-8.625 8.375v1.708c0 3.792 2.667 7.125 6.333 8.042 9.792 3.167 9.959 7.25 9.209 10.042-1.542 5.875-7.167 12.875-12.542 19.166l-32.375 36.875-44.167-57.041-.333-.417c-8.167-10.167-17.125-17.208-27.375-21.458-8.833-3.667-18.708-5.375-31.125-5.375h-44.917c-4.75 0-8.625 3.75-8.625 8.375v1.708c0 3.25 1.959 6.25 4.917 7.542 8.125 4.416 15.875 10.125 23.625 17.416l1.333 1.292c7.209 6.917 14.375 15.167 22 25.292.167.208.292.375.375.458l56.167 70.292-88.208 94.375-64.709-.125c-4.75 0-8.583 3.75-8.583 8.333s3.875 8.333 8.583 8.333l68.542.125a8.34 8.34 0 0 0 6.375-2.666m-112.5-8.959c-1.208-3.291-4.458-5.5-8.083-5.5-9.667 0-14.417-3.625-16.917-12.958C254 431.958 254 416.792 254 395.75v-89.542c-.292-36.291-12.542-61.708-37.458-77.791-20.125-12.959-48.5-19.25-87.084-19.25h-.25l-39.625 3.5c-2.75.125-5.208 1.458-6.708 3.666l-40.583 58.25c-1.792 2.459-2.084 5.667-.75 8.375 1.958 4 7.25 5.875 11.375 4l1.166-.5c26.375-11.833 49.167-22.083 77.834-22.083 11.916 0 24.458 2.708 33.583 7.25 10.667 5.292 16.042 12.625 16.042 21.833 0 20.625-30.375 26.125-65.75 32.542C61.5 335.875 0 347 0 415.583c0 26.084 11.333 49.959 31.875 67.292 20.542 17.292 49.125 26.792 80.542 26.792h.625c10.541 0 17.041-1.125 26.916-2.792l1.792-.333c.667-.25 4-1.584 5.333-3.5l27.625-39.834c1.459-2.083 1.875-4.625 1.125-7-1.291-4.291-6.166-6.916-10.625-5.666-6.583 1.833-11.458 2.833-16.291 3.375-4.625.5-16.792.541-16.875.541-16 0-29.25-3.125-38.292-8.958-10.042-6.5-15.125-16.792-15.167-30.583 0-28.209 27.125-34.125 53.375-39.917l3.542-.833c15.417-3.584 31.333-7.292 46.083-12.959v79.375c0 26.459 9.084 43.959 28.625 55.084 16.75 9.541 41.959 14 79.209 14h.208c1 0 1.875-.167 2.958-.584 2.167-.833 3.875-2.416 4.792-4.541.875-2.042.917-4.292.042-6.334zm-91.5-120c-1.583 0-3.125.417-4.375 1.125-16.167 7.959-35.583 12.459-54.333 16.834l-3.417.791c-30.792 6.792-65.667 14.459-66.667 54.417h-.041l.041 3.625c.459 18.833 8.125 33.167 22.792 42.625 11.5 7.458 27.417 11.5 46.042 11.75l1.791.042c6.709 0 11.667-.042 16.75-.459l-13.916 20.084c-7.917 1.333-13.917 2.166-22.417 2.166h-1.25c-26.792-.25-50.917-8.291-68-22.708-16.292-13.708-25.458-32.542-25.917-53.125v-1.708c0-54.625 54.042-64.417 101.709-73.042l.625-.125c42.5-7.667 79.208-14.333 79.166-48.917 0-15.708-8.791-28.375-25.416-36.625-11.417-5.666-26.917-9.083-41.5-9.083-23.042 0-41.834 5.625-58.625 12.25l21.583-31.042 34.667-3.083c35 0 60.375 5.375 77.541 16.458 19.417 12.5 29.167 32.917 29.75 62.334v91.083l.042 1.792c0 48.416.375 70.875 30.792 73.375l9 21.875c-27.042-.834-45.459-4.5-57.709-11.5-13.708-7.834-20.083-20.75-20.083-40.709v-92.125c0-4.625-3.833-8.375-8.625-8.375m1040.455-130.75c-2.333-.083-5.541-.083-5.541-.083-46.375 0-86.375 14.5-115.75 41.958-28.334 26.5-44.125 63.625-44.584 104.75h-.041l.041 3.625c.5 41.459 18.709 79.334 51.334 106.75 32.958 27.667 78.916 43.084 129.666 43.417l1.834.042c22.791 0 44.125-2.542 63.416-7.5 4-1 8.042-2.209 11.959-3.459 3.833-1.25 7.708-2.625 11.666-4.25 1.875-.75 3.417-2.083 4.375-3.791l30.375-54.917a8.2 8.2 0 0 0 1-3.958c0-4.625-3.875-8.334-8.625-8.334h-1.791c-1.917 0-3.75.625-5.292 1.75-10.708 8.084-22.875 14.584-36.167 19.417-2.416.875-7.708 2.542-7.708 2.542-15.792 4.791-32.75 7.25-50.375 7.25l-1.792-.042c-46.375 0-81.791-19.583-99.666-55.083-3.542-7-6.292-14.625-8.209-22.584-1.375-5.833-2.333-12-2.833-18.333l213.875-.042c4.708 0 8.458-3.541 8.583-8.083.042-1 .084-2.042.084-3.083l.041-1.792c0-37-13.833-70.958-38.958-95.667-25.375-24.916-61.208-39.291-100.917-40.5m-100.333 140.875c0 .334 0 .667.042.75.208 10.334 1.458 20.334 3.666 29.709 2.209 9.25 5.375 18.041 9.5 26.166 20.667 41 63.25 64.5 116.917 64.5l1.792-.041c18.75-.167 36.708-2.792 53.458-7.875l.292-.084c2.75-.833 5.583-1.791 8.583-2.833a154 154 0 0 0 15.292-6.458l-14.5 26.25c-2.584.958-5.167 1.916-7.792 2.75-3.583 1.166-7.25 2.208-10.917 3.166-17.833 4.584-37.666 6.917-59 6.917h-1.416c-46.75-.292-88.917-14.25-118.792-39.375-28.833-24.208-44.917-57.625-45.458-94.167v-3.208c.333-36.708 14.291-69.708 39.333-93.125 26.125-24.417 62.042-37.333 103.792-37.333 0 0 3.916.041 5.083.083 35.25 1.083 66.875 13.667 89.083 35.5 21.042 20.708 33.042 49.167 33.917 80.292h-214.25c-4.792.041-8.625 3.791-8.625 8.416"/><path fill="#2d3787" fill-rule="nonzero" d="m1141.29 324.5 156.708.042c4.75 0 8.625-3.75 8.625-8.375 0-.709-.083-1.417-.25-1.917-1-6-2.458-11.625-4.333-16.75-1.959-5.417-4.375-10.5-7.209-15-14.5-23.125-39.833-34.833-75.208-34.833l-.542.041c-6.583.042-13 .625-19.083 1.75-5.667 1.084-11.083 2.584-16.167 4.5-26.791 10.209-45.375 32.292-51 60.667-.416 2.167.042 4.375 1.292 6.167a8.42 8.42 0 0 0 5.583 3.541c.542.167 1.042.167 1.584.167m76.541-60.125 1.792.042c29 0 49.333 9 60.5 26.791 2.25 3.625 4.167 7.584 5.708 11.792.542 1.583 1.084 3.167 1.542 4.833h-134.917c6.334-17.875 19.625-31.416 37.667-38.291a77 77 0 0 1 13.083-3.667c4.709-.875 9.625-1.417 14.625-1.5m311.709 53.958-1.292-.416c-30.75-9.5-57.292-17.667-57.292-33.875 0-6.375 5.084-11.375 15.042-14.875 11.125-3.917 24.375-4.667 31-4.75v.041l3.208-.041c17.084.166 34.125 3.333 50.625 9.458 2.917 1.083 6 2.333 9.417 3.833a167 167 0 0 1 8.708 4.167 8.63 8.63 0 0 0 4.5 1.25c4.75 0 8.625-3.75 8.625-8.333v-49.667c0-3.75-2.625-7.042-6.333-8.042-10.75-2.875-22.458-4.958-34.833-6.25-10.834-1.125-22.25-1.666-34.834-1.666-24.083 0-83.166 3.875-111.833 39.541a70.2 70.2 0 0 0-11.625 21c-2.708 7.917-4.125 16.667-4.125 26.125 0 54.834 53.333 72.25 100.625 87.667 32.833 10.708 63.833 20.833 63.833 41.458 0 9.542-6.375 17.042-18.875 22.375-10.416 4.417-24.875 7.042-38.791 7.125l-.5-.041c-20.125 0-38.792-2.584-57.125-7.917-17.917-5.167-34.875-12.75-51.792-23.125-2.292-1.667-5.375-2.125-8.083-1.208-2.209.75-3.959 2.291-4.959 4.375-.958 2-1.041 4.25-.291 6.333l21.25 57.25c.833 2.25 2.625 4.042 4.875 4.917 12.875 5 26.5 8.75 40.5 11.208 13.458 2.292 27.083 3.417 41.666 3.417h1.834c39.166-.292 74.75-9.709 100.333-26.625 27.75-18.292 42.417-43.459 42.417-72.834.083-59.208-58.667-77.333-105.875-91.875M1492.706 493h-1.791c-13.834 0-26.5-1.042-38.625-3.125a190.7 190.7 0 0 1-33.5-8.917l-12.042-32.416c11.833 5.833 23.958 10.541 36.083 14.041 20 5.792 40.292 8.584 62.042 8.584l.875-.042c16.125-.125 33.042-3.25 45.333-8.5 19.084-8.125 29.167-21.167 29.167-37.333l.083-.459c0-32.5-36.75-44.458-75.625-57.166l-.541-.167c-41.459-13.5-88.417-28.833-88.417-71.75 0-7.417 1.125-14.417 3.292-20.75 2-5.833 4.958-11.25 8.833-16.042 23.958-29.875 76.708-33.083 98.25-33.083 12.083 0 22.875.5 33.042 1.542 9.125.958 17.75 2.333 25.75 4.166v29.834a257 257 0 0 0-7.875-3.125c-18.375-6.792-37.334-10.334-56.375-10.542v-.042l-3.625.042c-7.667.125-23.334.958-36.875 5.75-17.209 6.083-26.334 16.625-26.334 30.833 0 28.167 32.375 38.167 69.834 49.709l.75.25c44 13.583 93.916 28.958 93.916 76.166 0 23.459-12.041 43.834-34.833 58.875-22.917 14.959-55.042 23.375-90.792 23.667m299.914-174.667-1.333-.416c-30.75-9.5-57.292-17.667-57.292-33.875 0-6.375 5.083-11.375 15.042-14.875 11.125-3.917 24.375-4.667 31-4.75v.041l3.25-.041c17.083.166 34.125 3.333 50.625 9.458a217 217 0 0 1 9.416 3.833 168 168 0 0 1 8.709 4.167 8.67 8.67 0 0 0 4.541 1.25c4.75 0 8.625-3.75 8.625-8.333v-49.667c0-3.75-2.625-7.042-6.333-8.042-10.75-2.875-22.458-4.958-34.833-6.25-10.834-1.125-22.209-1.666-34.834-1.666-24.083 0-83.208 3.875-111.833 39.541-5.083 6.334-9 13.417-11.583 21-2.709 7.917-4.125 16.667-4.125 26.125 0 54.834 53.333 72.25 100.625 87.667 32.833 10.708 63.875 20.833 63.875 41.458 0 9.542-6.334 17.042-18.875 22.375-10.417 4.417-24.917 7.084-38.834 7.125l-.458-.041c-20.125 0-38.792-2.584-57.125-7.917-17.917-5.167-34.875-12.792-51.792-23.125-2.291-1.667-5.375-2.125-8.083-1.208-2.208.75-3.958 2.291-4.958 4.375-.959 2-1.042 4.25-.292 6.333l21.25 57.25c.833 2.25 2.625 4.042 4.875 4.917 12.875 5 26.5 8.75 40.5 11.208 13.458 2.292 27.083 3.417 41.625 3.417h1.833c39.167-.292 74.75-9.709 100.334-26.625 27.75-18.334 42.416-43.459 42.416-72.834-.041-59.208-58.75-77.333-105.958-91.875M1755.745 493h-1.792c-13.833 0-26.458-1.042-38.625-3.125a190.7 190.7 0 0 1-33.5-8.917l-12-32.416c11.834 5.833 23.959 10.541 36.084 14.041 20 5.792 40.291 8.584 62.041 8.584l.75-.042c16.167-.083 33.084-3.25 45.417-8.5 19.083-8.125 29.167-21.167 29.167-37.333l.083-.459c0-32.5-36.75-44.458-75.625-57.166l-.5-.167c-41.458-13.5-88.417-28.833-88.417-71.75 0-7.417 1.125-14.417 3.292-20.75 2-5.833 4.958-11.25 8.833-16.042 23.959-29.875 76.709-33.083 98.25-33.083 12.084 0 22.875.5 33 1.542 9.125.958 17.792 2.333 25.75 4.166v29.834c-2.458-1.042-5.125-2.084-7.875-3.125-18.375-6.792-37.333-10.334-56.375-10.542v-.042l-3.625.042c-7.666.125-23.333.958-36.875 5.75-17.208 6.083-26.333 16.625-26.333 30.833 0 28.167 32.375 38.167 69.833 49.709l.75.25c44 13.583 93.875 28.958 93.875 76.166 0 23.459-12.041 43.834-34.791 58.875-22.875 14.959-55.042 23.375-90.792 23.667m267.875-4c-9.833-5.375-15.208-12-17.375-21.458-1.667-7.209-1.542-16.25-1.375-25.834.042-2.75.083-5.583.083-8.458V220c0-4.583-3.875-8.333-8.625-8.333h-1.791c-2.084 0-4.084.708-5.667 2.083-3.458 2.958-8.167 4.917-14.25 6.042-6.25 1.125-13.333 1.25-19.5 1.25l-37.042.041c-4.75 0-8.583 3.709-8.583 8.334v1.25c-.208 3.166 1.5 6.208 4.375 7.791 9.875 5.417 15.208 11.959 17.375 21.209 1.667 7.083 1.542 16.041 1.417 25.583-.042 2.75-.084 5.542-.084 8.417l-.041 139.666c0 1.042.041 4 .083 7.167v1.583c.292 20.25.542 36.292-18.25 46.792-3 1.375-4.958 4.333-4.958 7.583v1.75c0 4.584 3.875 8.334 8.625 8.334h101.375c4.75 0 8.625-3.75 8.625-8.375l-.042-1.709c0-3.166-1.667-5.958-4.375-7.458m-73.875-47.25v-.708c-.042-1.709-.042-3.709-.042-7.834V293.542c0-3 .042-5.917.084-8.75.166-10.125.333-19.709-1.834-28.917-1.625-7-4.416-13-8.541-18.208h15.666c6.875 0 14.834-.125 22.667-1.542 3.625-.667 6.917-1.542 9.958-2.667v199.75l.042 1.5c0 2.417-.042 4.834-.083 7.167-.167 10.25-.334 19.917 1.833 29.25 1.625 7.125 4.5 13.25 8.625 18.5h-58.542c10.709-13.375 10.459-29.458 10.167-47.875m16.835-239.083c12.25 0 23.667-4.917 32.25-13.834 8.125-8.458 12.792-19.833 12.792-31.333 0-11.458-4.667-22.792-12.833-31.042-8.542-8.708-19.959-13.5-32.209-13.5-11.916 0-23.875 4.209-32.791 11.542-9.834 8.083-15.209 19.208-15.25 31.292 0 12.708 4.916 24.5 13.791 33.208 8.917 8.833 21.084 13.667 34.25 13.667m.042-73c7.458 0 14.458 2.958 19.708 8.291 5.167 5.25 8.125 12.375 8.125 19.625s-3 14.542-8.166 19.917c-5.25 5.5-12.25 8.5-19.667 8.5-8.5 0-16.333-3.083-22.042-8.708-5.666-5.584-8.833-13.209-8.833-21.5 0-7.084 3.25-13.667 9.167-18.542 5.833-4.833 13.75-7.583 21.708-7.583m231.498 341.458c29.083 0 55.458-10.625 74.25-29.875 18.333-18.75 28.458-44.5 28.458-72.5 0-31.5-9.083-60.792-25.583-82.542-19.125-25.208-46.625-38.5-79.542-38.5-29.166 0-55.458 10.875-73.958 30.625-17.708 18.917-27.458 44.75-27.458 72.917 0 29.583 9.5 59.042 26.083 80.875 13.5 17.792 37.958 39 77.75 39m-2.375-206.75c27.25 0 49.958 10.958 65.667 31.708 14.333 18.875 22.25 44.667 22.25 72.709 0 23.625-8.459 45.333-23.75 60.958-15.542 15.917-37.5 24.708-61.792 24.708-32.583 0-52.75-17.541-63.917-32.25-14.458-19.041-22.75-44.875-22.75-71 0-23.958 8.209-45.833 23.042-61.666 15.458-16.459 36.625-25.167 61.25-25.167"/><path fill="#2d3787" fill-rule="nonzero" d="M2333.83 271.833c-3.458-4.666-7.25-9.333-11.375-13.75-3.958-4.25-8.208-8.333-12.541-12-.125-.125-.25-.25-.5-.458-15.209-12.792-31.542-22-49.917-28.042-17.333-5.708-35.958-8.5-57.042-8.5l-.791.042c-45.292.167-87.25 14.833-118.167 41.333-32.583 27.959-50.542 67.459-50.583 111.292 0 41.708 17.208 79.708 48.416 107.042 30.042 26.333 70.459 40.833 113.75 40.833h.042c44.292 0 85.875-15.292 117.125-43.042 31.708-28.208 49.375-66.625 49.875-108.333l.042-1.833c.041-29.542-10.042-59.584-28.334-84.584m-238.916-8.791c27.583-23.667 65.083-36.834 105.75-37.209l1.791.042c19.209 0 36.084 2.5 51.584 7.583 16.125 5.292 30.458 13.334 43.833 24.542l.208.208c.125.125.292.25.459.375 3.958 3.375 7.75 7 11.208 10.75 3.542 3.834 6.917 7.959 10.083 12.25 16.209 22.167 25.167 48.792 25.167 75v1.334c-.375 37.166-16.083 71.333-44.333 96.458-28.084 24.958-65.542 38.708-105.5 38.708-39 0-75.334-13-102.209-36.583-27.583-24.167-42.791-57.75-42.791-94.708-.042-39.5 15.458-73.667 44.75-98.75M107.75 676.625l9.417-45.667h18.5l-18.292 71.75h-16.042L87.75 657.542l-13.583 45.166H58.208l-18.291-71.75h18.416l9.334 45.625 13.125-45.625h13.875zm70.375 27.417c-10.5 0-19.083-3.209-25.708-9.667s-9.917-15.042-9.917-25.792v-1.875c0-7.208 1.375-13.666 4.167-19.333s6.75-10.042 11.833-13.125 10.917-4.625 17.458-4.625c9.792 0 17.542 3.083 23.167 9.292s8.458 14.958 8.458 26.333v7.833h-45.625c.625 4.667 2.5 8.459 5.584 11.292 3.125 2.833 7.041 4.25 11.833 4.25 7.375 0 13.167-2.667 17.292-8.042l9.416 10.542c-2.875 4.083-6.75 7.25-11.666 9.5-4.875 2.25-10.292 3.417-16.292 3.417m-2.167-58.959q-5.687 0-9.25 3.875c-2.375 2.584-3.875 6.25-4.541 11.042h26.666v-1.542c-.083-4.25-1.25-7.541-3.458-9.875s-5.375-3.5-9.417-3.5m94.334-14.125.583 8.042c5.083-6.25 11.958-9.333 20.625-9.333 9.25 0 15.583 3.625 19.042 10.916 5.041-7.291 12.208-10.916 21.541-10.916 7.792 0 13.584 2.25 17.375 6.791s5.709 11.334 5.709 20.459v45.833h-19.209V657c0-4.083-.791-7.042-2.375-8.917-1.583-1.875-4.416-2.833-8.416-2.833-5.75 0-9.709 2.75-11.917 8.208l.083 49.25h-19.166v-45.666c0-4.167-.834-7.167-2.459-9-1.625-1.875-4.416-2.792-8.333-2.792-5.417 0-9.375 2.25-11.792 6.75v50.708h-19.166v-71.75zm141.166 71.75c-.875-1.708-1.541-3.875-1.916-6.416-4.625 5.166-10.667 7.75-18.084 7.75-7.041 0-12.833-2.042-17.458-6.084-4.625-4.083-6.917-9.208-6.917-15.375 0-7.583 2.834-13.416 8.459-17.5s13.791-6.125 24.416-6.166h8.834v-4.125c0-3.334-.834-5.959-2.542-7.959s-4.375-3-8.042-3c-3.208 0-5.75.792-7.583 2.334q-2.75 2.312-2.75 6.375h-19.167c0-4.167 1.292-8 3.834-11.542 2.583-3.542 6.208-6.292 10.875-8.333 4.666-2 9.958-3 15.791-3 8.834 0 15.875 2.208 21.042 6.666 5.208 4.459 7.792 10.667 7.792 18.75v31.084c.041 6.791 1 11.958 2.833 15.458v1.125h-19.417zm-15.875-13.333c2.834 0 5.417-.625 7.834-1.875 2.375-1.25 4.166-2.958 5.291-5.083v-12.334h-7.166c-9.584 0-14.709 3.334-15.334 9.959l-.083 1.125c0 2.375.833 4.375 2.5 5.916 1.75 1.5 4.042 2.292 6.958 2.292m73.167-15.458-6.875 6.875v21.875h-19.167V600.833h19.167v56.417l3.708-4.792 18.375-21.541h23l-25.916 29.916 28.166 41.834h-22zm78.167 30.125c-10.5 0-19.084-3.209-25.709-9.667s-9.916-15.042-9.916-25.792v-1.875c0-7.208 1.375-13.666 4.166-19.333s6.75-10.042 11.834-13.125 10.916-4.625 17.458-4.625c9.792 0 17.542 3.083 23.167 9.292s8.458 14.958 8.458 26.333v7.833h-45.667c.625 4.667 2.5 8.459 5.584 11.292 3.125 2.833 7.041 4.25 11.833 4.25 7.375 0 13.167-2.667 17.292-8.042l9.416 10.542c-2.875 4.083-6.75 7.25-11.666 9.5-4.875 2.25-10.292 3.417-16.25 3.417m-2.209-58.959q-5.687 0-9.25 3.875c-2.375 2.584-3.875 6.25-4.541 11.042h26.666v-1.542c-.083-4.25-1.25-7.541-3.458-9.875s-5.333-3.5-9.417-3.5M685.667 667.5c0 11.042-2.5 19.917-7.542 26.542s-11.792 10-20.333 10c-7.25 0-13.125-2.542-17.584-7.542v33.792h-19.166v-99.334h17.75l.666 7.042c4.625-5.583 10.709-8.333 18.167-8.333 8.833 0 15.708 3.291 20.625 9.791 4.917 6.542 7.375 15.542 7.375 27.042v1zm-19.167-1.417c0-6.666-1.167-11.833-3.542-15.458s-5.791-5.417-10.291-5.417c-6 0-10.125 2.292-12.417 6.875v29.375c2.333 4.75 6.5 7.084 12.542 7.084 9.125.041 13.708-7.459 13.708-22.459m71.333-17.166c-2.625-.334-4.916-.542-6.875-.542q-10.875 0-14.25 7.375v46.958h-19.166v-71.75h18.083l.542 8.542c3.833-6.583 9.166-9.875 15.958-9.875 2.125 0 4.125.292 5.958.875zm3.834 17.25c0-7.125 1.375-13.459 4.125-19.042s6.666-9.875 11.833-12.917 11.125-4.583 17.917-4.583c9.666 0 17.583 2.958 23.708 8.875q9.188 8.875 10.25 24.125l.125 4.917c0 11-3.083 19.833-9.208 26.5q-9.187 10-24.75 10c-10.334 0-18.584-3.334-24.75-9.959s-9.25-15.625-9.25-27.041zm19.166 1.375c0 6.833 1.292 12.041 3.834 15.625 2.541 3.625 6.25 5.416 11 5.416 4.625 0 8.25-1.791 10.875-5.333 2.625-3.583 3.916-9.25 3.916-17.083 0-6.667-1.291-11.875-3.916-15.542q-3.938-5.5-11-5.5c-4.667 0-8.292 1.833-10.875 5.458-2.542 3.625-3.834 9.292-3.834 16.959m80.875-36.584v75.667c0 7.917-2.083 14.083-6.291 18.458-4.209 4.417-10.25 6.584-18.167 6.584-3.333 0-6.458-.375-9.458-1.125v-15.167c2.291.417 4.291.583 6.041.583 5.792 0 8.667-3.083 8.667-9.208v-75.792zm-20.75-18.583c0-2.875.959-5.25 2.875-7.083 1.917-1.875 4.542-2.792 7.875-2.792s5.917.917 7.875 2.792c1.917 1.875 2.875 4.208 2.875 7.083 0 2.917-1 5.292-2.958 7.167s-4.583 2.791-7.792 2.791-5.833-.916-7.791-2.791c-1.959-1.834-2.959-4.25-2.959-7.167m68.792 91.667c-10.5 0-19.083-3.209-25.708-9.667s-9.917-15.042-9.917-25.792v-1.875c0-7.208 1.375-13.666 4.167-19.333s6.75-10.042 11.833-13.125 10.917-4.625 17.458-4.625c9.792 0 17.542 3.083 23.167 9.292s8.458 14.958 8.458 26.333v7.833h-45.666c.625 4.667 2.5 8.459 5.583 11.292 3.125 2.833 7.042 4.25 11.833 4.25 7.375 0 13.167-2.667 17.292-8.042l9.417 10.542c-2.875 4.083-6.75 7.25-11.667 9.5-4.875 2.25-10.292 3.417-16.25 3.417m-2.208-58.959q-5.688 0-9.25 3.875c-2.375 2.584-3.875 6.25-4.542 11.042h26.667v-1.542c-.084-4.25-1.25-7.541-3.459-9.875s-5.333-3.5-9.416-3.5m72.416 43.5c3.542 0 6.417-.958 8.625-2.916 2.209-1.959 3.375-4.542 3.459-7.75H990q-.063 7.312-4 13.375c-2.625 4.041-6.167 7.166-10.708 9.416s-9.542 3.334-15 3.334c-10.25 0-18.334-3.25-24.25-9.792-5.917-6.5-8.875-15.542-8.875-27V666c0-11.042 2.958-19.875 8.833-26.458 5.875-6.584 13.958-9.875 24.208-9.875 8.959 0 16.167 2.541 21.584 7.666q8.124 7.688 8.25 20.375h-17.959c-.083-3.75-1.25-6.75-3.458-9.083q-3.312-3.5-8.75-3.5-6.687 0-10.125 4.875c-2.292 3.25-3.417 8.542-3.417 15.833v2c0 7.375 1.125 12.709 3.375 15.959 2.209 3.166 5.625 4.791 10.25 4.791m63.872-75.333v17.708h12.25V645h-12.25v35.792c0 2.666.5 4.541 1.542 5.708 1 1.167 2.958 1.708 5.833 1.708 2.125 0 4-.166 5.625-.458v14.5c-3.75 1.167-7.625 1.708-11.583 1.708-13.417 0-20.292-6.791-20.542-20.375v-38.666h-10.458v-14.042h10.458V613.25zm61.79 69.625c0-2.333-1.167-4.208-3.5-5.542s-6.042-2.541-11.167-3.625c-17.083-3.583-25.583-10.833-25.583-21.75 0-6.375 2.625-11.666 7.917-15.958 5.291-4.25 12.166-6.417 20.708-6.417 9.125 0 16.375 2.125 21.833 6.417 5.459 4.292 8.167 9.875 8.167 16.708h-19.167c0-2.75-.875-5-2.666-6.791-1.792-1.792-4.542-2.667-8.292-2.667-3.208 0-5.708.708-7.5 2.208-1.75 1.459-2.667 3.334-2.667 5.584q0 3.187 3 5.125c2 1.291 5.417 2.416 10.167 3.375 4.792.958 8.792 2.041 12.083 3.208 10.125 3.708 15.167 10.125 15.167 19.292 0 6.541-2.792 11.833-8.417 15.875s-12.875 6.083-21.75 6.083c-6 0-11.333-1.083-16-3.208s-8.333-5.084-10.958-8.834c-2.667-3.75-3.958-7.75-3.958-12.083h18.166c.167 3.417 1.459 6 3.792 7.833 2.333 1.792 5.5 2.709 9.417 2.709 3.666 0 6.458-.709 8.333-2.084 1.958-1.375 2.875-3.208 2.875-5.458m83.5-44.083c5.083-6.084 11.458-9.167 19.167-9.167 15.541 0 23.458 9.042 23.666 27.125v45.958h-19.166v-45.416c0-4.125-.875-7.167-2.667-9.125s-4.708-2.959-8.833-2.959c-5.625 0-9.667 2.167-12.209 6.5v51h-19.166V600.875h19.166v37.917zm98.84 63.916c-.875-1.708-1.541-3.875-1.916-6.416-4.625 5.166-10.667 7.75-18.084 7.75-7.041 0-12.833-2.042-17.458-6.084-4.625-4.083-6.917-9.208-6.917-15.375 0-7.583 2.834-13.416 8.459-17.5s13.791-6.125 24.416-6.166h8.834v-4.125c0-3.334-.834-5.959-2.542-7.959s-4.375-3-8.042-3c-3.208 0-5.75.792-7.583 2.334q-2.75 2.312-2.75 6.375h-19.167c0-4.167 1.292-8 3.834-11.542 2.583-3.542 6.208-6.292 10.875-8.333 4.666-2 9.958-3 15.791-3 8.834 0 15.875 2.208 21.042 6.666 5.208 4.459 7.792 10.667 7.792 18.75v31.084c.041 6.791 1 11.958 2.833 15.458v1.125h-19.417zm-15.833-13.333c2.833 0 5.417-.625 7.833-1.875 2.375-1.25 4.167-2.958 5.292-5.083v-12.334h-7.167c-9.583 0-14.708 3.334-15.333 9.959l-.083 1.125c0 2.375.833 4.375 2.5 5.916 1.75 1.5 4.041 2.292 6.958 2.292M1363.75 667.5c0 11.042-2.5 19.917-7.542 26.542s-11.791 10-20.333 10c-7.25 0-13.125-2.542-17.583-7.542v33.792h-19.167v-99.334h17.75l.667 7.042c4.625-5.583 10.708-8.333 18.166-8.333 8.834 0 15.709 3.291 20.625 9.791 4.917 6.542 7.375 15.542 7.375 27.042v1zm-19.125-1.417c0-6.666-1.167-11.833-3.542-15.458s-5.791-5.417-10.291-5.417c-6 0-10.125 2.292-12.417 6.875v29.375c2.333 4.75 6.5 7.084 12.542 7.084 9.125.041 13.708-7.459 13.708-22.459m95.585 1.417c0 11.042-2.5 19.917-7.541 26.542-5 6.666-11.792 10-20.334 10-7.25 0-13.125-2.542-17.583-7.542v33.792h-19.167v-99.334h17.75l.667 7.042c4.625-5.583 10.708-8.333 18.167-8.333 8.833 0 15.708 3.291 20.625 9.791 4.916 6.542 7.375 15.542 7.375 27.042v1zm-19.166-1.417c0-6.666-1.167-11.833-3.542-15.458s-5.792-5.417-10.292-5.417c-6 0-10.125 2.292-12.416 6.875v29.375c2.333 4.75 6.5 7.084 12.541 7.084 9.125.041 13.709-7.459 13.709-22.459m64.036 37.959c-10.5 0-19.083-3.209-25.708-9.667s-9.917-15.042-9.917-25.792v-1.875c0-7.208 1.375-13.666 4.167-19.333s6.75-10.042 11.833-13.125 10.917-4.625 17.459-4.625c9.791 0 17.541 3.083 23.166 9.292s8.459 14.958 8.459 26.333v7.833h-45.667c.625 4.667 2.5 8.459 5.583 11.292 3.125 2.833 7.042 4.25 11.834 4.25 7.375 0 13.166-2.667 17.291-8.042l9.417 10.542c-2.875 4.083-6.75 7.25-11.667 9.5-4.833 2.25-10.291 3.417-16.25 3.417m-2.166-58.959q-5.688 0-9.25 3.875c-2.375 2.584-3.875 6.25-4.542 11.042h26.667v-1.542c-.084-4.25-1.25-7.541-3.459-9.875s-5.375-3.5-9.416-3.5m60.206-14.125.583 8.292q7.688-9.625 20.625-9.625c7.584 0 13.25 2.25 16.959 6.708s5.625 11.125 5.708 20.042v46.333h-19.167v-45.875c0-4.083-.875-7-2.666-8.833-1.75-1.833-4.709-2.75-8.834-2.75q-8.062 0-12.125 6.875v50.583h-19.166v-71.75zm59.38 62.334c0-3.042 1.042-5.542 3.083-7.417 2.042-1.917 4.625-2.833 7.709-2.833 3.125 0 5.75.958 7.791 2.833 2.042 1.917 3.084 4.375 3.084 7.417 0 3-1 5.458-3.042 7.333s-4.625 2.833-7.833 2.833c-3.125 0-5.709-.958-7.75-2.833-2-1.917-3.042-4.333-3.042-7.333m113.83 9.416c-.875-1.708-1.541-3.875-1.916-6.416-4.625 5.166-10.667 7.75-18.084 7.75-7.041 0-12.833-2.042-17.458-6.084-4.625-4.083-6.917-9.208-6.917-15.375 0-7.583 2.834-13.416 8.459-17.5s13.791-6.125 24.416-6.166h8.834v-4.125c0-3.334-.834-5.959-2.542-7.959s-4.375-3-8.042-3c-3.208 0-5.75.792-7.583 2.334q-2.75 2.312-2.75 6.375h-19.167c0-4.167 1.292-8 3.834-11.542 2.583-3.542 6.208-6.292 10.875-8.333 4.666-2 9.958-3 15.791-3 8.834 0 15.875 2.208 21.042 6.666 5.208 4.459 7.792 10.667 7.792 18.75v31.084c.041 6.791 1 11.958 2.833 15.458v1.125h-19.417zm-15.833-13.333c2.833 0 5.417-.625 7.833-1.875 2.375-1.25 4.167-2.958 5.292-5.083v-12.334h-7.167c-9.583 0-14.708 3.334-15.333 9.959l-.083 1.125c0 2.375.833 4.375 2.5 5.916 1.75 1.5 4.041 2.292 6.958 2.292m48.083-88.5h19.208v101.833h-19.208zm36 0h19.208v101.833h-19.208zm91.75 12.375v17.708h12.25V645h-12.25v35.792c0 2.666.5 4.541 1.542 5.708 1 1.167 2.958 1.708 5.833 1.708 2.125 0 4-.166 5.625-.458v14.5c-3.75 1.167-7.625 1.708-11.583 1.708-13.417 0-20.292-6.791-20.542-20.375v-38.666h-10.458v-14.042h10.458V613.25zm41.63 25.542c5.084-6.084 11.459-9.167 19.167-9.167 15.542 0 23.458 9.042 23.667 27.125v45.958h-19.167v-45.416c0-4.125-.875-7.167-2.667-9.125s-4.708-2.959-8.833-2.959c-5.625 0-9.667 2.167-12.208 6.5v51h-19.167V600.875h19.167v37.917zm90.29 65.25c-10.5 0-19.083-3.209-25.708-9.667s-9.917-15.042-9.917-25.792v-1.875c0-7.208 1.375-13.666 4.167-19.333s6.75-10.042 11.833-13.125 10.917-4.625 17.458-4.625c9.792 0 17.542 3.083 23.167 9.292s8.458 14.958 8.458 26.333v7.833h-45.625c.625 4.667 2.5 8.459 5.584 11.292 3.125 2.833 7.041 4.25 11.833 4.25 7.375 0 13.167-2.667 17.292-8.042l9.416 10.542c-2.875 4.083-6.75 7.25-11.666 9.5-4.875 2.25-10.334 3.417-16.292 3.417m-2.167-58.959q-5.687 0-9.25 3.875c-2.375 2.584-3.875 6.25-4.541 11.042h26.666v-1.542c-.083-4.25-1.25-7.541-3.458-9.875s-5.375-3.5-9.417-3.5m138.747 31.542 9.417-45.667h18.5l-18.292 71.75h-16.041l-13.584-45.166-13.583 45.166h-15.958l-18.292-71.75h18.5l9.333 45.625 13.125-45.625h13.875zm78.96 26.083c-.875-1.708-1.542-3.875-1.917-6.416-4.625 5.166-10.667 7.75-18.083 7.75-7.042 0-12.834-2.042-17.459-6.084-4.625-4.083-6.916-9.208-6.916-15.375 0-7.583 2.833-13.416 8.458-17.5s13.792-6.125 24.417-6.166h8.833v-4.125c0-3.334-.833-5.959-2.542-7.959s-4.375-3-8.041-3c-3.209 0-5.75.792-7.584 2.334q-2.75 2.312-2.75 6.375h-19.166c0-4.167 1.291-8 3.833-11.542 2.583-3.542 6.208-6.292 10.875-8.333 4.667-2 9.958-3 15.792-3 8.833 0 15.875 2.208 21.041 6.666 5.209 4.459 7.792 10.667 7.792 18.75v31.084c.042 6.791 1 11.958 2.833 15.458v1.125h-19.416zm-15.834-13.333c2.834 0 5.417-.625 7.834-1.875 2.375-1.25 4.166-2.958 5.291-5.083v-12.334h-7.166c-9.584 0-14.709 3.334-15.334 9.959l-.083 1.125c0 2.375.833 4.375 2.5 5.916 1.75 1.5 4.042 2.292 6.958 2.292m72.874-13.792 13.25-44.625h20.542l-28.833 82.875-1.584 3.792c-4.291 9.375-11.375 14.042-21.208 14.042q-4.188 0-8.5-1.25v-14.5l2.917.083c3.625 0 6.333-.542 8.125-1.667s3.208-2.958 4.208-5.5l2.25-5.916L2246.872 631h20.625zm31.29 17.709c0-3.042 1.042-5.542 3.083-7.417 2.042-1.917 4.625-2.833 7.709-2.833 3.125 0 5.75.958 7.791 2.833 2.042 1.917 3.084 4.375 3.084 7.417 0 3-1 5.458-3.042 7.333s-4.625 2.833-7.833 2.833c-3.125 0-5.709-.958-7.75-2.833-2.042-1.917-3.042-4.333-3.042-7.333"/></svg>