<?xml version="1.0" encoding="UTF-8" standalone="no"?>
<!DOCTYPE svg PUBLIC "-//W3C//DTD SVG 1.1//EN" "http://www.w3.org/Graphics/SVG/1.1/DTD/svg11.dtd">
<svg width="100%" height="100%" viewBox="0 0 2363 732" version="1.1" xmlns="http://www.w3.org/2000/svg" xmlns:xlink="http://www.w3.org/1999/xlink" xml:space="preserve" xmlns:serif="http://www.serif.com/" style="fill-rule:evenodd;clip-rule:evenodd;stroke-linejoin:round;stroke-miterlimit:2;">
    <g id="logo">
        <g>
            <g>
                <path d="M1109.5,489.625l-178.5,-0.083c-6.208,-0 -11.667,-1.709 -16.583,-5.292c-5.167,-3.708 -9.5,-9.042 -13.375,-14.125l-61.209,-80.667c0,0 -0.791,-0.875 -1.291,-1.333c-3.459,-2.833 -9.125,-2.375 -12.084,0.917l-55.5,62.5l-1.541,1.708c-4.042,4.5 -8.625,9.625 -11.542,15.083c-0.167,0.209 -0.292,0.459 -0.417,0.709c-4.041,7.791 -4.583,14.541 -1.583,20.5l-148.5,-0c-6.25,-0 -11.667,-1.709 -16.583,-5.292c-5.167,-3.708 -9.5,-9.042 -13.375,-14.125c-0,0 -62,-81.542 -62.5,-82c-3.459,-2.833 -9.125,-2.375 -12.084,0.917l-55.5,62.5l-1.375,1.541c-4.083,4.542 -8.708,9.709 -11.708,15.25c-0.125,0.209 -0.292,0.459 -0.417,0.709c-4.041,7.791 -4.583,14.541 -1.625,20.5l-98.416,-0c-4.75,-0 -8.625,3.75 -8.625,8.375c-0,4.625 3.875,8.375 8.625,8.375l118.875,-0c4.75,-0 8.625,-3.75 8.625,-8.375l-0,-1.709c-0,-3.291 -2,-6.291 -5.042,-7.625c-4.375,-2.125 -7,-4.416 -7.75,-6.791c-0.5,-1.584 -0.25,-3.292 0.75,-5.209c0.083,-0.166 0.167,-0.375 0.208,-0.458c2.084,-3.833 6,-8.167 9.5,-12.083l49.875,-56.167l54.417,71.667c0.125,0.166 0.25,0.333 0.292,0.375c4.75,6.208 10.083,12.666 17,17.708c8.041,5.792 16.833,8.625 26.833,8.625l168.917,0c4.75,0 8.625,-3.75 8.625,-8.375l-0,-1.708c-0,-3.417 -2.209,-6.542 -5.334,-7.709c-4.208,-2.083 -6.75,-4.375 -7.5,-6.666c-0.5,-1.584 -0.25,-3.292 0.75,-5.25c0.125,-0.209 0.209,-0.417 0.209,-0.417c2.125,-3.875 6.041,-8.25 9.5,-12.125l49.875,-56.125l54.375,71.625c0.125,0.208 0.291,0.375 0.333,0.417c4.75,6.208 10.083,12.666 17,17.708c8.083,5.792 16.833,8.625 26.833,8.625l178.5,0c4.75,0 8.584,-3.75 8.584,-8.333c0.083,-4.542 -3.792,-8.292 -8.542,-8.292Z" style="fill:#2d3787;fill-rule:nonzero;"/>
                <path d="M394.125,468.917l95.583,-102.292c2.834,-3 3,-7.542 0.417,-10.708l-60.667,-75.959c-8.166,-10.833 -15.958,-19.75 -23.791,-27.25c-2.834,-2.75 -5.75,-5.333 -8.625,-7.708l20.166,0c10.042,0 17.75,1.25 24.375,4c7.542,3.125 14.25,8.458 20.709,16.5l50.833,65.417c0,-0 0.792,0.916 1.292,1.291c3.458,2.834 9.125,2.375 12.083,-1l41,-46.75l-0.083,0c6.166,-7.291 12.333,-15.541 14.541,-23.916c1.542,-5.875 1.292,-11.125 -0.791,-15.584l56.208,0l-97.333,107.75c-2.667,2.959 -2.834,7.375 -0.375,10.5l64,81.917c0.125,0.208 0.333,0.458 0.458,0.625c5.833,7.125 19.333,22.958 19.458,23.125c1.625,1.917 4.042,3 6.584,3l68.083,0.292l12.583,0.25l0.167,-0c2.417,-0 4.75,-1 6.375,-2.75l95.792,-102.875c2.958,-2.959 3.208,-7.667 0.583,-10.917l-60.667,-75.958c-8.25,-10.917 -16,-19.834 -23.75,-27.25c-2.833,-2.75 -5.708,-5.292 -8.625,-7.709l20.125,-0.041c10,-0 17.75,1.291 24.375,4.041c7.542,3.125 14.292,8.459 20.709,16.5l50.833,65.417c0.375,0.5 0.792,0.875 1.292,1.292c3.5,2.833 9.125,2.375 12.083,-1l38.417,-43.792c6.916,-8 14.541,-17.333 17.041,-26.875c1.584,-5.875 1.292,-11.083 -0.791,-15.583l56.208,-0l-97.333,107.791c-2.667,2.959 -2.792,7.334 -0.334,10.459l64,81.916c0.125,0.209 0.292,0.417 0.459,0.625l1.375,1.667c5.708,7 18.166,21.5 18.333,21.75c1.625,1.792 4,2.833 6.458,2.833l70.875,0.209c3.75,-0 7.167,-2.417 8.25,-5.959c4.292,-13.875 7.75,-28.083 10.292,-42.291c0.5,-2.792 0.958,-5.625 1.417,-8.459c2.541,-16.791 3.916,-34.083 4,-51.375l0.041,0l-0.041,-3.583c-0.5,-96.125 -39.625,-186.417 -110.292,-254.417c-71.125,-68.416 -165.667,-106.083 -266.292,-106.083c-100.583,0 -195.125,37.667 -266.208,106.083c-70.833,68.125 -109.958,158.667 -110.292,255.042l-0.041,1.208c-0,15 0.958,30.167 2.875,45.042c0.375,2.75 0.75,5.625 1.208,8.625c0.417,2.833 0.917,5.708 1.417,8.583c0.791,4.5 5.208,7.584 9.875,6.834c2.291,-0.375 4.333,-1.584 5.666,-3.459c1.292,-1.791 1.792,-4 1.417,-6.25c-0.5,-2.708 -0.917,-5.416 -1.375,-8.125c-0.375,-2.583 -0.792,-5.333 -1.167,-8.208c-1.833,-14.167 -2.75,-28.625 -2.75,-43l-0.041,-1.167c0.333,-91.875 37.666,-178.208 105.25,-243.208c67.958,-65.375 158.208,-101.333 254.208,-101.333c95.958,-0 186.208,35.958 254.083,101.291c67.417,64.875 104.75,150.959 105.25,242.625l-0.041,0l0.041,3.417c-0.083,16.375 -1.375,32.875 -3.875,49.083c-0.416,2.709 -0.875,5.375 -1.333,8.042c-2.042,11.458 -4.75,23.042 -8.042,34.375l-60.416,-0.208c-5.209,-5.917 -10.292,-12.209 -15.25,-18.25l-61.375,-78.5l105.208,-116.459c1.5,-1.708 2.25,-3.833 2.083,-6.083c-0.166,-2.25 -1.208,-4.292 -3,-5.75c-1.541,-1.292 -3.541,-2 -5.583,-2l-98.042,0c-4.75,0 -8.625,3.75 -8.625,8.375l0,1.708c0,3.792 2.667,7.125 6.334,8.042c9.833,3.167 9.958,7.25 9.208,10.042c-1.375,5.208 -10.208,16.416 -13.458,20.25l-31.417,35.791l-44.292,-56.958c-0.125,-0.167 -0.291,-0.333 -0.375,-0.458c-8.166,-10.167 -17.125,-17.209 -27.416,-21.459c-8.792,-3.625 -18.667,-5.333 -31.125,-5.333l-44.875,-0.042c-4.75,0 -8.625,3.75 -8.625,8.375l-0,1.709c-0,3.25 1.958,6.25 4.916,7.541c8.584,4.667 16.75,10.792 24.959,18.709c7.166,6.875 14.375,15.166 22,25.291c0.166,0.209 0.333,0.375 0.375,0.459l56.166,70.333l-88.541,95.083l-72.959,-0.458c-4.041,-4.75 -11.958,-14.125 -16.875,-20.125l-59.833,-76.583l105.25,-116.459c1.542,-1.708 2.25,-3.875 2.083,-6.083c-0.166,-2.25 -1.208,-4.292 -2.958,-5.75c-1.542,-1.292 -3.542,-2 -5.583,-2l-98.042,0c-4.75,0 -8.625,3.75 -8.625,8.375l0,1.708c0,3.792 2.667,7.125 6.333,8.042c9.792,3.167 9.959,7.25 9.209,10.042c-1.542,5.875 -7.167,12.875 -12.542,19.166l-32.375,36.875l-44.167,-57.041l-0.333,-0.417c-8.167,-10.167 -17.125,-17.208 -27.375,-21.458c-8.833,-3.667 -18.708,-5.375 -31.125,-5.375l-44.917,-0c-4.75,-0 -8.625,3.75 -8.625,8.375l0,1.708c0,3.25 1.959,6.25 4.917,7.542c8.125,4.416 15.875,10.125 23.625,17.416l1.333,1.292c7.209,6.917 14.375,15.167 22,25.292c0.167,0.208 0.292,0.375 0.375,0.458l56.167,70.292l-88.208,94.375l-64.709,-0.125c-4.75,-0 -8.583,3.75 -8.583,8.333c0,4.583 3.875,8.333 8.583,8.333l68.542,0.125c2.417,0.084 4.75,-0.916 6.375,-2.666Z" style="fill:#2d3787;fill-rule:nonzero;"/>
            </g>
            <path d="M281.625,459.958c-1.208,-3.291 -4.458,-5.5 -8.083,-5.5c-9.667,0 -14.417,-3.625 -16.917,-12.958c-2.625,-9.542 -2.625,-24.708 -2.625,-45.75l0,-89.542c-0.292,-36.291 -12.542,-61.708 -37.458,-77.791c-20.125,-12.959 -48.5,-19.25 -87.084,-19.25l-0.25,-0l-39.625,3.5c-2.75,0.125 -5.208,1.458 -6.708,3.666l-40.583,58.25c-1.792,2.459 -2.084,5.667 -0.75,8.375c1.958,4 7.25,5.875 11.375,4l1.166,-0.5c26.375,-11.833 49.167,-22.083 77.834,-22.083c11.916,0 24.458,2.708 33.583,7.25c10.667,5.292 16.042,12.625 16.042,21.833c-0,20.625 -30.375,26.125 -65.75,32.542c-54.292,9.875 -115.792,21 -115.792,89.583c0,26.084 11.333,49.959 31.875,67.292c20.542,17.292 49.125,26.792 80.542,26.792l0.625,-0c10.541,-0 17.041,-1.125 26.916,-2.792l1.792,-0.333c0.667,-0.25 4,-1.584 5.333,-3.5l27.625,-39.834c1.459,-2.083 1.875,-4.625 1.125,-7c-1.291,-4.291 -6.166,-6.916 -10.625,-5.666c-6.583,1.833 -11.458,2.833 -16.291,3.375c-4.625,0.5 -16.792,0.541 -16.875,0.541c-16,0 -29.25,-3.125 -38.292,-8.958c-10.042,-6.5 -15.125,-16.792 -15.167,-30.583c0,-28.209 27.125,-34.125 53.375,-39.917l3.542,-0.833c15.417,-3.584 31.333,-7.292 46.083,-12.959l0,79.375c0,26.459 9.084,43.959 28.625,55.084c16.75,9.541 41.959,14 79.209,14l0.208,-0c1,-0 1.875,-0.167 2.958,-0.584c2.167,-0.833 3.875,-2.416 4.792,-4.541c0.875,-2.042 0.917,-4.292 0.042,-6.334l-15.792,-38.25Zm-91.5,-120c-1.583,0 -3.125,0.417 -4.375,1.125c-16.167,7.959 -35.583,12.459 -54.333,16.834l-3.417,0.791c-30.792,6.792 -65.667,14.459 -66.667,54.417l-0.041,0l0.041,3.625c0.459,18.833 8.125,33.167 22.792,42.625c11.5,7.458 27.417,11.5 46.042,11.75l1.791,0.042c6.709,-0 11.667,-0.042 16.75,-0.459l-13.916,20.084c-7.917,1.333 -13.917,2.166 -22.417,2.166l-1.25,0c-26.792,-0.25 -50.917,-8.291 -68,-22.708c-16.292,-13.708 -25.458,-32.542 -25.917,-53.125l0,-1.708c0,-54.625 54.042,-64.417 101.709,-73.042l0.625,-0.125c42.5,-7.667 79.208,-14.333 79.166,-48.917c0,-15.708 -8.791,-28.375 -25.416,-36.625c-11.417,-5.666 -26.917,-9.083 -41.5,-9.083c-23.042,0 -41.834,5.625 -58.625,12.25l21.583,-31.042l34.667,-3.083c35,0 60.375,5.375 77.541,16.458c19.417,12.5 29.167,32.917 29.75,62.334l0,91.083l0.042,1.792c0,48.416 0.375,70.875 30.792,73.375l9,21.875c-27.042,-0.834 -45.459,-4.5 -57.709,-11.5c-13.708,-7.834 -20.083,-20.75 -20.083,-40.709l0,-92.125c0,-4.625 -3.833,-8.375 -8.625,-8.375Z" style="fill:#2d3787;fill-rule:nonzero;"/>
            <g>
                <path d="M1230.58,209.208c-2.333,-0.083 -5.541,-0.083 -5.541,-0.083c-46.375,0 -86.375,14.5 -115.75,41.958c-28.334,26.5 -44.125,63.625 -44.584,104.75l-0.041,0l0.041,3.625c0.5,41.459 18.709,79.334 51.334,106.75c32.958,27.667 78.916,43.084 129.666,43.417l1.834,0.042c22.791,-0 44.125,-2.542 63.416,-7.5c4,-1 8.042,-2.209 11.959,-3.459c3.833,-1.25 7.708,-2.625 11.666,-4.25c1.875,-0.75 3.417,-2.083 4.375,-3.791l30.375,-54.917c0.667,-1.208 1,-2.583 1,-3.958c0,-4.625 -3.875,-8.334 -8.625,-8.334l-1.791,0c-1.917,0 -3.75,0.625 -5.292,1.75c-10.708,8.084 -22.875,14.584 -36.167,19.417c-2.416,0.875 -7.708,2.542 -7.708,2.542c-15.792,4.791 -32.75,7.25 -50.375,7.25l-1.792,-0.042c-46.375,0 -81.791,-19.583 -99.666,-55.083c-3.542,-7 -6.292,-14.625 -8.209,-22.584c-1.375,-5.833 -2.333,-12 -2.833,-18.333l213.875,-0.042c4.708,0 8.458,-3.541 8.583,-8.083c0.042,-1 0.084,-2.042 0.084,-3.083l0.041,-1.792c0,-37 -13.833,-70.958 -38.958,-95.667c-25.375,-24.916 -61.208,-39.291 -100.917,-40.5Zm-100.333,140.875c-0,0.334 -0,0.667 0.042,0.75c0.208,10.334 1.458,20.334 3.666,29.709c2.209,9.25 5.375,18.041 9.5,26.166c20.667,41 63.25,64.5 116.917,64.5l1.792,-0.041c18.75,-0.167 36.708,-2.792 53.458,-7.875l0.292,-0.084c2.75,-0.833 5.583,-1.791 8.583,-2.833c5.208,-1.875 10.333,-4.042 15.292,-6.458l-14.5,26.25c-2.584,0.958 -5.167,1.916 -7.792,2.75c-3.583,1.166 -7.25,2.208 -10.917,3.166c-17.833,4.584 -37.666,6.917 -59,6.917l-1.416,0c-46.75,-0.292 -88.917,-14.25 -118.792,-39.375c-28.833,-24.208 -44.917,-57.625 -45.458,-94.167l-0,-3.208c0.333,-36.708 14.291,-69.708 39.333,-93.125c26.125,-24.417 62.042,-37.333 103.792,-37.333c-0,-0 3.916,0.041 5.083,0.083c35.25,1.083 66.875,13.667 89.083,35.5c21.042,20.708 33.042,49.167 33.917,80.292l-214.25,-0c-4.792,0.041 -8.625,3.791 -8.625,8.416Z" style="fill:#2d3787;fill-rule:nonzero;"/>
                <path d="M1141.29,324.5l156.708,0.042c4.75,-0 8.625,-3.75 8.625,-8.375c0,-0.709 -0.083,-1.417 -0.25,-1.917c-1,-6 -2.458,-11.625 -4.333,-16.75c-1.959,-5.417 -4.375,-10.5 -7.209,-15c-14.5,-23.125 -39.833,-34.833 -75.208,-34.833l-0.542,0.041c-6.583,0.042 -13,0.625 -19.083,1.75c-5.667,1.084 -11.083,2.584 -16.167,4.5c-26.791,10.209 -45.375,32.292 -51,60.667c-0.416,2.167 0.042,4.375 1.292,6.167c1.292,1.875 3.292,3.166 5.583,3.541c0.542,0.167 1.042,0.167 1.584,0.167Zm76.541,-60.125l1.792,0.042c29,-0 49.333,9 60.5,26.791c2.25,3.625 4.167,7.584 5.708,11.792c0.542,1.583 1.084,3.167 1.542,4.833l-134.917,0c6.334,-17.875 19.625,-31.416 37.667,-38.291c4.208,-1.584 8.583,-2.834 13.083,-3.667c4.709,-0.875 9.625,-1.417 14.625,-1.5Z" style="fill:#2d3787;fill-rule:nonzero;"/>
            </g>
            <path d="M1529.54,318.333l-1.292,-0.416c-30.75,-9.5 -57.292,-17.667 -57.292,-33.875c0,-6.375 5.084,-11.375 15.042,-14.875c11.125,-3.917 24.375,-4.667 31,-4.75l-0,0.041l3.208,-0.041c17.084,0.166 34.125,3.333 50.625,9.458c2.917,1.083 6,2.333 9.417,3.833c2.917,1.292 5.875,2.709 8.708,4.167c1.375,0.833 2.917,1.25 4.5,1.25c4.75,0 8.625,-3.75 8.625,-8.333l0,-49.667c0,-3.75 -2.625,-7.042 -6.333,-8.042c-10.75,-2.875 -22.458,-4.958 -34.833,-6.25c-10.834,-1.125 -22.25,-1.666 -34.834,-1.666c-24.083,-0 -83.166,3.875 -111.833,39.541c-5.083,6.334 -9,13.417 -11.625,21c-2.708,7.917 -4.125,16.667 -4.125,26.125c-0,54.834 53.333,72.25 100.625,87.667c32.833,10.708 63.833,20.833 63.833,41.458c0,9.542 -6.375,17.042 -18.875,22.375c-10.416,4.417 -24.875,7.042 -38.791,7.125l-0.5,-0.041c-20.125,-0 -38.792,-2.584 -57.125,-7.917c-17.917,-5.167 -34.875,-12.75 -51.792,-23.125c-2.292,-1.667 -5.375,-2.125 -8.083,-1.208c-2.209,0.75 -3.959,2.291 -4.959,4.375c-0.958,2 -1.041,4.25 -0.291,6.333l21.25,57.25c0.833,2.25 2.625,4.042 4.875,4.917c12.875,5 26.5,8.75 40.5,11.208c13.458,2.292 27.083,3.417 41.666,3.417l1.834,-0c39.166,-0.292 74.75,-9.709 100.333,-26.625c27.75,-18.292 42.417,-43.459 42.417,-72.834c0.083,-59.208 -58.667,-77.333 -105.875,-91.875Zm-36.834,174.667l-1.791,0c-13.834,0 -26.5,-1.042 -38.625,-3.125c-11.459,-1.958 -22.709,-4.958 -33.5,-8.917l-12.042,-32.416c11.833,5.833 23.958,10.541 36.083,14.041c20,5.792 40.292,8.584 62.042,8.584l0.875,-0.042c16.125,-0.125 33.042,-3.25 45.333,-8.5c19.084,-8.125 29.167,-21.167 29.167,-37.333l0.083,-0.459c0,-32.5 -36.75,-44.458 -75.625,-57.166l-0.541,-0.167c-41.459,-13.5 -88.417,-28.833 -88.417,-71.75c-0,-7.417 1.125,-14.417 3.292,-20.75c2,-5.833 4.958,-11.25 8.833,-16.042c23.958,-29.875 76.708,-33.083 98.25,-33.083c12.083,-0 22.875,0.5 33.042,1.542c9.125,0.958 17.75,2.333 25.75,4.166l-0,29.834c-2.5,-1.042 -5.125,-2.084 -7.875,-3.125c-18.375,-6.792 -37.334,-10.334 -56.375,-10.542l-0,-0.042l-3.625,0.042c-7.667,0.125 -23.334,0.958 -36.875,5.75c-17.209,6.083 -26.334,16.625 -26.334,30.833c0,28.167 32.375,38.167 69.834,49.709l0.75,0.25c44,13.583 93.916,28.958 93.916,76.166c0,23.459 -12.041,43.834 -34.833,58.875c-22.917,14.959 -55.042,23.375 -90.792,23.667Z" style="fill:#2d3787;fill-rule:nonzero;"/>
            <path d="M1792.62,318.333l-1.333,-0.416c-30.75,-9.5 -57.292,-17.667 -57.292,-33.875c0,-6.375 5.083,-11.375 15.042,-14.875c11.125,-3.917 24.375,-4.667 31,-4.75l-0,0.041l3.25,-0.041c17.083,0.166 34.125,3.333 50.625,9.458c2.875,1.083 6.041,2.375 9.416,3.833c2.917,1.292 5.875,2.709 8.709,4.167c1.375,0.833 2.916,1.25 4.541,1.25c4.75,0 8.625,-3.75 8.625,-8.333l0,-49.667c0,-3.75 -2.625,-7.042 -6.333,-8.042c-10.75,-2.875 -22.458,-4.958 -34.833,-6.25c-10.834,-1.125 -22.209,-1.666 -34.834,-1.666c-24.083,-0 -83.208,3.875 -111.833,39.541c-5.083,6.334 -9,13.417 -11.583,21c-2.709,7.917 -4.125,16.667 -4.125,26.125c-0,54.834 53.333,72.25 100.625,87.667c32.833,10.708 63.875,20.833 63.875,41.458c-0,9.542 -6.334,17.042 -18.875,22.375c-10.417,4.417 -24.917,7.084 -38.834,7.125l-0.458,-0.041c-20.125,-0 -38.792,-2.584 -57.125,-7.917c-17.917,-5.167 -34.875,-12.792 -51.792,-23.125c-2.291,-1.667 -5.375,-2.125 -8.083,-1.208c-2.208,0.75 -3.958,2.291 -4.958,4.375c-0.959,2 -1.042,4.25 -0.292,6.333l21.25,57.25c0.833,2.25 2.625,4.042 4.875,4.917c12.875,5 26.5,8.75 40.5,11.208c13.458,2.292 27.083,3.417 41.625,3.417l1.833,-0c39.167,-0.292 74.75,-9.709 100.334,-26.625c27.75,-18.334 42.416,-43.459 42.416,-72.834c-0.041,-59.208 -58.75,-77.333 -105.958,-91.875Zm-36.875,174.667l-1.792,0c-13.833,0 -26.458,-1.042 -38.625,-3.125c-11.458,-1.958 -22.708,-4.958 -33.5,-8.917l-12,-32.416c11.834,5.833 23.959,10.541 36.084,14.041c20,5.792 40.291,8.584 62.041,8.584l0.75,-0.042c16.167,-0.083 33.084,-3.25 45.417,-8.5c19.083,-8.125 29.167,-21.167 29.167,-37.333l0.083,-0.459c0,-32.5 -36.75,-44.458 -75.625,-57.166l-0.5,-0.167c-41.458,-13.5 -88.417,-28.833 -88.417,-71.75c0,-7.417 1.125,-14.417 3.292,-20.75c2,-5.833 4.958,-11.25 8.833,-16.042c23.959,-29.875 76.709,-33.083 98.25,-33.083c12.084,-0 22.875,0.5 33,1.542c9.125,0.958 17.792,2.333 25.75,4.166l0,29.834c-2.458,-1.042 -5.125,-2.084 -7.875,-3.125c-18.375,-6.792 -37.333,-10.334 -56.375,-10.542l0,-0.042l-3.625,0.042c-7.666,0.125 -23.333,0.958 -36.875,5.75c-17.208,6.083 -26.333,16.625 -26.333,30.833c0,28.167 32.375,38.167 69.833,49.709l0.75,0.25c44,13.583 93.875,28.958 93.875,76.166c0,23.459 -12.041,43.834 -34.791,58.875c-22.875,14.959 -55.042,23.375 -90.792,23.667Z" style="fill:#2d3787;fill-rule:nonzero;"/>
            <g>
                <path d="M2023.62,489c-9.833,-5.375 -15.208,-12 -17.375,-21.458c-1.667,-7.209 -1.542,-16.25 -1.375,-25.834c0.042,-2.75 0.083,-5.583 0.083,-8.458l0,-213.25c0,-4.583 -3.875,-8.333 -8.625,-8.333l-1.791,-0c-2.084,-0 -4.084,0.708 -5.667,2.083c-3.458,2.958 -8.167,4.917 -14.25,6.042c-6.25,1.125 -13.333,1.25 -19.5,1.25l-37.042,0.041c-4.75,0 -8.583,3.709 -8.583,8.334l-0,1.25c-0.208,3.166 1.5,6.208 4.375,7.791c9.875,5.417 15.208,11.959 17.375,21.209c1.667,7.083 1.542,16.041 1.417,25.583c-0.042,2.75 -0.084,5.542 -0.084,8.417l-0.041,139.666c-0,1.042 0.041,4 0.083,7.167l-0,1.583c0.292,20.25 0.542,36.292 -18.25,46.792c-3,1.375 -4.958,4.333 -4.958,7.583l-0,1.75c-0,4.584 3.875,8.334 8.625,8.334l101.375,-0c4.75,-0 8.625,-3.75 8.625,-8.375l-0.042,-1.709c0,-3.166 -1.667,-5.958 -4.375,-7.458Zm-73.875,-47.25l0,-0.708c-0.042,-1.709 -0.042,-3.709 -0.042,-7.834l0,-139.666c0,-3 0.042,-5.917 0.084,-8.75c0.166,-10.125 0.333,-19.709 -1.834,-28.917c-1.625,-7 -4.416,-13 -8.541,-18.208l15.666,-0c6.875,-0 14.834,-0.125 22.667,-1.542c3.625,-0.667 6.917,-1.542 9.958,-2.667l0,199.75l0.042,1.5c-0,2.417 -0.042,4.834 -0.083,7.167c-0.167,10.25 -0.334,19.917 1.833,29.25c1.625,7.125 4.5,13.25 8.625,18.5l-58.542,0c10.709,-13.375 10.459,-29.458 10.167,-47.875Z" style="fill:#2d3787;fill-rule:nonzero;"/>
                <path d="M1966.58,202.667c12.25,-0 23.667,-4.917 32.25,-13.834c8.125,-8.458 12.792,-19.833 12.792,-31.333c0,-11.458 -4.667,-22.792 -12.833,-31.042c-8.542,-8.708 -19.959,-13.5 -32.209,-13.5c-11.916,0 -23.875,4.209 -32.791,11.542c-9.834,8.083 -15.209,19.208 -15.25,31.292c-0,12.708 4.916,24.5 13.791,33.208c8.917,8.833 21.084,13.667 34.25,13.667Zm0.042,-73c7.458,-0 14.458,2.958 19.708,8.291c5.167,5.25 8.125,12.375 8.125,19.625c0,7.25 -3,14.542 -8.166,19.917c-5.25,5.5 -12.25,8.5 -19.667,8.5c-8.5,0 -16.333,-3.083 -22.042,-8.708c-5.666,-5.584 -8.833,-13.209 -8.833,-21.5c0,-7.084 3.25,-13.667 9.167,-18.542c5.833,-4.833 13.75,-7.583 21.708,-7.583Z" style="fill:#2d3787;fill-rule:nonzero;"/>
            </g>
            <g>
                <path d="M2198.12,471.125c29.083,0 55.458,-10.625 74.25,-29.875c18.333,-18.75 28.458,-44.5 28.458,-72.5c0,-31.5 -9.083,-60.792 -25.583,-82.542c-19.125,-25.208 -46.625,-38.5 -79.542,-38.5c-29.166,0 -55.458,10.875 -73.958,30.625c-17.708,18.917 -27.458,44.75 -27.458,72.917c-0,29.583 9.5,59.042 26.083,80.875c13.5,17.792 37.958,39 77.75,39Zm-2.375,-206.75c27.25,0 49.958,10.958 65.667,31.708c14.333,18.875 22.25,44.667 22.25,72.709c-0,23.625 -8.459,45.333 -23.75,60.958c-15.542,15.917 -37.5,24.708 -61.792,24.708c-32.583,0 -52.75,-17.541 -63.917,-32.25c-14.458,-19.041 -22.75,-44.875 -22.75,-71c0,-23.958 8.209,-45.833 23.042,-61.666c15.458,-16.459 36.625,-25.167 61.25,-25.167Z" style="fill:#2d3787;fill-rule:nonzero;"/>
                <path d="M2333.83,271.833c-3.458,-4.666 -7.25,-9.333 -11.375,-13.75c-3.958,-4.25 -8.208,-8.333 -12.541,-12c-0.125,-0.125 -0.25,-0.25 -0.5,-0.458c-15.209,-12.792 -31.542,-22 -49.917,-28.042c-17.333,-5.708 -35.958,-8.5 -57.042,-8.5l-0.791,0.042c-45.292,0.167 -87.25,14.833 -118.167,41.333c-32.583,27.959 -50.542,67.459 -50.583,111.292c-0,41.708 17.208,79.708 48.416,107.042c30.042,26.333 70.459,40.833 113.75,40.833l0.042,0c44.292,0 85.875,-15.292 117.125,-43.042c31.708,-28.208 49.375,-66.625 49.875,-108.333l0.042,-1.833c0.041,-29.542 -10.042,-59.584 -28.334,-84.584Zm-238.916,-8.791c27.583,-23.667 65.083,-36.834 105.75,-37.209l1.791,0.042c19.209,0 36.084,2.5 51.584,7.583c16.125,5.292 30.458,13.334 43.833,24.542l0.208,0.208c0.125,0.125 0.292,0.25 0.459,0.375c3.958,3.375 7.75,7 11.208,10.75c3.542,3.834 6.917,7.959 10.083,12.25c16.209,22.167 25.167,48.792 25.167,75l-0,1.334c-0.375,37.166 -16.083,71.333 -44.333,96.458c-28.084,24.958 -65.542,38.708 -105.5,38.708c-39,0 -75.334,-13 -102.209,-36.583c-27.583,-24.167 -42.791,-57.75 -42.791,-94.708c-0.042,-39.5 15.458,-73.667 44.75,-98.75Z" style="fill:#2d3787;fill-rule:nonzero;"/>
            </g>
        </g>
        <g>
            <path d="M107.75,676.625l9.417,-45.667l18.5,0l-18.292,71.75l-16.042,0l-13.583,-45.166l-13.583,45.166l-15.959,0l-18.291,-71.75l18.416,0l9.334,45.625l13.125,-45.625l13.875,0l13.083,45.667Z" style="fill:#2d3787;fill-rule:nonzero;"/>
            <path d="M178.125,704.042c-10.5,-0 -19.083,-3.209 -25.708,-9.667c-6.625,-6.458 -9.917,-15.042 -9.917,-25.792l0,-1.875c0,-7.208 1.375,-13.666 4.167,-19.333c2.791,-5.667 6.75,-10.042 11.833,-13.125c5.083,-3.083 10.917,-4.625 17.458,-4.625c9.792,0 17.542,3.083 23.167,9.292c5.625,6.208 8.458,14.958 8.458,26.333l0,7.833l-45.625,0c0.625,4.667 2.5,8.459 5.584,11.292c3.125,2.833 7.041,4.25 11.833,4.25c7.375,0 13.167,-2.667 17.292,-8.042l9.416,10.542c-2.875,4.083 -6.75,7.25 -11.666,9.5c-4.875,2.25 -10.292,3.417 -16.292,3.417Zm-2.167,-58.959c-3.791,0 -6.875,1.292 -9.25,3.875c-2.375,2.584 -3.875,6.25 -4.541,11.042l26.666,0l0,-1.542c-0.083,-4.25 -1.25,-7.541 -3.458,-9.875c-2.208,-2.333 -5.375,-3.5 -9.417,-3.5Z" style="fill:#2d3787;fill-rule:nonzero;"/>
            <path d="M270.292,630.958l0.583,8.042c5.083,-6.25 11.958,-9.333 20.625,-9.333c9.25,-0 15.583,3.625 19.042,10.916c5.041,-7.291 12.208,-10.916 21.541,-10.916c7.792,-0 13.584,2.25 17.375,6.791c3.792,4.542 5.709,11.334 5.709,20.459l-0,45.833l-19.209,0l0,-45.75c0,-4.083 -0.791,-7.042 -2.375,-8.917c-1.583,-1.875 -4.416,-2.833 -8.416,-2.833c-5.75,0 -9.709,2.75 -11.917,8.208l0.083,49.25l-19.166,0l-0,-45.666c-0,-4.167 -0.834,-7.167 -2.459,-9c-1.625,-1.875 -4.416,-2.792 -8.333,-2.792c-5.417,0 -9.375,2.25 -11.792,6.75l0,50.708l-19.166,0l-0,-71.75l17.875,0Z" style="fill:#2d3787;fill-rule:nonzero;"/>
            <path d="M411.458,702.708c-0.875,-1.708 -1.541,-3.875 -1.916,-6.416c-4.625,5.166 -10.667,7.75 -18.084,7.75c-7.041,-0 -12.833,-2.042 -17.458,-6.084c-4.625,-4.083 -6.917,-9.208 -6.917,-15.375c0,-7.583 2.834,-13.416 8.459,-17.5c5.625,-4.083 13.791,-6.125 24.416,-6.166l8.834,-0l-0,-4.125c-0,-3.334 -0.834,-5.959 -2.542,-7.959c-1.708,-2 -4.375,-3 -8.042,-3c-3.208,0 -5.75,0.792 -7.583,2.334c-1.833,1.541 -2.75,3.666 -2.75,6.375l-19.167,-0c0,-4.167 1.292,-8 3.834,-11.542c2.583,-3.542 6.208,-6.292 10.875,-8.333c4.666,-2 9.958,-3 15.791,-3c8.834,-0 15.875,2.208 21.042,6.666c5.208,4.459 7.792,10.667 7.792,18.75l-0,31.084c0.041,6.791 1,11.958 2.833,15.458l0,1.125l-19.417,0l0,-0.042Zm-15.875,-13.333c2.834,0 5.417,-0.625 7.834,-1.875c2.375,-1.25 4.166,-2.958 5.291,-5.083l0,-12.334l-7.166,0c-9.584,0 -14.709,3.334 -15.334,9.959l-0.083,1.125c-0,2.375 0.833,4.375 2.5,5.916c1.75,1.5 4.042,2.292 6.958,2.292Z" style="fill:#2d3787;fill-rule:nonzero;"/>
            <path d="M468.75,673.917l-6.875,6.875l0,21.875l-19.167,-0l0,-101.834l19.167,0l0,56.417l3.708,-4.792l18.375,-21.541l23,-0l-25.916,29.916l28.166,41.834l-22,-0l-18.458,-28.75Z" style="fill:#2d3787;fill-rule:nonzero;"/>
            <path d="M546.917,704.042c-10.5,-0 -19.084,-3.209 -25.709,-9.667c-6.625,-6.458 -9.916,-15.042 -9.916,-25.792l-0,-1.875c-0,-7.208 1.375,-13.666 4.166,-19.333c2.792,-5.667 6.75,-10.042 11.834,-13.125c5.083,-3.083 10.916,-4.625 17.458,-4.625c9.792,0 17.542,3.083 23.167,9.292c5.625,6.208 8.458,14.958 8.458,26.333l0,7.833l-45.667,0c0.625,4.667 2.5,8.459 5.584,11.292c3.125,2.833 7.041,4.25 11.833,4.25c7.375,0 13.167,-2.667 17.292,-8.042l9.416,10.542c-2.875,4.083 -6.75,7.25 -11.666,9.5c-4.875,2.25 -10.292,3.417 -16.25,3.417Zm-2.209,-58.959c-3.791,0 -6.875,1.292 -9.25,3.875c-2.375,2.584 -3.875,6.25 -4.541,11.042l26.666,0l0,-1.542c-0.083,-4.25 -1.25,-7.541 -3.458,-9.875c-2.208,-2.333 -5.333,-3.5 -9.417,-3.5Z" style="fill:#2d3787;fill-rule:nonzero;"/>
            <path d="M685.667,667.5c-0,11.042 -2.5,19.917 -7.542,26.542c-5.042,6.625 -11.792,10 -20.333,10c-7.25,-0 -13.125,-2.542 -17.584,-7.542l0,33.792l-19.166,-0l-0,-99.334l17.75,0l0.666,7.042c4.625,-5.583 10.709,-8.333 18.167,-8.333c8.833,-0 15.708,3.291 20.625,9.791c4.917,6.542 7.375,15.542 7.375,27.042l0,1l0.042,-0Zm-19.167,-1.417c0,-6.666 -1.167,-11.833 -3.542,-15.458c-2.375,-3.625 -5.791,-5.417 -10.291,-5.417c-6,0 -10.125,2.292 -12.417,6.875l0,29.375c2.333,4.75 6.5,7.084 12.542,7.084c9.125,0.041 13.708,-7.459 13.708,-22.459Z" style="fill:#2d3787;fill-rule:nonzero;"/>
            <path d="M737.833,648.917c-2.625,-0.334 -4.916,-0.542 -6.875,-0.542c-7.25,0 -12,2.458 -14.25,7.375l0,46.958l-19.166,0l-0,-71.75l18.083,0l0.542,8.542c3.833,-6.583 9.166,-9.875 15.958,-9.875c2.125,0 4.125,0.292 5.958,0.875l-0.25,18.417Z" style="fill:#2d3787;fill-rule:nonzero;"/>
            <path d="M741.667,666.167c-0,-7.125 1.375,-13.459 4.125,-19.042c2.75,-5.583 6.666,-9.875 11.833,-12.917c5.167,-3.041 11.125,-4.583 17.917,-4.583c9.666,0 17.583,2.958 23.708,8.875c6.125,5.917 9.542,13.958 10.25,24.125l0.125,4.917c0,11 -3.083,19.833 -9.208,26.5c-6.125,6.666 -14.375,10 -24.75,10c-10.334,-0 -18.584,-3.334 -24.75,-9.959c-6.167,-6.625 -9.25,-15.625 -9.25,-27.041l-0,-0.875Zm19.166,1.375c0,6.833 1.292,12.041 3.834,15.625c2.541,3.625 6.25,5.416 11,5.416c4.625,0 8.25,-1.791 10.875,-5.333c2.625,-3.583 3.916,-9.25 3.916,-17.083c0,-6.667 -1.291,-11.875 -3.916,-15.542c-2.625,-3.667 -6.292,-5.5 -11,-5.5c-4.667,0 -8.292,1.833 -10.875,5.458c-2.542,3.625 -3.834,9.292 -3.834,16.959Z" style="fill:#2d3787;fill-rule:nonzero;"/>
            <path d="M841.708,630.958l0,75.667c0,7.917 -2.083,14.083 -6.291,18.458c-4.209,4.417 -10.25,6.584 -18.167,6.584c-3.333,-0 -6.458,-0.375 -9.458,-1.125l-0,-15.167c2.291,0.417 4.291,0.583 6.041,0.583c5.792,0 8.667,-3.083 8.667,-9.208l0,-75.792l19.208,0Zm-20.75,-18.583c0,-2.875 0.959,-5.25 2.875,-7.083c1.917,-1.875 4.542,-2.792 7.875,-2.792c3.334,0 5.917,0.917 7.875,2.792c1.917,1.875 2.875,4.208 2.875,7.083c0,2.917 -1,5.292 -2.958,7.167c-1.958,1.875 -4.583,2.791 -7.792,2.791c-3.208,0 -5.833,-0.916 -7.791,-2.791c-1.959,-1.834 -2.959,-4.25 -2.959,-7.167Z" style="fill:#2d3787;fill-rule:nonzero;"/>
            <path d="M889.75,704.042c-10.5,-0 -19.083,-3.209 -25.708,-9.667c-6.625,-6.458 -9.917,-15.042 -9.917,-25.792l0,-1.875c0,-7.208 1.375,-13.666 4.167,-19.333c2.791,-5.667 6.75,-10.042 11.833,-13.125c5.083,-3.083 10.917,-4.625 17.458,-4.625c9.792,0 17.542,3.083 23.167,9.292c5.625,6.208 8.458,14.958 8.458,26.333l0,7.833l-45.666,0c0.625,4.667 2.5,8.459 5.583,11.292c3.125,2.833 7.042,4.25 11.833,4.25c7.375,0 13.167,-2.667 17.292,-8.042l9.417,10.542c-2.875,4.083 -6.75,7.25 -11.667,9.5c-4.875,2.25 -10.292,3.417 -16.25,3.417Zm-2.208,-58.959c-3.792,0 -6.875,1.292 -9.25,3.875c-2.375,2.584 -3.875,6.25 -4.542,11.042l26.667,0l-0,-1.542c-0.084,-4.25 -1.25,-7.541 -3.459,-9.875c-2.208,-2.333 -5.333,-3.5 -9.416,-3.5Z" style="fill:#2d3787;fill-rule:nonzero;"/>
            <path d="M959.958,688.583c3.542,0 6.417,-0.958 8.625,-2.916c2.209,-1.959 3.375,-4.542 3.459,-7.75l17.958,-0c-0.042,4.875 -1.375,9.333 -4,13.375c-2.625,4.041 -6.167,7.166 -10.708,9.416c-4.542,2.25 -9.542,3.334 -15,3.334c-10.25,-0 -18.334,-3.25 -24.25,-9.792c-5.917,-6.5 -8.875,-15.542 -8.875,-27l-0,-1.25c-0,-11.042 2.958,-19.875 8.833,-26.458c5.875,-6.584 13.958,-9.875 24.208,-9.875c8.959,-0 16.167,2.541 21.584,7.666c5.416,5.125 8.166,11.917 8.25,20.375l-17.959,0c-0.083,-3.75 -1.25,-6.75 -3.458,-9.083c-2.208,-2.333 -5.125,-3.5 -8.75,-3.5c-4.458,0 -7.833,1.625 -10.125,4.875c-2.292,3.25 -3.417,8.542 -3.417,15.833l0,2c0,7.375 1.125,12.709 3.375,15.959c2.209,3.166 5.625,4.791 10.25,4.791Z" style="fill:#2d3787;fill-rule:nonzero;"/>
            <path d="M1023.83,613.25l0,17.708l12.25,0l0,14.042l-12.25,0l0,35.792c0,2.666 0.5,4.541 1.542,5.708c1,1.167 2.958,1.708 5.833,1.708c2.125,0 4,-0.166 5.625,-0.458l0,14.5c-3.75,1.167 -7.625,1.708 -11.583,1.708c-13.417,0 -20.292,-6.791 -20.542,-20.375l0,-38.666l-10.458,-0l0,-14.042l10.458,0l0,-17.625l19.125,0Z" style="fill:#2d3787;fill-rule:nonzero;"/>
            <path d="M1085.62,682.875c0,-2.333 -1.167,-4.208 -3.5,-5.542c-2.333,-1.333 -6.042,-2.541 -11.167,-3.625c-17.083,-3.583 -25.583,-10.833 -25.583,-21.75c0,-6.375 2.625,-11.666 7.917,-15.958c5.291,-4.25 12.166,-6.417 20.708,-6.417c9.125,0 16.375,2.125 21.833,6.417c5.459,4.292 8.167,9.875 8.167,16.708l-19.167,0c0,-2.75 -0.875,-5 -2.666,-6.791c-1.792,-1.792 -4.542,-2.667 -8.292,-2.667c-3.208,0 -5.708,0.708 -7.5,2.208c-1.75,1.459 -2.667,3.334 -2.667,5.584c0,2.125 1,3.833 3,5.125c2,1.291 5.417,2.416 10.167,3.375c4.792,0.958 8.792,2.041 12.083,3.208c10.125,3.708 15.167,10.125 15.167,19.292c0,6.541 -2.792,11.833 -8.417,15.875c-5.625,4.041 -12.875,6.083 -21.75,6.083c-6,0 -11.333,-1.083 -16,-3.208c-4.666,-2.125 -8.333,-5.084 -10.958,-8.834c-2.667,-3.75 -3.958,-7.75 -3.958,-12.083l18.166,0c0.167,3.417 1.459,6 3.792,7.833c2.333,1.792 5.5,2.709 9.417,2.709c3.666,-0 6.458,-0.709 8.333,-2.084c1.958,-1.375 2.875,-3.208 2.875,-5.458Z" style="fill:#2d3787;fill-rule:nonzero;"/>
            <path d="M1169.12,638.792c5.083,-6.084 11.458,-9.167 19.167,-9.167c15.541,0 23.458,9.042 23.666,27.125l0,45.958l-19.166,0l-0,-45.416c-0,-4.125 -0.875,-7.167 -2.667,-9.125c-1.792,-1.959 -4.708,-2.959 -8.833,-2.959c-5.625,0 -9.667,2.167 -12.209,6.5l0,51l-19.166,0l-0,-101.833l19.166,0l0,37.917l0.042,-0Z" style="fill:#2d3787;fill-rule:nonzero;"/>
            <path d="M1267.96,702.708c-0.875,-1.708 -1.541,-3.875 -1.916,-6.416c-4.625,5.166 -10.667,7.75 -18.084,7.75c-7.041,-0 -12.833,-2.042 -17.458,-6.084c-4.625,-4.083 -6.917,-9.208 -6.917,-15.375c0,-7.583 2.834,-13.416 8.459,-17.5c5.625,-4.083 13.791,-6.125 24.416,-6.166l8.834,-0l-0,-4.125c-0,-3.334 -0.834,-5.959 -2.542,-7.959c-1.708,-2 -4.375,-3 -8.042,-3c-3.208,0 -5.75,0.792 -7.583,2.334c-1.833,1.541 -2.75,3.666 -2.75,6.375l-19.167,-0c0,-4.167 1.292,-8 3.834,-11.542c2.583,-3.542 6.208,-6.292 10.875,-8.333c4.666,-2 9.958,-3 15.791,-3c8.834,-0 15.875,2.208 21.042,6.666c5.208,4.459 7.792,10.667 7.792,18.75l-0,31.084c0.041,6.791 1,11.958 2.833,15.458l0,1.125l-19.417,0l0,-0.042Zm-15.833,-13.333c2.833,0 5.417,-0.625 7.833,-1.875c2.375,-1.25 4.167,-2.958 5.292,-5.083l-0,-12.334l-7.167,0c-9.583,0 -14.708,3.334 -15.333,9.959l-0.083,1.125c-0,2.375 0.833,4.375 2.5,5.916c1.75,1.5 4.041,2.292 6.958,2.292Z" style="fill:#2d3787;fill-rule:nonzero;"/>
            <path d="M1363.75,667.5c0,11.042 -2.5,19.917 -7.542,26.542c-5.041,6.625 -11.791,10 -20.333,10c-7.25,-0 -13.125,-2.542 -17.583,-7.542l-0,33.792l-19.167,-0l0,-99.334l17.75,0l0.667,7.042c4.625,-5.583 10.708,-8.333 18.166,-8.333c8.834,-0 15.709,3.291 20.625,9.791c4.917,6.542 7.375,15.542 7.375,27.042l0,1l0.042,-0Zm-19.125,-1.417c0,-6.666 -1.167,-11.833 -3.542,-15.458c-2.375,-3.625 -5.791,-5.417 -10.291,-5.417c-6,0 -10.125,2.292 -12.417,6.875l-0,29.375c2.333,4.75 6.5,7.084 12.542,7.084c9.125,0.041 13.708,-7.459 13.708,-22.459Z" style="fill:#2d3787;fill-rule:nonzero;"/>
            <path d="M1440.21,667.5c0,11.042 -2.5,19.917 -7.541,26.542c-5,6.666 -11.792,10 -20.334,10c-7.25,-0 -13.125,-2.542 -17.583,-7.542l0,33.792l-19.167,-0l0,-99.334l17.75,0l0.667,7.042c4.625,-5.583 10.708,-8.333 18.167,-8.333c8.833,-0 15.708,3.291 20.625,9.791c4.916,6.542 7.375,15.542 7.375,27.042l-0,1l0.041,-0Zm-19.166,-1.417c-0,-6.666 -1.167,-11.833 -3.542,-15.458c-2.375,-3.625 -5.792,-5.417 -10.292,-5.417c-6,0 -10.125,2.292 -12.416,6.875l-0,29.375c2.333,4.75 6.5,7.084 12.541,7.084c9.125,0.041 13.709,-7.459 13.709,-22.459Z" style="fill:#2d3787;fill-rule:nonzero;"/>
            <path d="M1485.08,704.042c-10.5,-0 -19.083,-3.209 -25.708,-9.667c-6.625,-6.458 -9.917,-15.042 -9.917,-25.792l0,-1.875c0,-7.208 1.375,-13.666 4.167,-19.333c2.792,-5.667 6.75,-10.042 11.833,-13.125c5.084,-3.083 10.917,-4.625 17.459,-4.625c9.791,0 17.541,3.083 23.166,9.292c5.625,6.208 8.459,14.958 8.459,26.333l-0,7.833l-45.667,0c0.625,4.667 2.5,8.459 5.583,11.292c3.125,2.833 7.042,4.25 11.834,4.25c7.375,0 13.166,-2.667 17.291,-8.042l9.417,10.542c-2.875,4.083 -6.75,7.25 -11.667,9.5c-4.833,2.25 -10.291,3.417 -16.25,3.417Zm-2.166,-58.959c-3.792,0 -6.875,1.292 -9.25,3.875c-2.375,2.584 -3.875,6.25 -4.542,11.042l26.667,0l-0,-1.542c-0.084,-4.25 -1.25,-7.541 -3.459,-9.875c-2.208,-2.333 -5.375,-3.5 -9.416,-3.5Z" style="fill:#2d3787;fill-rule:nonzero;"/>
            <path d="M1543.12,630.958l0.583,8.292c5.125,-6.417 12,-9.625 20.625,-9.625c7.584,0 13.25,2.25 16.959,6.708c3.708,4.459 5.625,11.125 5.708,20.042l-0,46.333l-19.167,0l0,-45.875c0,-4.083 -0.875,-7 -2.666,-8.833c-1.75,-1.833 -4.709,-2.75 -8.834,-2.75c-5.375,0 -9.416,2.292 -12.125,6.875l0,50.583l-19.166,0l-0,-71.75l18.083,0Z" style="fill:#2d3787;fill-rule:nonzero;"/>
            <path d="M1602.5,693.292c0,-3.042 1.042,-5.542 3.083,-7.417c2.042,-1.917 4.625,-2.833 7.709,-2.833c3.125,-0 5.75,0.958 7.791,2.833c2.042,1.917 3.084,4.375 3.084,7.417c-0,3 -1,5.458 -3.042,7.333c-2.042,1.875 -4.625,2.833 -7.833,2.833c-3.125,0 -5.709,-0.958 -7.75,-2.833c-2,-1.917 -3.042,-4.333 -3.042,-7.333Z" style="fill:#2d3787;fill-rule:nonzero;"/>
            <path d="M1716.33,702.708c-0.875,-1.708 -1.541,-3.875 -1.916,-6.416c-4.625,5.166 -10.667,7.75 -18.084,7.75c-7.041,-0 -12.833,-2.042 -17.458,-6.084c-4.625,-4.083 -6.917,-9.208 -6.917,-15.375c0,-7.583 2.834,-13.416 8.459,-17.5c5.625,-4.083 13.791,-6.125 24.416,-6.166l8.834,-0l-0,-4.125c-0,-3.334 -0.834,-5.959 -2.542,-7.959c-1.708,-2 -4.375,-3 -8.042,-3c-3.208,0 -5.75,0.792 -7.583,2.334c-1.833,1.541 -2.75,3.666 -2.75,6.375l-19.167,-0c0,-4.167 1.292,-8 3.834,-11.542c2.583,-3.542 6.208,-6.292 10.875,-8.333c4.666,-2 9.958,-3 15.791,-3c8.834,-0 15.875,2.208 21.042,6.666c5.208,4.459 7.792,10.667 7.792,18.75l-0,31.084c0.041,6.791 1,11.958 2.833,15.458l0,1.125l-19.417,0l0,-0.042Zm-15.833,-13.333c2.833,0 5.417,-0.625 7.833,-1.875c2.375,-1.25 4.167,-2.958 5.292,-5.083l-0,-12.334l-7.167,0c-9.583,0 -14.708,3.334 -15.333,9.959l-0.083,1.125c-0,2.375 0.833,4.375 2.5,5.916c1.75,1.5 4.041,2.292 6.958,2.292Z" style="fill:#2d3787;fill-rule:nonzero;"/>
            <rect x="1748.58" y="600.875" width="19.208" height="101.833" style="fill:#2d3787;fill-rule:nonzero;"/>
            <rect x="1784.58" y="600.875" width="19.208" height="101.833" style="fill:#2d3787;fill-rule:nonzero;"/>
            <path d="M1876.33,613.25l0,17.708l12.25,0l0,14.042l-12.25,0l0,35.792c0,2.666 0.5,4.541 1.542,5.708c1,1.167 2.958,1.708 5.833,1.708c2.125,0 4,-0.166 5.625,-0.458l0,14.5c-3.75,1.167 -7.625,1.708 -11.583,1.708c-13.417,0 -20.292,-6.791 -20.542,-20.375l0,-38.666l-10.458,-0l0,-14.042l10.458,0l0,-17.625l19.125,0Z" style="fill:#2d3787;fill-rule:nonzero;"/>
            <path d="M1917.96,638.792c5.084,-6.084 11.459,-9.167 19.167,-9.167c15.542,0 23.458,9.042 23.667,27.125l-0,45.958l-19.167,0l0,-45.416c0,-4.125 -0.875,-7.167 -2.667,-9.125c-1.791,-1.959 -4.708,-2.959 -8.833,-2.959c-5.625,0 -9.667,2.167 -12.208,6.5l-0,51l-19.167,0l0,-101.833l19.167,0l-0,37.917l0.041,-0Z" style="fill:#2d3787;fill-rule:nonzero;"/>
            <path d="M2008.25,704.042c-10.5,-0 -19.083,-3.209 -25.708,-9.667c-6.625,-6.458 -9.917,-15.042 -9.917,-25.792l0,-1.875c0,-7.208 1.375,-13.666 4.167,-19.333c2.791,-5.667 6.75,-10.042 11.833,-13.125c5.083,-3.083 10.917,-4.625 17.458,-4.625c9.792,0 17.542,3.083 23.167,9.292c5.625,6.208 8.458,14.958 8.458,26.333l0,7.833l-45.625,0c0.625,4.667 2.5,8.459 5.584,11.292c3.125,2.833 7.041,4.25 11.833,4.25c7.375,0 13.167,-2.667 17.292,-8.042l9.416,10.542c-2.875,4.083 -6.75,7.25 -11.666,9.5c-4.875,2.25 -10.334,3.417 -16.292,3.417Zm-2.167,-58.959c-3.791,0 -6.875,1.292 -9.25,3.875c-2.375,2.584 -3.875,6.25 -4.541,11.042l26.666,0l0,-1.542c-0.083,-4.25 -1.25,-7.541 -3.458,-9.875c-2.208,-2.333 -5.375,-3.5 -9.417,-3.5Z" style="fill:#2d3787;fill-rule:nonzero;"/>
            <path d="M2144.83,676.625l9.417,-45.667l18.5,0l-18.292,71.75l-16.041,0l-13.584,-45.166l-13.583,45.166l-15.958,0l-18.292,-71.75l18.5,0l9.333,45.625l13.125,-45.625l13.875,0l13,45.667Z" style="fill:#2d3787;fill-rule:nonzero;"/>
            <path d="M2223.79,702.708c-0.875,-1.708 -1.542,-3.875 -1.917,-6.416c-4.625,5.166 -10.667,7.75 -18.083,7.75c-7.042,-0 -12.834,-2.042 -17.459,-6.084c-4.625,-4.083 -6.916,-9.208 -6.916,-15.375c-0,-7.583 2.833,-13.416 8.458,-17.5c5.625,-4.083 13.792,-6.125 24.417,-6.166l8.833,-0l0,-4.125c0,-3.334 -0.833,-5.959 -2.542,-7.959c-1.708,-2 -4.375,-3 -8.041,-3c-3.209,0 -5.75,0.792 -7.584,2.334c-1.833,1.541 -2.75,3.666 -2.75,6.375l-19.166,-0c-0,-4.167 1.291,-8 3.833,-11.542c2.583,-3.542 6.208,-6.292 10.875,-8.333c4.667,-2 9.958,-3 15.792,-3c8.833,-0 15.875,2.208 21.041,6.666c5.209,4.459 7.792,10.667 7.792,18.75l-0,31.084c0.042,6.791 1,11.958 2.833,15.458l0,1.125l-19.416,0l-0,-0.042Zm-15.834,-13.333c2.834,0 5.417,-0.625 7.834,-1.875c2.375,-1.25 4.166,-2.958 5.291,-5.083l0,-12.334l-7.166,0c-9.584,0 -14.709,3.334 -15.334,9.959l-0.083,1.125c0,2.375 0.833,4.375 2.5,5.916c1.75,1.5 4.042,2.292 6.958,2.292Z" style="fill:#2d3787;fill-rule:nonzero;"/>
            <path d="M2280.83,675.583l13.25,-44.625l20.542,0l-28.833,82.875l-1.584,3.792c-4.291,9.375 -11.375,14.042 -21.208,14.042c-2.792,-0 -5.625,-0.417 -8.5,-1.25l0,-14.5l2.917,0.083c3.625,0 6.333,-0.542 8.125,-1.667c1.791,-1.125 3.208,-2.958 4.208,-5.5l2.25,-5.916l-25.125,-71.917l20.625,0l13.333,44.583Z" style="fill:#2d3787;fill-rule:nonzero;"/>
            <path d="M2312.12,693.292c0,-3.042 1.042,-5.542 3.083,-7.417c2.042,-1.917 4.625,-2.833 7.709,-2.833c3.125,-0 5.75,0.958 7.791,2.833c2.042,1.917 3.084,4.375 3.084,7.417c-0,3 -1,5.458 -3.042,7.333c-2.042,1.875 -4.625,2.833 -7.833,2.833c-3.125,0 -5.709,-0.958 -7.75,-2.833c-2.042,-1.917 -3.042,-4.333 -3.042,-7.333Z" style="fill:#2d3787;fill-rule:nonzero;"/>
        </g>
    </g>
</svg>
