<?xml version="1.0" encoding="UTF-8" standalone="no"?>
<!DOCTYPE svg PUBLIC "-//W3C//DTD SVG 1.1//EN" "http://www.w3.org/Graphics/SVG/1.1/DTD/svg11.dtd">
<svg xmlns="http://www.w3.org/2000/svg" version="1.1" viewBox="0.00 0.00 1015.00 593.00">
<g stroke-width="2.00" fill="none" stroke-linecap="butt">
<path stroke="#ef8496" vector-effect="non-scaling-stroke" d="
  M 892.60 61.73
  A 1.37 1.37 0.0 0 0 892.15 63.59
  L 918.95 108.59
  A 1.37 1.37 0.0 0 0 920.85 109.05
  L 990.73 65.60
  A 1.37 1.37 0.0 0 0 991.18 63.72
  L 963.56 18.79
  A 1.37 1.37 0.0 0 0 961.67 18.35
  L 892.60 61.73"
/>
<path stroke="#ef8496" vector-effect="non-scaling-stroke" d="
  M 362.20 350.01
  Q 360.72 350.01 361.53 348.77
  L 507.62 125.65
  A 0.60 0.59 -70.3 0 0 507.19 124.73
  Q 504.87 124.49 502.27 124.50
  Q 387.68 124.60 268.51 124.54
  Q 265.84 124.54 264.45 126.68
  Q 264.30 126.91 263.34 130.84
  Q 258.40 150.95 253.43 171.93
  Q 252.88 174.25 251.92 172.06
  Q 250.35 168.51 248.89 165.05
  C 234.52 131.05 199.83 119.95 165.57 117.25
  Q 149.49 115.98 132.99 116.82
  Q 100.60 118.47 68.23 125.42
  C 63.92 126.34 62.85 129.35 61.97 133.13
  Q 54.64 164.55 47.44 195.40
  A 0.45 0.45 0.0 0 0 47.78 195.95
  Q 48.04 196.01 48.33 196.00
  Q 48.63 195.99 48.88 195.89
  Q 70.94 186.91 88.92 183.55
  Q 118.66 177.99 150.43 181.33
  C 166.72 183.04 183.55 189.62 188.15 206.76
  Q 189.75 212.74 189.57 222.84
  Q 189.42 231.40 189.79 238.96
  Q 189.88 240.86 188.25 239.89
  C 180.19 235.09 172.22 230.39 163.54 227.34
  C 142.15 219.85 119.70 218.75 97.16 222.04
  Q 88.10 223.37 78.89 226.30
  Q 43.82 237.48 25.63 268.58
  Q 17.82 281.94 15.35 293.32
  Q 12.02 308.69 12.63 326.44
  C 13.67 356.54 27.38 383.98 51.25 402.42
  Q 67.81 415.22 87.31 419.96
  Q 107.60 424.88 130.68 423.09
  Q 153.20 421.35 171.65 410.92
  C 179.04 406.74 186.04 401.26 192.57 395.97
  A 0.68 0.68 0.0 0 1 193.68 396.50
  L 193.60 422.05
  Q 193.60 423.53 195.07 423.37
  Q 223.78 420.29 252.28 418.31
  Q 268.84 417.16 283.58 417.12
  Q 336.62 417.01 395.26 417.07
  C 404.85 417.08 414.81 416.69 424.43 416.78
  C 428.88 416.82 432.67 415.88 436.38 413.55
  Q 469.18 392.99 503.88 370.96
  Q 504.95 370.28 505.78 371.23
  Q 540.39 410.46 590.49 420.88
  C 609.67 424.86 629.90 425.39 649.31 423.18
  C 688.48 418.71 723.78 401.32 751.78 373.71
  A 1.30 1.30 0.0 0 1 753.87 374.08
  Q 758.74 384.34 764.26 391.68
  C 776.97 408.58 795.05 418.28 816.04 422.47
  Q 829.13 425.08 837.57 425.66
  Q 852.51 426.70 867.42 426.17
  C 870.48 426.06 877.04 425.77 878.28 422.20
  Q 879.31 419.26 880.11 416.28
  Q 887.61 388.31 894.93 361.26
  A 1.27 1.27 0.0 0 0 893.69 359.66
  Q 875.69 359.92 861.21 359.61
  Q 853.37 359.44 844.46 357.60
  C 823.45 353.24 816.51 337.75 815.07 317.92
  Q 814.11 304.72 814.10 292.65
  Q 814.07 237.29 814.07 181.30
  Q 814.07 176.03 818.51 173.30
  Q 853.03 152.10 886.65 130.72
  A 1.84 1.84 0.0 0 0 887.24 128.22
  L 860.49 83.32
  A 0.85 0.85 0.0 0 0 859.30 83.04
  L 815.26 110.50
  Q 814.40 111.04 814.40 110.03
  L 814.39 37.55
  Q 814.39 35.34 812.48 36.46
  Q 796.37 45.96 777.49 57.25
  Q 763.19 65.82 748.34 74.34
  C 745.85 75.77 741.53 78.05 741.53 81.50
  Q 741.45 126.62 741.54 171.58
  Q 741.55 173.46 740.25 172.10
  C 734.61 166.18 728.72 160.01 722.42 154.79
  Q 686.07 124.67 639.25 121.06
  C 608.37 118.69 577.47 122.16 549.81 137.90
  C 519.30 155.27 492.88 180.84 480.08 214.16
  Q 468.56 244.12 468.82 274.84
  Q 469.06 304.02 481.10 332.31
  C 483.58 338.14 486.76 343.87 489.75 349.35
  A 0.45 0.45 0.0 0 1 489.35 350.02
  L 362.20 350.01"
/>
<path stroke="#ef8496" vector-effect="non-scaling-stroke" d="
  M 991.36 129.86
  A 1.25 1.25 0.0 0 0 990.11 128.61
  L 921.33 128.61
  A 1.25 1.25 0.0 0 0 920.08 129.86
  L 920.08 422.50
  A 1.25 1.25 0.0 0 0 921.33 423.75
  L 990.11 423.75
  A 1.25 1.25 0.0 0 0 991.36 422.50
  L 991.36 129.86"
/>
<path stroke="#818182" vector-effect="non-scaling-stroke" d="
  M 511.57 540.23
  C 522.24 550.26 516.20 566.65 502.41 569.31
  Q 487.79 572.13 475.49 562.64
  A 1.30 1.30 0.0 0 0 473.68 562.85
  L 470.94 566.24
  A 1.39 1.38 -51.1 0 0 471.14 568.17
  Q 479.36 574.91 489.59 576.23
  C 501.33 577.74 513.29 575.56 520.66 565.98
  Q 524.92 560.44 524.85 551.95
  C 524.74 539.99 516.77 532.34 506.81 527.23
  Q 498.91 523.18 491.58 519.12
  C 485.87 515.95 481.61 511.50 481.28 504.73
  C 480.85 495.95 486.70 489.92 495.32 488.86
  Q 507.29 487.39 517.13 493.94
  Q 518.69 494.97 519.73 493.42
  L 521.86 490.27
  A 1.44 1.43 -56.7 0 0 521.45 488.26
  Q 507.17 479.07 490.08 483.07
  Q 482.74 484.79 477.57 491.12
  C 473.67 495.89 473.03 502.56 473.83 508.58
  C 474.67 514.97 479.48 520.66 484.81 524.01
  Q 491.81 528.41 501.04 532.97
  Q 506.94 535.88 511.57 540.23"
/>
<path stroke="#818182" vector-effect="non-scaling-stroke" d="
  M 638.32 535.90
  L 638.29 562.22
  A 2.00 1.99 -16.4 0 1 637.37 563.90
  C 629.36 569.04 618.50 570.50 609.16 569.65
  Q 590.03 567.91 581.09 549.90
  C 573.63 534.88 574.70 513.72 586.12 500.24
  Q 595.82 488.80 612.82 488.56
  Q 626.02 488.38 635.56 495.48
  Q 636.26 496.01 636.80 495.31
  L 640.19 490.94
  A 0.91 0.90 35.6 0 0 639.97 489.63
  Q 629.63 482.78 618.14 482.06
  Q 590.24 480.33 576.41 500.80
  C 566.41 515.61 565.75 535.91 573.15 551.83
  C 580.89 568.47 596.12 576.90 614.20 576.53
  C 625.34 576.30 635.64 574.26 645.14 567.83
  Q 645.57 567.53 645.72 567.04
  Q 646.01 566.09 646.01 565.07
  Q 645.97 546.59 646.00 528.81
  A 0.34 0.34 0.0 0 0 645.66 528.47
  L 617.71 528.53
  Q 617.20 528.53 617.19 529.04
  L 617.08 534.24
  A 0.91 0.91 0.0 0 0 617.99 535.16
  L 637.65 535.23
  Q 638.32 535.23 638.32 535.90"
/>
<path stroke="#818182" vector-effect="non-scaling-stroke" d="
  M 781.44 576.62
  C 834.34 575.65 839.91 494.23 790.50 482.87
  Q 784.12 481.40 775.16 482.12
  C 738.47 485.08 725.45 531.30 744.56 558.47
  Q 757.64 577.06 781.44 576.62"
/>
<path stroke="#818182" vector-effect="non-scaling-stroke" d="
  M 36.66 550.76
  A 0.67 0.67 0.0 0 1 37.29 550.32
  L 79.63 550.31
  A 0.67 0.67 0.0 0 1 80.25 550.74
  L 89.21 574.64
  A 0.67 0.67 0.0 0 0 89.83 575.08
  L 96.85 575.20
  A 0.67 0.67 0.0 0 0 97.49 574.29
  L 62.95 483.80
  A 0.67 0.67 0.0 0 0 62.33 483.36
  L 55.23 483.29
  A 0.67 0.67 0.0 0 0 54.59 483.72
  L 20.03 574.18
  A 0.67 0.67 0.0 0 0 20.66 575.09
  L 27.23 575.02
  A 0.67 0.67 0.0 0 0 27.85 574.58
  L 36.66 550.76"
/>
<path stroke="#818182" vector-effect="non-scaling-stroke" d="
  M 175.10 558.11
  Q 177.80 551.26 177.86 544.04
  Q 178.13 512.77 177.90 483.57
  Q 177.90 483.37 177.70 483.36
  L 171.01 483.24
  Q 170.73 483.23 170.73 483.50
  Q 170.77 512.17 170.65 541.00
  C 170.60 550.30 167.78 560.20 160.08 565.44
  C 152.99 570.26 141.20 570.86 133.48 568.05
  C 121.80 563.80 117.79 552.89 117.72 541.74
  Q 117.55 512.83 117.61 483.84
  Q 117.61 483.45 117.22 483.44
  L 110.24 483.29
  A 0.44 0.44 0.0 0 0 109.79 483.73
  Q 109.65 513.08 109.79 540.66
  Q 109.83 548.91 112.08 556.19
  C 117.74 574.54 136.10 578.58 153.10 575.80
  Q 169.17 573.17 175.10 558.11"
/>
<path stroke="#818182" vector-effect="non-scaling-stroke" d="
  M 228.09 530.40
  Q 234.76 530.10 240.56 527.99
  C 252.37 523.69 256.78 512.17 254.02 500.51
  C 251.28 488.95 240.10 483.94 229.26 483.58
  Q 218.95 483.23 203.44 483.34
  A 0.45 0.45 0.0 0 0 202.99 483.79
  L 203.03 574.36
  Q 203.03 575.20 203.87 575.20
  L 210.17 575.19
  A 0.78 0.77 90.0 0 0 210.94 574.41
  L 210.96 531.53
  A 0.73 0.73 0.0 0 1 211.65 530.80
  C 218.44 530.40 221.46 534.24 225.11 539.11
  Q 238.02 556.39 250.55 573.92
  A 2.89 2.89 0.0 0 0 252.86 575.13
  L 259.86 575.21
  Q 260.68 575.22 260.35 574.47
  Q 260.05 573.79 259.61 573.19
  Q 246.14 554.74 232.40 536.16
  C 231.04 534.33 229.40 532.74 227.80 531.17
  Q 227.06 530.45 228.09 530.40"
/>
<path stroke="#818182" vector-effect="non-scaling-stroke" d="
  M 335.84 541.49
  C 335.79 556.32 328.89 568.22 312.55 569.56
  C 300.97 570.50 289.17 566.49 285.16 554.45
  C 282.53 546.56 282.84 537.41 282.86 529.26
  Q 282.92 507.81 282.63 485.77
  Q 282.62 484.89 282.51 483.95
  Q 282.44 483.30 281.79 483.29
  L 275.97 483.27
  Q 275.37 483.27 275.37 483.87
  Q 275.29 514.46 275.36 543.12
  C 275.41 563.17 286.74 575.92 307.09 576.53
  Q 313.58 576.73 318.04 575.91
  Q 338.06 572.26 341.95 552.21
  Q 343.15 546.05 343.16 544.25
  Q 343.28 515.03 343.15 483.80
  A 0.35 0.34 0.9 0 0 342.81 483.46
  L 336.17 483.38
  A 0.29 0.28 -90.0 0 0 335.89 483.67
  Q 335.92 511.53 335.84 541.49"
/>
<path stroke="#818182" vector-effect="non-scaling-stroke" d="
  M 404.33 525.94
  C 405.28 525.51 406.43 525.40 407.37 524.95
  C 418.20 519.76 421.37 508.88 418.16 497.99
  Q 416.09 490.98 409.45 487.43
  Q 403.08 484.02 396.83 483.69
  Q 384.56 483.06 368.85 483.44
  A 0.61 0.60 89.5 0 0 368.26 484.05
  L 368.26 574.25
  A 0.76 0.76 0.0 0 0 369.01 575.01
  Q 382.54 575.14 393.76 574.90
  C 407.71 574.61 421.88 569.06 423.41 553.09
  Q 424.94 537.12 412.18 529.77
  C 409.72 528.36 407.02 527.62 404.36 526.64
  Q 403.49 526.32 404.33 525.94"
/>
<path stroke="#818182" vector-effect="non-scaling-stroke" d="
  M 451.54 484.04
  A 0.76 0.76 0.0 0 0 450.78 483.28
  L 444.56 483.28
  A 0.76 0.76 0.0 0 0 443.80 484.04
  L 443.80 574.34
  A 0.76 0.76 0.0 0 0 444.56 575.10
  L 450.78 575.10
  A 0.76 0.76 0.0 0 0 451.54 574.34
  L 451.54 484.04"
/>
<path stroke="#818182" vector-effect="non-scaling-stroke" d="
  M 694.71 530.42
  C 700.70 530.02 706.02 529.00 711.37 525.89
  C 720.43 520.62 722.68 510.13 720.52 500.32
  C 717.80 487.92 704.32 483.42 693.26 483.36
  Q 682.16 483.30 670.31 483.34
  Q 669.65 483.35 669.65 484.01
  L 669.67 574.82
  Q 669.67 575.08 669.94 575.09
  L 677.14 575.10
  Q 677.46 575.10 677.46 574.78
  L 677.45 531.99
  Q 677.44 530.71 678.72 530.74
  C 686.21 530.88 688.88 535.25 692.86 540.61
  Q 704.91 556.86 717.61 574.52
  A 1.61 1.61 0.0 0 0 719.07 575.18
  Q 722.54 574.82 725.85 575.13
  A 0.92 0.91 26.1 0 0 726.53 574.90
  Q 727.13 574.35 726.74 573.82
  Q 714.17 556.79 701.26 539.16
  C 699.17 536.31 696.95 533.65 694.42 531.21
  Q 693.67 530.49 694.71 530.42"
/>
<path stroke="#818182" vector-effect="non-scaling-stroke" d="
  M 885.27 568.71
  C 876.61 570.79 864.84 569.80 858.14 563.39
  C 852.12 557.64 850.35 548.44 850.31 540.19
  Q 850.20 512.51 850.28 483.63
  A 0.35 0.34 89.2 0 0 849.93 483.28
  L 842.77 483.36
  A 0.32 0.32 0.0 0 0 842.45 483.68
  Q 842.45 511.91 842.45 539.56
  C 842.44 557.17 848.54 572.37 867.67 575.81
  Q 876.14 577.34 885.68 575.84
  C 894.14 574.51 901.72 569.82 905.72 562.18
  Q 910.29 553.47 910.38 545.15
  Q 910.68 514.70 910.45 483.50
  Q 910.45 483.28 910.24 483.29
  L 903.14 483.38
  Q 903.03 483.39 903.03 483.50
  Q 903.02 512.02 903.06 542.34
  C 903.07 554.18 897.70 565.71 885.27 568.71"
/>
<path stroke="#818182" vector-effect="non-scaling-stroke" d="
  M 944.01 536.30
  Q 950.47 536.55 957.04 536.34
  C 969.18 535.96 982.38 530.79 986.02 517.96
  C 991.38 499.04 979.38 484.33 960.37 483.55
  Q 949.55 483.10 936.26 483.48
  Q 935.71 483.49 935.71 484.04
  L 935.73 574.79
  Q 935.73 575.09 936.04 575.09
  L 942.96 575.00
  Q 943.22 574.99 943.22 574.73
  L 943.26 537.03
  Q 943.26 536.28 944.01 536.30"
/>
<path stroke="#ef8496" vector-effect="non-scaling-stroke" d="
  M 587.08 189.89
  C 563.47 201.75 547.65 222.08 542.14 247.68
  Q 538.43 264.93 540.34 282.08
  A 0.65 0.64 71.0 0 0 541.32 282.56
  L 670.30 201.75
  A 0.39 0.39 0.0 0 0 670.39 201.16
  C 659.73 189.10 644.45 183.05 628.67 182.16
  Q 605.10 180.84 587.08 189.89"
/>
<path stroke="#ef8496" vector-effect="non-scaling-stroke" d="
  M 384.29 189.39
  A 0.85 0.85 0.0 0 0 383.58 188.07
  L 258.36 188.14
  A 0.85 0.85 0.0 0 0 257.51 188.99
  L 257.51 380.65
  A 0.85 0.85 0.0 0 0 259.07 381.12
  L 384.29 189.39"
/>
<path stroke="#ef8496" vector-effect="non-scaling-stroke" d="
  M 667.56 350.08
  C 695.90 339.00 718.94 320.13 738.96 296.13
  C 740.38 294.43 741.26 292.34 741.37 290.13
  Q 741.62 285.26 741.67 280.97
  Q 741.89 257.74 741.84 231.37
  Q 741.83 226.93 741.58 222.94
  A 0.60 0.60 0.0 0 0 740.67 222.47
  L 565.36 332.60
  A 1.00 0.99 50.3 0 0 565.22 334.18
  C 576.15 344.24 589.05 351.30 603.62 354.74
  Q 636.07 362.39 667.56 350.08"
/>
<path stroke="#ef8496" vector-effect="non-scaling-stroke" d="
  M 189.26 321.95
  C 190.22 303.65 182.87 288.59 165.68 281.29
  Q 136.18 268.76 106.63 282.29
  Q 86.89 291.34 84.90 313.45
  C 83.09 333.61 92.40 350.27 111.86 356.95
  C 128.71 362.74 149.22 362.49 165.72 355.67
  Q 187.96 346.48 189.26 321.95"
/>
<path stroke="#818182" vector-effect="non-scaling-stroke" d="
  M 812.11 549.26
  Q 819.44 533.19 814.44 515.63
  C 810.26 500.96 799.20 490.01 783.85 488.63
  C 773.89 487.74 764.75 490.29 757.26 496.87
  C 747.09 505.82 743.47 519.36 744.27 533.02
  C 745.27 550.06 755.46 565.84 772.86 569.31
  C 789.56 572.65 804.94 564.98 812.11 549.26"
/>
<path stroke="#818182" vector-effect="non-scaling-stroke" d="
  M 39.68 543.01
  A 0.49 0.49 0.0 0 0 40.14 543.67
  L 76.82 543.67
  A 0.49 0.49 0.0 0 0 77.28 543.01
  L 58.94 494.16
  A 0.49 0.49 0.0 0 0 58.02 494.16
  L 39.68 543.01"
/>
<path stroke="#818182" vector-effect="non-scaling-stroke" d="
  M 210.95 490.76
  L 210.95 523.76
  A 0.62 0.62 0.0 0 0 211.57 524.38
  L 227.83 524.38
  A 18.92 15.79 -0.0 0 0 246.75 508.59
  L 246.75 505.93
  A 18.92 15.79 0.0 0 0 227.83 490.14
  L 211.57 490.14
  A 0.62 0.62 0.0 0 0 210.95 490.76"
/>
<path stroke="#818182" vector-effect="non-scaling-stroke" d="
  M 375.75 490.81
  L 375.87 522.73
  A 0.68 0.68 0.0 0 0 376.55 523.41
  L 393.40 523.35
  A 18.01 14.89 -0.2 0 0 411.36 508.40
  L 411.34 504.90
  A 18.01 14.89 -0.2 0 0 393.28 490.07
  L 376.43 490.13
  A 0.68 0.68 0.0 0 0 375.75 490.81"
/>
<path stroke="#818182" vector-effect="non-scaling-stroke" d="
  M 375.89 530.60
  L 375.69 567.76
  A 0.49 0.49 0.0 0 0 376.18 568.25
  L 394.30 568.34
  A 21.09 17.80 0.3 0 0 415.48 550.65
  L 415.50 548.11
  A 21.09 17.80 0.3 0 0 394.50 530.20
  L 376.38 530.11
  A 0.49 0.49 0.0 0 0 375.89 530.60"
/>
<path stroke="#818182" vector-effect="non-scaling-stroke" d="
  M 677.54 490.53
  L 677.36 523.89
  A 0.45 0.45 0.0 0 0 677.81 524.34
  L 694.01 524.42
  A 19.15 15.36 0.3 0 0 713.24 509.16
  L 713.26 505.62
  A 19.15 15.36 0.3 0 0 694.19 490.16
  L 677.99 490.08
  A 0.45 0.45 0.0 0 0 677.54 490.53"
/>
<path stroke="#818182" vector-effect="non-scaling-stroke" d="
  M 943.49 490.70
  L 943.55 528.78
  A 0.56 0.56 0.0 0 0 944.11 529.34
  L 959.01 529.31
  A 20.20 17.96 -0.1 0 0 979.18 511.32
  L 979.18 508.04
  A 20.20 17.96 -0.1 0 0 958.95 490.11
  L 944.05 490.14
  A 0.56 0.56 0.0 0 0 943.49 490.70"
/>
</g>
<g fill="#ffffff">
<path d="
  M 0.00 0.00
  L 1015.00 0.00
  L 1015.00 593.00
  L 0.00 593.00
  L 0.00 0.00
  Z
  M 892.60 61.73
  A 1.37 1.37 0.0 0 0 892.15 63.59
  L 918.95 108.59
  A 1.37 1.37 0.0 0 0 920.85 109.05
  L 990.73 65.60
  A 1.37 1.37 0.0 0 0 991.18 63.72
  L 963.56 18.79
  A 1.37 1.37 0.0 0 0 961.67 18.35
  L 892.60 61.73
  Z
  M 362.20 350.01
  Q 360.72 350.01 361.53 348.77
  L 507.62 125.65
  A 0.60 0.59 -70.3 0 0 507.19 124.73
  Q 504.87 124.49 502.27 124.50
  Q 387.68 124.60 268.51 124.54
  Q 265.84 124.54 264.45 126.68
  Q 264.30 126.91 263.34 130.84
  Q 258.40 150.95 253.43 171.93
  Q 252.88 174.25 251.92 172.06
  Q 250.35 168.51 248.89 165.05
  C 234.52 131.05 199.83 119.95 165.57 117.25
  Q 149.49 115.98 132.99 116.82
  Q 100.60 118.47 68.23 125.42
  C 63.92 126.34 62.85 129.35 61.97 133.13
  Q 54.64 164.55 47.44 195.40
  A 0.45 0.45 0.0 0 0 47.78 195.95
  Q 48.04 196.01 48.33 196.00
  Q 48.63 195.99 48.88 195.89
  Q 70.94 186.91 88.92 183.55
  Q 118.66 177.99 150.43 181.33
  C 166.72 183.04 183.55 189.62 188.15 206.76
  Q 189.75 212.74 189.57 222.84
  Q 189.42 231.40 189.79 238.96
  Q 189.88 240.86 188.25 239.89
  C 180.19 235.09 172.22 230.39 163.54 227.34
  C 142.15 219.85 119.70 218.75 97.16 222.04
  Q 88.10 223.37 78.89 226.30
  Q 43.82 237.48 25.63 268.58
  Q 17.82 281.94 15.35 293.32
  Q 12.02 308.69 12.63 326.44
  C 13.67 356.54 27.38 383.98 51.25 402.42
  Q 67.81 415.22 87.31 419.96
  Q 107.60 424.88 130.68 423.09
  Q 153.20 421.35 171.65 410.92
  C 179.04 406.74 186.04 401.26 192.57 395.97
  A 0.68 0.68 0.0 0 1 193.68 396.50
  L 193.60 422.05
  Q 193.60 423.53 195.07 423.37
  Q 223.78 420.29 252.28 418.31
  Q 268.84 417.16 283.58 417.12
  Q 336.62 417.01 395.26 417.07
  C 404.85 417.08 414.81 416.69 424.43 416.78
  C 428.88 416.82 432.67 415.88 436.38 413.55
  Q 469.18 392.99 503.88 370.96
  Q 504.95 370.28 505.78 371.23
  Q 540.39 410.46 590.49 420.88
  C 609.67 424.86 629.90 425.39 649.31 423.18
  C 688.48 418.71 723.78 401.32 751.78 373.71
  A 1.30 1.30 0.0 0 1 753.87 374.08
  Q 758.74 384.34 764.26 391.68
  C 776.97 408.58 795.05 418.28 816.04 422.47
  Q 829.13 425.08 837.57 425.66
  Q 852.51 426.70 867.42 426.17
  C 870.48 426.06 877.04 425.77 878.28 422.20
  Q 879.31 419.26 880.11 416.28
  Q 887.61 388.31 894.93 361.26
  A 1.27 1.27 0.0 0 0 893.69 359.66
  Q 875.69 359.92 861.21 359.61
  Q 853.37 359.44 844.46 357.60
  C 823.45 353.24 816.51 337.75 815.07 317.92
  Q 814.11 304.72 814.10 292.65
  Q 814.07 237.29 814.07 181.30
  Q 814.07 176.03 818.51 173.30
  Q 853.03 152.10 886.65 130.72
  A 1.84 1.84 0.0 0 0 887.24 128.22
  L 860.49 83.32
  A 0.85 0.85 0.0 0 0 859.30 83.04
  L 815.26 110.50
  Q 814.40 111.04 814.40 110.03
  L 814.39 37.55
  Q 814.39 35.34 812.48 36.46
  Q 796.37 45.96 777.49 57.25
  Q 763.19 65.82 748.34 74.34
  C 745.85 75.77 741.53 78.05 741.53 81.50
  Q 741.45 126.62 741.54 171.58
  Q 741.55 173.46 740.25 172.10
  C 734.61 166.18 728.72 160.01 722.42 154.79
  Q 686.07 124.67 639.25 121.06
  C 608.37 118.69 577.47 122.16 549.81 137.90
  C 519.30 155.27 492.88 180.84 480.08 214.16
  Q 468.56 244.12 468.82 274.84
  Q 469.06 304.02 481.10 332.31
  C 483.58 338.14 486.76 343.87 489.75 349.35
  A 0.45 0.45 0.0 0 1 489.35 350.02
  L 362.20 350.01
  Z
  M 991.36 129.86
  A 1.25 1.25 0.0 0 0 990.11 128.61
  L 921.33 128.61
  A 1.25 1.25 0.0 0 0 920.08 129.86
  L 920.08 422.50
  A 1.25 1.25 0.0 0 0 921.33 423.75
  L 990.11 423.75
  A 1.25 1.25 0.0 0 0 991.36 422.50
  L 991.36 129.86
  Z
  M 511.57 540.23
  C 522.24 550.26 516.20 566.65 502.41 569.31
  Q 487.79 572.13 475.49 562.64
  A 1.30 1.30 0.0 0 0 473.68 562.85
  L 470.94 566.24
  A 1.39 1.38 -51.1 0 0 471.14 568.17
  Q 479.36 574.91 489.59 576.23
  C 501.33 577.74 513.29 575.56 520.66 565.98
  Q 524.92 560.44 524.85 551.95
  C 524.74 539.99 516.77 532.34 506.81 527.23
  Q 498.91 523.18 491.58 519.12
  C 485.87 515.95 481.61 511.50 481.28 504.73
  C 480.85 495.95 486.70 489.92 495.32 488.86
  Q 507.29 487.39 517.13 493.94
  Q 518.69 494.97 519.73 493.42
  L 521.86 490.27
  A 1.44 1.43 -56.7 0 0 521.45 488.26
  Q 507.17 479.07 490.08 483.07
  Q 482.74 484.79 477.57 491.12
  C 473.67 495.89 473.03 502.56 473.83 508.58
  C 474.67 514.97 479.48 520.66 484.81 524.01
  Q 491.81 528.41 501.04 532.97
  Q 506.94 535.88 511.57 540.23
  Z
  M 638.32 535.90
  L 638.29 562.22
  A 2.00 1.99 -16.4 0 1 637.37 563.90
  C 629.36 569.04 618.50 570.50 609.16 569.65
  Q 590.03 567.91 581.09 549.90
  C 573.63 534.88 574.70 513.72 586.12 500.24
  Q 595.82 488.80 612.82 488.56
  Q 626.02 488.38 635.56 495.48
  Q 636.26 496.01 636.80 495.31
  L 640.19 490.94
  A 0.91 0.90 35.6 0 0 639.97 489.63
  Q 629.63 482.78 618.14 482.06
  Q 590.24 480.33 576.41 500.80
  C 566.41 515.61 565.75 535.91 573.15 551.83
  C 580.89 568.47 596.12 576.90 614.20 576.53
  C 625.34 576.30 635.64 574.26 645.14 567.83
  Q 645.57 567.53 645.72 567.04
  Q 646.01 566.09 646.01 565.07
  Q 645.97 546.59 646.00 528.81
  A 0.34 0.34 0.0 0 0 645.66 528.47
  L 617.71 528.53
  Q 617.20 528.53 617.19 529.04
  L 617.08 534.24
  A 0.91 0.91 0.0 0 0 617.99 535.16
  L 637.65 535.23
  Q 638.32 535.23 638.32 535.90
  Z
  M 781.44 576.62
  C 834.34 575.65 839.91 494.23 790.50 482.87
  Q 784.12 481.40 775.16 482.12
  C 738.47 485.08 725.45 531.30 744.56 558.47
  Q 757.64 577.06 781.44 576.62
  Z
  M 36.66 550.76
  A 0.67 0.67 0.0 0 1 37.29 550.32
  L 79.63 550.31
  A 0.67 0.67 0.0 0 1 80.25 550.74
  L 89.21 574.64
  A 0.67 0.67 0.0 0 0 89.83 575.08
  L 96.85 575.20
  A 0.67 0.67 0.0 0 0 97.49 574.29
  L 62.95 483.80
  A 0.67 0.67 0.0 0 0 62.33 483.36
  L 55.23 483.29
  A 0.67 0.67 0.0 0 0 54.59 483.72
  L 20.03 574.18
  A 0.67 0.67 0.0 0 0 20.66 575.09
  L 27.23 575.02
  A 0.67 0.67 0.0 0 0 27.85 574.58
  L 36.66 550.76
  Z
  M 175.10 558.11
  Q 177.80 551.26 177.86 544.04
  Q 178.13 512.77 177.90 483.57
  Q 177.90 483.37 177.70 483.36
  L 171.01 483.24
  Q 170.73 483.23 170.73 483.50
  Q 170.77 512.17 170.65 541.00
  C 170.60 550.30 167.78 560.20 160.08 565.44
  C 152.99 570.26 141.20 570.86 133.48 568.05
  C 121.80 563.80 117.79 552.89 117.72 541.74
  Q 117.55 512.83 117.61 483.84
  Q 117.61 483.45 117.22 483.44
  L 110.24 483.29
  A 0.44 0.44 0.0 0 0 109.79 483.73
  Q 109.65 513.08 109.79 540.66
  Q 109.83 548.91 112.08 556.19
  C 117.74 574.54 136.10 578.58 153.10 575.80
  Q 169.17 573.17 175.10 558.11
  Z
  M 228.09 530.40
  Q 234.76 530.10 240.56 527.99
  C 252.37 523.69 256.78 512.17 254.02 500.51
  C 251.28 488.95 240.10 483.94 229.26 483.58
  Q 218.95 483.23 203.44 483.34
  A 0.45 0.45 0.0 0 0 202.99 483.79
  L 203.03 574.36
  Q 203.03 575.20 203.87 575.20
  L 210.17 575.19
  A 0.78 0.77 90.0 0 0 210.94 574.41
  L 210.96 531.53
  A 0.73 0.73 0.0 0 1 211.65 530.80
  C 218.44 530.40 221.46 534.24 225.11 539.11
  Q 238.02 556.39 250.55 573.92
  A 2.89 2.89 0.0 0 0 252.86 575.13
  L 259.86 575.21
  Q 260.68 575.22 260.35 574.47
  Q 260.05 573.79 259.61 573.19
  Q 246.14 554.74 232.40 536.16
  C 231.04 534.33 229.40 532.74 227.80 531.17
  Q 227.06 530.45 228.09 530.40
  Z
  M 335.84 541.49
  C 335.79 556.32 328.89 568.22 312.55 569.56
  C 300.97 570.50 289.17 566.49 285.16 554.45
  C 282.53 546.56 282.84 537.41 282.86 529.26
  Q 282.92 507.81 282.63 485.77
  Q 282.62 484.89 282.51 483.95
  Q 282.44 483.30 281.79 483.29
  L 275.97 483.27
  Q 275.37 483.27 275.37 483.87
  Q 275.29 514.46 275.36 543.12
  C 275.41 563.17 286.74 575.92 307.09 576.53
  Q 313.58 576.73 318.04 575.91
  Q 338.06 572.26 341.95 552.21
  Q 343.15 546.05 343.16 544.25
  Q 343.28 515.03 343.15 483.80
  A 0.35 0.34 0.9 0 0 342.81 483.46
  L 336.17 483.38
  A 0.29 0.28 -90.0 0 0 335.89 483.67
  Q 335.92 511.53 335.84 541.49
  Z
  M 404.33 525.94
  C 405.28 525.51 406.43 525.40 407.37 524.95
  C 418.20 519.76 421.37 508.88 418.16 497.99
  Q 416.09 490.98 409.45 487.43
  Q 403.08 484.02 396.83 483.69
  Q 384.56 483.06 368.85 483.44
  A 0.61 0.60 89.5 0 0 368.26 484.05
  L 368.26 574.25
  A 0.76 0.76 0.0 0 0 369.01 575.01
  Q 382.54 575.14 393.76 574.90
  C 407.71 574.61 421.88 569.06 423.41 553.09
  Q 424.94 537.12 412.18 529.77
  C 409.72 528.36 407.02 527.62 404.36 526.64
  Q 403.49 526.32 404.33 525.94
  Z
  M 451.54 484.04
  A 0.76 0.76 0.0 0 0 450.78 483.28
  L 444.56 483.28
  A 0.76 0.76 0.0 0 0 443.80 484.04
  L 443.80 574.34
  A 0.76 0.76 0.0 0 0 444.56 575.10
  L 450.78 575.10
  A 0.76 0.76 0.0 0 0 451.54 574.34
  L 451.54 484.04
  Z
  M 694.71 530.42
  C 700.70 530.02 706.02 529.00 711.37 525.89
  C 720.43 520.62 722.68 510.13 720.52 500.32
  C 717.80 487.92 704.32 483.42 693.26 483.36
  Q 682.16 483.30 670.31 483.34
  Q 669.65 483.35 669.65 484.01
  L 669.67 574.82
  Q 669.67 575.08 669.94 575.09
  L 677.14 575.10
  Q 677.46 575.10 677.46 574.78
  L 677.45 531.99
  Q 677.44 530.71 678.72 530.74
  C 686.21 530.88 688.88 535.25 692.86 540.61
  Q 704.91 556.86 717.61 574.52
  A 1.61 1.61 0.0 0 0 719.07 575.18
  Q 722.54 574.82 725.85 575.13
  A 0.92 0.91 26.1 0 0 726.53 574.90
  Q 727.13 574.35 726.74 573.82
  Q 714.17 556.79 701.26 539.16
  C 699.17 536.31 696.95 533.65 694.42 531.21
  Q 693.67 530.49 694.71 530.42
  Z
  M 885.27 568.71
  C 876.61 570.79 864.84 569.80 858.14 563.39
  C 852.12 557.64 850.35 548.44 850.31 540.19
  Q 850.20 512.51 850.28 483.63
  A 0.35 0.34 89.2 0 0 849.93 483.28
  L 842.77 483.36
  A 0.32 0.32 0.0 0 0 842.45 483.68
  Q 842.45 511.91 842.45 539.56
  C 842.44 557.17 848.54 572.37 867.67 575.81
  Q 876.14 577.34 885.68 575.84
  C 894.14 574.51 901.72 569.82 905.72 562.18
  Q 910.29 553.47 910.38 545.15
  Q 910.68 514.70 910.45 483.50
  Q 910.45 483.28 910.24 483.29
  L 903.14 483.38
  Q 903.03 483.39 903.03 483.50
  Q 903.02 512.02 903.06 542.34
  C 903.07 554.18 897.70 565.71 885.27 568.71
  Z
  M 944.01 536.30
  Q 950.47 536.55 957.04 536.34
  C 969.18 535.96 982.38 530.79 986.02 517.96
  C 991.38 499.04 979.38 484.33 960.37 483.55
  Q 949.55 483.10 936.26 483.48
  Q 935.71 483.49 935.71 484.04
  L 935.73 574.79
  Q 935.73 575.09 936.04 575.09
  L 942.96 575.00
  Q 943.22 574.99 943.22 574.73
  L 943.26 537.03
  Q 943.26 536.28 944.01 536.30
  Z"
/>
<path d="
  M 587.08 189.89
  Q 605.10 180.84 628.67 182.16
  C 644.45 183.05 659.73 189.10 670.39 201.16
  A 0.39 0.39 0.0 0 1 670.30 201.75
  L 541.32 282.56
  A 0.65 0.64 71.0 0 1 540.34 282.08
  Q 538.43 264.93 542.14 247.68
  C 547.65 222.08 563.47 201.75 587.08 189.89
  Z"
/>
<path d="
  M 384.29 189.39
  L 259.07 381.12
  A 0.85 0.85 0.0 0 1 257.51 380.65
  L 257.51 188.99
  A 0.85 0.85 0.0 0 1 258.36 188.14
  L 383.58 188.07
  A 0.85 0.85 0.0 0 1 384.29 189.39
  Z"
/>
<path d="
  M 667.56 350.08
  Q 636.07 362.39 603.62 354.74
  C 589.05 351.30 576.15 344.24 565.22 334.18
  A 1.00 0.99 50.3 0 1 565.36 332.60
  L 740.67 222.47
  A 0.60 0.60 0.0 0 1 741.58 222.94
  Q 741.83 226.93 741.84 231.37
  Q 741.89 257.74 741.67 280.97
  Q 741.62 285.26 741.37 290.13
  C 741.26 292.34 740.38 294.43 738.96 296.13
  C 718.94 320.13 695.90 339.00 667.56 350.08
  Z"
/>
<path d="
  M 165.68 281.29
  C 182.87 288.59 190.22 303.65 189.26 321.95
  Q 187.96 346.48 165.72 355.67
  C 149.22 362.49 128.71 362.74 111.86 356.95
  C 92.40 350.27 83.09 333.61 84.90 313.45
  Q 86.89 291.34 106.63 282.29
  Q 136.18 268.76 165.68 281.29
  Z"
/>
<path d="
  M 812.11 549.26
  C 804.94 564.98 789.56 572.65 772.86 569.31
  C 755.46 565.84 745.27 550.06 744.27 533.02
  C 743.47 519.36 747.09 505.82 757.26 496.87
  C 764.75 490.29 773.89 487.74 783.85 488.63
  C 799.20 490.01 810.26 500.96 814.44 515.63
  Q 819.44 533.19 812.11 549.26
  Z"
/>
<path d="
  M 677.54 490.53
  A 0.45 0.45 0.0 0 1 677.99 490.08
  L 694.19 490.16
  A 19.15 15.36 0.3 0 1 713.26 505.62
  L 713.24 509.16
  A 19.15 15.36 0.3 0 1 694.01 524.42
  L 677.81 524.34
  A 0.45 0.45 0.0 0 1 677.36 523.89
  L 677.54 490.53
  Z"
/>
<path d="
  M 210.95 490.76
  A 0.62 0.62 0.0 0 1 211.57 490.14
  L 227.83 490.14
  A 18.92 15.79 0.0 0 1 246.75 505.93
  L 246.75 508.59
  A 18.92 15.79 0.0 0 1 227.83 524.38
  L 211.57 524.38
  A 0.62 0.62 0.0 0 1 210.95 523.76
  L 210.95 490.76
  Z"
/>
<path d="
  M 375.75 490.81
  A 0.68 0.68 0.0 0 1 376.43 490.13
  L 393.28 490.07
  A 18.01 14.89 -0.2 0 1 411.34 504.90
  L 411.36 508.40
  A 18.01 14.89 -0.2 0 1 393.40 523.35
  L 376.55 523.41
  A 0.68 0.68 0.0 0 1 375.87 522.73
  L 375.75 490.81
  Z"
/>
<path d="
  M 943.49 490.70
  A 0.56 0.56 0.0 0 1 944.05 490.14
  L 958.95 490.11
  A 20.20 17.96 -0.1 0 1 979.18 508.04
  L 979.18 511.32
  A 20.20 17.96 -0.1 0 1 959.01 529.31
  L 944.11 529.34
  A 0.56 0.56 0.0 0 1 943.55 528.78
  L 943.49 490.70
  Z"
/>
<path d="
  M 39.68 543.01
  L 58.02 494.16
  A 0.49 0.49 0.0 0 1 58.94 494.16
  L 77.28 543.01
  A 0.49 0.49 0.0 0 1 76.82 543.67
  L 40.14 543.67
  A 0.49 0.49 0.0 0 1 39.68 543.01
  Z"
/>
<path d="
  M 375.89 530.60
  A 0.49 0.49 0.0 0 1 376.38 530.11
  L 394.50 530.20
  A 21.09 17.80 0.3 0 1 415.50 548.11
  L 415.48 550.65
  A 21.09 17.80 0.3 0 1 394.30 568.34
  L 376.18 568.25
  A 0.49 0.49 0.0 0 1 375.69 567.76
  L 375.89 530.60
  Z"
/>
</g>
<g fill="#de082c">
<path d="
  M 892.60 61.73
  L 961.67 18.35
  A 1.37 1.37 0.0 0 1 963.56 18.79
  L 991.18 63.72
  A 1.37 1.37 0.0 0 1 990.73 65.60
  L 920.85 109.05
  A 1.37 1.37 0.0 0 1 918.95 108.59
  L 892.15 63.59
  A 1.37 1.37 0.0 0 1 892.60 61.73
  Z"
/>
<path d="
  M 362.20 350.01
  L 489.35 350.02
  A 0.45 0.45 0.0 0 0 489.75 349.35
  C 486.76 343.87 483.58 338.14 481.10 332.31
  Q 469.06 304.02 468.82 274.84
  Q 468.56 244.12 480.08 214.16
  C 492.88 180.84 519.30 155.27 549.81 137.90
  C 577.47 122.16 608.37 118.69 639.25 121.06
  Q 686.07 124.67 722.42 154.79
  C 728.72 160.01 734.61 166.18 740.25 172.10
  Q 741.55 173.46 741.54 171.58
  Q 741.45 126.62 741.53 81.50
  C 741.53 78.05 745.85 75.77 748.34 74.34
  Q 763.19 65.82 777.49 57.25
  Q 796.37 45.96 812.48 36.46
  Q 814.39 35.34 814.39 37.55
  L 814.40 110.03
  Q 814.40 111.04 815.26 110.50
  L 859.30 83.04
  A 0.85 0.85 0.0 0 1 860.49 83.32
  L 887.24 128.22
  A 1.84 1.84 0.0 0 1 886.65 130.72
  Q 853.03 152.10 818.51 173.30
  Q 814.07 176.03 814.07 181.30
  Q 814.07 237.29 814.10 292.65
  Q 814.11 304.72 815.07 317.92
  C 816.51 337.75 823.45 353.24 844.46 357.60
  Q 853.37 359.44 861.21 359.61
  Q 875.69 359.92 893.69 359.66
  A 1.27 1.27 0.0 0 1 894.93 361.26
  Q 887.61 388.31 880.11 416.28
  Q 879.31 419.26 878.28 422.20
  C 877.04 425.77 870.48 426.06 867.42 426.17
  Q 852.51 426.70 837.57 425.66
  Q 829.13 425.08 816.04 422.47
  C 795.05 418.28 776.97 408.58 764.26 391.68
  Q 758.74 384.34 753.87 374.08
  A 1.30 1.30 0.0 0 0 751.78 373.71
  C 723.78 401.32 688.48 418.71 649.31 423.18
  C 629.90 425.39 609.67 424.86 590.49 420.88
  Q 540.39 410.46 505.78 371.23
  Q 504.95 370.28 503.88 370.96
  Q 469.18 392.99 436.38 413.55
  C 432.67 415.88 428.88 416.82 424.43 416.78
  C 414.81 416.69 404.85 417.08 395.26 417.07
  Q 336.62 417.01 283.58 417.12
  Q 268.84 417.16 252.28 418.31
  Q 223.78 420.29 195.07 423.37
  Q 193.60 423.53 193.60 422.05
  L 193.68 396.50
  A 0.68 0.68 0.0 0 0 192.57 395.97
  C 186.04 401.26 179.04 406.74 171.65 410.92
  Q 153.20 421.35 130.68 423.09
  Q 107.60 424.88 87.31 419.96
  Q 67.81 415.22 51.25 402.42
  C 27.38 383.98 13.67 356.54 12.63 326.44
  Q 12.02 308.69 15.35 293.32
  Q 17.82 281.94 25.63 268.58
  Q 43.82 237.48 78.89 226.30
  Q 88.10 223.37 97.16 222.04
  C 119.70 218.75 142.15 219.85 163.54 227.34
  C 172.22 230.39 180.19 235.09 188.25 239.89
  Q 189.88 240.86 189.79 238.96
  Q 189.42 231.40 189.57 222.84
  Q 189.75 212.74 188.15 206.76
  C 183.55 189.62 166.72 183.04 150.43 181.33
  Q 118.66 177.99 88.92 183.55
  Q 70.94 186.91 48.88 195.89
  Q 48.63 195.99 48.33 196.00
  Q 48.04 196.01 47.78 195.95
  A 0.45 0.45 0.0 0 1 47.44 195.40
  Q 54.64 164.55 61.97 133.13
  C 62.85 129.35 63.92 126.34 68.23 125.42
  Q 100.60 118.47 132.99 116.82
  Q 149.49 115.98 165.57 117.25
  C 199.83 119.95 234.52 131.05 248.89 165.05
  Q 250.35 168.51 251.92 172.06
  Q 252.88 174.25 253.43 171.93
  Q 258.40 150.95 263.34 130.84
  Q 264.30 126.91 264.45 126.68
  Q 265.84 124.54 268.51 124.54
  Q 387.68 124.60 502.27 124.50
  Q 504.87 124.49 507.19 124.73
  A 0.60 0.59 -70.3 0 1 507.62 125.65
  L 361.53 348.77
  Q 360.72 350.01 362.20 350.01
  Z
  M 587.08 189.89
  C 563.47 201.75 547.65 222.08 542.14 247.68
  Q 538.43 264.93 540.34 282.08
  A 0.65 0.64 71.0 0 0 541.32 282.56
  L 670.30 201.75
  A 0.39 0.39 0.0 0 0 670.39 201.16
  C 659.73 189.10 644.45 183.05 628.67 182.16
  Q 605.10 180.84 587.08 189.89
  Z
  M 384.29 189.39
  A 0.85 0.85 0.0 0 0 383.58 188.07
  L 258.36 188.14
  A 0.85 0.85 0.0 0 0 257.51 188.99
  L 257.51 380.65
  A 0.85 0.85 0.0 0 0 259.07 381.12
  L 384.29 189.39
  Z
  M 667.56 350.08
  C 695.90 339.00 718.94 320.13 738.96 296.13
  C 740.38 294.43 741.26 292.34 741.37 290.13
  Q 741.62 285.26 741.67 280.97
  Q 741.89 257.74 741.84 231.37
  Q 741.83 226.93 741.58 222.94
  A 0.60 0.60 0.0 0 0 740.67 222.47
  L 565.36 332.60
  A 1.00 0.99 50.3 0 0 565.22 334.18
  C 576.15 344.24 589.05 351.30 603.62 354.74
  Q 636.07 362.39 667.56 350.08
  Z
  M 189.26 321.95
  C 190.22 303.65 182.87 288.59 165.68 281.29
  Q 136.18 268.76 106.63 282.29
  Q 86.89 291.34 84.90 313.45
  C 83.09 333.61 92.40 350.27 111.86 356.95
  C 128.71 362.74 149.22 362.49 165.72 355.67
  Q 187.96 346.48 189.26 321.95
  Z"
/>
<rect x="920.08" y="128.61" width="71.28" height="295.14" rx="1.25"/>
</g>
<g fill="#030304">
<path d="
  M 502.41 569.31
  C 516.20 566.65 522.24 550.26 511.57 540.23
  Q 506.94 535.88 501.04 532.97
  Q 491.81 528.41 484.81 524.01
  C 479.48 520.66 474.67 514.97 473.83 508.58
  C 473.03 502.56 473.67 495.89 477.57 491.12
  Q 482.74 484.79 490.08 483.07
  Q 507.17 479.07 521.45 488.26
  A 1.44 1.43 -56.7 0 1 521.86 490.27
  L 519.73 493.42
  Q 518.69 494.97 517.13 493.94
  Q 507.29 487.39 495.32 488.86
  C 486.70 489.92 480.85 495.95 481.28 504.73
  C 481.61 511.50 485.87 515.95 491.58 519.12
  Q 498.91 523.18 506.81 527.23
  C 516.77 532.34 524.74 539.99 524.85 551.95
  Q 524.92 560.44 520.66 565.98
  C 513.29 575.56 501.33 577.74 489.59 576.23
  Q 479.36 574.91 471.14 568.17
  A 1.39 1.38 -51.1 0 1 470.94 566.24
  L 473.68 562.85
  A 1.30 1.30 0.0 0 1 475.49 562.64
  Q 487.79 572.13 502.41 569.31
  Z"
/>
<path d="
  M 637.65 535.23
  L 617.99 535.16
  A 0.91 0.91 0.0 0 1 617.08 534.24
  L 617.19 529.04
  Q 617.20 528.53 617.71 528.53
  L 645.66 528.47
  A 0.34 0.34 0.0 0 1 646.00 528.81
  Q 645.97 546.59 646.01 565.07
  Q 646.01 566.09 645.72 567.04
  Q 645.57 567.53 645.14 567.83
  C 635.64 574.26 625.34 576.30 614.20 576.53
  C 596.12 576.90 580.89 568.47 573.15 551.83
  C 565.75 535.91 566.41 515.61 576.41 500.80
  Q 590.24 480.33 618.14 482.06
  Q 629.63 482.78 639.97 489.63
  A 0.91 0.90 35.6 0 1 640.19 490.94
  L 636.80 495.31
  Q 636.26 496.01 635.56 495.48
  Q 626.02 488.38 612.82 488.56
  Q 595.82 488.80 586.12 500.24
  C 574.70 513.72 573.63 534.88 581.09 549.90
  Q 590.03 567.91 609.16 569.65
  C 618.50 570.50 629.36 569.04 637.37 563.90
  A 2.00 1.99 -16.4 0 0 638.29 562.22
  L 638.32 535.90
  Q 638.32 535.23 637.65 535.23
  Z"
/>
<path d="
  M 790.50 482.87
  C 839.91 494.23 834.34 575.65 781.44 576.62
  Q 757.64 577.06 744.56 558.47
  C 725.45 531.30 738.47 485.08 775.16 482.12
  Q 784.12 481.40 790.50 482.87
  Z
  M 812.11 549.26
  Q 819.44 533.19 814.44 515.63
  C 810.26 500.96 799.20 490.01 783.85 488.63
  C 773.89 487.74 764.75 490.29 757.26 496.87
  C 747.09 505.82 743.47 519.36 744.27 533.02
  C 745.27 550.06 755.46 565.84 772.86 569.31
  C 789.56 572.65 804.94 564.98 812.11 549.26
  Z"
/>
<path d="
  M 36.66 550.76
  L 27.85 574.58
  A 0.67 0.67 0.0 0 1 27.23 575.02
  L 20.66 575.09
  A 0.67 0.67 0.0 0 1 20.03 574.18
  L 54.59 483.72
  A 0.67 0.67 0.0 0 1 55.23 483.29
  L 62.33 483.36
  A 0.67 0.67 0.0 0 1 62.95 483.80
  L 97.49 574.29
  A 0.67 0.67 0.0 0 1 96.85 575.20
  L 89.83 575.08
  A 0.67 0.67 0.0 0 1 89.21 574.64
  L 80.25 550.74
  A 0.67 0.67 0.0 0 0 79.63 550.31
  L 37.29 550.32
  A 0.67 0.67 0.0 0 0 36.66 550.76
  Z
  M 39.68 543.01
  A 0.49 0.49 0.0 0 0 40.14 543.67
  L 76.82 543.67
  A 0.49 0.49 0.0 0 0 77.28 543.01
  L 58.94 494.16
  A 0.49 0.49 0.0 0 0 58.02 494.16
  L 39.68 543.01
  Z"
/>
<path d="
  M 175.10 558.11
  Q 169.17 573.17 153.10 575.80
  C 136.10 578.58 117.74 574.54 112.08 556.19
  Q 109.83 548.91 109.79 540.66
  Q 109.65 513.08 109.79 483.73
  A 0.44 0.44 0.0 0 1 110.24 483.29
  L 117.22 483.44
  Q 117.61 483.45 117.61 483.84
  Q 117.55 512.83 117.72 541.74
  C 117.79 552.89 121.80 563.80 133.48 568.05
  C 141.20 570.86 152.99 570.26 160.08 565.44
  C 167.78 560.20 170.60 550.30 170.65 541.00
  Q 170.77 512.17 170.73 483.50
  Q 170.73 483.23 171.01 483.24
  L 177.70 483.36
  Q 177.90 483.37 177.90 483.57
  Q 178.13 512.77 177.86 544.04
  Q 177.80 551.26 175.10 558.11
  Z"
/>
<path d="
  M 227.80 531.17
  C 229.40 532.74 231.04 534.33 232.40 536.16
  Q 246.14 554.74 259.61 573.19
  Q 260.05 573.79 260.35 574.47
  Q 260.68 575.22 259.86 575.21
  L 252.86 575.13
  A 2.89 2.89 0.0 0 1 250.55 573.92
  Q 238.02 556.39 225.11 539.11
  C 221.46 534.24 218.44 530.40 211.65 530.80
  A 0.73 0.73 0.0 0 0 210.96 531.53
  L 210.94 574.41
  A 0.78 0.77 -90.0 0 1 210.17 575.19
  L 203.87 575.20
  Q 203.03 575.20 203.03 574.36
  L 202.99 483.79
  A 0.45 0.45 0.0 0 1 203.44 483.34
  Q 218.95 483.23 229.26 483.58
  C 240.10 483.94 251.28 488.95 254.02 500.51
  C 256.78 512.17 252.37 523.69 240.56 527.99
  Q 234.76 530.10 228.09 530.40
  Q 227.06 530.45 227.80 531.17
  Z
  M 210.95 490.76
  L 210.95 523.76
  A 0.62 0.62 0.0 0 0 211.57 524.38
  L 227.83 524.38
  A 18.92 15.79 -0.0 0 0 246.75 508.59
  L 246.75 505.93
  A 18.92 15.79 0.0 0 0 227.83 490.14
  L 211.57 490.14
  A 0.62 0.62 0.0 0 0 210.95 490.76
  Z"
/>
<path d="
  M 312.55 569.56
  C 328.89 568.22 335.79 556.32 335.84 541.49
  Q 335.92 511.53 335.89 483.67
  A 0.29 0.28 -90.0 0 1 336.17 483.38
  L 342.81 483.46
  A 0.35 0.34 0.9 0 1 343.15 483.80
  Q 343.28 515.03 343.16 544.25
  Q 343.15 546.05 341.95 552.21
  Q 338.06 572.26 318.04 575.91
  Q 313.58 576.73 307.09 576.53
  C 286.74 575.92 275.41 563.17 275.36 543.12
  Q 275.29 514.46 275.37 483.87
  Q 275.37 483.27 275.97 483.27
  L 281.79 483.29
  Q 282.44 483.30 282.51 483.95
  Q 282.62 484.89 282.63 485.77
  Q 282.92 507.81 282.86 529.26
  C 282.84 537.41 282.53 546.56 285.16 554.45
  C 289.17 566.49 300.97 570.50 312.55 569.56
  Z"
/>
<path d="
  M 404.36 526.64
  C 407.02 527.62 409.72 528.36 412.18 529.77
  Q 424.94 537.12 423.41 553.09
  C 421.88 569.06 407.71 574.61 393.76 574.90
  Q 382.54 575.14 369.01 575.01
  A 0.76 0.76 0.0 0 1 368.26 574.25
  L 368.26 484.05
  A 0.61 0.60 89.5 0 1 368.85 483.44
  Q 384.56 483.06 396.83 483.69
  Q 403.08 484.02 409.45 487.43
  Q 416.09 490.98 418.16 497.99
  C 421.37 508.88 418.20 519.76 407.37 524.95
  C 406.43 525.40 405.28 525.51 404.33 525.94
  Q 403.49 526.32 404.36 526.64
  Z
  M 375.75 490.81
  L 375.87 522.73
  A 0.68 0.68 0.0 0 0 376.55 523.41
  L 393.40 523.35
  A 18.01 14.89 -0.2 0 0 411.36 508.40
  L 411.34 504.90
  A 18.01 14.89 -0.2 0 0 393.28 490.07
  L 376.43 490.13
  A 0.68 0.68 0.0 0 0 375.75 490.81
  Z
  M 375.89 530.60
  L 375.69 567.76
  A 0.49 0.49 0.0 0 0 376.18 568.25
  L 394.30 568.34
  A 21.09 17.80 0.3 0 0 415.48 550.65
  L 415.50 548.11
  A 21.09 17.80 0.3 0 0 394.50 530.20
  L 376.38 530.11
  A 0.49 0.49 0.0 0 0 375.89 530.60
  Z"
/>
<rect x="443.80" y="483.28" width="7.74" height="91.82" rx="0.76"/>
<path d="
  M 694.42 531.21
  C 696.95 533.65 699.17 536.31 701.26 539.16
  Q 714.17 556.79 726.74 573.82
  Q 727.13 574.35 726.53 574.90
  A 0.92 0.91 26.1 0 1 725.85 575.13
  Q 722.54 574.82 719.07 575.18
  A 1.61 1.61 0.0 0 1 717.61 574.52
  Q 704.91 556.86 692.86 540.61
  C 688.88 535.25 686.21 530.88 678.72 530.74
  Q 677.44 530.71 677.45 531.99
  L 677.46 574.78
  Q 677.46 575.10 677.14 575.10
  L 669.94 575.09
  Q 669.67 575.08 669.67 574.82
  L 669.65 484.01
  Q 669.65 483.35 670.31 483.34
  Q 682.16 483.30 693.26 483.36
  C 704.32 483.42 717.80 487.92 720.52 500.32
  C 722.68 510.13 720.43 520.62 711.37 525.89
  C 706.02 529.00 700.70 530.02 694.71 530.42
  Q 693.67 530.49 694.42 531.21
  Z
  M 677.54 490.53
  L 677.36 523.89
  A 0.45 0.45 0.0 0 0 677.81 524.34
  L 694.01 524.42
  A 19.15 15.36 0.3 0 0 713.24 509.16
  L 713.26 505.62
  A 19.15 15.36 0.3 0 0 694.19 490.16
  L 677.99 490.08
  A 0.45 0.45 0.0 0 0 677.54 490.53
  Z"
/>
<path d="
  M 885.27 568.71
  C 897.70 565.71 903.07 554.18 903.06 542.34
  Q 903.02 512.02 903.03 483.50
  Q 903.03 483.39 903.14 483.38
  L 910.24 483.29
  Q 910.45 483.28 910.45 483.50
  Q 910.68 514.70 910.38 545.15
  Q 910.29 553.47 905.72 562.18
  C 901.72 569.82 894.14 574.51 885.68 575.84
  Q 876.14 577.34 867.67 575.81
  C 848.54 572.37 842.44 557.17 842.45 539.56
  Q 842.45 511.91 842.45 483.68
  A 0.32 0.32 0.0 0 1 842.77 483.36
  L 849.93 483.28
  A 0.35 0.34 89.2 0 1 850.28 483.63
  Q 850.20 512.51 850.31 540.19
  C 850.35 548.44 852.12 557.64 858.14 563.39
  C 864.84 569.80 876.61 570.79 885.27 568.71
  Z"
/>
<path d="
  M 943.26 537.03
  L 943.22 574.73
  Q 943.22 574.99 942.96 575.00
  L 936.04 575.09
  Q 935.73 575.09 935.73 574.79
  L 935.71 484.04
  Q 935.71 483.49 936.26 483.48
  Q 949.55 483.10 960.37 483.55
  C 979.38 484.33 991.38 499.04 986.02 517.96
  C 982.38 530.79 969.18 535.96 957.04 536.34
  Q 950.47 536.55 944.01 536.30
  Q 943.26 536.28 943.26 537.03
  Z
  M 943.49 490.70
  L 943.55 528.78
  A 0.56 0.56 0.0 0 0 944.11 529.34
  L 959.01 529.31
  A 20.20 17.96 -0.1 0 0 979.18 511.32
  L 979.18 508.04
  A 20.20 17.96 -0.1 0 0 958.95 490.11
  L 944.05 490.14
  A 0.56 0.56 0.0 0 0 943.49 490.70
  Z"
/>
</g>
</svg>
