<svg xmlns="http://www.w3.org/2000/svg" xml:space="preserve" fill-rule="evenodd" stroke-linejoin="round" stroke-miterlimit="2" clip-rule="evenodd" preserveAspectRatio="xMinYMin" viewBox="0 0 1417 500"><path fill="#15496e" fill-rule="nonzero" d="M603.25 248.042c-2.5-17.375-15.208-26.792-32.583-26.792-16.292 0-39.25 8.542-39.25 51.917 0 23.791 10.5 48.916 37.875 48.916 18.25 0 30.916-12.166 33.958-32.583h31.5c-5.792 37-28.708 57.458-65.458 57.458-44.75 0-69.334-31.791-69.334-73.791 0-43.084 23.459-76.792 70.417-76.792 33.167 0 61.333 16.583 64.375 51.667zm46.708 23.5c0-43.667 26.25-75.125 72.084-75.125 45.833 0 72.083 31.458 72.083 75.125 0 43.916-26.25 75.416-72.083 75.416-45.834 0-72.084-31.5-72.084-75.416m112.709 0c0-24.584-12.417-50.292-40.625-50.292-28.167 0-40.625 25.708-40.625 50.292 0 24.833 12.458 50.541 40.625 50.541 28.208 0 40.625-25.708 40.625-50.541m45.625-125.709h31.5v197.25h-31.5zm52.333 0h31.5v29.834h-31.5zm0 54.417h31.5v142.833h-31.5zm191.417 195.583h-31.5v-71.25H1020c-9.917 15.75-29.542 22.375-47.792 22.375-42.25 0-61.583-36.208-61.583-74.583 0-41.708 21.833-75.958 66.833-75.958 18.209 0 35.375 6.875 44.209 23.208h.541V200.25h29.834zm-70.417-73.75c27.333 0 40.042-20.416 40.042-50.25 0-30.958-13.792-50.541-40.042-50.541-26 0-39.5 24.583-39.5 50.541 0 24.834 10.75 50.25 39.5 50.25m218.75 21h-30.917v-19.875h-.583c-7.75 14.375-24.875 23.75-40.625 23.75-37.292 0-53.333-18.791-53.333-56.083V200.25h31.5v87.583c0 25.125 10.208 34.25 27.333 34.25 26.25 0 35.083-16.875 35.083-38.958V200.25h31.5v142.833zm21.708-197.25h31.5v29.834h-31.5zm0 54.417h31.5v142.833h-31.5zm50.375 71.292c0-43.667 26.25-75.125 72.084-75.125 45.875 0 72.125 31.458 72.125 75.125 0 43.916-26.25 75.416-72.125 75.416-45.834 0-72.084-31.5-72.084-75.416m112.709 0c0-24.584-12.417-50.292-40.625-50.292-28.167 0-40.584 25.708-40.584 50.292 0 24.833 12.417 50.541 40.584 50.541 28.208 0 40.625-25.708 40.625-50.541"/><path fill="#65b32e" fill-rule="nonzero" d="M125 270.833C125 190.292 190.292 125 270.833 125h18.75C279.375 54.417 219.25 0 145.833 0H0v145.833c0 73.417 54.417 133.542 125 143.75z"/><path fill="#2581c4" fill-rule="nonzero" d="M270.833 125C190.292 125 125 190.292 125 270.833V500l83.333-83.333h62.5c80.542 0 145.834-65.292 145.834-145.834V125z"/></svg>