<?xml version="1.0" encoding="utf-8"?>
<!-- Generator: Adobe Illustrator 25.1.0, SVG Export Plug-In . SVG Version: 6.00 Build 0)  -->
<svg version="1.1" id="Ebene_1" xmlns="http://www.w3.org/2000/svg" xmlns:xlink="http://www.w3.org/1999/xlink" x="0px" y="0px"
	 viewBox="0 0 440 200" style="enable-background:new 0 0 440 200;" xml:space="preserve">
<style type="text/css">
	.st0{fill:#15496E;}
	.st1{fill:#65B32E;}
	.st2{fill:#2581C4;}
</style>
<g>
	<path class="st0" d="M184.79,99.53c-0.6-4.17-3.65-6.43-7.82-6.43c-3.91,0-9.42,2.05-9.42,12.46c0,5.71,2.52,11.74,9.09,11.74
		c4.38,0,7.42-2.92,8.15-7.82h7.56c-1.39,8.88-6.89,13.79-15.71,13.79c-10.74,0-16.64-7.63-16.64-17.71
		c0-10.34,5.63-18.43,16.9-18.43c7.96,0,14.72,3.98,15.45,12.4H184.79z"/>
	<path class="st0" d="M196,105.17c0-10.48,6.3-18.03,17.3-18.03s17.3,7.55,17.3,18.03c0,10.54-6.3,18.1-17.3,18.1
		S196,115.71,196,105.17 M223.05,105.17c0-5.9-2.98-12.07-9.75-12.07c-6.76,0-9.75,6.17-9.75,12.07c0,5.96,2.99,12.13,9.75,12.13
		C220.07,117.3,223.05,111.13,223.05,105.17"/>
	<rect x="234" y="75" class="st0" width="7.56" height="47.34"/>
	<path class="st0" d="M246.56,75h7.56v7.16h-7.56V75z M246.56,88.06h7.56v34.28h-7.56V88.06z"/>
	<path class="st0" d="M292.5,135h-7.56v-17.1h-0.13c-2.38,3.78-7.09,5.37-11.47,5.37c-10.14,0-14.78-8.69-14.78-17.9
		c0-10.01,5.24-18.23,16.04-18.23c4.37,0,8.49,1.65,10.61,5.57h0.13v-4.65h7.16V135z M275.6,117.3c6.56,0,9.61-4.9,9.61-12.06
		c0-7.43-3.31-12.13-9.61-12.13c-6.24,0-9.48,5.9-9.48,12.13C266.12,111.2,268.7,117.3,275.6,117.3"/>
	<path class="st0" d="M328.1,122.34h-7.42v-4.77h-0.14c-1.86,3.45-5.97,5.7-9.75,5.7c-8.95,0-12.8-4.51-12.8-13.46V88.06h7.56v21.02
		c0,6.03,2.45,8.22,6.56,8.22c6.3,0,8.42-4.05,8.42-9.35V88.06h7.56V122.34z"/>
	<path class="st0" d="M333.31,75h7.56v7.16h-7.56V75z M333.31,88.06h7.56v34.28h-7.56V88.06z"/>
	<path class="st0" d="M345.4,105.17c0-10.48,6.3-18.03,17.3-18.03c11.01,0,17.31,7.55,17.31,18.03c0,10.54-6.3,18.1-17.31,18.1
		C351.7,123.27,345.4,115.71,345.4,105.17 M372.45,105.17c0-5.9-2.98-12.07-9.75-12.07c-6.76,0-9.74,6.17-9.74,12.07
		c0,5.96,2.98,12.13,9.74,12.13C369.47,117.3,372.45,111.13,372.45,105.17"/>
	<path class="st1" d="M70,105c0-19.33,15.67-35,35-35h4.5C107.05,53.06,92.62,40,75,40H40v35c0,17.62,13.06,32.05,30,34.5V105z"/>
	<path class="st2" d="M105,70c-19.33,0-35,15.67-35,35v35v20l20-20h15c19.33,0,35-15.67,35-35V70H105z"/>
</g>
</svg>
