<svg xmlns="http://www.w3.org/2000/svg" xml:space="preserve" fill-rule="evenodd" stroke-linejoin="round" stroke-miterlimit="2" clip-rule="evenodd" preserveAspectRatio="xMinYMin" viewBox="0 0 1521 200"><path fill="url(#a)" fill-rule="nonzero" d="M1436.26 0c-4.187 0-16.632 0-31.095 17.562l.566.673c3.714-4.344 8.373-8.789 13.375-12.023 4.623-2.977 9.983-4.967 14.42-5.453 3.235-.358 13.934-.222 26.114-.222a.14.14 0 0 1 .129.064l-.315-.529a.12.12 0 0 0-.115-.072z"/><path fill="url(#b)" fill-rule="nonzero" d="M1351.43 0a.15.15 0 0 0-.122.064l-45.3 78.463-14.205 24.604-1.646 2.855-.215.365q-.029.043.015.136l43.153 74.742v-.308c-.938-1.718-1.61-3.041-1.968-3.872-1.804-4.086-2.827-9.739-2.562-15.236.73-14.47 8.423-28.747 12.294-35.445l26.615-46.109 26.622-46.116c3.864-6.691 12.388-20.496 24.561-28.361 4.616-2.984 10.04-4.916 14.463-5.403C1436.377.014 1447.14 0 1459.334 0z"/><path fill="url(#c)" fill-rule="nonzero" d="m1290.32 107.081 2.019 3.507zm217.068 21.899c-2.64 3.592-7.02 7.321-11.915 9.826-12.903 6.605-29.105 7.084-36.834 7.084h-106.494c-7.729 0-23.953-.479-36.834-7.084-4.903-2.505-9.282-6.234-11.923-9.826-1.675-2.283-5.968-9.597-11.049-18.392l10.827 18.764 40.749 70.584a.14.14 0 0 0 .114.064h122.725a.15.15 0 0 0 .108-.072l53.472-92.611c-5.896 10.213-11.063 19.108-12.946 21.663"/><path fill="url(#d)" fill-rule="nonzero" d="M1433.14.379c-4.423.487-9.847 2.419-14.463 5.403-5.096 3.292-9.547 7.622-13.29 12.037 5.203 6.133 9.024 12.424 11.272 16.324l26.629 46.116 26.621 46.109c3.858 6.698 11.558 20.975 12.274 35.445.272 5.497-.766 11.15-2.548 15.236-1.252 2.856-6.226 11.537-12.001 21.541l53.193-92.124.007-.029v-.057l-.014-.036L1459.454.072a.12.12 0 0 0-.115-.072c-12.194 0-22.957.014-26.199.379"/><path fill-rule="nonzero" d="M54.57 54.467C24.211 54.467 0 79.456 0 110.821c0 32.785 23.792 55.461 53.134 55.461 16.8 0 29.809-6.016 39.72-17.351l-14.669-15.028c-6.067 6.475-13.704 10.017-23.615 10.017-17.199 0-28.808-14.41-28.808-33.633 0-18.613 11.861-33.458 28.446-33.458 8.711 0 16.112 3.258 22.188 9.124l15.205-15.742c-8.91-9.714-22.054-15.744-37.036-15.744m102.869 0c-32.176 0-56.358 25.19-56.358 56.354 0 31.578 22.859 55.461 55.646 55.461 32.176 0 56.355-25.182 56.355-56.354 0-31.57-22.866-55.461-55.643-55.461m81.76 1.787-10.552 108.061h22.362l5.01-58.321c1.006-11.338 1.076-23.084 1.076-23.084h.531s2.491 11.815 5.727 22.544l18.251 58.861h21.291l18.249-59.397c3.233-10.319 5.724-22.006 5.724-22.006h.359s.242 11.693 1.248 23.436l4.839 57.965h23.792L346.552 56.254h-31.317l-16.456 53.494c-2.627 8.721-5.367 19.858-5.367 19.858s-2.887-11.126-5.727-20.035l-16.638-53.317zm150.644 0-10.375 108.061h22.365l4.825-58.321c1.014-11.338 1.261-23.084 1.261-23.084h.354s2.668 11.815 5.904 22.544l18.248 58.861h21.286l18.077-59.397c3.239-10.319 5.724-22.006 5.724-22.006h.354s.247 11.693 1.253 23.436l4.828 57.965h23.978L497.362 56.254h-31.306l-16.458 53.494c-2.635 8.721-5.373 19.858-5.373 19.858s-2.89-11.126-5.724-20.035l-16.638-53.317zm143.844 0v108.059h70.309v-20.755h-46.694v-23.615h39.537V99.728h-39.537V76.829h45.977V56.254zm98.041 0v108.059h23.615v-39.36h7.337l23.081 39.362h28.089l-26.661-43.476c13.968-5.257 21.828-16.088 21.828-30.056 0-21.855-12.326-34.524-44.907-34.524zm96.973 0v20.575h43.653l-44.729 69.595v17.891h75.319v-20.754h-45.8l44.729-69.596V56.254zm98.575 0v108.059h41.327c19.233 0 40.615-8.676 40.615-31.13 0-13.962-8.92-23.414-23.084-25.23v-.172c11.132-3.451 18.074-11.861 18.074-23.798 0-23.481-20.706-27.732-39.542-27.732zm128.282 0-38.474 108.059h23.623l7.511-22.008h42.046l7.514 22.005h25.406L984.71 56.251zm82.297 0v108.059h21.825v-51.348c0-9.714-.716-19.675-.716-19.675s5.071 8.678 10.734 17.174l36.676 53.849h20.937V56.254h-22.005v49.02c0 9.715.714 19.499.714 19.499s-5.061-8.673-10.735-17.175l-35.068-51.344zm115.395 0v108.059h23.433v-50.631l34.538 50.631h28.982l-39.717-57.968 35.96-50.094h-27.19l-32.559 48.487V56.254zm-996.166 20.22c18.611 0 30.593 14.771 30.593 33.99 0 18.211-11.58 33.813-30.593 33.813-18.624 0-30.595-14.759-30.595-33.99 0-18.213 11.569-33.818 30.593-33.818m498.264 0h9.661c12.54 0 19.858 3.789 19.858 14.312 0 10.117-6.706 14.485-19.858 14.485h-9.661zm195.368 0h13.598c7.481 0 15.028 2.359 15.028 11.266 0 8.694-6.46 12.167-13.955 12.167h-14.671zm118.619 1.602s2.01 7.318 4.648 15.211l9.486 28.625h-28.271l9.481-28.446c2.635-8.096 4.656-15.384 4.656-15.384m-118.622 41.691h17.352c10.52 0 17.36 3.309 17.36 11.808 0 8.303-5.421 12.524-17.36 12.524h-17.352z"/><defs><radialGradient id="a" cx="0" cy="0" r="1" gradientTransform="translate(1479.63 177.042)scale(178.207)" gradientUnits="userSpaceOnUse"><stop offset="0" stop-color="#fedf33"/><stop offset=".44" stop-color="#fbb809"/><stop offset=".9" stop-color="#ee960d"/><stop offset="1" stop-color="#e17a10"/></radialGradient><radialGradient id="b" cx="0" cy="0" r="1" gradientTransform="translate(1433.1 -.007)scale(178.338)" gradientUnits="userSpaceOnUse"><stop offset="0" stop-color="#fedf33"/><stop offset=".44" stop-color="#fbb809"/><stop offset=".9" stop-color="#ee960d"/><stop offset="1" stop-color="#e17a10"/></radialGradient><radialGradient id="c" cx="0" cy="0" r="1" gradientTransform="translate(1303.16 129.352)scale(178.267)" gradientUnits="userSpaceOnUse"><stop offset="0" stop-color="#fedf33"/><stop offset=".44" stop-color="#fbb809"/><stop offset=".9" stop-color="#ee960d"/><stop offset="1" stop-color="#e17a10"/></radialGradient><radialGradient id="d" cx="0" cy="0" r="1" gradientTransform="translate(1479.51 177.622)scale(178.766)" gradientUnits="userSpaceOnUse"><stop offset="0" stop-color="#fedf33"/><stop offset=".44" stop-color="#fbb809"/><stop offset=".9" stop-color="#ee960d"/><stop offset="1" stop-color="#d87301"/></radialGradient></defs></svg>