<?xml version="1.0" encoding="UTF-8" standalone="no"?>
<!DOCTYPE svg PUBLIC "-//W3C//DTD SVG 1.1//EN" "http://www.w3.org/Graphics/SVG/1.1/DTD/svg11.dtd">
<svg width="100%" height="100%" viewBox="0 0 900 323" version="1.1" xmlns="http://www.w3.org/2000/svg" xmlns:xlink="http://www.w3.org/1999/xlink" xml:space="preserve" xmlns:serif="http://www.serif.com/" style="fill-rule:evenodd;clip-rule:evenodd;stroke-linejoin:round;stroke-miterlimit:2;">
    <g id="Layer_2">
        <rect x="0" y="0" width="900" height="322.042"/>
        <g id="Layer_1-2">
            <g id="DWS">
                <path d="M297.458,0l-199.041,237.25l-0,46.208l199.041,-237.25l0,-46.208Z" style="fill:#fff;fill-rule:nonzero;"/>
                <path d="M199.042,38.583l-199.042,237.25l0,46.209l199,-237.292l0.042,-46.167Z" style="fill:#fff;fill-rule:nonzero;"/>
                <path d="M831.917,166.667l-1.5,-0.375c-27.084,-6.709 -39.417,-9.75 -39.417,-25.959c0,-14.875 11.875,-24.458 30.292,-24.458c18.416,-0 28.25,9.375 29.75,27.792l-0,1.541l43.291,0l0,-1.708c0.617,-13.199 -3.409,-26.207 -11.375,-36.75c-16.666,-21.042 -44.708,-24.25 -60,-24.25c-57.75,-0 -78.333,32.208 -78.333,62.5c-0,25.875 12.167,44.958 72.75,59.958c24.417,5.792 35.542,8.334 35.542,24.209c-0,15.875 -13.792,25 -35.125,25c-14.417,-0 -24.25,-4.584 -29.167,-13.667c-3.166,-6.467 -4.601,-13.646 -4.167,-20.833l0,-2.084l-45.833,0l0,1.709c0.292,18.5 0.958,67.666 76.958,67.666c50,0 84.125,-25.625 84.459,-63.75l-0,-1.166c-0.375,-39.584 -37.834,-48.5 -67.917,-55.667" style="fill:#fff;fill-rule:nonzero;"/>
                <path d="M659.917,221.792l-32.084,-135.459l-48.583,0l-33.458,135.792l-27.834,-135.792l-46.458,0l46.875,196.834l47.667,-0l35.708,-139.875l32.458,139.875l49.167,-0l49,-196.834l-43.208,0l-29.25,135.459Z" style="fill:#fff;fill-rule:nonzero;"/>
                <path d="M429.542,104.167c-15.875,-11.834 -38.417,-17.792 -67.042,-17.792l-65.042,0l0,196.958l61.334,0c11.64,0.404 23.291,-0.321 34.791,-2.166c19.319,-3.41 36.667,-13.959 48.584,-29.542c13.708,-17.75 20.833,-41.208 20.833,-69.667c0,-19.75 -4.167,-56.041 -33.333,-77.666m-30.834,131.458c-11.791,11.958 -27.25,12.5 -43.375,12.5l-10.75,0l0,-126.5l11.709,0c8.498,-0.521 17.028,0.067 25.375,1.75c29.416,8.333 33.791,40.083 33.791,58.333c0,11 -1.625,38.292 -16.666,53.625" style="fill:#fff;fill-rule:nonzero;"/>
            </g>
        </g>
    </g>
</svg>
