<?xml version="1.0" encoding="utf-8"?>
<!-- Generator: Adobe Illustrator 25.2.1, SVG Export Plug-In . SVG Version: 6.00 Build 0)  -->
<svg version="1.1" id="Ebene_1" xmlns="http://www.w3.org/2000/svg" xmlns:xlink="http://www.w3.org/1999/xlink" x="0px" y="0px"
	 viewBox="0 0 569.1 148.8" style="enable-background:new 0 0 569.1 148.8;" xml:space="preserve">
<style type="text/css">
	.st0{fill:#AA0B1E;}
	.st1{display:none;}
	.st2{fill:none;}
</style>
<g id="Ebene_2_1_">
	<g>
		<path d="M384,88.9c10.7,0,20-6.1,24.5-14.9l-9.9-3.6c-2.9,5.3-8.4,8.8-14.7,8.8c-9.3,0-16.9-7.8-16.9-17.5
			c0-9.6,7.6-17.5,16.9-17.5c6.3,0,11.7,3.5,14.7,8.8l4.9-1.8l4.9-1.8c-4.5-8.8-13.8-14.9-24.5-14.9c-15.2,0-27.5,12.2-27.5,27.1
			S368.8,88.9,384,88.9z"/>
		<path d="M323.6,88.9c10.7,0,20-6.1,24.5-14.9l-9.9-3.6c-2.9,5.3-8.4,8.8-14.7,8.8c-8.3,0-15.2-6.2-16.6-14.4h33.2h10.7
			c0.1-1,0.2-2,0.2-3.1c0-1.9-0.2-3.8-0.6-5.5c-2.6-12.3-13.6-21.6-26.9-21.6c-15.2,0-27.5,12.2-27.5,27.1S308.4,88.9,323.6,88.9z
			 M323.6,44.3c7.5,0,13.8,5,16,11.9h-32C309.8,49.3,316.1,44.3,323.6,44.3z"/>
		<path d="M54.3,88.9c10.7,0,20-6.1,24.5-14.9L69,70.5c-2.9,5.3-8.4,8.8-14.7,8.8c-8.3,0-15.2-6.2-16.6-14.4H71h10.7
			c0.1-1,0.2-2,0.2-3.1c0-1.9-0.2-3.8-0.6-5.5C78.7,44,67.7,34.7,54.4,34.7c-15.2,0-27.5,12.1-27.5,27.1S39.2,88.9,54.3,88.9z
			 M54.3,44.3c7.4,0,13.8,5,16,11.9h-32C40.6,49.3,46.9,44.3,54.3,44.3z"/>
		<path class="st0" d="M430.7,87.4l8.2-8.2c-8.9-0.4-16.1-8.1-16.1-17.4c0-5,2-9.5,5.3-12.7l14.4-14.3c-0.9-0.1-1.8-0.1-2.7-0.1
			c-15.2,0-27.5,12.2-27.5,27.1C412.3,73.7,420,83.7,430.7,87.4z"/>
		<path d="M456.7,61.8c0,5-2,9.4-5.2,12.6l-14.4,14.4c0.9,0.1,1.8,0.1,2.7,0.1c15.2,0,27.5-12.2,27.5-27.1
			c0-11.9-7.7-21.9-18.4-25.6l-8.2,8.2C449.5,44.8,456.7,52.4,456.7,61.8z"/>
		<path d="M192.9,89c15.2,0,27.5-12.2,27.5-27.1S208,34.7,192.9,34.7c-6.3,0-12.2,2.1-16.8,5.7v-3.7h-10.4v67.8H176V83.3
			C180.7,86.9,186.5,89,192.9,89z M176,60.8c0.5-9.2,7.9-16.4,16.8-16.4c9.3,0,16.9,7.8,16.9,17.5s-7.6,17.5-16.9,17.5
			c-9,0-16.3-7.3-16.8-16.4V60.8z"/>
		<path d="M257.8,54.6c0.1-2.1,0.8-3.9,2.3-5.2c1.5-1.4,3.3-2.1,5.4-2.1c0.6,0,1.3,0.1,2.1,0.4c0.8,0.3,1.5,0.6,2.1,1.1l3.9-10.9
			c-1.6-1.1-3.6-1.6-6-1.6c-2.3,0-4.3,0.6-6,1.9c-1.5,1.1-2.7,2.5-3.6,4.2v-4.3h-10.4v50.8H258V54.6H257.8z"/>
		<rect x="227.6" y="38.1" width="10.4" height="50.8"/>
		<path d="M232.9,33.3c3.4,0,6.1-2.8,6.1-6.1c0-3.4-2.8-6.1-6.1-6.1c-3.4,0-6.1,2.8-6.1,6.1C226.7,30.5,229.5,33.3,232.9,33.3z"/>
		<rect x="279.1" y="38.1" width="10.4" height="50.8"/>
		<path d="M284.3,33.3c3.4,0,6.1-2.8,6.1-6.1c0-3.4-2.8-6.1-6.1-6.1c-3.4,0-6.1,2.8-6.1,6.1C278.2,30.5,280.9,33.3,284.3,33.3z"/>
		<path d="M100.5,72.9V55.7c0-5,4-9,9-9s9,4,9,9v17.2V89h10.4V72.9V55.7c0-5,4-9,9-9s9,4,9,9c0,0.1,0,0.1,0,0.2v17V89h10.4V55.8
			c0-0.1,0-0.1,0-0.2c0-10.7-8.7-19.4-19.4-19.4c-5.6,0-10.7,2.4-14.2,6.2c-3.5-3.8-8.6-6.2-14.2-6.2c-10.7,0-19.4,8.7-19.4,19.4
			v33.3h10.4V72.9z"/>
		<path d="M483.2,72.9V55.7c0-5,4-9,9-9s9,4,9,9v17.2V89h10.4V72.9V55.7c0-5,4-9,9-9s9,4,9,9c0,0.1,0,0.1,0,0.2v17V89H540V55.8
			c0-0.1,0-0.1,0-0.2c0-10.7-8.7-19.4-19.4-19.4c-5.6,0-10.7,2.4-14.2,6.2c-3.5-3.8-8.6-6.2-14.2-6.2c-10.7,0-19.4,8.7-19.4,19.4
			v33.3h10.4L483.2,72.9L483.2,72.9z"/>
		<path d="M225.6,112.8c-0.5-0.7-1.2-1.3-2-1.7s-1.7-0.6-2.8-0.6c-1.4,0-2.8,0.4-4.1,1.1c-1.3,0.8-2.4,1.8-3.5,3l2.4-11.5h-3.3
			l-5.7,27h2.9l0.8-3.6c0.4,1.2,1.1,2.1,2.1,2.9c1,0.7,2.2,1.1,3.8,1.1c1.4,0,2.7-0.3,4.1-1s2.5-1.5,3.5-2.6s1.8-2.4,2.5-3.9
			s0.9-3,0.9-4.6c0-1-0.1-2-0.4-3C226.5,114.3,226.1,113.5,225.6,112.8z M223.1,122.1c-0.4,1-1,2-1.7,2.8s-1.5,1.5-2.5,2
			c-0.9,0.5-1.9,0.7-2.8,0.7c-0.6,0-1.3-0.1-1.8-0.3c-0.6-0.2-1.1-0.5-1.5-0.9s-0.8-0.9-1-1.4s-0.4-1.1-0.4-1.7l1.2-5.6
			c0.4-0.6,0.8-1.2,1.4-1.7c0.5-0.5,1-1,1.6-1.4s1.2-0.7,1.8-1c0.6-0.2,1.3-0.4,1.9-0.4c0.7,0,1.4,0.2,1.9,0.5
			c0.6,0.3,1,0.7,1.4,1.3s0.7,1.1,0.9,1.8s0.3,1.4,0.3,2.1C223.8,120,223.6,121,223.1,122.1z"/>
		<path d="M246.8,111.7c-1.2-0.9-2.7-1.3-4.6-1.3c-1.7,0-3.2,0.3-4.7,1s-2.7,1.5-3.7,2.6s-1.9,2.4-2.5,3.8s-0.9,2.9-0.9,4.5
			c0,1.1,0.2,2.2,0.5,3.2s0.8,1.8,1.5,2.6s1.4,1.3,2.4,1.7s2,0.6,3.2,0.6c0.9,0,1.8-0.1,2.7-0.4s1.7-0.6,2.5-1s1.5-0.9,2.2-1.5
			s1.2-1.2,1.7-2l-2.6-0.8c-0.6,1-1.5,1.8-2.6,2.3c-1.1,0.6-2.2,0.9-3.3,0.9c-0.8,0-1.5-0.2-2.1-0.5s-1.1-0.7-1.5-1.3
			c-0.4-0.5-0.7-1.1-0.9-1.8c-0.2-0.7-0.3-1.4-0.3-2.2c0-0.1,0-0.3,0-0.4c0-0.1,0-0.3,0-0.4c0.8,0.1,1.5,0.1,2.3,0.1s1.4,0,2,0
			c3.6,0,6.3-0.5,8-1.5s2.6-2.5,2.6-4.5C248.6,113.9,248,112.6,246.8,111.7z M245.2,117.1c-0.3,0.5-0.7,0.9-1.3,1.2
			c-0.6,0.3-1.4,0.6-2.3,0.8s-2.1,0.3-3.5,0.3c-0.6,0-1.2,0-1.8,0c-0.7,0-1.4-0.1-2.1-0.1c0.2-0.8,0.6-1.6,1-2.3
			c0.4-0.8,1-1.4,1.6-2s1.4-1.1,2.2-1.4c0.9-0.4,1.8-0.5,2.9-0.5s2,0.2,2.7,0.7s1,1.1,1,2.1C245.6,116.1,245.5,116.6,245.2,117.1z"
			/>
		<path d="M260.1,104.3h-3.3l-1.4,6.4H253l-0.6,2.6h2.5l-2.8,13c-0.1,0.4-0.1,0.7-0.1,1.1c0,1,0.3,1.8,1,2.3s1.5,0.7,2.5,0.7
			s1.9-0.1,2.8-0.4c0.9-0.2,1.5-0.5,2-0.9l-0.2-2.6c-0.2,0.1-0.6,0.3-1.1,0.5s-1.1,0.3-1.7,0.3c-0.5,0-0.9-0.1-1.2-0.4
			c-0.3-0.2-0.5-0.6-0.5-1.1c0-0.1,0-0.3,0.1-0.6l2.6-12h4.1l0.6-2.6h-4.1L260.1,104.3z"/>
		<path d="M273.5,104.3h-3.3l-1.4,6.4h-2.5l-0.6,2.6h2.5l-2.8,13c-0.1,0.4-0.1,0.7-0.1,1.1c0,1,0.3,1.8,1,2.3s1.5,0.7,2.5,0.7
			s1.9-0.1,2.8-0.4c0.9-0.2,1.5-0.5,2-0.9l-0.2-2.6c-0.2,0.1-0.6,0.3-1.1,0.5s-1.1,0.3-1.7,0.3c-0.5,0-0.9-0.1-1.2-0.4
			c-0.3-0.2-0.5-0.6-0.5-1.1c0-0.1,0-0.3,0.1-0.6l2.6-12h4.1l0.6-2.6h-4.1L273.5,104.3z"/>
		<path d="M294.1,111.7c-1.2-0.9-2.7-1.3-4.6-1.3c-1.7,0-3.2,0.3-4.7,1s-2.7,1.5-3.7,2.6s-1.9,2.4-2.5,3.8s-0.9,2.9-0.9,4.5
			c0,1.1,0.2,2.2,0.5,3.2s0.8,1.8,1.5,2.6s1.4,1.3,2.4,1.7s2,0.6,3.2,0.6c0.9,0,1.8-0.1,2.7-0.4s1.7-0.6,2.5-1s1.5-0.9,2.2-1.5
			s1.2-1.2,1.7-2l-2.6-0.8c-0.6,1-1.5,1.8-2.6,2.3c-1.1,0.6-2.2,0.9-3.3,0.9c-0.8,0-1.5-0.2-2.1-0.5s-1.1-0.7-1.5-1.3
			c-0.4-0.5-0.7-1.1-0.9-1.8c-0.2-0.7-0.3-1.4-0.3-2.2c0-0.1,0-0.3,0-0.4c0-0.1,0-0.3,0-0.4c0.8,0.1,1.5,0.1,2.3,0.1s1.4,0,2,0
			c3.6,0,6.3-0.5,8-1.5s2.6-2.5,2.6-4.5C295.8,113.9,295.3,112.6,294.1,111.7z M292.5,117.1c-0.3,0.5-0.7,0.9-1.3,1.2
			c-0.6,0.3-1.4,0.6-2.3,0.8s-2.1,0.3-3.5,0.3c-0.6,0-1.2,0-1.8,0c-0.7,0-1.4-0.1-2.1-0.1c0.2-0.8,0.6-1.6,1-2.3
			c0.4-0.8,1-1.4,1.6-2s1.4-1.1,2.2-1.4c0.9-0.4,1.8-0.5,2.9-0.5s2,0.2,2.7,0.7s1,1.1,1,2.1C292.9,116.1,292.8,116.6,292.5,117.1z"
			/>
		<path d="M310.9,110.7c-1.2,0-2.4,0.4-3.6,1.3s-2.3,1.9-3.2,3.3l1-4.5h-3l-4.1,19.3h3.3l2.5-11.9c0.8-1.4,1.9-2.5,3.2-3.3
			c1.3-0.8,2.8-1.2,4.3-1.3l0.6-2.8c-0.1,0-0.3,0-0.4-0.1C311.3,110.7,311.1,110.7,310.9,110.7z"/>
		<path d="M340.3,111.7c-1.2-0.9-2.7-1.3-4.6-1.3c-1.7,0-3.2,0.3-4.7,1s-2.7,1.5-3.7,2.6s-1.9,2.4-2.5,3.8s-0.9,2.9-0.9,4.5
			c0,1.1,0.2,2.2,0.5,3.2s0.8,1.8,1.5,2.6s1.4,1.3,2.4,1.7s2,0.6,3.2,0.6c0.9,0,1.8-0.1,2.7-0.4s1.7-0.6,2.5-1s1.5-0.9,2.2-1.5
			s1.2-1.2,1.7-2l-2.6-0.8c-0.6,1-1.5,1.8-2.6,2.3c-1.1,0.6-2.2,0.9-3.3,0.9c-0.8,0-1.5-0.2-2.1-0.5s-1.1-0.7-1.5-1.3
			c-0.4-0.5-0.7-1.1-0.9-1.8c-0.2-0.7-0.3-1.4-0.3-2.2c0-0.1,0-0.3,0-0.4c0-0.1,0-0.3,0-0.4c0.8,0.1,1.5,0.1,2.3,0.1s1.4,0,2,0
			c3.6,0,6.3-0.5,8-1.5s2.6-2.5,2.6-4.5C342.1,113.9,341.5,112.6,340.3,111.7z M338.7,117.1c-0.3,0.5-0.7,0.9-1.3,1.2
			c-0.6,0.3-1.4,0.6-2.3,0.8s-2.1,0.3-3.5,0.3c-0.6,0-1.2,0-1.8,0c-0.7,0-1.4-0.1-2.1-0.1c0.2-0.8,0.6-1.6,1-2.3
			c0.4-0.8,1-1.4,1.6-2s1.4-1.1,2.2-1.4c0.9-0.4,1.8-0.5,2.9-0.5s2,0.2,2.7,0.7s1,1.1,1,2.1C339.1,116.1,339,116.6,338.7,117.1z"/>
		<polygon points="344.7,121.4 355.1,121.4 355.7,118.4 345.4,118.4 		"/>
		<path d="M364.4,115.7c0.7-0.8,1.5-1.4,2.5-1.8c0.9-0.5,1.9-0.7,2.9-0.7s1.9,0.3,2.6,0.8s1.2,1.2,1.5,2.1l3.4-1
			c-0.4-1.4-1.1-2.6-2.3-3.4c-1.1-0.9-2.6-1.3-4.5-1.3c-1.6,0-3.2,0.3-4.6,1s-2.7,1.5-3.7,2.6s-1.9,2.4-2.5,3.8
			c-0.6,1.4-0.9,2.9-0.9,4.5c0,1.1,0.2,2.2,0.5,3.1c0.3,1,0.8,1.8,1.5,2.6c0.7,0.7,1.4,1.3,2.4,1.8c0.9,0.4,2,0.6,3.2,0.6
			c0.9,0,1.8-0.1,2.7-0.4c0.9-0.2,1.7-0.6,2.5-1s1.5-0.9,2.1-1.5s1.2-1.2,1.6-2l-3-1c-0.2,0.4-0.5,0.8-0.9,1.2s-0.8,0.7-1.3,0.9
			c-0.5,0.3-1,0.5-1.6,0.6c-0.6,0.2-1.1,0.2-1.6,0.2c-0.7,0-1.3-0.1-1.9-0.4c-0.6-0.3-1.1-0.7-1.5-1.2s-0.7-1.1-0.9-1.8
			c-0.2-0.7-0.3-1.5-0.3-2.3c0-1.2,0.2-2.3,0.6-3.4S363.7,116.5,364.4,115.7z"/>
		<path d="M396.4,112.8c-0.6-0.7-1.4-1.3-2.3-1.7s-2-0.6-3.2-0.6c-1.6,0-3.1,0.3-4.5,1s-2.7,1.6-3.7,2.7c-1.1,1.1-1.9,2.4-2.5,3.8
			c-0.6,1.4-0.9,2.9-0.9,4.5c0,1.1,0.2,2.2,0.5,3.1s0.8,1.8,1.4,2.6s1.4,1.3,2.3,1.7s2,0.6,3.2,0.6c1.6,0,3.1-0.3,4.5-1
			s2.7-1.6,3.7-2.7s1.9-2.4,2.5-3.8c0.6-1.4,0.9-2.9,0.9-4.4c0-1.1-0.2-2.2-0.5-3.1C397.6,114.4,397.1,113.5,396.4,112.8z
			 M394.3,122.2c-0.4,1-1,2-1.8,2.8c-0.7,0.8-1.5,1.4-2.5,1.9c-0.9,0.5-1.9,0.7-2.8,0.7c-0.7,0-1.4-0.1-1.9-0.4s-1.1-0.7-1.5-1.2
			s-0.7-1.1-0.9-1.8c-0.2-0.7-0.3-1.4-0.3-2.3c0-1.2,0.2-2.3,0.7-3.3c0.4-1.1,1-2,1.8-2.8c0.7-0.8,1.6-1.4,2.5-1.9s1.9-0.7,2.8-0.7
			c0.7,0,1.3,0.1,1.9,0.4s1.1,0.7,1.5,1.2s0.7,1.1,0.9,1.8s0.3,1.4,0.3,2.3C395,120.1,394.8,121.2,394.3,122.2z"/>
		<path d="M427.3,110.4c-1.5,0-2.9,0.4-4.2,1.2c-1.3,0.8-2.6,2-3.7,3.5c0-1.5-0.5-2.7-1.2-3.5c-0.8-0.8-1.8-1.2-3.3-1.2
			s-2.8,0.4-4.2,1.2c-1.4,0.8-2.6,1.9-3.6,3.3l0.9-4.1h-3l-4.1,19.3h3.3l2.5-11.7c0.7-1.5,1.7-2.8,2.9-3.7c1.2-0.9,2.4-1.4,3.6-1.4
			c1.8,0,2.6,1.1,2.6,3.2c0,0.8-0.1,1.7-0.3,2.7l-2.3,10.8h3.3l2.4-11.6c0.4-0.7,0.8-1.4,1.3-2.1s1-1.2,1.6-1.6
			c0.6-0.5,1.2-0.8,1.8-1.1c0.6-0.2,1.2-0.4,1.8-0.4c1.8,0,2.7,1.1,2.7,3.2c0,0.8-0.1,1.7-0.3,2.7l-2.3,10.8h3.3l2.5-11.5
			c0.3-1.3,0.4-2.4,0.4-3.4c0-1.4-0.3-2.5-1-3.4C430,110.8,428.9,110.4,427.3,110.4z"/>
		<path d="M460.9,110.4c-1.5,0-2.9,0.4-4.2,1.2c-1.3,0.8-2.6,2-3.7,3.5c0-1.5-0.5-2.7-1.2-3.5c-0.8-0.8-1.8-1.2-3.3-1.2
			s-2.8,0.4-4.2,1.2c-1.4,0.8-2.6,1.9-3.6,3.3l0.9-4.1h-3l-4.1,19.3h3.3l2.5-11.7c0.7-1.5,1.7-2.8,2.9-3.7c1.2-0.9,2.4-1.4,3.6-1.4
			c1.8,0,2.6,1.1,2.6,3.2c0,0.8-0.1,1.7-0.3,2.7l-2.3,10.8h3.3l2.4-11.6c0.4-0.7,0.8-1.4,1.3-2.1s1-1.2,1.6-1.6
			c0.6-0.5,1.2-0.8,1.8-1.1c0.6-0.2,1.2-0.4,1.8-0.4c1.8,0,2.7,1.1,2.7,3.2c0,0.8-0.1,1.7-0.3,2.7l-2.3,10.8h3.3l2.5-11.5
			c0.3-1.3,0.4-2.4,0.4-3.4c0-1.4-0.3-2.5-1-3.4C463.6,110.8,462.5,110.4,460.9,110.4z"/>
		<path d="M485.2,111.7c-1.2-0.9-2.7-1.3-4.6-1.3c-1.7,0-3.2,0.3-4.7,1s-2.7,1.5-3.7,2.6s-1.9,2.4-2.5,3.8s-0.9,2.9-0.9,4.5
			c0,1.1,0.2,2.2,0.5,3.2s0.8,1.8,1.5,2.6s1.4,1.3,2.4,1.7s2,0.6,3.2,0.6c0.9,0,1.8-0.1,2.7-0.4s1.7-0.6,2.5-1s1.5-0.9,2.2-1.5
			s1.2-1.2,1.7-2l-2.6-0.8c-0.6,1-1.5,1.8-2.6,2.3c-1.1,0.6-2.2,0.9-3.3,0.9c-0.8,0-1.5-0.2-2.1-0.5s-1.1-0.7-1.5-1.3
			c-0.4-0.5-0.7-1.1-0.9-1.8c-0.2-0.7-0.3-1.4-0.3-2.2c0-0.1,0-0.3,0-0.4c0-0.1,0-0.3,0-0.4c0.8,0.1,1.5,0.1,2.3,0.1s1.4,0,2,0
			c3.6,0,6.3-0.5,8-1.5s2.6-2.5,2.6-4.5C486.9,113.9,486.4,112.6,485.2,111.7z M483.6,117.1c-0.3,0.5-0.7,0.9-1.3,1.2
			c-0.6,0.3-1.4,0.6-2.3,0.8s-2.1,0.3-3.5,0.3c-0.6,0-1.2,0-1.8,0c-0.7,0-1.4-0.1-2.1-0.1c0.2-0.8,0.6-1.6,1-2.3
			c0.4-0.8,1-1.4,1.6-2s1.4-1.1,2.2-1.4c0.9-0.4,1.8-0.5,2.9-0.5s2,0.2,2.7,0.7s1,1.1,1,2.1C484,116.1,483.9,116.6,483.6,117.1z"/>
		<path d="M502,110.7c-1.2,0-2.4,0.4-3.6,1.3s-2.3,1.9-3.2,3.3l1-4.5h-3l-4.1,19.3h3.3l2.5-11.9c0.8-1.4,1.9-2.5,3.2-3.3
			s2.8-1.2,4.3-1.3l0.6-2.8c-0.1,0-0.3,0-0.4-0.1C502.4,110.7,502.2,110.7,502,110.7z"/>
		<path d="M509,115.7c0.7-0.8,1.5-1.4,2.5-1.8c0.9-0.5,1.9-0.7,2.9-0.7s1.9,0.3,2.6,0.8s1.2,1.2,1.5,2.1l3.4-1
			c-0.4-1.4-1.1-2.6-2.3-3.4c-1.1-0.9-2.6-1.3-4.5-1.3c-1.6,0-3.2,0.3-4.6,1s-2.7,1.5-3.7,2.6s-1.9,2.4-2.5,3.8
			c-0.6,1.4-0.9,2.9-0.9,4.5c0,1.1,0.2,2.2,0.5,3.1c0.3,1,0.8,1.8,1.5,2.6c0.7,0.7,1.4,1.3,2.4,1.8c0.9,0.4,2,0.6,3.2,0.6
			c0.9,0,1.8-0.1,2.7-0.4c0.9-0.2,1.7-0.6,2.5-1s1.5-0.9,2.1-1.5s1.2-1.2,1.6-2l-3-1c-0.2,0.4-0.5,0.8-0.9,1.2s-0.8,0.7-1.3,0.9
			c-0.5,0.3-1,0.5-1.6,0.6c-0.6,0.2-1.1,0.2-1.6,0.2c-0.7,0-1.3-0.1-1.9-0.4c-0.6-0.3-1.1-0.7-1.5-1.2s-0.7-1.1-0.9-1.8
			s-0.3-1.5-0.3-2.3c0-1.2,0.2-2.3,0.6-3.4S508.3,116.5,509,115.7z"/>
		<path d="M540.3,111.7c-1.2-0.9-2.7-1.3-4.6-1.3c-1.7,0-3.2,0.3-4.7,1s-2.7,1.5-3.7,2.6s-1.9,2.4-2.5,3.8s-0.9,2.9-0.9,4.5
			c0,1.1,0.2,2.2,0.5,3.2s0.8,1.8,1.5,2.6s1.4,1.3,2.4,1.7s2,0.6,3.2,0.6c0.9,0,1.8-0.1,2.7-0.4s1.7-0.6,2.5-1s1.5-0.9,2.2-1.5
			s1.2-1.2,1.7-2l-2.6-0.8c-0.6,1-1.5,1.8-2.6,2.3c-1.1,0.6-2.2,0.9-3.3,0.9c-0.8,0-1.5-0.2-2.1-0.5s-1.1-0.7-1.5-1.3
			c-0.4-0.5-0.7-1.1-0.9-1.8s-0.3-1.4-0.3-2.2c0-0.1,0-0.3,0-0.4c0-0.1,0-0.3,0-0.4c0.8,0.1,1.5,0.1,2.3,0.1s1.4,0,2,0
			c3.6,0,6.3-0.5,8-1.5s2.6-2.5,2.6-4.5C542,113.9,541.5,112.6,540.3,111.7z M538.7,117.1c-0.3,0.5-0.7,0.9-1.3,1.2
			s-1.4,0.6-2.3,0.8c-0.9,0.2-2.1,0.3-3.5,0.3c-0.6,0-1.2,0-1.8,0c-0.7,0-1.4-0.1-2.1-0.1c0.2-0.8,0.6-1.6,1-2.3
			c0.4-0.8,1-1.4,1.6-2s1.4-1.1,2.2-1.4c0.9-0.4,1.8-0.5,2.9-0.5c1.1,0,2,0.2,2.7,0.7s1,1.1,1,2.1
			C539.1,116.1,539,116.6,538.7,117.1z"/>
	</g>
</g>
<g id="Ebene_1_1_" class="st1">
</g>
<rect x="106.6" y="130.1" class="st2" width="37.2" height="37.2"/>
<rect x="-27" y="44.3" class="st2" width="53.9" height="53.9"/>
<rect x="113.6" y="-21.1" class="st2" width="42.3" height="42.3"/>
<rect x="542.2" y="56.2" class="st2" width="53.7" height="53.7"/>
</svg>
