<?xml version="1.0" encoding="UTF-8" standalone="no"?>
<!-- Created with Inkscape (http://www.inkscape.org/) -->

<svg xmlns="http://www.w3.org/2000/svg" version="1.1" width="1102.072" height="183.77">
<defs id="defs6">
  <clipPath clipPathUnits="userSpaceOnUse" id="clipPath66">
    <path d="m 4645.49,1409.03 816.73,0 0,-817.108 -816.73,0 0,817.108 z" id="path68" />
  </clipPath>
</defs>
<g id="g2" transform="matrix(0.2,0,0,-0.2,-0.623438,292.03621)">
  <path d="m 3.11719,541.33103 5510.36001,0 0,918.83507 -5510.36001,-10e-5 z" style="fill:#231f20;stroke:none" id="path14" />
  <path d="m 53.4375,591.93 4541.93,0 0,817.262 -4541.93,0 0,-817.262 z" style="fill:#f7911a;stroke:none" id="path16" />
  <path d="m 4645.49,591.922 816.734,0 0,817.109 -816.734,0 0,-817.109 z" style="fill:#c40070;stroke:none" id="path60" />
  <g id="g6" style="fill:#f7911a;stroke:none" clip-path="url(#clipPath66)">
    <path d="m 4516.08,519.168 1004.1,1004.092 56.01,-55.96 -1004.1,-1004.093 -56.01,55.961" id="path70" />
    <path d="m 4432.13,603.031 1004.1,1004.099 56.02,-55.97 -1004.1,-1004.094 -56.02,55.965" id="path72" />
    <path d="M 4348.2,686.891 5352.29,1690.99 5408.3,1635.02 4404.21,630.93 4348.2,686.891" id="path74" />
    <path d="m 4264.25,770.754 1004.1,1004.096 56.01,-55.96 -1004.09,-1004.097 -56.02,55.961" id="path76" />
    <path d="M 6204.78,29.8555 5199.72,1033.95 5255.74,1089.98 6260.79,85.8789 6204.78,29.8555" id="path78" />
    <path d="M 6120.84,-54.0938 5115.78,950 5171.8,1006.02 6176.85,1.92578 6120.84,-54.0938" id="path80" />
    <path d="M 6036.89,-138.047 5031.84,866.051 5087.85,922.074 6092.91,-82.0273 6036.89,-138.047" id="path82" />
    <path d="M 5952.95,-222 4947.89,782.098 5003.91,838.121 6008.96,-165.977 5952.95,-222" id="path84" />
  </g>
  <g id="g8" transform="matrix(5,0,0,-5,3.11719,1460.1661)">
    <path id="path122" style="fill:#ffffff;stroke:none" d="m 209.84375,58.53125 c -18.333,0 -33.1875,14.8555 -33.1875,33.1875 0,18.3326 14.8545,33.1875 33.1875,33.1875 18.332,0 33.1875,-14.8549 33.1875,-33.1875 0,-18.332 -14.8555,-33.1875 -33.1875,-33.1875 z m 319.1875,43.6875 0,24.875 c 9.108,-0.3038 18.822,1.52255 25.5,-5.15625 2.732,-3.036 3.018,-8.8032 1.5,-12.75 -5.464,-9.107 -17.286,-6.36175 -27,-6.96875 z M 644.09375,69.40625 631.625,106.75 c 8.198,0 16.983,0 25.125,0 z M 529.03125,56.375 l 0,22.4375 c 6.376,0 13.0625,0.608 17.3125,-4.25 2.428,-2.732 3.0145,-6.75625 1.8125,-10.90625 -2.22,-7.666 -11.839,-7.28125 -19.125,-7.28125 z M 313.375,56.28125 c -1.0643,0.0066 -2.15625,0.056 -3.21875,0.09375 l 0,29.125 c 7.182,-0.17 16.80875,0.07575 21.96875,-6.90625 2.732,-3.946 2.80675,-10.61425 0.21875,-14.65625 C 328.093,57.29625 320.82511,56.235148 313.375,56.28125 z m 445.3125,-27.5 c 8.54579,-0.126532 17.002,1.28675 24.34375,4.53125 l 0.0937,37.96875 c -8.5,-11.234 -22.1525,-14.30875 -35.8125,-10.96875 -8.502,2.428 -16.99525,9.71875 -20.03125,18.21875 -4.554,12.752 -2.751,28.5267 7.875,37.9375 7.892,6.679 18.5075,9.4282 29.4375,7 6.982,-1.5178 13.37125,-5.785 18.53125,-11.25 l 0,36.4375 c -19.428,8.5008 -45.85225,6.36255 -63.15625,-5.78125 -21.252,-13.9648 -29.7277,-37.62879 -25.7817,-62.218985 3.036,-22.466 23.3527,-43.410765 44.9067,-48.874765 6.24312,-1.859375 12.94702,-2.901586 19.59375,-3 z m -550,0.125 c 3.78974,-0.02896 7.65672,0.228125 11.59375,0.75 18.822,3.036 37.659,14.24425 47.375,32.15625 11.84,20.946 8.178,51.62815 -7,69.84375 -16.09,18.8218 -38.5348,25.79905 -63.125,22.15625 -18.5188,-3.036 -37.34375,-14.25375 -45.84375,-32.46875 -10.9288,-19.7328 -10.03205,-49.79825 4.84375,-67.40625 13.57577,-16.648875 31.69168,-24.874843 52.15625,-25.03125 z m -174.5,3.78125 30.375,0 0,45.21875 c 14.6298,0 30.0617,0.03125 44.9375,0.03125 0,-14.872 -0.0312,-30.086 -0.0312,-45.25 l 30.375,0 0,118.09375 -30.375,0 0,-48.3125 c -14.6032,0 -29.1234,0.0312 -44.625,0.0312 l 0,48.28125 -30.65625,0 0,-118.09375 z m 245.3125,0 54.53125,0 c 7.09,0 13.77325,3.863 19.53125,7.875 12.446,9.716 14.573,26.1155 10.625,40.6875 -2.732,10.322 -13.0635,19.429 -23.6875,21.25 l 36.75,43.0625 -0.0312,-112.875 27.9375,0 56.53125,72.71875 C 461.6875,81.88305 461.625,56.982 461.625,33 l 31.5,0 0,117.78125 -31.5,0 -56,-71.875 -0.0937,71.875 -66.25,0 c -9.714,-15.179 -19.107,-30.35225 -29.125,-45.53125 l 0,45.53125 -30.65625,0 0,-118.09375 z m 348.1875,0 33.09375,0 44.625,118.09375 -32.78125,0 -7.28125,-20.34375 -42.5,0 -8.21875,20.34375 -32.15625,0 z m 235.28125,0 30.65625,0 0,118.09375 -30.34375,0 0,-47.96875 c -14.626,0 -30.42675,0.0937 -44.96875,0.0937 0,15.4266 0.0312,31.6758 0.0312,47.875 l -30.34375,0 0,-117.84375 30.34375,0 0,45.3125 c 14.616,0 29.749,-0.03125 44.625,-0.03125 l 0,-45.53125 z m -365.46875,0.25 54.25,0 c 6.646,0 12.84775,3.09475 17.59375,8.21875 8.756,9.454 9.48675,26.73675 3.71875,37.96875 -2.126,3.642 -5.483,6.374 -9.125,8.5 8.5,1.518 19.0855,7.13505 21.4375,15.53125 3.472,12.3866 4.00925,27.521 -6.46875,38 -7.364,7.3632 -13.0955,9.5625 -28.6875,9.5625 -18.344,0 -35.12825,0.0625 -52.65625,0.0625 z" />
    <path id="path120" style="fill:#231f20;stroke:none" d="m 209.84375,58.53125 c -18.333,0 -33.1875,14.8555 -33.1875,33.1875 0,18.3326 14.8545,33.1875 33.1875,33.1875 18.332,0 33.1875,-14.8549 33.1875,-33.1875 0,-18.332 -14.8555,-33.1875 -33.1875,-33.1875 z m 0,4.125 c 16.04,0 29.0625,13.0225 29.0625,29.0625 0,16.0404 -13.0225,29.03125 -29.0625,29.03125 -16.0416,0 -29.03125,-12.99085 -29.03125,-29.03125 0,-16.04 12.98965,-29.0625 29.03125,-29.0625 z m 319.1875,39.5625 0,24.875 c 9.108,-0.3038 18.822,1.52255 25.5,-5.15625 2.732,-3.036 3.018,-8.8032 1.5,-12.75 -5.464,-9.107 -17.286,-6.36175 -27,-6.96875 z m 8.75,3.8125 c 4.81003,0.0429 9.53475,0.7365 13.40625,3.46875 2.124,2.732 2.124,7.268 0,10 -5.162,3.643 -11.84275,3.65625 -18.21875,3.65625 l 0,-17 c 1.594,-0.0758 3.20916,-0.13928 4.8125,-0.125 z M 644.09375,69.40625 631.625,106.75 c 8.198,0 16.983,0 25.125,0 L 644.09375,69.40625 z m 0,13.65625 6.65625,19.4375 -13.34375,0 6.6875,-19.4375 z m -115.0625,-26.6875 0,22.4375 c 6.376,0 13.0625,0.608 17.3125,-4.25 2.428,-2.732 3.0145,-6.75625 1.8125,-10.90625 -2.22,-7.666 -11.839,-7.28125 -19.125,-7.28125 z m 3.9375,3.9375 c 3.644,0.302 6.768,0.33625 9.5,2.15625 2.384,1.588 2.947,6.35325 1.125,8.78125 -2.732,3.036 -6.981,3.321 -10.625,3.625 l 0,-14.5625 z M 313.375,56.28125 c -1.0643,0.0066 -2.15625,0.056 -3.21875,0.09375 l 0,29.125 c 7.182,-0.17 16.80875,0.07575 21.96875,-6.90625 2.732,-3.946 2.80675,-10.61425 0.21875,-14.65625 C 328.093,57.29625 320.82511,56.235148 313.375,56.28125 z m 0.71875,4.03125 c 5.16,0.302 10.1685,0.608 13.8125,4.25 2.798,2.8 2.874,8.19125 0.75,11.53125 -3.34,4.554 -9.0985,5.16475 -14.5625,5.46875 l 0,-21.25 z M 207.875,24.5625 c -1.71805,0.02659 -3.44188,0.08588 -5.1875,0.21875 -25.1968,1.214 -49.50395,20.034 -59.21875,42.5 L 143.4375,28.75 l -38.15625,0 -0.0625,45.46875 -36.71875,0 0.03125,-45.46875 -38,0 0,125.96875 37.96875,0 0,-48.25 36.71875,0 0,48.28125 38.21875,-0.0312 0.0312,-41.9375 0.625,1.875 c 2.125,5.161 4.25395,10.3305 7.59375,15.1875 15.4828,22.161 39.4638,30.96025 65.875,28.53125 25.198,-0.911 50.68475,-20.96795 57.96875,-44.34375 l 0,40.71875 38.21875,-0.0312 0.0312,-36.40625 0.625,1.1875 c 7.59,11.8398 14.269,24.28995 23.375,35.21875 l 71.21875,0 0,-65.375 c 17,21.5548 33.517,44.4282 51.125,65.375 l 33.6875,0 c 3.57,0 46.9625,0.0312 56.3125,0.0312 21.424,0 26.61375,-5.4922 31.09375,-10.875 0,0 -3.36325,8.84935 -4.03125,10.84375 l 40.53125,0 8.15625,-20.34375 36.125,0 c 2.864,6.9766 5.4535,14.04995 7.9375,20.34375 l 40.625,0 c 0,0 -5.71275,-16.21085 -7.71875,-21.65625 l 6.96875,7.625 c 17.792,18.1726 46.163,21.6095 73.125,14.0625 1.91,0 39.6875,-0.0312 39.6875,-0.0312 l -0.0312,-48.25 36.4375,0 0,48.28125 38.25,0 0,-126.03125 -38.125,0 -0.125,45.5625 -36.4375,0 0,-45.5625 -36.4375,0.03125 -2.71875,-0.03125 c -18.364,-6.304 -44.03125,-4.8305 -61.03125,5.1875 -21.858,12.75 -34.60975,35.20965 -33.09375,60.40625 l 0.3125,2.78125 -25.4375,-68.375 -39.59375,0 -0.84375,2.15625 -31.875,81.96875 c 0,-11.536 -7.60325,-22.78975 -18.53125,-27.34375 10.016,-9.714 10.076,-27.973 3.75,-40.125 C 571.58175,34.789 563.021,28.71875 549.625,28.71875 L 496.25,28.75 l -2.125,0 -36.125,0 0.15625,64.90625 C 441.46025,72.10105 424.492,50.722 407,28.75 l -33.8125,0 0.0937,105.9375 -25.5,-29.75 c 6.982,-2.429 13.679,-8.8131 17.625,-15.1875 6.376,-11.84 6.6695,-30.9725 -0.3125,-42.8125 C 357.80775,35.7055 345.877,28.75 332.625,28.75 l -57.40625,0 0.0312,39.15625 -4.875,-10.34375 c -14.23125,-21.915 -36.72926,-33.398782 -62.5,-33 z m 550.8125,4.21875 c 8.54579,-0.126532 17.002,1.28675 24.34375,4.53125 l 0.0937,37.96875 c -8.5,-11.234 -22.1525,-14.30875 -35.8125,-10.96875 -8.502,2.428 -16.99525,9.71875 -20.03125,18.21875 -4.554,12.752 -2.751,28.5267 7.875,37.9375 7.892,6.679 18.5075,9.4282 29.4375,7 6.982,-1.5178 13.37125,-5.785 18.53125,-11.25 l 0,36.4375 c -19.428,8.5008 -45.85225,6.36255 -63.15625,-5.78125 -21.252,-13.9648 -29.72725,-37.62855 -25.78125,-62.21875 3.036,-22.466 23.35225,-43.411 44.90625,-48.875 6.24312,-1.859375 12.94702,-2.901586 19.59375,-3 z m -550,0.125 c 3.78974,-0.02896 7.65672,0.228125 11.59375,0.75 18.822,3.036 37.659,14.24425 47.375,32.15625 11.84,20.946 8.178,51.62815 -7,69.84375 -16.09,18.8218 -38.5348,25.79905 -63.125,22.15625 -18.5188,-3.036 -37.34375,-14.25375 -45.84375,-32.46875 -10.9288,-19.7328 -10.03205,-49.79825 4.84375,-67.40625 13.57577,-16.648875 31.69168,-24.874843 52.15625,-25.03125 z m -174.5,3.78125 30.375,0 0,45.21875 c 14.6298,0 30.0617,0.03125 44.9375,0.03125 0,-14.872 -0.0312,-30.086 -0.0312,-45.25 l 30.375,0 0,118.09375 -30.375,0 0,-48.3125 c -14.6032,0 -29.1234,0.0312 -44.625,0.0312 l 0,48.28125 -30.65625,0 0,-118.09375 z m 245.3125,0 54.53125,0 c 7.09,0 13.77325,3.863 19.53125,7.875 12.446,9.716 14.573,26.1155 10.625,40.6875 -2.732,10.322 -13.0635,19.429 -23.6875,21.25 l 36.75,43.0625 -0.0312,-112.875 27.9375,0 56.53125,72.71875 C 461.6875,81.88305 461.625,56.982 461.625,33 l 31.5,0 0,117.78125 -31.5,0 -56,-71.875 -0.0937,71.875 -66.25,0 c -9.714,-15.179 -19.107,-30.35225 -29.125,-45.53125 l 0,45.53125 -30.65625,0 0,-118.09375 z m 348.1875,0 33.09375,0 44.625,118.09375 -32.78125,0 -7.28125,-20.34375 -42.5,0 -8.21875,20.34375 -32.15625,0 L 627.6875,32.6875 z m 235.28125,0 30.65625,0 0,118.09375 -30.34375,0 0,-47.96875 c -14.626,0 -30.42675,0.0937 -44.96875,0.0937 0,15.4266 0.0312,31.6758 0.0312,47.875 l -30.34375,0 0,-117.84375 30.34375,0 0,45.3125 c 14.616,0 29.749,-0.03125 44.625,-0.03125 l 0,-45.53125 z m -365.46875,0.25 54.25,0 c 6.646,0 12.84775,3.09475 17.59375,8.21875 8.756,9.454 9.48675,26.73675 3.71875,37.96875 -2.126,3.642 -5.483,6.374 -9.125,8.5 8.5,1.518 19.0855,7.13505 21.4375,15.53125 3.472,12.3866 4.00925,27.521 -6.46875,38 -7.364,7.3632 -13.0955,9.5625 -28.6875,9.5625 -18.344,0 -35.12825,0.0625 -52.65625,0.0625 L 497.5,32.9375 z m 259.375,30.46875 c 3.7607,0.02361 7.50612,0.814875 10.78125,2.375 8.334,3.97 11.26925,6.36025 15.28125,13.90625 l 0,26.78125 C 770.9735,120.03435 753.679,121.929 744.875,117.375 734.553,113.4282 730.00575,102.518 729.09375,92.5 c 0.304,-10.3214 4.55875,-20.338 13.96875,-25.5 4.0995,-2.390625 8.97732,-3.624107 13.8125,-3.59375 z" />
  </g>
</g>
</svg>