<svg xmlns="http://www.w3.org/2000/svg" preserveAspectRatio="xMinYMin" viewBox="0 0 351.53 60.08"><path d="m334.4 29.65 17.13 25.47h-13.82l-10.95-16.77-10.96 16.77h-13.82l17.13-25.47-16.39-24.47h13.82l10.22 16.05 10.22-16.05h13.82zM277.79 5.18h11.76v49.94h-11.76zm-33.2 21.67v9.73h7.8v6.19c-1.18 1.07-5.33 2.5-8.42 2.5-9.19 0-15.52-5.92-15.52-15.12 0-10.49 7.4-15.12 15.86-15.12a19.6 19.6 0 0 1 10.46 3.74l6-8.85a28.9 28.9 0 0 0-18-5.6c-16.18 0-26.52 10.44-26.52 25.82 0 15.55 9.92 25.82 27.57 25.82 6.4 0 14.71-2.64 19.27-7.06V26.85Zm-66.41 7.08h11.59L184 19.81Zm.51-28.75h10.52l21.39 49.94h-12.2l-4.26-10.49h-20.37l-4.26 10.49h-12.2Zm-31.98 49.93h-11.69V22.8l-15.07 20.53h-.31L104.58 22.8v32.31H92.89V5.18h11l15.88 21.28 15.91-21.28h11ZM5.62 47.49a5.62 5.62 0 0 1-5.16-7.83l10-23.38a5.62 5.62 0 0 1 10.31 4.43l-10 23.33a5.62 5.62 0 0 1-5.15 3.45m16.01 12.55a5.62 5.62 0 0 1-5.16-7.83L37.39 3.4a5.62 5.62 0 1 1 10.33 4.42L26.77 56.67a5.62 5.62 0 0 1-5.14 3.37m24.03-6a5.62 5.62 0 0 1-5.16-7.83L56.27 9.4a5.62 5.62 0 1 1 10.33 4.42L50.82 50.65a5.62 5.62 0 0 1-5.16 3.39"/></svg>