<svg id="Magix_logo_black_cmyk" xmlns="http://www.w3.org/2000/svg" viewBox="0 0 351.53 60.08"><title>Magix_logo_450x150_web_black_rgb</title><polygon points="334.4 29.65 351.53 55.12 337.71 55.12 326.76 38.35 315.8 55.12 301.98 55.12 319.11 29.65 302.72 5.18 316.54 5.18 326.76 21.23 336.98 5.18 350.8 5.18 334.4 29.65"/><rect x="277.79" y="5.18" width="11.76" height="49.94"/><path d="M293.82,71.81v9.73h7.8v6.19c-1.18,1.07-5.33,2.5-8.42,2.5-9.19,0-15.52-5.92-15.52-15.12,0-10.49,7.4-15.12,15.86-15.12A19.61,19.61,0,0,1,304,63.73L310,54.88a28.91,28.91,0,0,0-18-5.6c-16.18,0-26.52,10.44-26.52,25.82,0,15.55,9.92,25.82,27.57,25.82,6.4,0,14.71-2.64,19.27-7.06V71.81Z" transform="translate(-49.23 -44.96)"/><path d="M227.41,78.89H239l-5.77-14.12Zm.51-28.75h10.52l21.39,49.94h-12.2l-4.26-10.49H223l-4.26,10.49h-12.2Z" transform="translate(-49.23 -44.96)"/><path d="M195.94,100.07H184.25V67.76L169.18,88.29h-.31L153.81,67.76v32.31H142.12V50.14h11L169,71.42l15.91-21.28h11Z" transform="translate(-49.23 -44.96)"/><path d="M54.85,92.45a5.62,5.62,0,0,1-5.16-7.83l10-23.38A5.62,5.62,0,0,1,70,65.67L60,89A5.62,5.62,0,0,1,54.85,92.45Z" transform="translate(-49.23 -44.96)"/><path d="M70.86,105a5.62,5.62,0,0,1-5.16-7.83L86.62,48.36a5.62,5.62,0,1,1,10.33,4.42L76,101.63A5.62,5.62,0,0,1,70.86,105Z" transform="translate(-49.23 -44.96)"/><path d="M94.89,99a5.62,5.62,0,0,1-5.16-7.83L105.5,54.36a5.62,5.62,0,1,1,10.33,4.42L100.05,95.61A5.62,5.62,0,0,1,94.89,99Z" transform="translate(-49.23 -44.96)"/></svg>