<?xml version="1.0" encoding="utf-8"?>
<!-- Generator: Adobe Illustrator 25.4.1, SVG Export Plug-In . SVG Version: 6.00 Build 0)  -->
<svg version="1.1" id="Ebene_1" xmlns="http://www.w3.org/2000/svg" xmlns:xlink="http://www.w3.org/1999/xlink" x="0px" y="0px"
	 viewBox="0 0 284.165 76.71" style="enable-background:new 0 0 284.165 76.71;" xml:space="preserve">
<style type="text/css">
	.st0{fill:#FC3C61;}
</style>
<g>
	<path class="st0" d="M60.261,28.01c-6.878,0-12.475,5.596-12.475,12.474c0,6.879,5.596,12.475,12.475,12.475
		c6.879,0,12.475-5.596,12.475-12.475C72.736,33.606,67.14,28.01,60.261,28.01z M60.261,48.718c-4.54,0-8.234-3.694-8.234-8.234
		c0-4.54,3.694-8.234,8.234-8.234s8.234,3.694,8.234,8.234C68.495,45.024,64.802,48.718,60.261,48.718z"/>
	<path class="st0" d="M13.375,28.01C6.496,28.01,0.9,33.606,0.9,40.484c0,6.879,5.596,12.475,12.475,12.475
		S25.85,47.363,25.85,40.484C25.85,33.606,20.254,28.01,13.375,28.01z M13.375,48.718c-4.54,0-8.234-3.694-8.234-8.234
		c0-4.54,3.694-8.234,8.234-8.234s8.234,3.694,8.234,8.234C21.609,45.024,17.915,48.718,13.375,48.718z"/>
	<path class="st0" d="M36.814,33.759c9.219,0,16.718-7.5,16.718-16.718c0-9.219-7.5-16.719-16.718-16.719s-16.718,7.5-16.718,16.719
		C20.095,26.259,27.595,33.759,36.814,33.759z M36.814,4.562c6.88,0,12.478,5.598,12.478,12.478c0,6.88-5.597,12.478-12.478,12.478
		S24.336,23.921,24.336,17.04C24.336,10.16,29.933,4.562,36.814,4.562z"/>
	<path class="st0" d="M9.028,26.056c4.808,0,8.719-3.911,8.719-8.719c0-4.808-3.911-8.719-8.719-8.719
		c-4.808,0-8.719,3.911-8.719,8.719C0.309,22.145,4.22,26.056,9.028,26.056z M9.028,12.807c2.498,0,4.53,2.032,4.53,4.531
		c0,2.498-2.032,4.53-4.53,4.53c-2.498,0-4.531-2.032-4.531-4.53C4.497,14.84,6.53,12.807,9.028,12.807z"/>
	<path class="st0" d="M64.6,8.619c-4.808,0-8.719,3.911-8.719,8.719c0,4.807,3.911,8.719,8.719,8.719
		c4.808,0,8.719-3.911,8.719-8.719C73.319,12.53,69.407,8.619,64.6,8.619z M64.6,21.868c-2.498,0-4.531-2.032-4.531-4.53
		c0-2.498,2.032-4.531,4.531-4.531c2.498,0,4.53,2.032,4.53,4.531C69.13,19.836,67.098,21.868,64.6,21.868z"/>
	<path class="st0" d="M169.963,38.846c-0.546-0.945-1.27-1.669-2.173-2.173c-0.903-0.504-1.9-0.756-2.992-0.756
		c-1.428,0-2.719,0.373-3.873,1.118c-1.155,0.746-2.068,1.759-2.74,3.039c-0.672,1.281-1.008,2.719-1.008,4.314
		c0,1.638,0.315,3.092,0.945,4.362c0.63,1.27,1.501,2.262,2.614,2.976c1.113,0.714,2.382,1.071,3.81,1.071
		c1.197,0,2.256-0.252,3.181-0.756c0.924-0.504,1.669-1.228,2.236-2.173v1.669c0,3.485-1.753,5.228-5.259,5.228
		c-0.882,0-1.806-0.126-2.771-0.378c-0.966-0.252-1.785-0.577-2.456-0.976l-0.472,3.684c0.399,0.252,0.934,0.477,1.606,0.677
		c0.672,0.199,1.406,0.362,2.204,0.488c0.798,0.126,1.585,0.189,2.362,0.189c2.96,0,5.201-0.771,6.723-2.315
		c1.522-1.543,2.283-3.816,2.283-6.818V36.422h-4.157L169.963,38.846z M168.861,47.68c-0.798,0.871-1.816,1.307-3.055,1.307
		c-1.239,0-2.257-0.436-3.055-1.307c-0.798-0.871-1.197-1.978-1.197-3.322c0-1.365,0.399-2.477,1.197-3.338
		c0.798-0.861,1.816-1.291,3.055-1.291c1.238,0,2.256,0.43,3.055,1.291c0.798,0.861,1.197,1.973,1.197,3.338
		C170.057,45.701,169.658,46.809,168.861,47.68z"/>
	<path class="st0" d="M139.15,37.036c-1.302-0.745-2.782-1.118-4.44-1.118c-1.638,0-3.107,0.373-4.409,1.118
		c-1.302,0.746-2.331,1.764-3.086,3.055c-0.756,1.291-1.134,2.745-1.134,4.362c0,1.617,0.372,3.07,1.118,4.361
		c0.745,1.291,1.769,2.304,3.07,3.039c1.302,0.735,2.782,1.102,4.44,1.102c1.637,0,3.107-0.373,4.409-1.118
		c1.301-0.745,2.33-1.764,3.086-3.055s1.134-2.734,1.134-4.33c0-1.638-0.373-3.096-1.118-4.377
		C141.475,38.794,140.451,37.781,139.15,37.036z M137.764,47.758c-0.798,0.861-1.816,1.291-3.055,1.291
		c-1.239,0-2.257-0.43-3.055-1.291c-0.798-0.86-1.197-1.963-1.197-3.306c0-1.365,0.399-2.477,1.197-3.338
		c0.798-0.861,1.816-1.291,3.055-1.291c1.238,0,2.256,0.43,3.055,1.291c0.798,0.861,1.197,1.973,1.197,3.338
		C138.961,45.796,138.562,46.898,137.764,47.758z"/>
	<path class="st0" d="M154.476,36.138c-1.029,0-1.926,0.299-2.693,0.898c-0.766,0.598-1.338,1.454-1.716,2.566l-0.031-3.18h-4.188
		v16.029h4.346v-7.306c0-1.595,0.325-2.818,0.976-3.669c0.65-0.85,1.575-1.275,2.771-1.275c0.315,0,0.661,0.042,1.039,0.126
		c0.378,0.084,0.703,0.179,0.976,0.283l0.378-4.125c-0.21-0.105-0.488-0.189-0.835-0.252
		C155.153,36.17,154.812,36.138,154.476,36.138z"/>
	<path class="st0" d="M241.723,45.712c0,2.247-0.997,3.37-2.989,3.37c-2.016,0-3.023-1.123-3.023-3.37v-9.29h-4.377v9.384
		c0,2.288,0.633,4.052,1.903,5.29c1.27,1.239,3.091,1.858,5.466,1.858c2.372,0,4.196-0.619,5.479-1.858
		c1.28-1.238,1.921-3.002,1.921-5.29v-9.384h-4.379V45.712z"/>
	<path class="st0" d="M279.397,26.943v11.683c-0.547-0.882-1.262-1.553-2.141-2.015c-0.882-0.461-1.848-0.693-2.898-0.693
		c-1.429,0-2.715,0.378-3.858,1.134c-1.144,0.756-2.052,1.779-2.722,3.07c-0.673,1.291-1.008,2.745-1.008,4.362
		c0,1.638,0.314,3.097,0.945,4.377c0.628,1.281,1.495,2.283,2.597,3.007c1.102,0.724,2.366,1.087,3.796,1.087
		c1.217,0,2.288-0.252,3.212-0.756c0.924-0.504,1.668-1.228,2.236-2.173l0.063,2.425h4.157V26.943H279.397z M278.452,47.758
		c-0.798,0.861-1.817,1.291-3.055,1.291c-1.238,0-2.256-0.43-3.055-1.291c-0.798-0.86-1.196-1.963-1.196-3.306
		c0-1.365,0.398-2.477,1.196-3.338c0.798-0.861,1.817-1.291,3.055-1.291c1.238,0,2.256,0.43,3.055,1.291
		c0.796,0.861,1.196,1.973,1.196,3.338C279.648,45.796,279.247,46.898,278.452,47.758z"/>
	<path class="st0" d="M188.968,36.894c-1.134-0.651-2.477-0.976-4.031-0.976c-1.596,0-3.013,0.362-4.251,1.087
		c-1.239,0.724-2.204,1.727-2.897,3.007c-0.693,1.281-1.039,2.761-1.039,4.44c0,1.743,0.372,3.254,1.118,4.535
		c0.745,1.281,1.816,2.262,3.212,2.944c1.396,0.682,3.06,1.024,4.991,1.024c1.133,0,2.246-0.116,3.338-0.347
		c1.092-0.231,2.047-0.556,2.866-0.976l-0.441-3.275c-0.777,0.378-1.627,0.667-2.551,0.866c-0.924,0.2-1.837,0.299-2.74,0.299
		c-3.254,0-5.102-1.333-5.542-3.999h11.431c0.063-0.567,0.094-1.113,0.094-1.638c0-1.616-0.31-3.023-0.929-4.22
		C190.978,38.469,190.101,37.545,188.968,36.894z M181,42.877c0.168-1.217,0.588-2.152,1.26-2.803
		c0.672-0.65,1.522-0.976,2.551-0.976c0.986,0,1.789,0.273,2.409,0.819c0.619,0.546,1.002,1.323,1.149,2.331
		c0.042,0.189,0.063,0.399,0.063,0.63H181z"/>
	<path class="st0" d="M258.615,35.918c-1.133,0-2.136,0.247-3.008,0.74c-0.872,0.494-1.516,1.192-1.937,2.094l-0.063-2.33h-4.22
		v16.029h4.345v-8.628c0-1.28,0.296-2.272,0.882-2.976c0.589-0.703,1.408-1.055,2.458-1.055c1.929,0,2.895,1.249,2.895,3.748v8.912
		h4.348V42.72c0-2.183-0.49-3.862-1.466-5.039C261.874,36.506,260.463,35.918,258.615,35.918z"/>
	<polygon class="st0" points="214.067,52.451 218.758,52.451 218.758,42.909 227.985,42.909 227.985,39.035 218.758,39.035 
		218.758,32.391 229.433,32.391 229.433,28.517 214.067,28.517 	"/>
	<path class="st0" d="M204.568,35.918c-1.134,0-2.137,0.247-3.007,0.74c-0.871,0.494-1.517,1.192-1.937,2.094l-0.063-2.33h-4.22
		v16.029h4.346v-8.628c0-1.28,0.294-2.272,0.882-2.976c0.587-0.703,1.406-1.055,2.456-1.055c1.931,0,2.897,1.249,2.897,3.748v8.912
		h4.346V42.72c0-2.183-0.488-3.862-1.464-5.039C207.828,36.506,206.415,35.918,204.568,35.918z"/>
	<polygon class="st0" points="110.255,39.382 102.223,28.517 97.68,28.517 97.68,52.451 102.183,52.451 102.183,35.178 
		108.549,43.789 111.924,43.789 118.589,34.99 118.589,52.451 123.093,52.451 123.093,28.517 118.485,28.517 	"/>
	<polygon class="st0" points="38.934,60.304 38.934,36.691 34.693,36.691 34.693,60.302 25.369,50.357 22.449,53.08 34.693,66.138 
		34.693,76.388 38.934,76.388 38.934,66.139 51.18,53.083 48.261,50.36 	"/>
</g>
</svg>
