<?xml version="1.0" encoding="UTF-8" standalone="no"?>
<!DOCTYPE svg PUBLIC "-//W3C//DTD SVG 1.1//EN" "http://www.w3.org/Graphics/SVG/1.1/DTD/svg11.dtd">
<svg xmlns="http://www.w3.org/2000/svg" version="1.1" viewBox="0.00 0.00 595.00 142.00">
<g fill="#005ba9">
<path d="
  M 16.00 15.35
  L 16.00 120.65
  A 0.35 0.35 0.0 0 0 16.35 121.00
  L 109.66 121.00
  A 0.35 0.35 0.0 0 1 110.01 121.35
  L 110.00 123.65
  A 0.35 0.35 0.0 0 1 109.65 124.00
  L 13.35 124.00
  A 0.35 0.35 0.0 0 1 13.00 123.65
  L 13.00 12.35
  A 0.35 0.35 0.0 0 1 13.35 12.00
  L 124.65 12.00
  A 0.35 0.35 0.0 0 1 125.00 12.35
  L 125.00 44.66
  A 0.35 0.35 0.0 0 1 124.65 45.01
  L 122.35 45.01
  A 0.35 0.35 0.0 0 1 122.00 44.66
  L 122.00 15.35
  A 0.35 0.35 0.0 0 0 121.65 15.00
  L 16.35 15.00
  A 0.35 0.35 0.0 0 0 16.00 15.35
  Z"
/>
<rect x="-3.00" y="-3.01" transform="translate(387.50,42.50) rotate(-0.4)" width="6.00" height="6.02" rx="0.46"/>
<rect x="394.75" y="39.50" width="5.74" height="6.00" rx="0.34"/>
<path d="
  M 466.14 55.36
  C 463.76 57.73 465.54 60.84 468.03 62.37
  C 475.08 66.70 483.45 70.41 480.75 80.64
  Q 479.19 86.55 472.85 87.85
  Q 466.09 89.24 460.15 84.50
  Q 460.00 84.38 460.00 84.18
  L 460.01 77.06
  A 0.13 0.13 0.0 0 1 460.24 76.97
  Q 467.18 84.75 473.17 81.79
  C 477.60 79.60 475.59 74.57 472.24 72.45
  C 466.22 68.65 458.90 65.68 459.52 57.23
  C 459.85 52.77 463.48 49.29 467.82 48.38
  Q 473.83 47.12 479.27 50.60
  Q 479.50 50.74 479.50 51.02
  L 479.50 57.49
  A 0.15 0.15 0.0 0 1 479.25 57.61
  C 475.42 54.12 469.86 51.66 466.14 55.36
  Z"
/>
<path d="
  M 517.53 57.76
  Q 507.07 51.19 499.03 54.90
  C 491.00 58.60 488.14 68.82 492.92 76.31
  C 496.77 82.34 504.42 83.97 511.08 81.66
  Q 514.74 80.39 518.29 78.24
  A 0.13 0.13 0.0 0 1 518.49 78.35
  L 518.50 84.22
  Q 518.50 84.46 518.29 84.57
  Q 509.27 89.59 499.69 87.62
  C 488.15 85.24 482.33 73.67 485.32 62.50
  C 487.88 52.96 496.83 47.50 506.59 48.09
  Q 512.39 48.44 517.86 51.31
  A 0.28 0.26 16.1 0 1 518.00 51.54
  L 517.99 57.51
  A 0.30 0.30 0.0 0 1 517.53 57.76
  Z"
/>
<path d="
  M 116.25 48.75
  A 0.33 0.33 0.0 0 1 116.58 48.42
  L 131.41 48.42
  A 19.54 19.18 -0.0 0 1 150.95 67.60
  L 150.95 68.50
  A 19.54 19.18 -0.0 0 1 131.41 87.68
  L 116.58 87.68
  A 0.33 0.33 0.0 0 1 116.25 87.35
  L 116.25 48.75
  Z
  M 121.97 54.22
  L 122.01 81.94
  A 0.28 0.28 0.0 0 0 122.29 82.22
  L 130.96 82.20
  A 13.81 13.26 -0.1 0 0 144.75 68.92
  L 144.75 67.16
  A 13.81 13.26 -0.1 0 0 130.92 53.92
  L 122.25 53.94
  A 0.28 0.28 0.0 0 0 121.97 54.22
  Z"
/>
<path d="
  M 162.00 71.10
  L 162.00 81.90
  A 0.35 0.35 0.0 0 0 162.35 82.25
  L 177.65 82.25
  A 0.35 0.35 0.0 0 1 178.00 82.60
  L 178.00 87.40
  A 0.35 0.35 0.0 0 1 177.65 87.75
  L 156.35 87.75
  A 0.35 0.35 0.0 0 1 156.00 87.40
  L 156.00 48.85
  A 0.35 0.35 0.0 0 1 156.35 48.50
  L 177.15 48.50
  A 0.35 0.35 0.0 0 1 177.50 48.85
  L 177.51 53.65
  A 0.35 0.35 0.0 0 1 177.16 54.00
  L 162.35 54.00
  A 0.35 0.35 0.0 0 0 162.00 54.35
  L 162.00 64.90
  A 0.35 0.35 0.0 0 0 162.35 65.25
  L 176.65 65.24
  A 0.35 0.35 0.0 0 1 177.00 65.59
  L 177.00 70.40
  A 0.35 0.35 0.0 0 1 176.65 70.75
  L 162.35 70.75
  A 0.35 0.35 0.0 0 0 162.00 71.10
  Z"
/>
<path d="
  M 188.75 71.29
  L 188.75 87.49
  Q 188.75 87.74 188.51 87.74
  L 183.51 87.76
  A 0.50 0.50 0.0 0 1 183.00 87.26
  L 183.00 49.06
  Q 183.00 48.58 183.47 48.57
  C 192.22 48.21 203.33 47.13 204.86 57.99
  Q 205.88 65.22 199.61 68.77
  Q 199.11 69.05 199.60 69.35
  Q 200.69 70.02 201.43 71.06
  Q 206.52 78.21 211.79 87.60
  Q 211.87 87.75 211.70 87.75
  L 205.48 87.75
  Q 205.22 87.75 205.09 87.53
  C 202.24 82.93 199.37 77.28 195.70 73.16
  Q 193.47 70.64 189.30 70.73
  Q 188.75 70.74 188.75 71.29
  Z
  M 188.72 54.29
  L 188.76 64.97
  A 0.29 0.29 0.0 0 0 189.05 65.26
  L 192.83 65.24
  A 6.15 5.45 -0.2 0 0 198.96 59.77
  L 198.96 59.41
  A 6.15 5.45 -0.2 0 0 192.79 53.98
  L 189.01 54.00
  A 0.29 0.29 0.0 0 0 188.72 54.29
  Z"
/>
<path d="
  M 238.50 72.55
  L 238.50 87.50
  Q 238.50 87.75 238.25 87.75
  L 230.00 87.75
  A 0.25 0.25 0.0 0 1 229.75 87.50
  L 229.75 49.04
  Q 229.75 48.54 230.26 48.53
  Q 240.91 48.35 245.92 48.65
  C 258.27 49.39 261.06 66.83 249.31 71.23
  C 246.11 72.43 242.46 71.93 239.05 71.99
  Q 238.50 72.00 238.50 72.55
  Z
  M 238.46 56.03
  L 238.46 64.65
  A 0.32 0.32 0.0 0 0 238.78 64.97
  L 242.52 64.97
  A 4.98 4.47 0.0 0 0 247.50 60.50
  L 247.50 60.18
  A 4.98 4.47 -0.0 0 0 242.52 55.71
  L 238.78 55.71
  A 0.32 0.32 0.0 0 0 238.46 56.03
  Z"
/>
<path d="
  M 280.68 79.75
  L 264.98 79.75
  A 0.31 0.31 0.0 0 0 264.69 79.95
  L 261.88 87.56
  A 0.31 0.31 0.0 0 1 261.59 87.76
  L 253.46 87.74
  A 0.31 0.31 0.0 0 1 253.17 87.32
  L 267.54 48.70
  A 0.31 0.31 0.0 0 1 267.84 48.50
  L 277.19 48.50
  A 0.31 0.31 0.0 0 1 277.48 48.69
  L 293.44 87.32
  A 0.31 0.31 0.0 0 1 293.16 87.75
  L 284.32 87.75
  A 0.31 0.31 0.0 0 1 284.03 87.56
  L 280.97 79.94
  A 0.31 0.31 0.0 0 0 280.68 79.75
  Z
  M 267.08 73.13
  A 0.34 0.34 0.0 0 0 267.41 73.59
  L 277.85 73.40
  A 0.34 0.34 0.0 0 0 278.16 72.94
  L 272.70 59.20
  A 0.34 0.34 0.0 0 0 272.06 59.21
  L 267.08 73.13
  Z"
/>
<path d="
  M 305.50 72.42
  L 305.50 87.50
  Q 305.50 87.75 305.25 87.75
  L 297.00 87.75
  Q 296.75 87.75 296.75 87.50
  L 296.75 49.04
  Q 296.75 48.44 297.35 48.46
  Q 302.73 48.60 308.25 48.46
  C 317.46 48.23 324.87 52.02 323.37 62.58
  C 322.96 65.48 321.01 67.63 318.47 69.02
  Q 317.82 69.38 318.34 69.91
  Q 321.06 72.69 321.68 74.05
  Q 324.87 80.97 328.05 87.60
  Q 328.13 87.76 327.96 87.76
  L 318.06 87.75
  Q 317.84 87.75 317.75 87.54
  Q 315.21 81.53 312.47 76.09
  Q 310.44 72.04 306.25 71.73
  Q 305.50 71.67 305.50 72.42
  Z
  M 305.51 56.03
  L 305.49 64.41
  A 0.32 0.32 0.0 0 0 305.80 64.74
  L 309.86 64.75
  A 4.38 4.12 0.2 0 0 314.26 60.65
  L 314.26 59.87
  A 4.38 4.12 0.2 0 0 309.90 55.73
  L 305.84 55.72
  A 0.32 0.32 0.0 0 0 305.51 56.03
  Z"
/>
<rect x="331.50" y="48.51" width="8.74" height="39.24" rx="0.26"/>
<path d="
  M 357.18 55.75
  L 346.33 55.75
  A 0.32 0.32 0.0 0 1 346.01 55.43
  L 346.00 48.82
  A 0.32 0.32 0.0 0 1 346.32 48.50
  L 377.69 48.50
  A 0.32 0.32 0.0 0 1 378.01 48.82
  L 377.99 55.43
  A 0.32 0.32 0.0 0 1 377.67 55.75
  L 366.57 55.75
  A 0.32 0.32 0.0 0 0 366.25 56.07
  L 366.25 87.44
  A 0.32 0.32 0.0 0 1 365.93 87.76
  L 357.82 87.75
  A 0.32 0.32 0.0 0 1 357.50 87.43
  L 357.50 56.07
  A 0.32 0.32 0.0 0 0 357.18 55.75
  Z"
/>
<path d="
  M 400.41 79.75
  L 384.84 79.75
  A 0.41 0.41 0.0 0 0 384.45 80.02
  L 381.75 87.45
  A 0.41 0.41 0.0 0 1 381.37 87.72
  L 373.41 87.79
  A 0.41 0.41 0.0 0 1 373.02 87.24
  L 387.32 48.78
  A 0.41 0.41 0.0 0 1 387.70 48.51
  L 396.94 48.50
  A 0.41 0.41 0.0 0 1 397.31 48.75
  L 413.20 87.20
  A 0.41 0.41 0.0 0 1 412.81 87.77
  L 404.17 87.74
  A 0.41 0.41 0.0 0 1 403.79 87.48
  L 400.79 80.01
  A 0.41 0.41 0.0 0 0 400.41 79.75
  Z
  M 386.89 73.14
  A 0.34 0.34 0.0 0 0 387.22 73.59
  L 397.66 73.41
  A 0.34 0.34 0.0 0 0 397.97 72.95
  L 392.51 59.21
  A 0.34 0.34 0.0 0 0 391.87 59.22
  L 386.89 73.14
  Z"
/>
<path d="
  M 419.17 55.75
  L 408.34 55.75
  A 0.33 0.33 0.0 0 1 408.01 55.42
  L 408.00 48.83
  A 0.33 0.33 0.0 0 1 408.33 48.50
  L 439.42 48.50
  A 0.33 0.33 0.0 0 1 439.75 48.83
  L 439.75 55.42
  A 0.33 0.33 0.0 0 1 439.42 55.75
  L 428.58 55.75
  A 0.33 0.33 0.0 0 0 428.25 56.08
  L 428.25 87.43
  A 0.33 0.33 0.0 0 1 427.92 87.76
  L 419.83 87.75
  A 0.33 0.33 0.0 0 1 419.50 87.42
  L 419.50 56.08
  A 0.33 0.33 0.0 0 0 419.17 55.75
  Z"
/>
<rect x="446.75" y="48.50" width="6.00" height="39.24" rx="0.30"/>
<path d="
  M 530.00 71.08
  L 530.00 87.42
  A 0.33 0.33 0.0 0 1 529.67 87.75
  L 524.58 87.75
  A 0.33 0.33 0.0 0 1 524.25 87.42
  L 524.25 48.83
  A 0.33 0.33 0.0 0 1 524.58 48.50
  L 529.67 48.49
  A 0.33 0.33 0.0 0 1 530.00 48.82
  L 530.00 64.92
  A 0.33 0.33 0.0 0 0 530.33 65.25
  L 550.17 65.25
  A 0.33 0.33 0.0 0 0 550.50 64.92
  L 550.50 48.83
  A 0.33 0.33 0.0 0 1 550.83 48.50
  L 555.92 48.50
  A 0.33 0.33 0.0 0 1 556.25 48.83
  L 556.25 87.43
  A 0.33 0.33 0.0 0 1 555.92 87.76
  L 550.83 87.75
  A 0.33 0.33 0.0 0 1 550.50 87.42
  L 550.50 71.08
  A 0.33 0.33 0.0 0 0 550.17 70.75
  L 530.33 70.75
  A 0.33 0.33 0.0 0 0 530.00 71.08
  Z"
/>
<path d="
  M 569.00 71.08
  L 569.00 81.92
  A 0.33 0.33 0.0 0 0 569.33 82.25
  L 584.67 82.25
  A 0.33 0.33 0.0 0 1 585.00 82.58
  L 585.00 87.42
  A 0.33 0.33 0.0 0 1 584.67 87.75
  L 563.58 87.75
  A 0.33 0.33 0.0 0 1 563.25 87.42
  L 563.25 48.83
  A 0.33 0.33 0.0 0 1 563.58 48.50
  L 584.17 48.50
  A 0.33 0.33 0.0 0 1 584.50 48.83
  L 584.51 53.67
  A 0.33 0.33 0.0 0 1 584.18 54.00
  L 569.33 54.00
  A 0.33 0.33 0.0 0 0 569.00 54.33
  L 569.00 64.93
  A 0.33 0.33 0.0 0 0 569.33 65.26
  L 583.67 65.25
  A 0.33 0.33 0.0 0 1 584.00 65.58
  L 584.00 70.42
  A 0.33 0.33 0.0 0 1 583.67 70.75
  L 569.33 70.75
  A 0.33 0.33 0.0 0 0 569.00 71.08
  Z"
/>
</g>
<g fill="#cc0e13">
<rect x="39.50" y="48.50" width="58.74" height="15.74" rx="0.29"/>
<rect x="39.49" y="72.00" width="58.76" height="15.74" rx="0.27"/>
<circle cx="364.30" cy="103.70" r="1.54"/>
<circle cx="368.93" cy="103.72" r="1.55"/>
<path d="
  M 475.66 106.42
  L 468.17 122.57
  A 0.32 0.32 0.0 0 1 467.89 122.75
  L 465.16 122.78
  A 0.32 0.32 0.0 0 1 464.86 122.33
  L 472.36 106.21
  A 0.32 0.32 0.0 0 1 472.64 106.03
  L 475.37 105.96
  A 0.32 0.32 0.0 0 1 475.66 106.42
  Z"
/>
<path d="
  M 260.75 111.52
  L 256.78 116.50
  Q 256.43 116.93 256.09 116.50
  L 252.12 111.54
  Q 251.49 110.76 251.49 111.76
  L 251.51 122.61
  Q 251.51 122.97 251.14 122.98
  L 249.26 123.01
  Q 248.75 123.02 248.75 122.51
  L 248.75 106.79
  Q 248.75 106.30 249.23 106.24
  C 250.33 106.09 251.34 106.22 252.05 107.17
  Q 254.10 109.93 256.29 112.47
  A 0.31 0.30 -46.1 0 0 256.76 112.46
  L 261.22 106.74
  Q 261.57 106.29 262.15 106.26
  L 263.47 106.21
  Q 264.00 106.18 264.00 106.72
  L 264.00 122.76
  Q 264.00 123.01 263.74 123.01
  L 261.48 122.97
  Q 261.24 122.96 261.24 122.73
  L 261.26 111.70
  Q 261.26 110.89 260.75 111.52
  Z"
/>
<rect x="267.49" y="106.25" width="2.76" height="16.74" rx="0.36"/>
<path d="
  M 286.78 106.30
  L 288.66 106.21
  A 0.32 0.32 0.0 0 1 289.00 106.53
  L 289.00 122.69
  A 0.32 0.32 0.0 0 1 288.68 123.01
  L 286.95 122.98
  A 0.32 0.32 0.0 0 1 286.71 122.87
  L 277.04 111.39
  A 0.32 0.32 0.0 0 0 276.47 111.60
  L 276.52 122.66
  A 0.32 0.32 0.0 0 1 276.20 122.98
  L 274.07 123.00
  A 0.32 0.32 0.0 0 1 273.75 122.68
  L 273.75 106.58
  A 0.32 0.32 0.0 0 1 274.07 106.26
  L 275.99 106.26
  A 0.32 0.32 0.0 0 1 276.24 106.37
  L 285.99 118.01
  A 0.32 0.32 0.0 0 0 286.55 117.80
  L 286.47 106.62
  A 0.32 0.32 0.0 0 1 286.78 106.30
  Z"
/>
<path d="
  M 292.51 106.48
  A 0.26 0.26 0.0 0 1 292.77 106.22
  L 299.00 106.23
  A 8.77 8.16 0.1 0 1 307.76 114.40
  L 307.76 114.80
  A 8.77 8.16 0.1 0 1 298.98 122.95
  L 292.75 122.94
  A 0.26 0.26 0.0 0 1 292.49 122.68
  L 292.51 106.48
  Z
  M 295.28 109.10
  L 295.22 120.06
  A 0.40 0.40 0.0 0 0 295.62 120.47
  L 298.68 120.48
  A 6.28 5.73 0.3 0 0 304.99 114.79
  L 304.99 114.49
  A 6.28 5.73 0.3 0 0 298.74 108.72
  L 295.68 108.71
  A 0.40 0.40 0.0 0 0 295.28 109.10
  Z"
/>
<path d="
  M 313.62 120.50
  L 319.89 120.49
  A 0.37 0.37 0.0 0 1 320.26 120.86
  L 320.24 122.63
  A 0.37 0.37 0.0 0 1 319.87 123.00
  L 310.86 123.00
  A 0.37 0.37 0.0 0 1 310.49 122.63
  L 310.50 106.62
  A 0.37 0.37 0.0 0 1 310.87 106.25
  L 319.64 106.24
  A 0.37 0.37 0.0 0 1 320.01 106.62
  L 319.95 108.39
  A 0.37 0.37 0.0 0 1 319.58 108.75
  L 313.62 108.74
  A 0.37 0.37 0.0 0 0 313.25 109.11
  L 313.25 112.89
  A 0.37 0.37 0.0 0 0 313.62 113.26
  L 319.38 113.25
  A 0.37 0.37 0.0 0 1 319.75 113.62
  L 319.74 115.36
  A 0.37 0.37 0.0 0 1 319.37 115.73
  L 313.62 115.75
  A 0.37 0.37 0.0 0 0 313.25 116.12
  L 313.25 120.13
  A 0.37 0.37 0.0 0 0 313.62 120.50
  Z"
/>
<path d="
  M 325.49 111.53
  L 325.51 122.50
  Q 325.51 123.00 325.00 123.00
  L 323.00 122.99
  Q 322.75 122.99 322.75 122.75
  L 322.75 106.81
  Q 322.75 106.33 323.22 106.24
  Q 324.91 105.89 325.96 107.13
  Q 330.51 112.55 334.86 117.76
  Q 335.50 118.53 335.50 117.52
  L 335.50 106.63
  Q 335.50 106.26 335.87 106.26
  L 337.88 106.26
  Q 338.25 106.26 338.25 106.63
  L 338.25 122.25
  Q 338.25 122.78 337.75 122.95
  Q 336.29 123.45 335.29 122.27
  Q 330.67 116.81 326.03 111.33
  Q 325.49 110.69 325.49 111.53
  Z"
/>
<path d="
  M 350.37 120.51
  L 356.89 120.49
  A 0.37 0.37 0.0 0 1 357.26 120.86
  L 357.24 122.63
  A 0.37 0.37 0.0 0 1 356.87 123.00
  L 347.62 123.00
  A 0.37 0.37 0.0 0 1 347.25 122.63
  L 347.25 106.64
  A 0.37 0.37 0.0 0 1 347.61 106.27
  L 349.62 106.22
  A 0.37 0.37 0.0 0 1 350.00 106.59
  L 350.00 120.14
  A 0.37 0.37 0.0 0 0 350.37 120.51
  Z"
/>
<path d="
  M 362.02 115.90
  C 362.03 119.00 363.49 120.47 366.46 120.55
  Q 370.87 120.66 370.79 115.95
  Q 370.70 110.90 370.77 106.66
  Q 370.77 106.23 371.20 106.24
  L 373.02 106.26
  Q 373.55 106.26 373.53 106.79
  Q 373.39 110.74 373.57 115.20
  Q 373.71 118.54 372.38 120.41
  C 370.01 123.76 363.52 124.09 360.74 120.78
  Q 359.37 119.14 359.44 116.37
  Q 359.59 111.12 359.47 106.82
  Q 359.46 106.29 359.99 106.26
  L 361.48 106.20
  Q 361.99 106.18 361.99 106.69
  Q 362.00 110.85 362.02 115.90
  Z"
/>
<path d="
  M 385.69 114.31
  C 389.65 115.78 388.96 121.31 385.08 122.38
  Q 382.06 123.22 377.62 122.97
  Q 377.00 122.93 377.00 122.32
  L 377.00 106.94
  Q 377.00 106.27 377.67 106.24
  Q 380.57 106.11 383.32 106.50
  C 386.98 107.01 388.06 111.19 385.55 113.70
  Q 385.15 114.11 385.69 114.31
  Z
  M 379.75 108.97
  L 379.75 113.01
  A 0.24 0.24 0.0 0 0 379.99 113.25
  L 381.62 113.25
  A 2.55 2.08 -0.1 0 0 384.17 111.17
  L 384.17 110.81
  A 2.55 2.08 -0.1 0 0 381.62 108.73
  L 379.99 108.73
  A 0.24 0.24 0.0 0 0 379.75 108.97
  Z
  M 379.74 116.09
  L 379.74 120.15
  A 0.36 0.36 0.0 0 0 380.10 120.50
  L 382.10 120.50
  A 3.40 2.19 -0.1 0 0 385.50 118.30
  L 385.50 117.90
  A 3.40 2.19 -0.1 0 0 382.10 115.72
  L 380.10 115.72
  A 0.36 0.36 0.0 0 0 379.74 116.09
  Z"
/>
<path d="
  M 399.63 114.19
  C 403.66 116.04 403.07 121.50 398.90 122.46
  Q 395.67 123.20 391.49 122.98
  Q 391.00 122.96 391.00 122.47
  L 391.00 106.94
  Q 391.00 106.32 391.61 106.28
  Q 394.85 106.04 397.68 106.58
  C 401.12 107.25 402.20 111.50 399.57 113.72
  Q 399.23 114.00 399.63 114.19
  Z
  M 398.15 111.63
  C 398.90 109.09 396.23 108.52 394.36 108.73
  Q 393.75 108.80 393.75 109.42
  L 393.75 112.61
  Q 393.75 113.30 394.45 113.31
  C 395.85 113.31 397.67 113.29 398.15 111.63
  Z
  M 393.74 116.10
  L 393.74 120.16
  A 0.36 0.36 0.0 0 0 394.10 120.51
  L 396.40 120.51
  A 3.12 2.11 -0.1 0 0 399.52 118.39
  L 399.52 117.83
  A 3.12 2.11 -0.1 0 0 396.40 115.73
  L 394.10 115.73
  A 0.36 0.36 0.0 0 0 393.74 116.10
  Z"
/>
<path d="
  M 408.11 120.51
  L 414.35 120.49
  A 0.37 0.37 0.0 0 1 414.72 120.85
  L 414.79 122.59
  A 0.37 0.37 0.0 0 1 414.42 122.97
  L 405.36 123.01
  A 0.37 0.37 0.0 0 1 404.99 122.64
  L 405.01 106.62
  A 0.37 0.37 0.0 0 1 405.38 106.25
  L 414.14 106.25
  A 0.37 0.37 0.0 0 1 414.51 106.62
  L 414.48 108.37
  A 0.37 0.37 0.0 0 1 414.11 108.74
  L 408.11 108.75
  A 0.37 0.37 0.0 0 0 407.74 109.12
  L 407.74 112.89
  A 0.37 0.37 0.0 0 0 408.11 113.26
  L 413.87 113.24
  A 0.37 0.37 0.0 0 1 414.24 113.61
  L 414.26 115.38
  A 0.37 0.37 0.0 0 1 413.89 115.75
  L 408.12 115.74
  A 0.37 0.37 0.0 0 0 407.75 116.11
  L 407.74 120.14
  A 0.37 0.37 0.0 0 0 408.11 120.51
  Z"
/>
<path d="
  M 422.89 109.25
  C 418.83 111.22 418.11 117.04 422.13 119.62
  C 425.01 121.46 428.26 120.43 431.17 118.83
  Q 431.53 118.63 431.52 119.04
  L 431.50 121.02
  Q 431.49 121.56 431.00 121.80
  C 427.06 123.73 421.20 123.76 418.39 119.88
  C 414.97 115.14 416.82 108.20 422.71 106.58
  Q 426.66 105.49 430.91 107.30
  Q 431.17 107.41 431.19 107.68
  Q 431.32 109.03 431.12 110.50
  A 0.05 0.04 21.2 0 1 431.05 110.53
  Q 426.54 107.48 422.89 109.25
  Z"
/>
<path d="
  M 437.23 112.92
  L 443.13 106.40
  A 0.32 0.32 0.0 0 1 443.36 106.30
  L 446.11 106.20
  A 0.32 0.32 0.0 0 1 446.35 106.74
  L 439.77 114.02
  A 0.32 0.32 0.0 0 0 439.79 114.47
  L 448.15 122.46
  A 0.32 0.32 0.0 0 1 447.93 123.01
  L 444.78 122.98
  A 0.32 0.32 0.0 0 1 444.56 122.89
  L 437.29 115.75
  A 0.32 0.32 0.0 0 0 436.74 115.98
  L 436.76 122.65
  A 0.32 0.32 0.0 0 1 436.44 122.97
  L 434.32 123.01
  A 0.32 0.32 0.0 0 1 434.00 122.69
  L 434.01 106.57
  A 0.32 0.32 0.0 0 1 434.33 106.25
  L 436.48 106.29
  A 0.32 0.32 0.0 0 1 436.79 106.61
  L 436.68 112.70
  A 0.32 0.32 0.0 0 0 437.23 112.92
  Z"
/>
<path d="
  M 453.12 120.51
  L 459.34 120.49
  A 0.37 0.37 0.0 0 1 459.71 120.85
  L 459.78 122.59
  A 0.37 0.37 0.0 0 1 459.41 122.97
  L 450.36 123.01
  A 0.37 0.37 0.0 0 1 449.99 122.64
  L 450.01 106.62
  A 0.37 0.37 0.0 0 1 450.38 106.25
  L 459.14 106.25
  A 0.37 0.37 0.0 0 1 459.51 106.62
  L 459.48 108.37
  A 0.37 0.37 0.0 0 1 459.11 108.74
  L 453.11 108.75
  A 0.37 0.37 0.0 0 0 452.74 109.12
  L 452.75 112.90
  A 0.37 0.37 0.0 0 0 453.12 113.27
  L 458.87 113.24
  A 0.37 0.37 0.0 0 1 459.24 113.61
  L 459.26 115.38
  A 0.37 0.37 0.0 0 1 458.89 115.75
  L 453.12 115.74
  A 0.37 0.37 0.0 0 0 452.75 116.11
  L 452.75 120.14
  A 0.37 0.37 0.0 0 0 453.12 120.51
  Z"
/>
<path d="
  M 481.73 116.17
  L 481.77 122.55
  A 0.43 0.43 0.0 0 1 481.34 122.99
  L 479.69 123.00
  A 0.43 0.43 0.0 0 1 479.25 122.57
  L 479.25 106.67
  A 0.43 0.43 0.0 0 1 479.68 106.24
  L 481.34 106.24
  A 0.43 0.43 0.0 0 1 481.77 106.67
  L 481.73 112.83
  A 0.43 0.43 0.0 0 0 482.16 113.26
  L 490.09 113.25
  A 0.43 0.43 0.0 0 0 490.52 112.82
  L 490.49 106.68
  A 0.43 0.43 0.0 0 1 490.92 106.25
  L 492.82 106.23
  A 0.43 0.43 0.0 0 1 493.25 106.66
  L 493.25 122.56
  A 0.43 0.43 0.0 0 1 492.82 122.99
  L 490.91 123.00
  A 0.43 0.43 0.0 0 1 490.48 122.57
  L 490.51 116.18
  A 0.43 0.43 0.0 0 0 490.08 115.75
  L 482.16 115.74
  A 0.43 0.43 0.0 0 0 481.73 116.17
  Z"
/>
<path d="
  M 499.49 109.11
  L 499.51 112.89
  A 0.37 0.37 0.0 0 0 499.88 113.26
  L 505.39 113.25
  A 0.37 0.37 0.0 0 1 505.76 113.62
  L 505.75 115.36
  A 0.37 0.37 0.0 0 1 505.38 115.73
  L 499.86 115.75
  A 0.37 0.37 0.0 0 0 499.49 116.12
  L 499.51 120.13
  A 0.37 0.37 0.0 0 0 499.88 120.50
  L 505.89 120.49
  A 0.37 0.37 0.0 0 1 506.26 120.86
  L 506.25 122.62
  A 0.37 0.37 0.0 0 1 505.88 122.99
  L 497.11 123.01
  A 0.37 0.37 0.0 0 1 496.74 122.64
  L 496.75 106.62
  A 0.37 0.37 0.0 0 1 497.12 106.25
  L 505.64 106.24
  A 0.37 0.37 0.0 0 1 506.01 106.62
  L 505.96 108.39
  A 0.37 0.37 0.0 0 1 505.59 108.75
  L 499.86 108.74
  A 0.37 0.37 0.0 0 0 499.49 109.11
  Z"
/>
<path d="
  M 511.74 116.28
  L 511.77 122.48
  Q 511.77 122.97 511.27 122.98
  L 509.51 123.01
  Q 509.00 123.02 509.00 122.51
  L 509.00 106.79
  Q 509.00 106.30 509.50 106.26
  C 512.36 106.06 517.31 105.96 518.31 109.29
  Q 519.32 112.66 516.96 114.59
  Q 516.58 114.90 516.85 115.31
  L 521.71 122.80
  Q 521.85 123.01 521.60 123.00
  L 518.80 122.98
  Q 518.58 122.98 518.47 122.78
  C 517.27 120.69 514.97 116.14 512.35 115.76
  Q 511.74 115.67 511.74 116.28
  Z
  M 511.74 109.08
  L 511.74 112.98
  A 0.31 0.31 0.0 0 0 512.05 113.29
  L 513.37 113.29
  A 2.41 2.06 -0.1 0 0 515.78 111.23
  L 515.78 110.83
  A 2.41 2.06 -0.1 0 0 513.37 108.77
  L 512.05 108.77
  A 0.31 0.31 0.0 0 0 511.74 109.08
  Z"
/>
<path d="
  M 526.00 109.10
  L 525.99 112.65
  A 0.35 0.35 0.0 0 0 526.34 113.00
  L 531.92 113.00
  A 0.35 0.35 0.0 0 1 532.27 113.35
  L 532.25 114.91
  A 0.35 0.35 0.0 0 1 531.90 115.26
  L 526.35 115.24
  A 0.35 0.35 0.0 0 0 526.00 115.59
  L 526.00 122.67
  A 0.35 0.35 0.0 0 1 525.64 123.02
  L 523.84 122.95
  A 0.35 0.35 0.0 0 1 523.50 122.60
  L 523.50 106.60
  A 0.35 0.35 0.0 0 1 523.85 106.25
  L 532.16 106.25
  A 0.35 0.35 0.0 0 1 532.51 106.60
  L 532.48 108.39
  A 0.35 0.35 0.0 0 1 532.13 108.74
  L 526.35 108.75
  A 0.35 0.35 0.0 0 0 526.00 109.10
  Z"
/>
<path d="
  M 551.9589 114.7598
  A 8.90 8.56 0.9 0 1 542.9255 123.1789
  A 8.90 8.56 0.9 0 1 534.1611 114.4802
  A 8.90 8.56 0.9 0 1 543.1945 106.0611
  A 8.90 8.56 0.9 0 1 551.9589 114.7598
  Z
  M 549.04 114.62
  A 6.01 6.01 0.0 0 0 543.03 108.61
  A 6.01 6.01 0.0 0 0 537.02 114.62
  A 6.01 6.01 0.0 0 0 543.03 120.63
  A 6.01 6.01 0.0 0 0 549.04 114.62
  Z"
/>
<path d="
  M 557.25 116.28
  L 557.25 122.50
  Q 557.25 123.01 556.75 123.00
  L 555.11 122.98
  Q 554.75 122.98 554.75 122.61
  L 554.75 106.80
  Q 554.75 106.30 555.25 106.26
  C 558.26 106.04 563.35 105.97 564.14 109.69
  Q 564.85 113.07 562.60 114.63
  Q 562.23 114.89 562.48 115.26
  L 567.36 122.74
  A 0.16 0.15 -16.7 0 1 567.23 122.98
  L 564.55 123.00
  Q 564.30 123.00 564.18 122.79
  C 562.92 120.66 560.63 115.88 557.80 115.75
  Q 557.25 115.72 557.25 116.28
  Z
  M 557.25 109.08
  L 557.25 112.96
  A 0.32 0.32 0.0 0 0 557.57 113.28
  L 558.96 113.28
  A 2.57 2.11 0.0 0 0 561.53 111.17
  L 561.53 110.87
  A 2.57 2.11 -0.0 0 0 558.96 108.76
  L 557.57 108.76
  A 0.32 0.32 0.0 0 0 557.25 109.08
  Z"
/>
<path d="
  M 569.00 106.48
  A 0.25 0.25 0.0 0 1 569.25 106.23
  L 575.51 106.23
  A 8.75 8.10 -0.0 0 1 584.26 114.33
  L 584.26 114.85
  A 8.75 8.10 0.0 0 1 575.51 122.95
  L 569.25 122.95
  A 0.25 0.25 0.0 0 1 569.00 122.70
  L 569.00 106.48
  Z
  M 571.73 109.07
  L 571.73 120.13
  A 0.35 0.35 0.0 0 0 572.08 120.48
  L 575.31 120.48
  A 6.20 5.65 -0.0 0 0 581.51 114.83
  L 581.51 114.37
  A 6.20 5.65 0.0 0 0 575.31 108.72
  L 572.08 108.72
  A 0.35 0.35 0.0 0 0 571.73 109.07
  Z"
/>
<path d="
  M 119.00 116.55
  L 118.99 122.27
  Q 118.99 122.78 118.48 122.77
  L 116.61 122.73
  Q 116.25 122.72 116.25 122.36
  L 116.25 107.42
  Q 116.25 106.83 116.84 106.78
  C 120.46 106.49 126.07 106.18 126.42 110.86
  C 126.73 114.94 123.35 116.46 119.71 115.94
  Q 119.00 115.83 119.00 116.55
  Z
  M 119.02 109.56
  L 119.00 113.20
  A 0.32 0.32 0.0 0 0 119.32 113.52
  L 121.64 113.53
  A 2.08 2.00 0.2 0 0 123.73 111.54
  L 123.73 111.26
  A 2.08 2.00 0.2 0 0 121.66 109.25
  L 119.34 109.24
  A 0.32 0.32 0.0 0 0 119.02 109.56
  Z"
/>
<path d="
  M 131.51 118.81
  L 129.96 122.38
  A 0.70 0.70 0.0 0 1 129.29 122.80
  L 127.55 122.73
  Q 127.09 122.71 127.27 122.29
  L 133.51 107.49
  A 1.39 1.39 0.0 0 1 136.06 107.47
  L 142.57 122.23
  Q 142.79 122.73 142.25 122.74
  L 140.64 122.77
  Q 139.96 122.78 139.69 122.16
  L 138.18 118.72
  Q 137.97 118.24 137.45 118.24
  L 132.36 118.25
  A 0.95 0.93 11.1 0 0 131.51 118.81
  Z
  M 133.06 115.32
  A 0.33 0.33 0.0 0 0 133.37 115.77
  L 136.36 115.71
  A 0.33 0.33 0.0 0 0 136.66 115.25
  L 135.10 111.57
  A 0.33 0.33 0.0 0 0 134.49 111.58
  L 133.06 115.32
  Z"
/>
<path d="
  M 147.24 116.66
  L 147.25 122.25
  Q 147.25 122.75 146.75 122.75
  L 145.00 122.74
  Q 144.50 122.74 144.50 122.24
  L 144.50 107.28
  Q 144.50 106.81 144.97 106.77
  C 147.81 106.55 152.56 106.34 153.68 109.68
  Q 154.76 112.89 152.18 114.87
  Q 151.73 115.22 152.09 115.66
  Q 154.68 118.83 156.68 122.57
  Q 156.81 122.81 156.53 122.80
  L 153.92 122.70
  Q 153.67 122.69 153.55 122.47
  C 152.47 120.49 150.24 116.25 147.98 116.00
  Q 147.24 115.92 147.24 116.66
  Z
  M 147.25 109.55
  L 147.25 113.21
  A 0.30 0.30 0.0 0 0 147.55 113.51
  L 148.78 113.51
  A 2.45 1.99 0.1 0 0 151.23 111.52
  L 151.23 111.24
  A 2.45 1.99 0.1 0 0 148.78 109.25
  L 147.55 109.25
  A 0.30 0.30 0.0 0 0 147.25 109.55
  Z"
/>
<rect x="158.49" y="106.74" width="2.76" height="16.00" rx="0.35"/>
<path d="
  M 166.76 110.14
  A 1.11 1.11 0.0 0 0 166.94 111.67
  C 169.25 113.56 173.45 114.96 173.31 118.61
  C 173.11 123.49 168.18 123.93 164.82 121.95
  Q 164.27 121.62 164.26 120.97
  L 164.22 118.76
  A 0.23 0.23 0.0 0 1 164.62 118.59
  C 165.94 119.90 169.11 121.95 170.46 119.75
  A 2.05 2.05 0.0 0 0 169.86 116.99
  C 167.37 115.31 162.98 113.70 164.20 109.70
  C 165.28 106.18 169.58 106.14 172.28 107.48
  A 0.35 0.33 -77.9 0 1 172.47 107.79
  L 172.52 110.45
  A 0.15 0.15 0.0 0 1 172.27 110.57
  Q 168.69 107.59 166.76 110.14
  Z"
/>
<path d="
  M 192.2170 115.4816
  A 7.35 7.35 0.0 0 1 184.9443 122.9081
  L 182.7645 122.9310
  A 7.35 7.35 0.0 0 1 175.3379 115.6583
  L 175.3230 114.2384
  A 7.35 7.35 0.0 0 1 182.5957 106.8119
  L 184.7755 106.7890
  A 7.35 7.35 0.0 0 1 192.2021 114.0617
  L 192.2170 115.4816
  Z
  M 189.6564 115.2606
  A 5.89 5.74 3.9 0 0 184.1704 109.1333
  A 5.89 5.74 3.9 0 0 177.9036 114.4594
  A 5.89 5.74 3.9 0 0 183.3896 120.5867
  A 5.89 5.74 3.9 0 0 189.6564 115.2606
  Z"
/>
<path d="
  M 203.00 109.21
  L 194.86 109.27
  A 0.35 0.35 0.0 0 1 194.51 108.92
  L 194.49 107.11
  A 0.35 0.35 0.0 0 1 194.84 106.76
  L 208.00 106.73
  A 0.35 0.35 0.0 0 1 208.29 107.29
  L 199.06 120.00
  A 0.35 0.35 0.0 0 0 199.34 120.55
  L 208.14 120.47
  A 0.35 0.35 0.0 0 1 208.49 120.82
  L 208.51 122.38
  A 0.35 0.35 0.0 0 1 208.16 122.73
  L 194.59 122.77
  A 0.35 0.35 0.0 0 1 194.30 122.21
  L 203.29 109.77
  A 0.35 0.35 0.0 0 0 203.00 109.21
  Z"
/>
<rect x="210.75" y="106.75" width="2.50" height="16.00" rx="0.40"/>
<path d="
  M 219.60 118.71
  L 218.01 122.27
  Q 217.76 122.81 217.17 122.79
  L 215.54 122.72
  Q 215.12 122.71 215.29 122.32
  L 221.53 107.49
  A 1.39 1.39 0.0 0 1 224.08 107.47
  L 230.59 122.23
  Q 230.82 122.74 230.26 122.75
  L 228.53 122.76
  Q 227.99 122.77 227.77 122.28
  L 226.27 118.85
  Q 226.01 118.24 225.35 118.24
  L 220.31 118.25
  Q 219.81 118.25 219.60 118.71
  Z
  M 221.07 115.33
  A 0.33 0.33 0.0 0 0 221.38 115.78
  L 224.36 115.72
  A 0.33 0.33 0.0 0 0 224.66 115.27
  L 223.10 111.58
  A 0.33 0.33 0.0 0 0 222.49 111.59
  L 221.07 115.33
  Z"
/>
<path d="
  M 235.60 120.50
  L 241.90 120.50
  A 0.35 0.35 0.0 0 1 242.25 120.85
  L 242.27 122.40
  A 0.35 0.35 0.0 0 1 241.92 122.75
  L 232.85 122.74
  A 0.35 0.35 0.0 0 1 232.50 122.39
  L 232.50 107.10
  A 0.35 0.35 0.0 0 1 232.85 106.75
  L 234.90 106.75
  A 0.35 0.35 0.0 0 1 235.25 107.10
  L 235.25 120.15
  A 0.35 0.35 0.0 0 0 235.60 120.50
  Z"
/>
<rect x="-2.76" y="-1.13" transform="translate(342.75,117.12) rotate(0.4)" width="5.52" height="2.26" rx="0.43"/>
</g>
</svg>
