<svg xmlns="http://www.w3.org/2000/svg" xml:space="preserve" fill-rule="evenodd" stroke-linejoin="round" stroke-miterlimit="2" clip-rule="evenodd" preserveAspectRatio="xMinYMin" viewBox="0 0 2384 467"><path fill="#005ba9" fill-rule="nonzero" d="M12.5 13.958v438.75c0 .8.658 1.459 1.458 1.459H402.75c.8 0 1.458.658 1.458 1.458l-.041 9.583c0 .8-.659 1.459-1.459 1.459H1.458c-.8 0-1.458-.659-1.458-1.459V1.458C0 .658.658 0 1.458 0h463.75c.8 0 1.459.658 1.459 1.458v134.625c0 .8-.659 1.459-1.459 1.459h-9.583c-.8 0-1.458-.659-1.458-1.459V13.958c0-.8-.659-1.458-1.459-1.458H13.958c-.8 0-1.458.658-1.458 1.458"/><path fill="#005ba9" d="m1572.84 116.371.149 21.25a1.92 1.92 0 0 1-1.904 1.93l-21.166.148a1.92 1.92 0 0 1-1.93-1.904l-.148-21.249a1.916 1.916 0 0 1 1.903-1.93l21.166-.148a1.92 1.92 0 0 1 1.93 1.903m41.7-.371v22.167c0 .782-.635 1.416-1.417 1.416h-21.083a1.417 1.417 0 0 1-1.417-1.416V116c0-.782.635-1.417 1.417-1.417h21.083c.782 0 1.417.635 1.417 1.417"/><path fill="#005ba9" fill-rule="nonzero" d="M1888.08 180.667c-9.916 9.875-2.5 22.833 7.875 29.208 29.375 18.042 64.25 33.5 53 76.125q-6.5 24.625-32.916 30.042-28.167 5.792-52.917-13.959-.625-.5-.625-1.333l.042-29.667-.001-.03a.544.544 0 0 1 .959-.345q28.917 32.417 53.875 20.084c18.458-9.125 10.083-30.084-3.875-38.917-25.083-15.833-55.583-28.208-53-63.417 1.375-18.583 16.5-33.083 34.583-36.875q25.043-5.25 47.709 9.25.958.584.958 1.75v26.959l.001.035a.628.628 0 0 1-1.043.465c-15.958-14.542-39.125-24.792-54.625-9.375m214.125 10q-43.583-27.376-77.083-11.917c-33.458 15.417-45.375 58-25.458 89.208 16.041 25.125 47.916 31.917 75.666 22.292q15.25-5.292 30.042-14.25a.543.543 0 0 1 .833.456v.002l.042 24.459q0 .999-.875 1.458-37.584 20.917-77.5 12.708c-48.083-9.916-72.333-58.125-59.875-104.666 10.667-39.75 47.958-62.5 88.625-60.042q24.167 1.458 46.958 13.417c.358.205.581.571.584.958l-.042 24.875a1.25 1.25 0 0 1-1.917 1.042m-1672-37.542c0-.754.621-1.375 1.375-1.375h61.792c44.664 0 81.417 36.076 81.417 79.917v3.75c0 43.841-36.753 79.916-81.417 79.916H431.58c-.754 0-1.375-.62-1.375-1.375zm23.834 22.792.166 115.5c0 .64.527 1.166 1.167 1.166l36.125-.083c31.565-.048 57.501-25.026 57.458-55.333v-7.351c-.053-30.304-26.063-55.198-57.625-55.149l-36.125.083c-.64 0-1.166.527-1.166 1.167M620.83 246.25v45c0 .8.659 1.458 1.459 1.458h63.75c.8 0 1.458.659 1.458 1.459v20c0 .8-.658 1.458-1.458 1.458h-88.75c-.8 0-1.459-.658-1.459-1.458V153.542c0-.8.659-1.459 1.459-1.459h86.666c.8 0 1.459.659 1.459 1.459l.041 20c0 .8-.658 1.458-1.458 1.458h-61.708c-.8 0-1.459.658-1.459 1.458v43.959c0 .8.659 1.458 1.459 1.458l59.583-.042c.8 0 1.458.659 1.458 1.459v20.041c0 .8-.658 1.459-1.458 1.459h-59.583c-.8 0-1.459.658-1.459 1.458m111.459.792v67.5q0 1.041-1 1.041l-20.834.084h-.041a2.093 2.093 0 0 1-2.084-2.083V154.417q0-2 1.959-2.042c36.458-1.5 82.75-6 89.125 39.25q4.25 30.125-21.875 44.917-2.083 1.166-.042 2.416a25.9 25.9 0 0 1 7.625 7.125q21.209 29.792 43.167 68.917.333.625-.375.625h-25.917q-1.083 0-1.625-.917c-11.875-19.166-23.833-42.708-39.125-59.875q-9.291-10.5-26.667-10.125-2.29.042-2.291 2.334m-.125-70.834.166 44.5c0 .663.546 1.209 1.209 1.209l15.75-.084c14.053-.051 25.581-10.338 25.541-22.791v-1.507c-.043-12.457-11.646-22.667-25.704-22.618h-.004l-15.75.083c-.663 0-1.208.545-1.208 1.208m207.416 76.084v62.291q0 1.042-1.041 1.042h-34.375c-.572 0-1.042-.47-1.042-1.042v-160.25q0-2.083 2.125-2.125 44.374-.75 65.25.5c51.458 3.084 63.083 75.75 14.125 94.084-13.333 5-28.542 2.916-42.75 3.166q-2.292.042-2.292 2.334m-.166-68.834v35.917a1.34 1.34 0 0 0 1.333 1.333h15.583c11.383 0 20.75-8.407 20.75-18.625v-1.333c0-10.217-9.367-18.625-20.75-18.625h-15.583a1.34 1.34 0 0 0-1.333 1.333m175.916 98.834h-65.416a1.29 1.29 0 0 0-1.209.833l-11.708 31.708c-.19.501-.673.834-1.208.834l-33.875-.084h-.001a1.298 1.298 0 0 1-1.208-1.75l59.875-160.916c.196-.515.7-.852 1.25-.834h38.959a1.295 1.295 0 0 1 1.208.792l66.5 160.958c.067.159.101.329.101.501 0 .699-.568 1.278-1.268 1.291h-36.833a1.29 1.29 0 0 1-1.208-.792l-12.75-31.75a1.295 1.295 0 0 0-1.209-.791m-56.666-27.584c-.061.16-.092.33-.092.501 0 .777.64 1.417 1.417 1.417l.05-.001 43.5-.792a1.423 1.423 0 0 0 1.383-1.416q0-.258-.092-.5l-22.75-57.25a1.42 1.42 0 0 0-1.326-.918c-.604 0-1.145.387-1.34.959zm160.083-2.958v62.833q0 1.042-1.042 1.042h-34.375q-1.041 0-1.041-1.042v-160.25q0-2.5 2.5-2.416 22.416.584 45.416 0c38.375-.959 69.25 14.833 63 58.833-1.708 12.083-9.833 21.042-20.416 26.833q-2.709 1.5-.542 3.709 11.333 11.583 13.917 17.25A4090 4090 0 0 0 1312.705 315q.334.666-.375.667l-41.25-.042q-.916 0-1.291-.875-10.584-25.041-22-47.708-8.458-16.875-25.917-18.167-3.125-.25-3.125 2.875m.042-68.292-.084 34.917v.042c0 .716.576 1.311 1.292 1.333l16.917.042h.023c10.004.035 18.266-7.674 18.31-17.084v-3.25c.044-9.416-8.156-17.203-18.167-17.25l-16.916-.041-.043-.001c-.716 0-1.31.577-1.332 1.292"/><path fill="#005ba9" d="M1363.5 153.208v161.334c0 .598-.485 1.083-1.083 1.083h-34.25a1.084 1.084 0 0 1-1.084-1.083V153.208c0-.598.486-1.083 1.084-1.083h34.25c.598 0 1.083.485 1.083 1.083"/><path fill="#005ba9" fill-rule="nonzero" d="M1434.08 182.292h-45.208a1.34 1.34 0 0 1-1.333-1.334l-.042-27.541a1.34 1.34 0 0 1 1.333-1.334h130.709a1.34 1.34 0 0 1 1.333 1.334l-.083 27.541a1.34 1.34 0 0 1-1.334 1.334h-46.25a1.34 1.34 0 0 0-1.333 1.333v130.708a1.34 1.34 0 0 1-1.333 1.334l-33.792-.042a1.34 1.34 0 0 1-1.333-1.333V183.625a1.34 1.34 0 0 0-1.334-1.333m180.125 100h-64.875a1.71 1.71 0 0 0-1.625 1.125l-11.25 30.958a1.71 1.71 0 0 1-1.583 1.125l-33.167.292h-.019a1.716 1.716 0 0 1-1.606-2.292l59.584-160.25a1.71 1.71 0 0 1 1.583-1.125l38.5-.042a1.71 1.71 0 0 1 1.542 1.042l66.208 160.208c.09.211.136.438.136.668 0 .937-.771 1.708-1.709 1.708l-.052-.001-36-.125a1.71 1.71 0 0 1-1.583-1.083l-12.5-31.125a1.71 1.71 0 0 0-1.584-1.083m-56.333-27.542a1.422 1.422 0 0 0 1.34 1.875h.035l43.5-.75a1.423 1.423 0 0 0 1.292-1.917l-22.75-57.25a1.42 1.42 0 0 0-1.326-.917 1.42 1.42 0 0 0-1.341.959zm134.5-72.458h-45.125a1.38 1.38 0 0 1-1.375-1.375l-.042-27.459c0-.754.621-1.375 1.375-1.375h129.542c.754 0 1.375.621 1.375 1.375v27.459c0 .754-.621 1.375-1.375 1.375h-45.167c-.754 0-1.375.62-1.375 1.375v130.625c0 .754-.62 1.375-1.375 1.375l-33.708-.042a1.38 1.38 0 0 1-1.375-1.375V183.667c0-.755-.621-1.375-1.375-1.375"/><path fill="#005ba9" d="M1832.29 153.333v161c0 .69-.56 1.25-1.25 1.25h-22.5c-.69 0-1.25-.56-1.25-1.25v-161c0-.69.56-1.25 1.25-1.25h22.5c.69 0 1.25.56 1.25 1.25"/><path fill="#005ba9" fill-rule="nonzero" d="M2154.17 246.167v68.083c0 .754-.621 1.375-1.375 1.375h-21.209a1.38 1.38 0 0 1-1.375-1.375V153.458c0-.754.621-1.375 1.375-1.375l21.209-.041c.754 0 1.375.62 1.375 1.375V220.5c0 .754.62 1.375 1.375 1.375h82.666c.755 0 1.375-.621 1.375-1.375v-67.042c0-.754.621-1.375 1.375-1.375h21.209c.754 0 1.375.621 1.375 1.375v160.834c0 .754-.621 1.375-1.375 1.375l-21.209-.042a1.38 1.38 0 0 1-1.375-1.375v-68.083a1.38 1.38 0 0 0-1.375-1.375h-82.666a1.38 1.38 0 0 0-1.375 1.375m162.5 0v45.166c0 .755.62 1.375 1.375 1.375h63.916c.755 0 1.375.621 1.375 1.375v20.167c0 .754-.62 1.375-1.375 1.375h-87.875a1.38 1.38 0 0 1-1.375-1.375V153.458c0-.754.621-1.375 1.375-1.375h85.792c.754 0 1.375.621 1.375 1.375l.042 20.167c0 .754-.621 1.375-1.375 1.375h-61.875c-.755 0-1.375.621-1.375 1.375v44.167c0 .754.62 1.375 1.375 1.375l59.75-.042c.754 0 1.375.621 1.375 1.375v20.167c0 .754-.621 1.375-1.375 1.375h-59.75a1.38 1.38 0 0 0-1.375 1.375"/><path fill="#cc0e13" d="M355.167 153.292v63.166a1.21 1.21 0 0 1-1.209 1.209H111.625a1.21 1.21 0 0 1-1.208-1.209v-63.166a1.21 1.21 0 0 1 1.208-1.209h242.333a1.21 1.21 0 0 1 1.209 1.209m.041 97.833v63.333c0 .621-.504 1.125-1.125 1.125H111.5a1.125 1.125 0 0 1-1.125-1.125v-63.333c0-.621.504-1.125 1.125-1.125h242.583c.621 0 1.125.504 1.125 1.125"/><circle cx="1463.75" cy="382.083" r="6.417" fill="#cc0e13"/><circle cx="1483.04" cy="382.167" r="6.458" fill="#cc0e13"/><path fill="#cc0e13" fill-rule="nonzero" d="m1927.75 393.417-31.208 67.291a1.34 1.34 0 0 1-1.167.75l-11.375.125-.032.001a1.34 1.34 0 0 1-1.333-1.334c0-.186.039-.371.115-.542l31.25-67.166a1.34 1.34 0 0 1 1.167-.75l11.375-.292h.009a1.34 1.34 0 0 1 1.333 1.333c0 .202-.046.402-.134.584m-895.458 21.25-16.542 20.75q-1.459 1.791-2.875 0l-16.542-20.667q-2.625-3.25-2.625.917l.084 45.208q0 1.5-1.542 1.542l-7.833.125q-2.125.041-2.125-2.084v-65.5q0-2.042 2-2.291c4.583-.625 8.791-.084 11.75 3.875a389 389 0 0 0 17.666 22.083q.043.052.093.1c.494.476 1.305.447 1.797-.064q.036-.038.069-.078l18.583-23.833q1.458-1.875 3.875-2l5.5-.208q2.208-.125 2.208 2.125V461.5q0 1.042-1.083 1.042l-9.417-.167q-1-.042-1-1l.084-45.958q0-3.375-2.125-.75"/><path fill="#cc0e13" d="M1071.88 394.208v66.75a1.5 1.5 0 0 1-1.5 1.5h-8.5a1.5 1.5 0 0 1-1.5-1.5v-66.75a1.5 1.5 0 0 1 1.5-1.5h8.5a1.5 1.5 0 0 1 1.5 1.5"/><path fill="#cc0e13" fill-rule="nonzero" d="m1140.75 392.917 7.833-.375.084-.003a1.34 1.34 0 0 1 1.333 1.333v67.336a1.34 1.34 0 0 1-1.333 1.334l-7.209-.125a1.34 1.34 0 0 1-1-.459l-40.291-47.833a1.34 1.34 0 0 0-1.043-.502 1.34 1.34 0 0 0-1.332 1.377l.208 46.083a1.34 1.34 0 0 1-1.333 1.334l-8.875.083a1.34 1.34 0 0 1-1.334-1.333v-67.084a1.34 1.34 0 0 1 1.334-1.333h8c.398-.011.78.158 1.041.458l40.625 48.5c.253.287.618.452 1 .452a1.34 1.34 0 0 0 1.334-1.327l-.334-46.583c0-.716.576-1.311 1.292-1.333m23.875.75c0-.595.489-1.084 1.083-1.084l25.959.042c20.044.026 36.519 15.392 36.5 34.042v1.688c-.033 18.646-16.544 33.963-36.584 33.937l-25.958-.042a1.09 1.09 0 0 1-1.083-1.083zm11.542 10.916-.25 45.667-.001.042c0 .914.753 1.666 1.667 1.666l12.75.042c14.343.075 26.206-10.622 26.292-23.708v-1.28c.069-13.098-11.687-23.937-26.041-24.012l-12.751-.042c-.898 0-1.644.727-1.666 1.625m76.416 47.5 26.125-.041c.846 0 1.542.696 1.542 1.541l-.083 7.375a1.55 1.55 0 0 1-1.542 1.542h-37.542a1.55 1.55 0 0 1-1.541-1.542l.041-66.708a1.55 1.55 0 0 1 1.542-1.542l36.542-.041c.846 0 1.542.696 1.542 1.541l-.001.042-.25 7.375c-.022.83-.711 1.5-1.541 1.5l-24.834-.042c-.845 0-1.541.696-1.541 1.542v15.75c0 .846.696 1.542 1.541 1.542l24-.042a1.55 1.55 0 0 1 1.542 1.542l-.042 7.25c0 .845-.696 1.541-1.541 1.541l-23.959.084c-.845 0-1.541.696-1.541 1.541v16.709c0 .845.696 1.541 1.541 1.541m49.459-37.375.083 45.709q0 2.083-2.125 2.083l-8.333-.042q-1.042 0-1.042-1v-66.416q0-2 1.958-2.375 7.042-1.459 11.417 3.708 18.958 22.583 37.083 44.292 2.667 3.208 2.667-1v-45.375q0-1.542 1.542-1.542h8.375q1.54 0 1.541 1.542v65.083q0 2.208-2.083 2.917-6.083 2.083-10.25-2.834a181112 181112 0 0 0-38.583-45.583q-2.25-2.667-2.25.833m103.666 37.417 27.167-.083c.846 0 1.542.696 1.542 1.541l-.084 7.375c0 .846-.696 1.542-1.541 1.542h-38.542a1.55 1.55 0 0 1-1.542-1.542v-66.625c0-.83.67-1.519 1.5-1.541l8.375-.209h.042c.846 0 1.542.696 1.542 1.541v56.459c0 .846.696 1.542 1.541 1.542m48.542-19.208c.042 12.916 6.125 19.041 18.5 19.375q18.375.457 18.042-19.167-.375-21.042-.084-38.708 0-1.792 1.792-1.75l7.583.083q2.21 0 2.125 2.208-.583 16.459.167 35.042.583 13.917-4.958 21.708c-9.875 13.959-36.917 15.334-48.5 1.542q-5.709-6.834-5.417-18.375.625-21.875.125-39.792-.042-2.208 2.167-2.333l6.208-.25q2.125-.084 2.125 2.042.042 17.333.125 38.375m98.625-6.625c16.5 6.125 13.625 29.166-2.542 33.625q-12.583 3.5-31.083 2.458-2.583-.167-2.583-2.708v-64.084q0-2.792 2.791-2.916 12.084-.542 23.542 1.083c15.25 2.125 19.75 19.542 9.292 30q-1.667 1.708.583 2.542m-24.75-22.25v16.833c0 .549.451 1 1 1h6.792c5.825-.003 10.62-3.915 10.625-8.667v-1.518c-.009-4.75-4.802-8.652-10.625-8.648h-6.792c-.549 0-1 .451-1 1m-.042 29.666v16.917a1.507 1.507 0 0 0 1.5 1.458h8.35c7.771-.013 14.159-4.144 14.15-9.149v-1.684c-.023-4.996-6.411-9.091-14.166-9.083h-8.334c-.823 0-1.5.677-1.5 1.5zm82.875-7.916c16.792 7.708 14.334 30.458-3.041 34.458q-13.459 3.084-30.875 2.167-2.042-.084-2.042-2.125v-64.709q0-2.583 2.542-2.75 13.5-1 25.291 1.25c14.334 2.792 18.834 20.5 7.875 29.75q-1.416 1.167.25 1.959m-6.166-10.667c3.125-10.583-8-12.958-15.792-12.083q-2.541.29-2.542 2.875v13.291q0 2.875 2.917 2.917c5.833 0 13.417-.083 15.417-7m-18.375 18.625v16.917a1.506 1.506 0 0 0 1.5 1.458h9.598c7.132-.012 12.993-3.991 12.985-8.814v-2.353c-.024-4.812-5.885-8.756-13-8.75h-9.584a1.507 1.507 0 0 0-1.499 1.542m59.875 18.375 26-.083c.83-.001 1.519.67 1.541 1.5l.292 7.25.001.041a1.55 1.55 0 0 1-1.542 1.542h-.001l-37.75.167a1.55 1.55 0 0 1-1.541-1.542l.083-66.75a1.55 1.55 0 0 1 1.542-1.542h36.5c.845 0 1.541.696 1.541 1.542l-.125 7.292c0 .845-.696 1.541-1.541 1.541l-25 .042a1.55 1.55 0 0 0-1.542 1.542v15.708a1.55 1.55 0 0 0 1.542 1.542l24-.084c.845 0 1.541.696 1.541 1.542l.084 7.375a1.55 1.55 0 0 1-1.542 1.542l-24.042-.042c-.845 0-1.541.696-1.541 1.542l-.042 16.791a1.55 1.55 0 0 0 1.542 1.542m61.583-46.917c-16.917 8.209-19.917 32.459-3.167 43.209 12 7.666 25.542 3.375 37.667-3.292q1.5-.834 1.458.875l-.083 8.25q-.042 2.25-2.083 3.25c-16.417 8.042-40.834 8.167-52.542-8-14.25-19.75-6.542-48.667 18-55.417q16.458-4.54 34.167 3 1.083.459 1.166 1.584.541 5.625-.291 11.75a.14.14 0 0 1-.009.058c-.033.085-.148.121-.255.08l-.028-.013q-18.792-12.709-34-5.334m59.75 15.292 24.583-27.167c.25-.263.596-.414.959-.416l11.458-.417h.032a1.332 1.332 0 0 1 .968 2.25l-27.417 30.333a1.34 1.34 0 0 0 .084 1.875l34.833 33.292c.26.251.406.597.406.958a1.34 1.34 0 0 1-1.323 1.334l-13.125-.125a1.33 1.33 0 0 1-.916-.375l-30.292-29.75a1.333 1.333 0 0 0-2.292.926v.032l.084 27.792a1.34 1.34 0 0 1-1.334 1.333l-8.833.167a1.34 1.34 0 0 1-1.333-1.334l.041-67.166a1.34 1.34 0 0 1 1.334-1.334l8.958.167a1.34 1.34 0 0 1 1.292 1.333l-.459 25.375a1.34 1.34 0 0 0 1.334 1.323c.361 0 .707-.146.958-.406m66.208 31.625 25.917-.083c.83-.001 1.519.67 1.542 1.5l.291 7.25.001.041a1.55 1.55 0 0 1-1.542 1.542l-37.709.167a1.55 1.55 0 0 1-1.541-1.542l.083-66.75a1.55 1.55 0 0 1 1.542-1.542h36.5c.845 0 1.541.696 1.541 1.542l-.125 7.292c0 .845-.696 1.541-1.541 1.541l-25 .042a1.55 1.55 0 0 0-1.542 1.542l.042 15.75c0 .845.696 1.541 1.541 1.541l23.959-.125c.845 0 1.541.696 1.541 1.542l.084 7.375a1.55 1.55 0 0 1-1.542 1.542l-24.042-.042c-.845 0-1.541.696-1.541 1.542v16.791c0 .846.696 1.542 1.541 1.542m119.209-18.083.166 26.583.001.042a1.8 1.8 0 0 1-1.792 1.791l-6.875.042h-.042a1.8 1.8 0 0 1-1.792-1.791v-66.251a1.8 1.8 0 0 1 1.792-1.791h6.917c.983 0 1.791.808 1.791 1.791l-.166 25.667a1.8 1.8 0 0 0 1.791 1.792l33.042-.042a1.8 1.8 0 0 0 1.792-1.792l-.125-25.583a1.8 1.8 0 0 1 1.791-1.792l7.917-.083a1.8 1.8 0 0 1 1.792 1.792v66.25a1.8 1.8 0 0 1-1.792 1.791l-7.958.042a1.8 1.8 0 0 1-1.792-1.792l.125-26.625a1.8 1.8 0 0 0-1.792-1.791l-33-.042a1.8 1.8 0 0 0-1.791 1.792m74-29.417.083 15.75a1.55 1.55 0 0 0 1.542 1.542l22.958-.042a1.55 1.55 0 0 1 1.542 1.542l-.042 7.25c0 .845-.696 1.541-1.542 1.541l-23 .084c-.845 0-1.541.696-1.541 1.541l.083 16.709c0 .845.696 1.541 1.542 1.541l25.041-.041c.846 0 1.542.696 1.542 1.541l-.042 7.334c0 .845-.696 1.541-1.541 1.541l-36.542.084a1.55 1.55 0 0 1-1.542-1.542l.042-66.75a1.55 1.55 0 0 1 1.542-1.542l35.5-.041c.846 0 1.542.696 1.542 1.541l-.001.042-.208 7.375c-.022.83-.711 1.5-1.542 1.5l-23.875-.042c-.845 0-1.541.696-1.541 1.542m51.041 29.875.125 25.833q0 2.042-2.083 2.084l-7.333.125q-2.125.041-2.125-2.084v-65.5q0-2.042 2.083-2.208c11.917-.833 32.542-1.25 36.708 12.625q4.209 14.041-5.625 22.083-1.583 1.291-.458 3l20.25 31.209q.583.875-.458.833l-11.667-.083q-.916 0-1.375-.834c-5-8.708-14.583-27.666-25.5-29.25q-2.541-.375-2.542 2.167m0-30v16.25c0 .709.583 1.292 1.292 1.292h5.5c5.507-.003 10.039-3.877 10.042-8.584v-1.684c-.009-4.704-4.539-8.568-10.042-8.566h-5.5c-.709 0-1.292.583-1.292 1.292m59.417.083-.042 14.792c0 .8.659 1.458 1.459 1.458h23.25c.8 0 1.458.659 1.458 1.459l-.083 6.5c0 .8-.659 1.458-1.459 1.458l-23.125-.083c-.8 0-1.458.658-1.458 1.458v29.501c0 .8-.658 1.458-1.458 1.458l-.042-.001-7.5-.291a1.466 1.466 0 0 1-1.417-1.459v-66.666c0-.8.659-1.459 1.459-1.459h34.625c.8 0 1.458.659 1.458 1.459l-.125 7.458c0 .8-.658 1.458-1.458 1.458l-24.084.042c-.8 0-1.458.658-1.458 1.458m108.162 23.584c-.307 19.563-17.297 35.398-37.637 35.079h-.002c-20.341-.32-36.826-16.681-36.519-36.245V427c.308-19.564 17.299-35.399 37.639-35.079h.003c20.34.32 36.824 16.682 36.516 36.246m-12.162-.584c0-13.737-11.304-25.041-25.042-25.041-13.737 0-25.041 11.304-25.041 25.041s11.304 25.042 25.041 25.042 25.042-11.304 25.042-25.042m34.208 6.917v25.917q0 2.124-2.083 2.083l-6.833-.083q-1.5 0-1.5-1.542V395q0-2.084 2.083-2.25c12.542-.917 33.75-1.208 37.042 14.292q2.958 14.084-6.417 20.583-1.541 1.083-.5 2.625l20.333 31.167a.6.6 0 0 1 .091.18c.098.329-.109.685-.459.79a.7.7 0 0 1-.173.03l-11.167.083q-1.041 0-1.542-.875c-5.25-8.875-14.791-28.792-26.583-29.333q-2.292-.126-2.292 2.208m0-30v16.167a1.34 1.34 0 0 0 1.334 1.333h5.791c5.875 0 10.709-3.969 10.709-8.792v-1.25c0-4.823-4.834-8.791-10.709-8.791h-5.791a1.34 1.34 0 0 0-1.334 1.333m48.959-10.833c0-.572.47-1.042 1.041-1.042h26.084c20 0 36.458 15.235 36.458 33.75v2.167c0 18.514-16.458 33.75-36.458 33.75h-26.084a1.047 1.047 0 0 1-1.041-1.042zm11.375 10.791v46.084c0 .8.658 1.458 1.458 1.458h13.458c14.172 0 25.834-10.627 25.834-23.542v-1.916c0-12.915-11.662-23.542-25.834-23.542H2329.5c-.8 0-1.458.658-1.458 1.458m-1886.38 31.167-.042 23.833q0 2.125-2.125 2.084l-7.792-.167q-1.5-.042-1.5-1.542v-62.25q0-2.458 2.459-2.666c15.083-1.209 38.458-2.5 39.916 17 1.292 17-12.791 23.333-27.958 21.166q-2.958-.458-2.958 2.542m.083-29.125-.083 15.167a1.34 1.34 0 0 0 1.333 1.333l9.679.042c4.75.016 8.674-3.725 8.696-8.292v-1.167c.023-4.571-3.871-8.351-8.625-8.375l-9.667-.041a1.34 1.34 0 0 0-1.333 1.333m52.042 38.542-6.459 14.875a2.92 2.92 0 0 1-2.791 1.75l-7.25-.292q-1.917-.084-1.167-1.833l26-61.667a5.8 5.8 0 0 1 5.331-3.527 5.8 5.8 0 0 1 5.294 3.444l27.125 61.5q.917 2.083-1.333 2.125l-6.709.125q-2.833.04-3.958-2.542l-6.292-14.333q-.875-2-3.041-2l-21.209.041c-1.548.026-2.936.941-3.541 2.334m6.458-14.542a1.4 1.4 0 0 0-.094.5c0 .754.621 1.375 1.375 1.375h.011l12.458-.25a1.38 1.38 0 0 0 1.361-1.375c0-.186-.038-.37-.111-.542l-6.5-15.333a1.38 1.38 0 0 0-1.262-.83c-.564 0-1.073.347-1.28.872zm59.083 5.583.042 23.292q0 2.083-2.083 2.083l-7.292-.041q-2.083 0-2.083-2.084V397q0-1.959 1.958-2.125c11.833-.917 31.625-1.792 36.292 12.125q4.5 13.375-6.25 21.625-1.875 1.458-.375 3.292 10.791 13.207 19.125 28.791.541 1-.625.959l-10.875-.417q-1.043-.042-1.542-.958c-4.5-8.25-13.792-25.917-23.208-26.959q-3.084-.333-3.084 2.75m.042-29.625v15.25c0 .686.564 1.25 1.25 1.25h5.125c5.595.004 10.2-3.729 10.208-8.274V413.5c-.004-4.546-4.611-8.288-10.208-8.292h-5.125c-.686 0-1.25.565-1.25 1.25"/><path fill="#cc0e13" d="M617.708 396.208v63.75a1.46 1.46 0 0 1-1.458 1.459h-8.583a1.46 1.46 0 0 1-1.459-1.459v-63.75a1.46 1.46 0 0 1 1.459-1.458h8.583c.805 0 1.458.653 1.458 1.458"/><path fill="#cc0e13" fill-rule="nonzero" d="M640.667 408.917c-1.497 1.968-1.163 4.807.75 6.375 9.625 7.875 27.125 13.708 26.541 28.916-.833 20.334-21.375 22.167-35.375 13.917q-2.29-1.376-2.333-4.083l-.167-9.209-.002-.065a.958.958 0 0 1 1.669-.643c5.5 5.458 18.708 14 24.333 4.833 2.348-3.865 1.241-8.958-2.5-11.5-10.375-7-28.666-13.708-23.583-30.375 4.5-14.666 22.417-14.833 33.667-9.25.481.227.79.731.791 1.292l.209 11.083.001.035a.628.628 0 0 1-1.043.465q-14.916-12.416-22.958-1.791m106.071 22.258c.174 16.799-13.506 30.767-30.305 30.942l-9.083.096c-16.799.174-30.767-13.506-30.942-30.305l-.062-5.916c-.175-16.799 13.505-30.767 30.304-30.942l9.083-.096c16.799-.174 30.767 13.505 30.942 30.304zm-10.667-.921v-.002c.892-13.09-9.426-24.615-22.858-25.531h-.005c-13.43-.914-25.215 9.103-26.108 22.191v.003c-.893 13.09 9.426 24.615 22.858 25.531 13.431.914 25.216-9.103 26.109-22.192m55.6-25.212-33.917.25c-.8 0-1.458-.659-1.458-1.459l-.084-7.541c0-.8.659-1.459 1.459-1.459l54.833-.125h.042a1.457 1.457 0 0 1 1.166 2.334L775.25 450c-.17.245-.262.536-.262.834 0 .788.64 1.441 1.429 1.458l36.666-.334c.8 0 1.459.659 1.459 1.459l.083 6.5c0 .8-.658 1.458-1.458 1.458l-56.542.167h-.042a1.457 1.457 0 0 1-1.166-2.334l37.458-51.833c.19-.252.292-.56.292-.876 0-.8-.658-1.458-1.458-1.458z"/><path fill="#cc0e13" d="M834.375 396.458v63.334c0 .92-.747 1.666-1.667 1.666h-7.083c-.92 0-1.667-.746-1.667-1.666v-63.334c0-.92.747-1.666 1.667-1.666h7.083c.92 0 1.667.746 1.667 1.666"/><path fill="#cc0e13" fill-rule="nonzero" d="m860.833 444.625-6.625 14.833q-1.041 2.25-3.5 2.167l-6.791-.292q-1.75-.041-1.042-1.666l26-61.792a5.8 5.8 0 0 1 5.331-3.527 5.8 5.8 0 0 1 5.294 3.444l27.125 61.5q.959 2.125-1.375 2.166l-7.208.042q-2.25.042-3.167-2l-6.25-14.292q-1.083-2.541-3.833-2.541l-21 .041q-2.083 0-2.959 1.917m6.125-14.083a1.4 1.4 0 0 0-.094.5c0 .754.621 1.375 1.375 1.375h.011l12.417-.25a1.38 1.38 0 0 0 1.344-1.375c0-.171-.032-.341-.094-.5l-6.5-15.375a1.38 1.38 0 0 0-1.263-.83c-.563 0-1.072.347-1.279.871zm60.542 21.541h26.25c.8 0 1.458.659 1.458 1.459l.084 6.458c0 .8-.659 1.458-1.459 1.458l-37.791-.041c-.8 0-1.459-.659-1.459-1.459V396.25c0-.8.659-1.458 1.459-1.458h8.541c.8 0 1.459.658 1.459 1.458v54.375c0 .8.658 1.458 1.458 1.458"/><path fill="#cc0e13" d="m1385.49 433.372-.066 9.417-22.999-.161.065-9.417z"/></svg>