<svg xmlns="http://www.w3.org/2000/svg" width="100" height="100"><g fill="none" fill-rule="evenodd"><path fill="#D1E7A6" d="m8.116 73.223 35.316.293-5.428-38.145-33.16 22.885z"/><path fill="#889EB3" d="M41.344 72.97h44.973L57.683 24.383 37.83 31.227z"/><path fill="#6AC2CB" d="M82.825 68.03 98.89 57.654 96.55 29.29l-40.263-4.909z"/><path fill="#F3ED95" d="m6 58.97 35.02-23.812L25.54 22.63 6 22.735z"/><path fill="#000" d="M100 0v100H0V0h100zM74.1 35.6c-9.1 0-16.5 7.4-16.5 16.5S65 68.6 74.1 68.6c9.101 0 16.5-7.4 16.5-16.5s-7.399-16.5-16.5-16.5zm-20.6.8H43.4v31.3h10.1V36.4zm-26.1 0H10.5v31.3h9.8V55.2l8.5 12.5h10.7l-8.2-12.5c.901-.3 1.7-.8 2.3-1.4a9.89 9.89 0 0 0 3.601-7.6c0-5.4-4.401-9.8-9.801-9.8z"/></g></svg>