<svg xmlns="http://www.w3.org/2000/svg" preserveAspectRatio="xMinYMin" version="1.0" viewBox="0 0 708.661 121.288"><defs><clipPath id="a"><path d="M124.82 241.91h70.99v12.15h-70.99z"/></clipPath></defs><g fill="#fff" clip-path="url(#a)" font-family="fnt1" font-size="8.5" letter-spacing="0" transform="matrix(9.98255 0 0 -9.98255 -1246.022 2536.167)" word-spacing="0"><path fill="#c5c5c7" d="M173.57 246.87h-.26v-2.44h.26zm1.09 0h-.26v-2.44h.26zm1.08 0h-.26v-2.44h.26zm1.09 0h-.26v-2.44h.26zm1.09 0h-.26v-2.44h.26zm1.08 0h-.26v-2.44h.26zm1.09 0h-.26v-2.44h.26zm1.09 0h-.26v-2.44h.26zm1.08 0H182v-2.44h.26zm1.09 0h-.26v-2.44h.26zm1.09 0h-.26v-2.44h.26zm1.09 0h-.27v-2.44h.27zm1.08 0h-.26v-2.44h.26zm1.09 0h-.26v-2.44h.26zm1.09 0h-.26v-2.44h.26zm1.08 0h-.26v-2.44h.26zm1.09 0h-.26v-2.44h.26zm1.09 0h-.26v-2.44h.26zm1.08 0h-.26v-2.44h.26zm-56.36 0h-.54v-4.96h.54zm1.23 0h-.55v-4.96h.55zm1.22 0h-.55v-4.96h.55zm1.22 0h-.54v-4.96h.54zm1.22 0h-.54v-4.96h.54zm1.23 0h-.55v-4.96h.55zm1.22 0h-.55v-4.96h.55zm1.22 0h-.54v-4.96h.54zm1.22 0h-.54v-4.96h.54zm1.22 0h-.54v-4.96h.54zm1.23 0h-.54v-4.96h.54zm1.22 0h-.54v-4.96h.54zm1.22 0h-.54v-4.96h.54zm1.22 0h-.54v-4.96h.54zm1.23 0h-.54v-4.96h.54zm1.22 0h-.54v-4.96h.54zm1.22 0h-.54v-4.96h.54zm1.23 0h-.55v-4.96h.55zm1.22 0h-.55v-4.96h.55zm1.22 0h-.54v-4.96h.54zm1.22 0h-.54v-2.44h.54zm1.23 0h-.55v-2.44h.55zm2.6 0h-.54v-2.44h.54zm1.22 0h-.54v-2.44h.54zm1.23 0h-.54v-2.44h.54zm1.23 0h-.54v-2.44h.54zm1.22 0h-.54v-2.44h.54zm1.23 0h-.54v-2.44h.54zm1.23 0h-.54v-2.44h.54z"/><path fill="#004493" d="M124.82 246.89h69.12v.26h-69.12z"/><path fill="#004493" d="M128.48 250.61c-.06.41-.4.41-.65.41-.83 0-.83-.1-.83-.39 0-.24.02-.41.83-.42 1.64-.04 2.37-.13 2.37-1.49 0-1.42-1.1-1.63-2.37-1.63-1.25 0-2.37-.03-2.37 1.57h1.59c0-.55.4-.55.78-.55.72 0 .83.05.83.43 0 .48-.27.48-.83.48-2.01 0-2.37.45-2.37 1.44 0 1.55 1.03 1.58 2.37 1.58.89 0 2.14-.01 2.14-1.2v-.23zm6.99-1.53c0-.9-.15-1.4-.53-1.67-.37-.27-.95-.32-1.81-.32-1.87 0-2.31.56-2.31 2.47 0 1.64.33 2.48 2.31 2.48 1.4 0 2.34-.15 2.34-1.87h-1.58c.01.26-.02.41-.13.52-.11.1-.29.13-.63.13-.56 0-.72-.15-.72-1.26 0-1.13.12-1.25.72-1.25.72 0 .76.17.76.77zm2.35 2h.06c.23.77.7.96 1.45.96 1.07 0 1.56-.51 1.56-1.55v-3.34h-1.59v2.97c-.01.47-.14.7-.65.7-.71 0-.83-.42-.83-1.01v-2.66h-1.59v6.91h1.59zm5.76-3.93h-1.59v6.91h1.59zm4.14 0 .06.93h-.07c-.22-.75-.78-.99-1.45-.99-.96 0-1.64.41-1.64 1.59v3.31h1.58v-2.89c0-.44.05-.79.59-.79.42 0 .89.22.89.7v2.98h1.58v-4.84zm4.25 4.84v-.91h.06c.23.77.7.96 1.45.96 1.07 0 1.56-.51 1.56-1.55v-3.34h-1.59v2.97c-.01.47-.14.7-.65.7-.71 0-.83-.42-.83-1.01v-2.66h-1.59v4.84zm8.78-4.84h-1.59l.04.84h-.08c-.18-.73-.69-.9-1.38-.9-1.17 0-1.83.5-1.83 1.78v1.11c0 1.47.5 2.06 1.83 2.06.58 0 1.09-.12 1.35-.75h.07v2.77h1.59zm-2.45 1.16c.66 0 .86.15.86 1.25 0 .94-.02 1.26-.86 1.26-.79 0-.81-.3-.81-1.26 0-1.18.15-1.25.81-1.25"/><path fill="#004493" d="M162.14 250.66v-1.15h1.14v-.42h-1.14v-1.15h-.42v1.15h-1.15v.42h1.15v1.15z"/><path fill="#004493" d="m163.84 251.4.02-.02c.29.55.95.66 1.55.66 1.76 0 1.89-1.03 1.89-2.48 0-1.92-.47-2.47-1.89-2.47-.55 0-1.28.07-1.55.63h-.02v-3.36h-.73v7.63h.73zm0-1.84c0-1.14.07-1.88 1.37-1.88 1.13 0 1.34.31 1.34 1.88 0 1.45-.1 1.89-1.34 1.89-1.37 0-1.37-.61-1.37-1.89m7.89-2.41v.49l-.02.02c-.28-.55-.99-.57-1.59-.57-1.09 0-1.85.2-1.85 1.47 0 1.33.69 1.52 1.89 1.52.48 0 1.42-.05 1.52-.49h.05v.89c0 .89-.47.97-1.29.97-.57 0-1.27 0-1.26-.66v-.17h-.76v.1c0 1.25.86 1.33 1.94 1.32 1.21.01 2.11-.12 2.1-1.59v-3.3zm-.02 1.43c0 .92-.54.91-1.47.91-.86 0-1.21-.06-1.21-.84 0-.92.38-.97 1.21-.97.73 0 1.47.02 1.47.9m2.57 3.41-.03-.6.02-.02c.24.53.83.67 1.37.67.93 0 1.35-.46 1.35-1.36v-.35h-.7v.32c0 .6-.2.8-.81.8-.9 0-1.2-.43-1.18-1.29v-3.01h-.73v4.84zm6.57-.59h-1.87v-3.07c.01-.53.15-.65.68-.65.68 0 .68.36.68.82v.36h.69v-.36c0-.96-.39-1.41-1.39-1.41-1.13 0-1.39.32-1.39 1.46v2.85h-.65v.59h.65v1.17h.73v-1.17h1.87zm1.9 0h.02c.23.58.94.64 1.49.64 1.25 0 1.85-.33 1.83-1.68v-3.21h-.73v3.27c0 .88-.34 1.03-1.16 1.03-1.19 0-1.45-.37-1.45-1.48v-2.82h-.72v4.84h.72zm8.54-2.79v-.17c0-1.28-.99-1.35-2.07-1.35-1.89 0-2.18.63-2.18 2.47 0 2.01.45 2.48 2.18 2.48 1.57 0 2.07-.36 2.07-2.15v-.49h-3.49c0-1.53.11-1.72 1.42-1.72.99 0 1.32.06 1.32.75v.18zm-.76 1.38c-.04 1.38-.2 1.46-1.31 1.46-1.32 0-1.36-.34-1.42-1.46zm2.58 2-.04-.6.02-.02c.25.53.83.67 1.38.67.93 0 1.34-.46 1.34-1.36v-.35h-.69v.32c0 .6-.2.8-.81.8-.9 0-1.2-.43-1.18-1.29v-3.01h-.73v4.84z"/></g></svg>