<svg xmlns="http://www.w3.org/2000/svg" width="337" height="120" viewBox="0 0 337 120"><g fill="none" transform="translate(2 8)"><path fill="#1B2932" d="M136.322944,68.6792453 L125.880417,49.5879027 L117.565072,49.5879027 L117.565072,68.6792453 L105.962264,68.6792453 L105.962264,14.7169811 L131.101681,14.7169811 C142.317728,14.7169811 149.086033,22.1197466 149.086033,32.0550371 C149.472793,39.4578026 144.44491,46.2761392 137.289845,48.0294258 L149.472793,68.4844357 L136.322944,68.4844357 L136.322944,68.6792453 Z M137.483225,32.0550371 C137.483225,27.5744159 134.002383,24.8470813 129.55464,24.8470813 L117.565072,24.8470813 L117.565072,39.4578026 L129.55464,39.4578026 C134.002383,39.4578026 137.483225,36.730468 137.483225,32.0550371 Z M157.594758,68.6792453 L157.594758,14.7169811 L195.497263,14.7169811 L195.497263,24.8470813 L169.004186,24.8470813 L169.004186,36.1460391 L194.917123,36.1460391 L194.917123,46.2761392 L169.004186,46.2761392 L169.004186,58.5491452 L195.497263,58.5491452 L195.497263,68.6792453 L157.594758,68.6792453 Z M204.392749,68.6792453 L204.392749,14.7169811 L229.532166,14.7169811 C241.134973,14.7169811 247.516517,22.7041755 247.516517,32.0550371 C247.516517,41.4058988 241.134973,49.3930931 229.532166,49.3930931 L215.802177,49.3930931 L215.802177,68.6792453 L204.392749,68.6792453 Z M235.72033,32.0550371 C235.72033,27.5744159 232.239487,24.8470813 227.791744,24.8470813 L215.802177,24.8470813 L215.802177,39.262993 L227.791744,39.262993 C232.432868,39.262993 235.72033,36.5356583 235.72033,32.0550371 Z M254.091442,68.6792453 L254.091442,14.7169811 L265.500869,14.7169811 L265.500869,58.5491452 L288.126344,58.5491452 L288.126344,68.6792453 L254.091442,68.6792453 Z M300.696053,68.6792453 L300.696053,46.6657585 L280.004379,14.7169811 L292.960847,14.7169811 L306.304076,36.3408487 L319.647305,14.7169811 L332.603774,14.7169811 L312.10548,46.6657585 L312.10548,68.6792453 L300.696053,68.6792453 Z"/><path fill="#92ACBE" d="M79.4716981 0C74.6726825 0 70.6415094 4.03117309 70.6415094 8.83018868 70.6415094 13.6292043 74.6726825 17.6603774 79.4716981 17.6603774 84.2707137 17.6603774 88.3018868 13.6292043 88.3018868 8.83018868 88.3018868 3.83921247 84.2707137 0 79.4716981 0L79.4716981 0ZM59.8841844 37.5705341 70.8529066 22.9349251C71.4302078 22.1543593 71.4302078 21.1786521 71.0453403 20.3980863L66.426931 12.7875696C66.0420635 12.2021453 65.2723286 11.6167209 64.5025938 11.8118624L44.2970528 12.0070038 33.1358969 12.0070038C32.5585957 12.0070038 32.1737283 12.3972867 32.1737283 12.9827111 32.1737283 13.1778525 32.366162 13.5681354 32.5585957 13.7632769L35.6375353 16.3001158C36.0224027 16.6903987 36.5997039 16.8855401 37.1770051 17.0806816L56.4203774 20.7883692 32.5585957 46.3518994 1.19189884 50.8401528C.422163949 50.8401528-.15513722 51.6207186.0372965028 52.4012844.0372965028 52.5964259.229730226 52.9867088.422163949 53.1818502L3.50110352 56.4992549C4.07840469 57.0846793 5.0405733 57.4749622 5.8103082 57.4749622L36.2148365 56.8895378C37.3694388 56.8895378 38.5240411 56.4992549 39.4862097 55.9138306L46.7986912 51.4255772 62.1933891 63.7194886C62.7706902 64.1097715 63.1555577 64.8903374 63.3479914 65.6709032L66.2344973 87.5267458C66.426931 88.5024531 67.1966659 89.2830189 68.3512682 89.2830189L69.5058706 89.2830189C70.6604729 89.2830189 71.6226415 88.3073116 71.6226415 87.3316043L71.6226415 63.1340643C71.6226415 61.9632156 71.2377741 60.5972254 70.4680392 59.6215181L57.1901123 41.2782216 59.8841844 37.5705341Z"/><polygon fill="#92ACBE" points="111.849 104 111.849 84.966 104.981 84.966 104.981 81.434 122.642 81.434 122.642 84.966 115.774 84.966 115.774 104"/><path fill="#92ACBE" d="M137.554717,95.1835504 C140.890566,94.5957871 143.049057,91.8528917 142.85283,88.522233 C142.85283,88.3263119 142.85283,87.9344697 142.85283,87.7385486 C142.460377,84.0160476 139.320755,81.0772311 135.396226,81.4690733 L125.584906,81.4690733 L125.584906,104 L129.509434,104 L129.509434,95.5753926 L133.433962,95.5753926 L138.339623,104 L143.245283,104 L137.554717,95.1835504 Z M129.509434,92.0488128 L129.509434,84.799732 L135.003774,84.799732 L135.396226,84.799732 C137.358491,84.799732 138.928302,86.3671009 138.928302,88.3263119 L138.928302,88.7181541 C138.732075,90.6773651 136.966038,92.0488128 135.003774,91.8528917 L129.509434,91.8528917 L129.509434,92.0488128 Z"/><polygon fill="#92ACBE" points="147.17 104 147.17 81.434 151.094 81.434 151.094 104"/><path fill="#92ACBE" d="M165.661197,81.4432235 L156,81.4432235 L156,104 L159.788705,104 L159.788705,95.5657271 L165.661197,95.5657271 L166.229503,95.5657271 C170.018208,95.3695812 172.859736,92.0351012 172.670301,88.1121835 C172.480866,84.1892659 169.260467,81.2470776 165.661197,81.4432235 L165.661197,81.4432235 Z M168.692161,88.8967671 C168.502726,90.8582259 166.797809,92.2312471 164.903456,92.0351012 L159.59927,92.0351012 L159.59927,84.9738494 L164.903456,84.9738494 L165.282327,84.9738494 C167.176679,84.9738494 168.692161,86.5430165 168.692161,88.5044753 L168.692161,88.8967671 Z"/><polygon fill="#92ACBE" points="175.623 104 175.623 81.434 179.492 81.434 179.492 100.468 189.358 100.468 189.358 104"/><polygon fill="#92ACBE" points="192.302 104 192.302 81.434 208 81.434 208 84.77 196.475 84.77 196.475 90.657 207.801 90.657 207.801 94.189 196.475 94.189 196.475 100.468 208 100.468 208 104"/><path fill="#92ACBE" d="M209.962264,100.423505 L212.097035,97.2632092 C213.843666,99.238394 216.560647,100.423505 219.083558,100.423505 C222.382749,100.423505 223.54717,98.843357 223.54717,97.2632092 C223.54717,92.5227659 210.544474,95.485543 210.544474,87.1897672 C210.544474,83.4369162 213.843666,80.4741391 218.695418,80.4741391 C221.800539,80.2766206 224.71159,81.4617315 227.040431,83.6344347 L224.90566,86.5972117 C223.15903,84.8195455 220.830189,83.8319531 218.307278,84.0294716 C215.978437,84.0294716 214.619946,85.2145824 214.619946,86.7947302 C214.619946,91.1401366 227.622642,88.374878 227.622642,96.8681723 C227.622642,100.621023 224.90566,103.978837 218.889488,103.978837 C215.590296,104.176356 212.291105,102.991245 209.962264,100.423505 L209.962264,100.423505 Z"/><polygon fill="#92ACBE" points="231.547 104 231.547 81.434 247.245 81.434 247.245 84.77 235.521 84.77 235.521 90.657 247.047 90.657 247.047 94.189 235.521 94.189 235.521 100.468 247.245 100.468 247.245 104"/><polygon fill="#92ACBE" points="266.083 104 254.309 87.713 254.309 104 250.189 104 250.189 81.434 254.309 81.434 265.887 96.936 265.887 81.434 269.811 81.434 269.811 104"/><path fill="#92ACBE" d="M273.735849,100.423505 L275.87062,97.2632092 C277.617251,99.238394 280.334232,100.423505 282.857143,100.423505 C286.156334,100.423505 287.320755,98.843357 287.320755,97.2632092 C287.320755,92.5227659 274.318059,95.485543 274.318059,87.1897672 C274.318059,83.4369162 277.617251,80.4741391 282.469003,80.4741391 C285.574124,80.2766206 288.485175,81.4617315 290.814016,83.6344347 L288.679245,86.5972117 C286.932615,84.8195455 284.603774,84.0294716 282.080863,84.0294716 C279.752022,84.0294716 278.393531,85.2145824 278.393531,86.7947302 C278.393531,91.1401366 291.396226,88.374878 291.396226,96.8681723 C291.396226,100.621023 288.679245,103.978837 282.663073,103.978837 C279.363881,104.176356 276.06469,102.991245 273.735849,100.423505 Z"/><polygon fill="#92ACBE" points="294.34 104 294.34 81.434 310.038 81.434 310.038 84.77 298.314 84.77 298.314 90.657 309.64 90.657 309.64 94.189 298.314 94.189 298.314 100.468 310.038 100.468 310.038 104"/></g></svg>