<svg xmlns="http://www.w3.org/2000/svg" xml:space="preserve" preserveAspectRatio="xMinYMin" viewBox="0 0 591.7 106.1"><path fill="#d20626" d="M53.1 7.5c12.2 0 23.6 4.7 32.2 13.3S98.6 40.9 98.6 53s-4.7 23.6-13.3 32.2-20.1 13.3-32.2 13.3c-12.2 0-23.6-4.7-32.2-13.3S7.5 65.2 7.5 53.1s4.7-23.6 13.3-32.2S40.9 7.5 53.1 7.5m0-7.5C23.8 0 0 23.8 0 53.1s23.8 53.1 53.1 53.1 53.1-23.8 53.1-53.1S82.4 0 53.1 0m-6.6 28.5V62c0 1.7-1.7 4.1-3.8 4.1s-3.8-1.5-3.8-4.1V28.5h-13v35.8c0 5.5 1.2 9.7 3.7 12.6s6 4.4 10.6 4.4c2.9 0 5.4-.6 7.3-1.7 2-1.1 3.8-3 5.6-5.6 1.7 2.6 3.6 4.5 5.6 5.6s4.4 1.7 7.3 1.7c4.6 0 8.2-1.5 10.6-4.4 2.5-2.9 3.7-7.1 3.7-12.6V28.5h-13V62c0 2.6-1.7 4.1-3.8 4.1s-3.8-2.4-3.8-4.1V28.5zm154.7 52.7h-12.6l-10.4-35.7h-.2l-10.4 35.7h-12.7l-15-52.7h13.7l8.3 35.1h.2l9.4-35.1h13.3l9.5 35.1h.2l8.5-35.1h13.3zM228.4 39c-3.9 0-7-3.1-7-6.7s3.1-6.7 7-6.7 7 3 7 6.7c0 3.8-3.2 6.7-7 6.7m-6.1 42.2V44.1h12.2v37.1zm36.2-27.9v14.1c0 3.4 1.1 5.2 4.6 5.2 1.2 0 2.7-.2 3.6-.6l.1 8.9c-1.6.6-4.5 1.1-7.1 1.1-9.9 0-13.2-5.3-13.2-13.2V53.3h-6v-9.2h5.9v-9.8h12v9.8h8.7v9.2zm30 0v14.1c0 3.4 1.1 5.2 4.6 5.2 1.2 0 2.7-.2 3.6-.6l.1 8.9c-1.6.6-4.5 1.1-7.1 1.1-9.9 0-13.2-5.3-13.2-13.2V53.3h-6v-9.2h5.9v-9.8h12v9.8h8.7v9.2zM303 66.5v-9.7h19v9.7zm54 16c-16.8 0-29-11.2-29-27.8 0-16.9 12.5-27.7 28.6-27.7 8.3 0 15.9 2.8 20.3 7l-8 9.2c-2.5-2.8-6.7-4.9-11.8-4.9-8.9 0-15.5 7-15.5 16.5 0 9.7 5.7 16.6 16.1 16.6 3 0 5.7-.4 8-1.4v-9.6h-10.1V50.1h21.7V78c-5.2 2.7-12.2 4.5-20.3 4.5m53-28.4c-1.1-.3-2.2-.4-3.1-.4-6.6 0-8.7 5.4-8.7 8.4v19.1H386V44.1h11.8v5.4h.1c1.9-3.7 5.5-6.4 10.1-6.4 1 0 2 .1 2.6.3zm30.2 27.1v-5.1h-.1c-1.7 3.3-6 6.2-11.2 6.2-10 0-13.5-7.7-13.5-15.2v-23h12.3v20.1c0 4.2 1 7.9 5.5 7.9 4.2 0 6.6-3.7 6.6-8v-20H452v37.1zm43 1c-4.5 0-8.9-1.9-11.2-5.1h-.1v22h-12.2v-55h11.6v4.5h.2c2.2-3 6.4-5.6 11.8-5.6 10.8 0 17.6 9.1 17.6 19.4s-6.5 19.8-17.7 19.8M480.3 53c-5.5 0-8.9 4.8-8.9 9.5 0 4.8 3.4 9.5 8.9 9.5 5.8 0 8.7-4.8 8.7-9.6 0-4.7-2.9-9.4-8.7-9.4m50 29.2c-4.5 0-8.9-1.9-11.2-5.1h-.1v22h-12.2v-55h11.6v4.5h.2c2.2-3 6.4-5.6 11.8-5.6 10.8 0 17.6 9.1 17.6 19.4s-6.5 19.8-17.7 19.8M527.4 53c-5.5 0-8.9 4.8-8.9 9.5 0 4.8 3.4 9.5 8.9 9.5 5.8 0 8.7-4.8 8.7-9.6 0-4.7-2.9-9.4-8.7-9.4m64.2 13h-26.9c.4 4.1 4.5 7 8.9 7 3.9 0 6.6-1.6 8.2-3.9l8.5 5.4c-3.5 5.1-9.3 7.9-16.8 7.9-11.2 0-20.4-7.1-20.4-19.6 0-12.1 8.8-19.9 20-19.9 10.9 0 18.6 7.5 18.6 20.2 0 1 0 2-.1 2.9m-11.2-7.6c0-3.9-2.5-7.1-7.3-7.1-4.7 0-8.1 3.3-8.4 7.1z"/></svg>