<?xml version="1.0" encoding="utf-8"?>
<!-- Generator: Adobe Illustrator 24.0.2, SVG Export Plug-In . SVG Version: 6.00 Build 0)  -->
<svg version="1.1" id="Ebene_1" xmlns="http://www.w3.org/2000/svg" xmlns:xlink="http://www.w3.org/1999/xlink" x="0px" y="0px"
	 viewBox="0 0 591.7 106.1" style="enable-background:new 0 0 591.7 106.1;" xml:space="preserve">
<style type="text/css">
	.st0{fill:#D20626;}
</style>
<path class="st0" d="M53.1,7.5c12.2,0,23.6,4.7,32.2,13.3c8.6,8.6,13.3,20.1,13.3,32.2s-4.7,23.6-13.3,32.2
	c-8.6,8.6-20.1,13.3-32.2,13.3c-12.2,0-23.6-4.7-32.2-13.3S7.5,65.2,7.5,53.1s4.7-23.6,13.3-32.2S40.9,7.5,53.1,7.5 M53.1,0
	C23.8,0,0,23.8,0,53.1s23.8,53.1,53.1,53.1c29.3,0,53.1-23.8,53.1-53.1S82.4,0,53.1,0L53.1,0z M46.5,28.5v33.5
	c0,1.7-1.7,4.1-3.8,4.1c-2.1,0-3.8-1.5-3.8-4.1V28.5h-13v35.8c0,5.5,1.2,9.7,3.7,12.6c2.5,2.9,6,4.4,10.6,4.4c2.9,0,5.4-0.6,7.3-1.7
	c2-1.1,3.8-3,5.6-5.6c1.7,2.6,3.6,4.5,5.6,5.6c2,1.1,4.4,1.7,7.3,1.7c4.6,0,8.2-1.5,10.6-4.4c2.5-2.9,3.7-7.1,3.7-12.6V28.5h-13
	v33.5c0,2.6-1.7,4.1-3.8,4.1c-2.1,0-3.8-2.4-3.8-4.1V28.5H46.5z M201.2,81.2h-12.6l-10.4-35.7H178l-10.4,35.7h-12.7l-15-52.7h13.7
	l8.3,35.1h0.2l9.4-35.1h13.3l9.5,35.1h0.2l8.5-35.1h13.3L201.2,81.2z M228.4,39c-3.9,0-7-3.1-7-6.7c0-3.6,3.1-6.7,7-6.7
	c3.9,0,7,3,7,6.7C235.4,36.1,232.2,39,228.4,39z M222.3,81.2V44.1h12.2v37.1H222.3z M258.5,53.3v14.1c0,3.4,1.1,5.2,4.6,5.2
	c1.2,0,2.7-0.2,3.6-0.6l0.1,8.9c-1.6,0.6-4.5,1.1-7.1,1.1c-9.9,0-13.2-5.3-13.2-13.2V53.3h-6v-9.2h5.9v-9.8h12v9.8h8.7v9.2H258.5z
	 M288.5,53.3v14.1c0,3.4,1.1,5.2,4.6,5.2c1.2,0,2.7-0.2,3.6-0.6l0.1,8.9c-1.6,0.6-4.5,1.1-7.1,1.1c-9.9,0-13.2-5.3-13.2-13.2V53.3
	h-6v-9.2h5.9v-9.8h12v9.8h8.7v9.2H288.5z M303,66.5v-9.7H322v9.7H303z M357,82.5c-16.8,0-29-11.2-29-27.8
	c0-16.9,12.5-27.7,28.6-27.7c8.3,0,15.9,2.8,20.3,7l-8,9.2c-2.5-2.8-6.7-4.9-11.8-4.9c-8.9,0-15.5,7-15.5,16.5
	c0,9.7,5.7,16.6,16.1,16.6c3,0,5.7-0.4,8-1.4v-9.6h-10.1V50.1h21.7V78C372.1,80.7,365.1,82.5,357,82.5z M410,54.1
	c-1.1-0.3-2.2-0.4-3.1-0.4c-6.6,0-8.7,5.4-8.7,8.4v19.1h-12.2V44.1h11.8v5.4h0.1c1.9-3.7,5.5-6.4,10.1-6.4c1,0,2,0.1,2.6,0.3
	L410,54.1z M440.2,81.2v-5.1h-0.1c-1.7,3.3-6,6.2-11.2,6.2c-10,0-13.5-7.7-13.5-15.2V44.1h12.3v20.1c0,4.2,1,7.9,5.5,7.9
	c4.2,0,6.6-3.7,6.6-8v-20H452v37.1H440.2z M483.2,82.2c-4.5,0-8.9-1.9-11.2-5.1h-0.1v22h-12.2v-55h11.6v4.5h0.2
	c2.2-3,6.4-5.6,11.8-5.6c10.8,0,17.6,9.1,17.6,19.4S494.4,82.2,483.2,82.2z M480.3,53c-5.5,0-8.9,4.8-8.9,9.5c0,4.8,3.4,9.5,8.9,9.5
	c5.8,0,8.7-4.8,8.7-9.6C489,57.7,486.1,53,480.3,53z M530.3,82.2c-4.5,0-8.9-1.9-11.2-5.1h-0.1v22h-12.2v-55h11.6v4.5h0.2
	c2.2-3,6.4-5.6,11.8-5.6c10.8,0,17.6,9.1,17.6,19.4S541.5,82.2,530.3,82.2z M527.4,53c-5.5,0-8.9,4.8-8.9,9.5c0,4.8,3.4,9.5,8.9,9.5
	c5.8,0,8.7-4.8,8.7-9.6C536.1,57.7,533.2,53,527.4,53z M591.6,66h-26.9c0.4,4.1,4.5,7,8.9,7c3.9,0,6.6-1.6,8.2-3.9l8.5,5.4
	c-3.5,5.1-9.3,7.9-16.8,7.9c-11.2,0-20.4-7.1-20.4-19.6c0-12.1,8.8-19.9,20-19.9c10.9,0,18.6,7.5,18.6,20.2
	C591.7,64.1,591.7,65.1,591.6,66z M580.4,58.4c0-3.9-2.5-7.1-7.3-7.1c-4.7,0-8.1,3.3-8.4,7.1H580.4z"/>
</svg>
