<svg xmlns="http://www.w3.org/2000/svg" xml:space="preserve" width="300" height="275"><path fill="#dc0606" fill-rule="evenodd" d="M 0,275.00001 H 300.00001 V 0 H 0 Z"/><path fill="#fff" d="m 165.34093,37.637972 c 2.95232,-3.704187 7.37943,-7.146346 13.03505,-1.32208 6.15091,5.559267 10.82427,10.58552 9.34672,12.175586 -0.98226,1.057067 -3.44206,-0.265013 -5.1631,-1.325053 -2.21355,1.06004 -3.19859,2.912133 -3.6911,5.294253 -0.73601,2.64712 -1.47478,5.824267 -2.70606,6.08928 1.7238,7.673387 0.73877,21.701066 -1.47478,26.203266 0,7.673387 0,7.673387 0,7.673387 6.3944,12.440589 10.57526,45.790199 2.21356,61.142919 0,0 -0.24625,19.84898 -3.93458,28.58538 0,0 -3.68832,18.7919 -2.70606,28.85038 1.72103,0.79206 6.64066,3.9692 7.62568,5.8213 0.98227,1.58857 1.22852,4.2351 0.98227,5.02924 -2.21355,4.23481 -14.50983,4.49952 -19.92196,0 -1.22852,-4.2348 0.98503,-20.11696 0.49251,-29.90744 -0.73878,-9.52847 -1.72104,-13.23563 -3.19859,-25.94124 -7.86917,1.59006 -15.98461,2.38212 -25.08507,1.32505 -2.21356,10.85053 -6.14814,26.73328 -6.64065,35.99673 -0.49252,7.14635 -0.98503,27.52594 -0.98503,27.52594 0,1.85298 1.47755,3.44096 1.47755,4.76422 0.24349,2.1174 0.48975,4.76423 0.24349,6.08779 -3.19581,6.61692 -16.96964,5.82288 -19.18318,0.26472 0,-1.58828 0.24625,-5.02895 0.98502,-6.0878 0.736,-1.32325 3.93459,-3.70537 4.4271,-5.55807 0.98226,-6.88192 1.72104,-31.76102 0,-37.58529 -2.45982,-5.29425 -4.42711,-19.58695 -4.67336,-32.02456 -1.72104,-0.53003 -8.607962,-5.02924 -15.494869,-9.52845 -2.459813,8.46841 -7.133173,12.70262 -7.133173,12.70262 2.21356,11.64556 2.21356,11.64556 2.21356,11.64556 1.474773,0.26502 6.3944,2.38211 7.379426,4.23719 0.736,1.58708 0.736,2.90916 0.736,4.2342 -1.474773,2.91215 -12.050013,2.38212 -14.017306,-0.265 -6.88692,-23.55615 -6.88692,-23.55615 -6.88692,-23.55615 0,0 2.459813,-7.94137 1.22852,-18.26188 -21.888986,2.38212 -28.775612,33.3496 -31.235146,47.6423 0.245987,2.1171 0.245987,2.1171 0.245987,2.1171 0.49196,0.79206 0.49196,3.17416 0,3.70419 -1.721587,3.44216 -12.297466,3.17715 -14.511013,0 0,-1.05707 0.245947,-2.91213 0.983813,-4.49923 0.737827,-1.06004 4.427013,-3.96918 5.410933,-4.76422 4.919067,-20.90902 4.919067,-20.90902 4.919067,-20.90902 0.737653,-23.29112 6.394666,-45.52518 15.494853,-57.70077 C 43.596439,91.104531 44.826346,72.842651 54.664199,63.314185 c 0.98392,-1.06004 2.951493,-2.12008 3.690266,-1.590054 0.489747,0.265 0.246254,1.06004 -0.738773,2.912134 -6.88664,11.115533 -5.657013,26.203252 7.133173,34.409639 14.75608,-10.05848 57.798585,-11.910573 57.798585,-11.910573 0.98227,-4.5022 0.98227,-4.5022 0.98227,-4.5022 -0.49252,-1.852093 -2.21355,-9.79048 -1.72104,-13.762666 -0.49251,-0.265 -1.72104,-2.117094 -3.68834,-3.704187 -1.47754,-1.325053 -3.69109,-1.325053 -4.42709,-2.912133 -4.67336,6.61632 -3.44484,-1.58708 -2.70607,-4.764227 1.22852,-5.824266 2.21355,-14.292693 10.8215,-15.087719 1.72104,-0.265014 5.90188,0 7.62568,2.117106 1.47478,-2.38212 13.5248,-5.29128 16.23086,-4.764226 2.45982,-2.38212 18.69344,-3.174174 19.67571,-2.117107 z"/><path fill="#fff" d="m 254.26159,209.30489 c -9.99817,-1.90496 -9.99817,-1.90496 -9.99817,-1.90496 1e-5,23.5771 1e-5,23.5771 1e-5,23.5771 -36.14622,-20.72098 -36.14622,-20.72098 -36.14622,-20.72098 1e-5,36.67742 1e-5,36.67742 1e-5,36.67742 10.25284,1.90537 10.25284,1.90537 10.25284,1.90537 -1e-5,-20.4816 -1e-5,-20.4816 -1e-5,-20.4816 35.89156,21.91052 35.89156,21.91052 35.89156,21.91052 z m 15.8943,-21.43422 c -62.0387,-22.86223 -62.0387,-22.86223 -62.0387,-22.86223 0,10.95288 0,10.95288 0,10.95288 30.25092,10.48132 30.25092,10.48132 30.25092,10.48132 -30.2509,9.76329 -30.2509,9.76329 -30.2509,9.76329 0,12.14516 0,12.14516 0,12.14516 44.09353,-15.95512 44.09353,-15.95512 44.09353,-15.95512 17.94515,7.61986 17.94515,7.61986 17.94515,7.61986 z m -15.89432,-63.82571 c -32.3009,3e-5 -32.3009,3e-5 -32.3009,3e-5 -9.74236,0 -14.87021,5.95336 -14.87021,13.09898 0,6.43027 3.33397,10.71711 7.43511,13.81167 -6.40838,0.71536 -6.40838,0.71536 -6.40838,0.71536 0,10.2402 0,10.2402 0,10.2402 46.14439,-3e-5 46.14439,-3e-5 46.14439,-3e-5 0,-10.95556 0,-10.95556 0,-10.95556 -29.73697,2e-5 -29.73697,2e-5 -29.73697,2e-5 -4.6145,-3.33302 -6.41127,-6.90718 -6.41127,-10.24019 0,-3.33569 1.79676,-5.71489 7.69179,-5.71491 28.45645,-1e-5 28.45645,-1e-5 28.45645,-1e-5 z m 14.35613,-9.5275 c 1.02545,-3.33303 2.05088,-7.85832 2.05088,-15.003956 0,-12.860533 -7.43443,-19.052333 -22.81599,-19.05232 -39.73542,1.4e-5 -39.73542,1.4e-5 -39.73542,1.4e-5 0,10.478653 0,10.478653 0,10.478653 3.07441,0.238453 3.07441,0.238453 3.07441,0.238453 -2.05057,2.38188 -4.10113,6.430267 -4.10113,10.717116 0,11.67093 9.229,17.86273 23.84253,17.86272 13.33041,0 22.55941,-6.19182 22.5594,-16.90892 0,-4.286849 -2.30724,-8.573689 -5.63977,-11.194023 2.56334,0 2.56334,0 2.56334,0 5.89647,-1.3e-5 9.99818,3.09456 9.99818,9.524823 0,5.47912 -1.02528,8.57369 -2.05086,11.19402 z M 217.34617,99.751984 c 0,-2.858787 1.28052,-6.191813 3.0744,-8.096773 17.94752,-1.4e-5 17.94752,-1.4e-5 17.94752,-1.4e-5 2.56392,2.143427 4.61362,5.47644 4.61362,9.524833 0,3.81261 -2.81974,6.90717 -12.04873,6.90719 -8.71564,0 -13.58681,-2.14342 -13.58681,-8.335236 z m 36.91537,-62.636132 c -46.14439,2.7e-5 -46.14439,2.7e-5 -46.14439,2.7e-5 0,10.240186 0,10.240186 0,10.240186 3.07442,0.476907 3.07442,0.476907 3.07442,0.476907 -2.05058,2.38188 -4.10114,6.430266 -4.10114,10.478653 0,11.909386 9.99904,18.101186 24.61258,18.101173 13.32956,0 23.58382,-6.191813 23.58382,-17.147373 0,-4.048387 -2.05085,-8.335227 -5.63978,-10.95556 4.6145,-0.715373 4.6145,-0.715373 4.6145,-0.715373 z m -36.91539,19.2908 c 0,-2.856107 1.28052,-6.1918 3.0744,-8.096774 19.7414,-1.3e-5 19.7414,-1.3e-5 19.7414,-1.3e-5 2.56335,1.904973 4.61422,5.47644 4.61422,9.289053 0,3.809933 -3.84416,7.142947 -13.07316,7.14296 -8.46183,0 -14.35686,-2.143413 -14.35686,-8.335226 z"/><path fill="#fff" d="m 247.08341,28.065252 c 0,-1.90496 1.53806,-3.333013 3.58892,-3.333013 2.30725,0 3.84561,1.428053 3.84561,3.333013 0,2.143427 -1.53836,3.57416 -3.84561,3.57416 -2.05086,0 -3.58892,-1.430733 -3.58892,-3.57416 z m 6.92174,0 c 0,-1.428053 -1.53808,-2.856106 -3.33282,-2.856106 -1.79447,0 -3.07614,1.428053 -3.07614,2.856106 0,1.6692 1.28167,3.097254 3.07614,3.09724 1.79474,0 3.33282,-1.428053 3.33282,-3.09724 z m -5.38368,1.430734 c 0,-1.430734 0,-1.430734 0,-1.430734 0,-1.1896 0.25639,-1.666506 1.28196,-1.666506 0.7689,0 1.0253,0.476906 1.0253,1.19228 2.05085,-1.19228 2.05085,-1.19228 2.05085,-1.19228 0,0.71536 0,0.71536 0,0.71536 -2.05085,1.1896 -2.05085,1.1896 -2.05085,1.1896 0,0.47692 0,0.47692 0,0.47692 2.05085,0 2.05085,0 2.05085,0 0,0.71536 0,0.71536 0,0.71536 z m 1.79447,-0.71536 c 0,-0.47692 0,-0.47692 0,-0.47692 0,-0.71268 0,-1.189587 -0.76889,-1.189587 -0.51279,0 -0.51279,0.476907 -0.51279,0.951133 0,0.715374 0,0.715374 0,0.715374 z"/></svg>