<svg xmlns="http://www.w3.org/2000/svg" viewBox="0 0 24 24" id="Construction-Brick--Streamline-Ultimate" height="24" width="24"><desc>Construction Brick Streamline Icon: https://streamlinehq.com</desc><defs></defs><title>construction-brick</title><path d="m10 13.426 -9.5 0 0 5.5" fill="none" stroke="#000000" stroke-linecap="round" stroke-linejoin="round" stroke-width="1"></path><path d="m0.5 13.926 0 -5.5 12.5 0" fill="none" stroke="#000000" stroke-linecap="round" stroke-linejoin="round" stroke-width="1"></path><path d="m0.5 8.426 0 -5 11 0 0 5" fill="none" stroke="#000000" stroke-linecap="round" stroke-linejoin="round" stroke-width="1"></path><path d="m4.5 3.426 0 5" fill="none" stroke="#000000" stroke-linecap="round" stroke-linejoin="round" stroke-width="1"></path><path d="m8.5 8.426 0 5" fill="none" stroke="#000000" stroke-linecap="round" stroke-linejoin="round" stroke-width="1"></path><path d="m4.5 13.426 0 5" fill="none" stroke="#000000" stroke-linecap="round" stroke-linejoin="round" stroke-width="1"></path><path d="m16.5 18.926 0 4.5" fill="none" stroke="#000000" stroke-linecap="round" stroke-linejoin="round" stroke-width="1"></path><path d="M17 6.571a1.5 1.5 0 0 0 2.117 0.133L22.981 3.2A1.5 1.5 0 0 0 21 0.949l-3.86 3.505A1.5 1.5 0 0 0 17 6.571Z" fill="none" stroke="#000000" stroke-linecap="round" stroke-linejoin="round" stroke-width="1"></path><path d="M17.016 6.582 19.891 9.9a0.508 0.508 0 0 1 -0.047 0.709l-3.375 2.977" fill="none" stroke="#000000" stroke-linecap="round" stroke-linejoin="round" stroke-width="1"></path><path d="M14.031 10.3a1.459 1.459 0 0 1 2.5 -0.5l3.5 3.5a1.451 1.451 0 0 1 -0.5 2.5L11 19.115c-0.256 0.1 -0.384 -0.028 -0.284 -0.285Z" fill="none" stroke="#000000" stroke-linecap="round" stroke-linejoin="round" stroke-width="1"></path><path d="m18.516 18.426 4.984 0 0 5 -23 0 0 -5 7.5 0 0.5 0 0 5" fill="none" stroke="#000000" stroke-linecap="round" stroke-linejoin="round" stroke-width="1"></path></svg>
