<svg xmlns="http://www.w3.org/2000/svg" fill="none" viewBox="0 0 24 24" id="Car--Streamline-Ultimate" height="24" width="24"><desc>Car Streamline Icon: https://streamlinehq.com</desc><path stroke="#000000" stroke-linecap="round" stroke-linejoin="round" d="M4.58985 9.58984H19.4099c1.0608 0 2.0782 0.42146 2.8284 1.17156 0.7501 0.7502 1.1716 1.7676 1.1716 2.8284v1.94c0 0.2627 -0.0518 0.5228 -0.1523 0.7654 -0.1005 0.2427 -0.2478 0.4631 -0.4335 0.6489 -0.1858 0.1857 -0.4062 0.333 -0.6489 0.4335 -0.2426 0.1005 -0.5027 0.1522 -0.7653 0.1522H2.59985c-0.53043 0 -1.03914 -0.2107 -1.41421 -0.5857 -0.375073 -0.3751 -0.585786 -0.8838 -0.585786 -1.4143v-1.94c-0.000004 -1.0591 0.420046 -2.075 1.168036 -2.8249 0.74798 -0.7498 1.76283 -1.17241 2.82196 -1.17506v0Z" stroke-width="1"></path><path stroke="#000000" stroke-linecap="round" stroke-linejoin="round" d="M4.07008 15.5498c0.8229 0 1.49 -0.6671 1.49 -1.49s-0.6671 -1.49 -1.49 -1.49c-0.82291 0 -1.49 0.6671 -1.49 1.49s0.66709 1.49 1.49 1.49Z" stroke-width="1"></path><path stroke="#000000" stroke-linecap="round" stroke-linejoin="round" d="M19.9299 15.5498c0.8229 0 1.49 -0.6671 1.49 -1.49s-0.6671 -1.49 -1.49 -1.49 -1.49 0.6671 -1.49 1.49 0.6671 1.49 1.49 1.49Z" stroke-width="1"></path><path stroke="#000000" stroke-linecap="round" stroke-linejoin="round" d="m4.06006 9.62982 0.72 -4.95696c0.08096 -0.46958 0.32692 -0.89484 0.69358 -1.19917 0.36667 -0.30434 0.82995 -0.46775 1.30642 -0.46083H17.2601c0.4764 -0.00692 0.9397 0.15649 1.3064 0.46083 0.3666 0.30433 0.6126 0.72959 0.6936 1.19917l0.72 4.95696" stroke-width="1"></path><path stroke="#000000" stroke-linecap="round" stroke-linejoin="round" d="M5.56006 17.5298v1.47c0 0.3978 -0.15804 0.7793 -0.43934 1.0606 -0.28131 0.2813 -0.66284 0.4394 -1.06066 0.4394 -0.39783 0 -0.77936 -0.1581 -1.06066 -0.4394 -0.28131 -0.2813 -0.43934 -0.6628 -0.43934 -1.0606v-1.47" stroke-width="1"></path><path stroke="#000000" stroke-linecap="round" stroke-linejoin="round" d="M21.4199 17.5298v1.47c0 0.3978 -0.158 0.7793 -0.4393 1.0606s-0.6629 0.4394 -1.0607 0.4394c-0.3978 0 -0.7793 -0.1581 -1.0606 -0.4394s-0.4394 -0.6628 -0.4394 -1.0606v-1.47" stroke-width="1"></path><path stroke="#000000" stroke-linecap="round" stroke-linejoin="round" d="m19.645 7.24482 1.625 -0.93497c0.3434 -0.19759 0.7513 -0.25064 1.1339 -0.1475 0.3825 0.10315 0.7085 0.35404 0.9061 0.6975 0.1975 0.34345 0.2506 0.75133 0.1475 1.13391 -0.1032 0.38257 -0.3541 0.7085 -0.6975 0.90609l-1.76 1.01" stroke-width="1"></path><path stroke="#000000" stroke-linecap="round" stroke-linejoin="round" d="m4.35944 7.25635 -1.62946 -0.94651c-0.17007 -0.09783 -0.35773 -0.16121 -0.55229 -0.18652 -0.19456 -0.02531 -0.39219 -0.01205 -0.58162 0.03903 -0.38258 0.10314 -0.708509 0.35404 -0.906095 0.69749 -0.197586 0.34346 -0.250643 0.75134 -0.147498 1.13391 0.103145 0.38258 0.354043 0.70851 0.697503 0.90609l1.76 1.01" stroke-width="1"></path></svg>
