<svg xmlns="http://www.w3.org/2000/svg" viewBox="0 0 24 24" id="E-Commerce-Apparel--Streamline-Ultimate" height="24" width="24"><desc>E Commerce Apparel Streamline Icon: https://streamlinehq.com</desc><defs></defs><title>e-commerce-apparel</title><path d="M14.862 22.453H9.138l0.24 -0.386a7.233 7.233 0 0 0 1.191 -3.614h2.862a7.233 7.233 0 0 0 1.191 3.614Z" fill="none" stroke="#000000" stroke-linecap="round" stroke-linejoin="round" stroke-width="1"></path><path d="m7.5 22.453 9 0" fill="none" stroke="#000000" stroke-linecap="round" stroke-linejoin="round" stroke-width="1"></path><path d="m0.5 15.453 23 0" fill="none" stroke="#000000" stroke-linecap="round" stroke-linejoin="round" stroke-width="1"></path><path d="M1.5 1.453h21s1 0 1 1v15s0 1 -1 1h-21s-1 0 -1 -1v-15s0 -1 1 -1" fill="none" stroke="#000000" stroke-linecap="round" stroke-linejoin="round" stroke-width="1"></path><path d="m17.5 8.453 -0.811 -3.242a1 1 0 0 0 -0.97 -0.758H13.5a1.5 1.5 0 0 1 -3 0H8.281a1 1 0 0 0 -0.97 0.758L6.5 8.453h2v4h7v-4Z" fill="none" stroke="#000000" stroke-linecap="round" stroke-linejoin="round" stroke-width="1"></path></svg>
