<svg xmlns="http://www.w3.org/2000/svg" fill="none" viewBox="0 0 24 24" id="Study-Owl--Streamline-Ultimate" height="24" width="24"><desc>Study Owl Streamline Icon: https://streamlinehq.com</desc><path stroke="#000000" stroke-linecap="round" stroke-linejoin="round" d="m12.39 5.76 6.09 -2.33c0.052 -0.02078 0.0965 -0.05665 0.1279 -0.103 0.0314 -0.04634 0.0482 -0.10103 0.0482 -0.157 0 -0.05597 -0.0168 -0.11066 -0.0482 -0.15701 -0.0314 -0.04634 -0.0759 -0.08222 -0.1279 -0.10299L12.39 0.569998c-0.2522 -0.090035 -0.5278 -0.090035 -0.78 0L4.86 3.17l6.75 2.59c0.2504 0.10015 0.5296 0.10015 0.78 0Z" stroke-width="1"></path><path stroke="#000000" stroke-linecap="round" stroke-linejoin="round" d="M16.95 7.56001v-3.55" stroke-width="1"></path><path stroke="#000000" stroke-linecap="round" stroke-linejoin="round" d="M7.05 4.01001v3.55" stroke-width="1"></path><path stroke="#000000" stroke-linecap="round" stroke-linejoin="round" d="M4.86 3.16998v3.85" stroke-width="1"></path><path stroke="#000000" stroke-linecap="round" stroke-linejoin="round" d="M15.3 12.51c1.5188 0 2.75 -1.2312 2.75 -2.74999 0 -1.51878 -1.2312 -2.75 -2.75 -2.75s-2.75 1.23122 -2.75 2.75c0 1.51879 1.2312 2.74999 2.75 2.74999Z" stroke-width="1"></path><path stroke="#000000" stroke-linecap="round" stroke-linejoin="round" d="M8.7 12.51c1.5188 0 2.75 -1.2312 2.75 -2.74999 0 -1.51878 -1.2312 -2.75 -2.75 -2.75 -1.51879 0 -2.75 1.23122 -2.75 2.75C5.95 11.2788 7.18121 12.51 8.7 12.51Z" stroke-width="1"></path><path stroke="#000000" stroke-linecap="round" stroke-linejoin="round" d="M9.64 12.35 12 14.71l2.36 -2.36" stroke-width="1"></path><path stroke="#000000" stroke-linecap="round" stroke-linejoin="round" d="M18 13.88v3.58c0 1.5913 -0.6321 3.1174 -1.7574 4.2426C15.1174 22.8279 13.5913 23.46 12 23.46c-1.5913 0 -3.11742 -0.6321 -4.24264 -1.7574C6.63214 20.5774 6 19.0513 6 17.46v-3.58" stroke-width="1"></path><path stroke="#000000" stroke-linecap="round" stroke-linejoin="round" d="M17.49 11.41H18c0.8752 0 1.7146 0.3477 2.3335 0.9666 0.6188 0.6188 0.9665 1.4582 0.9665 2.3334v2.2c0 1.456 -0.5784 2.8524 -1.608 3.882 -1.0296 1.0296 -2.426 1.608 -3.882 1.608h-0.38" stroke-width="1"></path><path stroke="#000000" stroke-linecap="round" stroke-linejoin="round" d="M6.51 11.41H6c-0.87522 0 -1.71459 0.3477 -2.33346 0.9666C3.04767 12.9954 2.7 13.8348 2.7 14.71v2.2c-0.00004 1.4491 0.57287 2.8395 1.59381 3.8679C5.31475 21.8064 6.7009 22.3894 8.15 22.4h0.38" stroke-width="1"></path><g><path stroke="#000000" d="M8.7 10.229c-0.25903 0 -0.46901 -0.21 -0.46901 -0.469 0 -0.25903 0.20998 -0.46901 0.46901 -0.46901" stroke-width="1"></path><path stroke="#000000" d="M8.69999 10.229c0.25903 0 0.46902 -0.21 0.46902 -0.469 0 -0.25903 -0.20999 -0.46901 -0.46902 -0.46901" stroke-width="1"></path></g><g><path stroke="#000000" d="M15.3 10.229c-0.259 0 -0.469 -0.21 -0.469 -0.469 0 -0.25903 0.21 -0.46901 0.469 -0.46901" stroke-width="1"></path><path stroke="#000000" d="M15.3 10.229c0.259 0 0.469 -0.21 0.469 -0.469 0 -0.25903 -0.21 -0.46901 -0.469 -0.46901" stroke-width="1"></path></g></svg>
