<svg id="Chess-Knight--Streamline-Ultimate" xmlns="http://www.w3.org/2000/svg" viewBox="0 0 24 24" height="24" width="24"><desc>Chess Knight Streamline Icon: https://streamlinehq.com</desc><defs></defs><title>chess-knight</title><path d="M4.5 20.5h15s1 0 1 1v1s0 1 -1 1h-15s-1 0 -1 -1v-1s0 -1 1 -1" fill="none" stroke="#000000" stroke-linecap="round" stroke-linejoin="round" stroke-width="1"></path><path d="M19.5 20.5a2 2 0 0 0 -2 -2h-11a2 2 0 0 0 -2 2Z" fill="none" stroke="#000000" stroke-linecap="round" stroke-linejoin="round" stroke-width="1"></path><path d="M9.967 0.684A10.5 10.5 0 0 1 18.5 11v5.5" fill="none" stroke="#000000" stroke-linecap="round" stroke-linejoin="round" stroke-width="1"></path><path d="M6.5 18.5h11a9.468 9.468 0 0 1 -1 -4.236V11a8.5 8.5 0 0 0 -7.728 -8.465A3.475 3.475 0 0 0 6 0.5a0.5 0.5 0 0 0 -0.5 0.5v2.258A4.5 4.5 0 0 0 3.5 7v4.5a1 1 0 0 0 1 1h1a1.333 1.333 0 0 0 1.28 -0.96l0.42 -1.44a0.834 0.834 0 0 1 0.8 -0.6A1.5 1.5 0 0 0 9.5 8a9.9 9.9 0 0 1 -1.493 5.219A9.95 9.95 0 0 0 6.5 18.5Z" fill="none" stroke="#000000" stroke-linecap="round" stroke-linejoin="round" stroke-width="1"></path></svg>
