<svg viewBox="0 0 24 24" xmlns="http://www.w3.org/2000/svg" id="Hospital-House--Streamline-Ultimate" height="24" width="24"><desc>Hospital House Streamline Icon: https://streamlinehq.com</desc><path d="M16.5 13a0.5 0.5 0 0 0 -0.5 -0.5h-2.5V10a0.5 0.5 0 0 0 -0.5 -0.5h-2a0.5 0.5 0 0 0 -0.5 0.5v2.5H8a0.5 0.5 0 0 0 -0.5 0.5v2a0.5 0.5 0 0 0 0.5 0.5h2.5V18a0.5 0.5 0 0 0 0.5 0.5h2a0.5 0.5 0 0 0 0.5 -0.5v-2.5H16a0.5 0.5 0 0 0 0.5 -0.5Z" fill="none" stroke="#000000" stroke-linecap="round" stroke-linejoin="round" stroke-width="1"></path><path d="M3.5 11.5v11a1 1 0 0 0 1 1h15a1 1 0 0 0 1 -1v-11" fill="none" stroke="#000000" stroke-linecap="round" stroke-linejoin="round" stroke-width="1"></path><path d="M0.5 11 12 0.5 23.5 11" fill="none" stroke="#000000" stroke-linecap="round" stroke-linejoin="round" stroke-width="1"></path></svg>
