<svg viewBox="0 0 24 24" xmlns="http://www.w3.org/2000/svg" id="Light-Bulb--Streamline-Ultimate" height="24" width="24"><desc>Light Bulb Streamline Icon: https://streamlinehq.com</desc><path d="M4.014 8.5a8 8 0 1 0 16 0 8 8 0 1 0 -16 0Z" fill="none" stroke="#000000" stroke-linecap="round" stroke-linejoin="round" stroke-width="1"></path><path d="m9.514 18.5 5 0" fill="none" stroke="#000000" stroke-linecap="round" stroke-linejoin="round" stroke-width="1"></path><path d="m9.514 20.5 5 0" fill="none" stroke="#000000" stroke-linecap="round" stroke-linejoin="round" stroke-width="1"></path><path d="m9.514 22.5 5 0" fill="none" stroke="#000000" stroke-linecap="round" stroke-linejoin="round" stroke-width="1"></path><path d="m12.014 22.5 0 1" fill="none" stroke="#000000" stroke-linecap="round" stroke-linejoin="round" stroke-width="1"></path><path d="m15.014 11.5 -1.147 1.146a0.5 0.5 0 0 1 -0.707 0L12.014 11.5l-1.147 1.146a0.5 0.5 0 0 1 -0.707 0L9.014 11.5" fill="none" stroke="#000000" stroke-linecap="round" stroke-linejoin="round" stroke-width="1"></path><path d="m12.014 11.5 0 5" fill="none" stroke="#000000" stroke-linecap="round" stroke-linejoin="round" stroke-width="1"></path></svg>
