<svg viewBox="0 0 24 24" xmlns="http://www.w3.org/2000/svg" id="Advertising-Megaphone--Streamline-Ultimate" height="24" width="24"><desc>Advertising Megaphone Streamline Icon: https://streamlinehq.com</desc><path d="m0.594 19.532 1.679 2.53" fill="none" stroke="#000000" stroke-linecap="round" stroke-linejoin="round" stroke-width="1"></path><path d="m9.879 8.265 6.381 9.613" fill="none" stroke="#000000" stroke-linecap="round" stroke-linejoin="round" stroke-width="1"></path><path d="M15.925 17.372 1.937 21.556 0.93 20.038l9.284 -11.267 5.711 8.601z" fill="none" stroke="#000000" stroke-linecap="round" stroke-linejoin="round" stroke-width="1"></path><path d="M9.216 19.378a2.125 2.125 0 1 1 -3.368 2.578l-0.877 -1.321" fill="none" stroke="#000000" stroke-linecap="round" stroke-linejoin="round" stroke-width="1"></path><path d="m3.588 12.46 -0.671 -0.711a0.5 0.5 0 0 1 0 -0.686l1.8 -1.9 -0.6 -2.546a0.5 0.5 0 0 1 0.344 -0.594l2.508 -0.747 0.747 -2.508a0.5 0.5 0 0 1 0.584 -0.347l2.545 0.605 1.9 -1.8a0.5 0.5 0 0 1 0.686 0l1.9 1.8 2.546 -0.6a0.5 0.5 0 0 1 0.594 0.344l0.747 2.508 2.508 0.747a0.5 0.5 0 0 1 0.344 0.6l-0.596 2.535 1.8 1.9a0.5 0.5 0 0 1 0 0.686l-1.8 1.9 0.605 2.545a0.5 0.5 0 0 1 -0.344 0.595l-2.508 0.747 -0.747 2.508a0.5 0.5 0 0 1 -0.595 0.343l-2.545 -0.6 -1.9 1.8a0.5 0.5 0 0 1 -0.686 0l-0.361 -0.341" fill="none" stroke="#000000" stroke-linecap="round" stroke-linejoin="round" stroke-width="1"></path></svg>
