<svg xmlns="http://www.w3.org/2000/svg" fill="none" viewBox="0 0 24 24" id="Phone-Hand-Typing--Streamline-Ultimate" height="24" width="24"><desc>Phone Hand Typing Streamline Icon: https://streamlinehq.com</desc><path stroke="#000000" stroke-linecap="round" stroke-linejoin="round" d="M21.5 10v11.5c0 0.5304 -0.2107 1.0391 -0.5858 1.4142S20.0304 23.5 19.5 23.5h-9c-0.53043 0 -1.03914 -0.2107 -1.41421 -0.5858C8.71071 22.5391 8.5 22.0304 8.5 21.5V16" stroke-width="1"></path><path stroke="#000000" stroke-linecap="round" stroke-linejoin="round" d="M8.5 12V4.50003c0.00032 -0.39258 0.11617 -0.77639 0.33312 -1.10358 0.21694 -0.3272 0.52538 -0.58331 0.88688 -0.73642" stroke-width="1"></path><path stroke="#000000" stroke-linecap="round" stroke-linejoin="round" d="M21.5 19.5h-13" stroke-width="1"></path><path stroke="#000000" stroke-linecap="round" stroke-linejoin="round" d="M8.5 16h3c0.5304 0 1.0391 -0.2107 1.4142 -0.5858S13.5 14.5304 13.5 14c0 -0.5304 -0.2107 -1.0391 -0.5858 -1.4142S12.0304 12 11.5 12H6" stroke-width="1"></path><path stroke="#000000" stroke-linecap="round" stroke-linejoin="round" d="M6.5 19c0.59464 -0.2434 1.10285 -0.6592 1.45926 -1.1938C8.31568 17.2716 8.504 16.6425 8.5 16" stroke-width="1"></path><path stroke="#000000" stroke-linecap="round" stroke-linejoin="round" d="M8.5 7h-2c-1.5913 0 -3.11742 0.63214 -4.24264 1.75736C1.13214 9.88258 0.5 11.4087 0.5 13v5.55c0 1.51 0.67 2.23 2 2.95v2" stroke-width="1"></path><path stroke="#000000" stroke-linecap="round" stroke-linejoin="round" d="M19.75 0.5h-4.5c-0.9938 0.002639 -1.946 0.398575 -2.6487 1.10127 -0.7027 0.70269 -1.0987 1.65498 -1.1013 2.64873 0 2.14 1.35 3.75 5 3.75v2l3 -2c0.68 0 4 -0.35 4 -3.75 -0.0026 -0.99375 -0.3986 -1.94604 -1.1013 -2.64873C21.696 0.898575 20.7438 0.502639 19.75 0.5v0Z" stroke-width="1"></path><g><path stroke="#000000" d="M15 4.75c-0.1381 0 -0.25 -0.11193 -0.25 -0.25s0.1119 -0.25 0.25 -0.25" stroke-width="1"></path><path stroke="#000000" d="M15 4.75c0.1381 0 0.25 -0.11193 0.25 -0.25s-0.1119 -0.25 -0.25 -0.25" stroke-width="1"></path></g><g><path stroke="#000000" d="M18 4.75c-0.1381 0 -0.25 -0.11193 -0.25 -0.25s0.1119 -0.25 0.25 -0.25" stroke-width="1"></path><path stroke="#000000" d="M18 4.75c0.1381 0 0.25 -0.11193 0.25 -0.25s-0.1119 -0.25 -0.25 -0.25" stroke-width="1"></path></g><g><path stroke="#000000" d="M15 21.75c-0.1381 0 -0.25 -0.1119 -0.25 -0.25s0.1119 -0.25 0.25 -0.25" stroke-width="1"></path><path stroke="#000000" d="M15 21.75c0.1381 0 0.25 -0.1119 0.25 -0.25s-0.1119 -0.25 -0.25 -0.25" stroke-width="1"></path></g><g><path stroke="#000000" d="M21 4.75c-0.1381 0 -0.25 -0.11193 -0.25 -0.25s0.1119 -0.25 0.25 -0.25" stroke-width="1"></path><path stroke="#000000" d="M21 4.75c0.1381 0 0.25 -0.11193 0.25 -0.25s-0.1119 -0.25 -0.25 -0.25" stroke-width="1"></path></g></svg>
