<svg viewBox="0 0 24 24" xmlns="http://www.w3.org/2000/svg" id="Network--Streamline-Ultimate" height="24" width="24"><desc>Network Streamline Icon: https://streamlinehq.com</desc><path d="M0.536 11.998a11.5 11.5 0 1 0 23 0 11.5 11.5 0 1 0 -23 0Z" fill="none" stroke="#000000" stroke-linecap="round" stroke-linejoin="round" stroke-width="1"></path><path d="M6.536 7.748a2.25 2.25 0 1 0 4.5 0 2.25 2.25 0 1 0 -4.5 0Z" fill="none" stroke="#000000" stroke-linecap="round" stroke-linejoin="round" stroke-width="1"></path><path d="M13.036 17.748a1.25 1.25 0 1 0 2.5 0 1.25 1.25 0 1 0 -2.5 0Z" fill="none" stroke="#000000" stroke-linecap="round" stroke-linejoin="round" stroke-width="1"></path><path d="M17.036 10.248a1.75 1.75 0 1 0 3.5 0 1.75 1.75 0 1 0 -3.5 0Z" fill="none" stroke="#000000" stroke-linecap="round" stroke-linejoin="round" stroke-width="1"></path><path d="M11.036 7.5a9.307 9.307 0 0 1 6 2.5" fill="none" stroke="#000000" stroke-linecap="round" stroke-linejoin="round" stroke-width="1"></path><path d="m19.135 11.964 0.4 0.534s1.5 2 1.5 6.5" fill="none" stroke="#000000" stroke-linecap="round" stroke-linejoin="round" stroke-width="1"></path><path d="m16.859 1.555 0.177 0.445a19.176 19.176 0 0 1 1 6.662" fill="none" stroke="#000000" stroke-linecap="round" stroke-linejoin="round" stroke-width="1"></path><path d="M17.536 11.5a10.3 10.3 0 0 1 -2.136 5.681" fill="none" stroke="#000000" stroke-linecap="round" stroke-linejoin="round" stroke-width="1"></path><path d="m13.688 18.846 -0.152 0.154s-2.5 2.5 -8 2.5" fill="none" stroke="#000000" stroke-linecap="round" stroke-linejoin="round" stroke-width="1"></path><path d="M12.036 0.5a17.085 17.085 0 0 0 -3.25 5" fill="none" stroke="#000000" stroke-linecap="round" stroke-linejoin="round" stroke-width="1"></path><path d="M7.618 9.672 7.536 10a12.694 12.694 0 0 0 1 8c1.7 3.406 6 5 6 5l0.373 0.139" fill="none" stroke="#000000" stroke-linecap="round" stroke-linejoin="round" stroke-width="1"></path><path d="M6.536 7.748S2.7 8.023 0.761 9.721" fill="none" stroke="#000000" stroke-linecap="round" stroke-linejoin="round" stroke-width="1"></path><path d="m0.816 14.532 0.22 -0.034s6.881 -1.058 12.474 2.27" fill="none" stroke="#000000" stroke-linecap="round" stroke-linejoin="round" stroke-width="1"></path></svg>
