<svg xmlns="http://www.w3.org/2000/svg" fill="none" viewBox="0 0 24 24" id="Software-Notebook-Cog-1--Streamline-Ultimate" height="24" width="24"><desc>Software Notebook Cog 1 Streamline Icon: https://streamlinehq.com</desc><path stroke="#000000" stroke-linecap="round" stroke-linejoin="round" stroke-miterlimit="10" d="M2.96284 16.4995 0.870161 21.0741c-0.199302 0.3978 -0.199296 0.9945 0.099657 1.3923 0.298952 0.3977 0.797212 0.6961 1.295472 0.6961H21.6972c0.598 0 0.9966 -0.2984 1.2955 -0.6961 0.299 -0.3978 0.299 -0.8951 0.0997 -1.3923L20.9 16.4995m-17.93716 0H20.9m-17.93716 0v-2.1878M20.9 16.4995V6.75365c0 -0.79558 -0.6975 -1.49171 -1.4947 -1.49171h-5.7798" stroke-width="1"></path><path stroke="#000000" stroke-linecap="round" stroke-linejoin="round" stroke-miterlimit="10" d="M10.4865 20.1791h2.9895" stroke-width="1"></path><path stroke="#000000" stroke-linecap="round" stroke-linejoin="round" stroke-miterlimit="10" d="M13.9244 9.1404h3.9861" stroke-width="1"></path><path stroke="#000000" stroke-linecap="round" stroke-linejoin="round" stroke-miterlimit="10" d="M13.9244 12.6211h2.4913" stroke-width="1"></path><path stroke="#000000" stroke-linecap="round" stroke-linejoin="round" stroke-miterlimit="10" d="M9.97064 12.6625h0.99996" stroke-width="1"></path><path stroke="#000000" stroke-linecap="round" stroke-linejoin="round" stroke-miterlimit="10" d="m6.88068 1.625 0.4 1.20001c0.1 0.4 0.6 0.7 1 0.6l1.2 -0.30001c1.10002 -0.2 1.80002 1.00001 1.10002 1.80001l-0.90002 0.9c-0.3 0.3 -0.3 0.8 0 1.1l0.90002 0.9c0.7 0.8 0 2.09999 -1.10002 1.79999l-1.2 -0.29999c-0.4 -0.1 -0.9 0.1 -1 0.6l-0.4 1.19999c-0.3 1.1 -1.8 1.1 -2.1 0l-0.4 -1.19999c-0.1 -0.4 -0.6 -0.7 -1 -0.6l-1.2 0.29999c-1.1 0.2 -1.799999 -0.99999 -1.1 -1.79999l0.9 -0.9c0.3 -0.3 0.3 -0.8 0 -1.1l-0.9 -0.9c-0.699999 -0.8 0 -2.10001 1.1 -1.80001l1.2 0.30001c0.4 0.1 0.9 -0.1 1 -0.6l0.4 -1.20001c0.3 -1.099997 1.8 -1.099997 2.1 0Z" stroke-width="1"></path><path stroke="#000000" d="M4.331 6.375a1.5 1.5 0 1 0 3 0 1.5 1.5 0 1 0 -3 0" stroke-width="1"></path></svg>
