<svg viewBox="0 0 24 24" xmlns="http://www.w3.org/2000/svg" id="Programming-User-Head--Streamline-Ultimate" height="24" width="24"><desc>Programming User Head Streamline Icon: https://streamlinehq.com</desc><path d="m11.5 20.5 1 0" fill="none" stroke="#000000" stroke-linecap="round" stroke-linejoin="round" stroke-width="1"></path><path d="M18 14.5a6 6 0 0 0 -12 0v2a6 6 0 0 0 12 0Z" fill="none" stroke="#000000" stroke-linecap="round" stroke-linejoin="round" stroke-width="1"></path><path d="M6 14.481C7.288 14.37 9.5 13 9.5 11c1.5 2.5 3.5 3.5 6.5 3.5h2" fill="none" stroke="#000000" stroke-linecap="round" stroke-linejoin="round" stroke-width="1"></path><path d="M6 16.786c0 0.946 1.766 1.714 2.917 1.714A1.926 1.926 0 0 0 11 16.786c0 -0.947 -0.933 -1.286 -2.083 -1.286S6 15.839 6 16.786Z" fill="none" stroke="#000000" stroke-linecap="round" stroke-linejoin="round" stroke-width="1"></path><path d="M18 16.786c0 0.946 -1.766 1.714 -2.917 1.714A1.926 1.926 0 0 1 13 16.786c0 -0.947 0.933 -1.286 2.083 -1.286S18 15.839 18 16.786Z" fill="none" stroke="#000000" stroke-linecap="round" stroke-linejoin="round" stroke-width="1"></path><path d="m13 16.5 -2 0" fill="none" stroke="#000000" stroke-linecap="round" stroke-linejoin="round" stroke-width="1"></path><path d="M20.5 1.5h0.5a0.5 0.5 0 0 1 0.5 0.5v3.5" fill="none" stroke="#000000" stroke-linecap="round" stroke-linejoin="round" stroke-width="1"></path><path d="m20.5 5.5 2 0" fill="none" stroke="#000000" stroke-linecap="round" stroke-linejoin="round" stroke-width="1"></path><path d="M20.5 8.5h0.5a0.5 0.5 0 0 1 0.5 0.5v3.5" fill="none" stroke="#000000" stroke-linecap="round" stroke-linejoin="round" stroke-width="1"></path><path d="m20.5 12.5 2 0" fill="none" stroke="#000000" stroke-linecap="round" stroke-linejoin="round" stroke-width="1"></path><path d="M1.5 1.5H2a0.5 0.5 0 0 1 0.5 0.5v3.5" fill="none" stroke="#000000" stroke-linecap="round" stroke-linejoin="round" stroke-width="1"></path><path d="m1.5 5.5 2 0" fill="none" stroke="#000000" stroke-linecap="round" stroke-linejoin="round" stroke-width="1"></path><path d="M1.5 16.5H2a0.5 0.5 0 0 1 0.5 0.5v3.5" fill="none" stroke="#000000" stroke-linecap="round" stroke-linejoin="round" stroke-width="1"></path><path d="m1.5 20.5 2 0" fill="none" stroke="#000000" stroke-linecap="round" stroke-linejoin="round" stroke-width="1"></path><path d="M16.5 4.5a1 1 0 0 1 -2 0v-2a1 1 0 0 1 2 0Z" fill="none" stroke="#000000" stroke-linecap="round" stroke-linejoin="round" stroke-width="1"></path><path d="M22.5 19.5a1 1 0 0 1 -2 0v-2a1 1 0 0 1 2 0Z" fill="none" stroke="#000000" stroke-linecap="round" stroke-linejoin="round" stroke-width="1"></path><path d="M9.5 4.5a1 1 0 0 1 -2 0v-2a1 1 0 0 1 2 0Z" fill="none" stroke="#000000" stroke-linecap="round" stroke-linejoin="round" stroke-width="1"></path><path d="M3.5 11.5a1 1 0 0 1 -2 0v-2a1 1 0 0 1 2 0Z" fill="none" stroke="#000000" stroke-linecap="round" stroke-linejoin="round" stroke-width="1"></path></svg>
