<svg xmlns="http://www.w3.org/2000/svg" fill="none" viewBox="0 0 24 24" id="Radio-Antenna-1--Streamline-Ultimate" height="24" width="24"><desc>Radio Antenna 1 Streamline Icon: https://streamlinehq.com</desc><path stroke="#000000" stroke-linecap="round" stroke-linejoin="round" d="M20.5 8.5h-17c-1.65685 0 -3 1.34315 -3 3v9c0 1.6569 1.34315 3 3 3h17c1.6569 0 3 -1.3431 3 -3v-9c0 -1.65685 -1.3431 -3 -3 -3Z" stroke-width="1"></path><path stroke="#000000" stroke-linecap="round" stroke-linejoin="round" d="M7.996 21.492c3.0354 0 5.496 -2.4606 5.496 -5.496 0 -3.0354 -2.4606 -5.496 -5.496 -5.496 -3.03536 0 -5.496 2.4606 -5.496 5.496 0 3.0354 2.46064 5.496 5.496 5.496Z" stroke-width="1"></path><path stroke="#000000" stroke-linecap="round" stroke-linejoin="round" d="M7.38499 12.943h1.221" stroke-width="1"></path><path stroke="#000000" stroke-linecap="round" stroke-linejoin="round" d="M8.60599 19.049h-1.221" stroke-width="1"></path><path stroke="#000000" stroke-linecap="round" stroke-linejoin="round" d="m5.04601 14.998 0.611 -1.058" stroke-width="1"></path><path stroke="#000000" stroke-linecap="round" stroke-linejoin="round" d="m10.945 16.993 -0.611 1.058" stroke-width="1"></path><path stroke="#000000" stroke-linecap="round" stroke-linejoin="round" d="m5.65701 18.051 -0.611 -1.058" stroke-width="1"></path><path stroke="#000000" stroke-linecap="round" stroke-linejoin="round" d="m10.334 13.94 0.611 1.058" stroke-width="1"></path><path stroke="#000000" stroke-linecap="round" stroke-linejoin="round" d="M20.5 8.5 0.5 0.5" stroke-width="1"></path><path stroke="#000000" stroke-linecap="round" stroke-linejoin="round" d="M20.5 20.491h-4" stroke-width="1"></path><path stroke="#000000" stroke-linecap="round" stroke-linejoin="round" d="M20.5 18.491h-4" stroke-width="1"></path><path stroke="#000000" stroke-linecap="round" stroke-linejoin="round" d="M20.5 16.491h-4" stroke-width="1"></path><path stroke="#000000" stroke-linecap="round" stroke-linejoin="round" d="M18.5 13.991c0.8284 0 1.5 -0.6715 1.5 -1.5 0 -0.8284 -0.6716 -1.5 -1.5 -1.5s-1.5 0.6716 -1.5 1.5c0 0.8285 0.6716 1.5 1.5 1.5Z" stroke-width="1"></path><path stroke="#000000" d="M8 16.25c-0.13807 0 -0.25 -0.1119 -0.25 -0.25s0.11193 -0.25 0.25 -0.25" stroke-width="1"></path><path stroke="#000000" d="M8 16.25c0.13807 0 0.25 -0.1119 0.25 -0.25s-0.11193 -0.25 -0.25 -0.25" stroke-width="1"></path></svg>
