<svg xmlns="http://www.w3.org/2000/svg" viewBox="0 0 24 24" id="Robot--Streamline-Ultimate" height="24" width="24"><desc>Robot Streamline Icon: https://streamlinehq.com</desc><g><path d="M6 0.5h12s1.5 0 1.5 1.5v6s0 1.5 -1.5 1.5H6S4.5 9.5 4.5 8V2S4.5 0.5 6 0.5" fill="none" stroke="#000000" stroke-linecap="round" stroke-linejoin="round" stroke-width="1"></path><path d="M6.5 5a1.5 1.5 0 1 0 3 0 1.5 1.5 0 1 0 -3 0" fill="none" stroke="#000000" stroke-linecap="round" stroke-linejoin="round" stroke-width="1"></path><path d="M14.5 5a1.5 1.5 0 1 0 3 0 1.5 1.5 0 1 0 -3 0" fill="none" stroke="#000000" stroke-linecap="round" stroke-linejoin="round" stroke-width="1"></path><path d="m10.5 11.5 3 0" fill="none" stroke="#000000" stroke-linecap="round" stroke-linejoin="round" stroke-width="1"></path><path d="m10.5 13.5 3 0" fill="none" stroke="#000000" stroke-linecap="round" stroke-linejoin="round" stroke-width="1"></path><path d="M15.34 15.5H8.66a3.66 3.66 0 0 0 -3.58 4.43l0.47 3.17a0.49 0.49 0 0 0 0.49 0.4H18a0.49 0.49 0 0 0 0.49 -0.4l0.47 -3.17a3.66 3.66 0 0 0 -3.62 -4.43Z" fill="none" stroke="#000000" stroke-linecap="round" stroke-linejoin="round" stroke-width="1"></path><path d="m19 18.78 1.71 -1.61A3.64 3.64 0 0 0 22 13.5l0 -0.19" fill="none" stroke="#000000" stroke-linecap="round" stroke-linejoin="round" stroke-width="1"></path><path d="M23 9.5a2.5 2.5 0 0 1 -2 4 2.49 2.49 0 0 1 -2 -1" fill="none" stroke="#000000" stroke-linecap="round" stroke-linejoin="round" stroke-width="1"></path><path d="m5 18.78 -1.69 -1.61A3.64 3.64 0 0 1 2 13.5l0 -0.2" fill="none" stroke="#000000" stroke-linecap="round" stroke-linejoin="round" stroke-width="1"></path><path d="M1 9.5a2.5 2.5 0 0 0 2 4 2.49 2.49 0 0 0 2 -1" fill="none" stroke="#000000" stroke-linecap="round" stroke-linejoin="round" stroke-width="1"></path><path d="M16 23.5V19a0.5 0.5 0 0 0 -0.5 -0.5h-7a0.5 0.5 0 0 0 -0.5 0.5v4.5" fill="none" stroke="#000000" stroke-linecap="round" stroke-linejoin="round" stroke-width="1"></path></g></svg>
