<svg viewBox="0 0 24 24" xmlns="http://www.w3.org/2000/svg" id="Shop-1--Streamline-Ultimate" height="24" width="24"><desc>Shop 1 Streamline Icon: https://streamlinehq.com</desc><path d="M3.689 2a1 1 0 0 0 -0.934 0.644L1.174 6.792a2 2 0 0 0 -0.014 1.385A2.751 2.751 0 0 0 6.5 7.25a2.75 2.75 0 0 0 5.5 0 2.75 2.75 0 0 0 5.5 0 2.751 2.751 0 0 0 5.34 0.927 1.994 1.994 0 0 0 -0.015 -1.385l-1.58 -4.148A1 1 0 0 0 20.311 2Z" fill="none" stroke="#000000" stroke-linecap="round" stroke-linejoin="round" stroke-width="1"></path><path d="m4.957 13 7 0 0 6 -7 0Z" fill="none" stroke="#000000" stroke-linecap="round" stroke-linejoin="round" stroke-width="1"></path><path d="M13.957 22v-8.5a0.5 0.5 0 0 1 0.5 -0.5h4a0.5 0.5 0 0 1 0.5 0.5V22" fill="none" stroke="#000000" stroke-linecap="round" stroke-linejoin="round" stroke-width="1"></path><path d="M20.957 9.908V21a1 1 0 0 1 -1 1h-16a1 1 0 0 1 -1 -1V9.884" fill="none" stroke="#000000" stroke-linecap="round" stroke-linejoin="round" stroke-width="1"></path></svg>
