<svg xmlns="http://www.w3.org/2000/svg" fill="none" viewBox="0 0 24 24" id="Railroad-Train--Streamline-Ultimate" height="24" width="24"><desc>Railroad Train Streamline Icon: https://streamlinehq.com</desc><path stroke="#000000" stroke-linecap="round" stroke-linejoin="round" d="M19.5 19.5c0 0.2652 -0.1054 0.5196 -0.2929 0.7071s-0.4419 0.2929 -0.7071 0.2929h-13c-0.26522 0 -0.51957 -0.1054 -0.70711 -0.2929C4.60536 20.0196 4.5 19.7652 4.5 19.5v-7l0.5 -6c0 -0.53043 0.21071 -1.03914 0.58579 -1.41421C5.96086 4.71071 6.46957 4.5 7 4.5h10c0.5304 0 1.0391 0.21071 1.4142 0.58579C18.7893 5.46086 19 5.96957 19 6.5l0.5 6v7Z" stroke-width="1"></path><path stroke="#000000" stroke-linecap="round" stroke-linejoin="round" d="M19.5 12.5h-15" stroke-width="1"></path><path stroke="#000000" stroke-linecap="round" stroke-linejoin="round" d="M10 4.5v-4" stroke-width="1"></path><path stroke="#000000" stroke-linecap="round" stroke-linejoin="round" d="M14 4.5v-4" stroke-width="1"></path><path stroke="#000000" stroke-linecap="round" stroke-linejoin="round" d="M7.5 0.5h9" stroke-width="1"></path><path stroke="#000000" stroke-linecap="round" stroke-linejoin="round" d="M8.5 18c0.82843 0 1.5 -0.6716 1.5 -1.5S9.32843 15 8.5 15 7 15.6716 7 16.5 7.67157 18 8.5 18Z" stroke-width="1"></path><path stroke="#000000" stroke-linecap="round" stroke-linejoin="round" d="M15.5 18c0.8284 0 1.5 -0.6716 1.5 -1.5s-0.6716 -1.5 -1.5 -1.5 -1.5 0.6716 -1.5 1.5 0.6716 1.5 1.5 1.5Z" stroke-width="1"></path><path stroke="#000000" stroke-linecap="round" stroke-linejoin="round" d="m6.5 20.5 -5 3" stroke-width="1"></path><path stroke="#000000" stroke-linecap="round" stroke-linejoin="round" d="m17.5 20.5 5 3" stroke-width="1"></path></svg>
